<?xml version="1.0" encoding="utf-8"?>
<!-- Generator: Adobe Illustrator 27.5.0, SVG Export Plug-In . SVG Version: 6.00 Build 0)  -->
<svg version="1.1" id="Layer_1" xmlns="http://www.w3.org/2000/svg" xmlns:xlink="http://www.w3.org/1999/xlink" x="0px" y="0px"
	 viewBox="0 0 4000 4000" style="enable-background:new 0 0 4000 4000;" xml:space="preserve">
<g>
	<g>
		<g>
			<rect style="fill:#F4C0FF;" width="4000" height="4000"/>
		</g>
	</g>
	<g>
		<g>
			<g>
				<g>
					<path style="fill:#BCBCBC;" d="M1378.681,3211.681l-27.9,119.7l-71,304.3h-93.001l14-222.6l12.8-202.85
						c7.55,0.75,68.9,1.2,161.6,1.4L1378.681,3211.681z"/>
				</g>
			</g>
			<g>
				<g>
					<path style="fill:#E56174;" d="M2013.931,3569.481c0,0-2.9,0.3-7,0.05c-8.2-0.35-21.35-2.6-26.5-12.7
						c-7.6-14.85,18.6-142.95,20.05-149.95c-2.45,17.25,10.4,78.6,25.95,131.9L2013.931,3569.481z"/>
				</g>
			</g>
			<g>
				<g>
					<path style="fill:#BCBCBC;" d="M2063.231,3256.781c0,0-6.55,13.65-15.45,32.85c-3.65,7.9-7.699,16.75-11.85,25.95
						c-15.8,35.15-33.05,75.85-35.401,91c0,0,0,0.1-0.05,0.3c-1.45,7-27.65,135.1-20.049,149.95c5.15,10.1,18.3,12.35,26.5,12.7
						v0.05l-6.75,66.1h-112.65l8.35-240.65l6.35-183.35c54.35-0.1,108.45-0.2,161-0.3c0.05,0.15,0.1,0.35,0.15,0.5
						c0,0-19,16.55-11.9,36.25C2052.381,3250.581,2056.581,3253.531,2063.231,3256.781z"/>
				</g>
			</g>
			<g>
				<g>
					<path style="fill:#FF9292;" d="M2199.031,3634.731c-1.75,9.05-4.05,16.65-7.1,21.25c-13.4,20.35-110.599-7.9-132.9-34.7
						c-9.2-11.05-21.6-44.75-32.6-82.5c-15.55-53.3-28.4-114.65-25.95-131.9c0.05-0.2,0.05-0.3,0.05-0.3
						c2.95-19.1,29.65-78.95,47.25-116.95c-4.4,89.35,3.95,170.5,22.15,245.4c0,0,6.4-0.65,16.7-0.95c28.2-1,85.45,0.2,118.2,22.75
						C2204.831,3556.831,2205.132,3603.981,2199.031,3634.731z"/>
				</g>
			</g>
			<g>
				<g>
					<path style="fill:#69C6F9;" d="M2298.431,3274.181c11.5,38.3-20.85,43.15-20.85,43.15s-69.301-15.65-131.2-32.85h-0.05
						c-34.401-9.55-66.45-19.6-83.101-27.7c-6.65-3.25-10.85-6.2-11.75-8.65c-7.1-19.7,11.9-36.25,11.9-36.25
						c-0.05-0.15-0.1-0.35-0.15-0.5c-11.15-32.9,14.15-43.3,14.15-43.3c22.1,3.3,43.95,7.2,65.5,11.6
						c41.55,8.55,82.15,19.05,122,31.3c17.15,5.2,34.15,10.75,51,16.6C2324.431,3255.731,2298.431,3274.181,2298.431,3274.181z"/>
				</g>
			</g>
			<g>
				<g>
					<path style="fill:#FDD4B6;" d="M2277.582,3317.331c-20.2,102.15-60.2,151.95-72.75,239.5c-21.4-14.8-53.4-20.4-80.8-22.2
						c-29.7-2-54.1,0.4-54.1,0.4c-18.201-74.9-26.55-156.05-22.15-245.4c8.9-19.2,15.45-32.85,15.45-32.85
						c23.3,11.35,76.901,26.5,124.65,38.8c0.35,0.1,0.7,0.2,1.05,0.25c2.451,0.65,4.901,1.3,7.351,1.85
						c0.549,0.2,1.1,0.35,1.65,0.45c0.15,0.05,0.35,0.1,0.55,0.15C2241.681,3309.231,2277.582,3317.331,2277.582,3317.331z"/>
				</g>
			</g>
			<g>
				<g>
					<path style="fill:#BCBCBC;" d="M2759.181,3635.681h-85.9l-78.55-195.4l-19.4-48.2l20.95,2.95l-14.851-93.7
						c0,0,72.9,50.2,123.45,70.65c3.05,1.25,6.35,2.3,9.8,3.25v0.05l6.95,40.6L2759.181,3635.681z"/>
				</g>
			</g>
			<g>
				<g>
					<path style="fill:#FF9292;" d="M2881.931,3346.681c-3.95,11.5-27.3,21.5-56.75,27.6c-35.8,7.45-80.6,9.15-110.5,0.95
						c-3.45-0.95-6.75-2-9.8-3.25c-50.551-20.45-123.45-70.65-123.45-70.65l14.851,93.7l-20.95-2.95l-13.25-1.85
						c-30.6-71.7-48.75-135.4-37.15-179.9c2.5-9.65,6.4-18.4,11.849-26.15c0,0,29.8,23.8,68.051,49.65
						c43.05,29.15,96.85,60.85,130.55,63.8c63.6,5.55,74.4-27.55,74.4-27.55S2891.231,3319.581,2881.931,3346.681z"/>
				</g>
			</g>
			<g>
				<g>
					<path style="fill:#FDD4B6;" d="M2809.781,3270.081c0,0-10.8,33.1-74.4,27.55c-9-0.8-19.4-3.65-30.7-7.95
						c-68.4-26-167.9-105.5-167.9-105.5l5.2-19.7l-1.8-27.35c6.6-0.85,14-2.55,22.15-5.25c17.35-5.7,47.95-14.45,77.6-24.35
						c29.299-9.8,57.65-20.75,71.5-31.2C2742.331,3153.881,2775.331,3216.981,2809.781,3270.081z"/>
				</g>
			</g>
			<g>
				<g>
					<path style="fill:#69C6F9;" d="M2720.132,3065.181c-0.551,3.6-3.651,7.3-8.701,11.15c-8.949,6.7-23.899,13.65-41.25,20.35
						c-36.85,14.3-84.45,27.5-107.85,35.2c-8.15,2.7-15.551,4.4-22.15,5.25c-26.349,3.45-39.8-7.05-35.85-27.1
						c0,0-47.1-15.6-24.299-44.85c23.65-4.75,47.5-10.95,71.6-18.45c44.7-13.85,90.1-32.3,136.15-54.7c0,0,29-9.05,9.3,42.65
						c0,0,16.55,4.45,21.801,17.8c0,0.05,0,0.05,0,0.05C2720.281,3056.081,2720.881,3060.281,2720.132,3065.181z"/>
				</g>
			</g>
			<g>
				<g>
					<path style="fill:#EFE8E4;" d="M2541.981,3164.481l-5.2,19.7c-5.449,7.75-9.349,16.5-11.849,26.15
						c-36.65,0.05-108.201,0.25-199.8,0.5c21.05-38.65,38.35-75.2,52.05-109.3c5.1-12.45,9.65-24.55,13.75-36.35h89.1
						c-10.651,13.65-6.051,24.3,1.849,31.85c9.05,8.55,22.45,13,22.45,13c-3.95,20.05,9.501,30.55,35.85,27.1L2541.981,3164.481z"/>
				</g>
			</g>
			<g>
				<g>
					<path style="fill:#EFE8E4;" d="M2732.031,2953.031c-6.4,54.65-12.85,97.55-13.149,99.45c-5.25-13.35-21.801-17.8-21.801-17.8
						c19.7-51.7-9.3-42.65-9.3-42.65c-58.05-116.2-109.7-251-180.95-328.75h121.45c0,0,58.4-0.25,92.2,34.6
						c11.851,12.2,20.651,28.8,22.85,51.2C2747.981,2796.681,2740.031,2884.181,2732.031,2953.031z"/>
				</g>
			</g>
			<g>
				<g>
					<path style="fill:#B6C2CE;" d="M2415.681,2970.181l64.35,95h-89.1C2403.031,3030.531,2411.231,2998.781,2415.681,2970.181z"/>
				</g>
			</g>
			<g>
				<g>
					<path style="fill:#69C6F9;" d="M2415.681,2970.181c-4.449,28.6-12.65,60.35-24.75,95c-15.35,44.1-37.1,92.9-65.8,145.65
						c-3,5.55-6.101,11.1-9.25,16.75c-16.85-5.85-33.85-11.4-51-16.6c-41.15-12.65-83.101-23.45-126.05-32.15
						c-20.25-4.05-40.751-7.65-61.45-10.75l19.449-102.9l13.75-72.65c-75.4-19-149.449-22.15-223.049-19.35
						c121.65-51.8,265.9-110.05,428.35-173.55c42.7-1.9,73.5,15.6,90,49.55C2419.981,2878.131,2423.731,2919.081,2415.681,2970.181z
						"/>
				</g>
			</g>
			<g>
				<g>
					<path style="fill:#B6C2CE;" d="M2110.581,2992.531l-13.75,72.65h-160.85c-19.35,0-35.85-14.05-38.85-33.2
						c-2.45-15.6-5.7-35.8-9.6-58.8C1961.131,2970.381,2035.181,2973.531,2110.581,2992.531z"/>
				</g>
			</g>
			<g>
				<g>
					<path style="fill:#69C6F9;" d="M2687.781,2992.031c-61.8,30.1-122.45,52.95-181.7,67.35c-8.7,2.15-17.4,4.05-26.05,5.8
						l-64.351-95c17.45-111.05-20.649-174.05-99.8-170.55c-162.45,63.5-306.7,121.75-428.35,173.55
						c-18.75-111.3-51.8-287.25-77.45-313.5c-6.3-6.45-16.101-10.9-28.101-13.85l48.05-3.15l355.65-28.45l192.7-15.4
						c50.3-0.3,91.95,24.55,128.45,64.45C2578.081,2741.031,2629.731,2875.831,2687.781,2992.031z"/>
				</g>
			</g>
			<g>
				<g>
					<polygon style="fill:#EFE8E4;" points="3122.632,1995.231 2913.681,2524.431 2878.981,2527.381 2871.131,2528.031 
						2216.881,2583.081 2205.881,2567.281 2187.632,2540.981 2364.031,2094.281 2396.631,2011.731 3093.431,1953.131 					"/>
				</g>
			</g>
			<g>
				<g>
					<path style="fill:#EFE8E4;" d="M2096.831,3065.181l-7.8,41.25l-11.65,61.65c0,0-25.3,10.4-14.15,43.3
						c-52.55,0.1-106.65,0.2-161,0.3c-194.05,0.2-390.3,0.3-523.55,0l-3.5-0.05l-140.049-1.2l-21.55-0.2
						c-36.45-3.75-102.65-148.05-157.2-386.8c-54.55-238.75-63.45-610.9,0-725.95c22.9-41.5,79.05-69.55,141.55-88.45
						c110.65-33.55,241.1-38.35,241.1-38.35c-52.699,63.8-74.4,151.6-78.2,253.25c-9.7,160.25-11.7,301.75-0.6,410.95
						c0.1,0.95,0.2,1.85,0.3,2.75c10.9,5.35,22.45,9.65,34.501,12.65c3.55,0.9,7.2,1.7,10.85,2.35c7.15,1.3,14.5,2.45,22,3.35
						c1.3,0.15,2.599,0.3,3.9,0.45c1.4,0.15,2.8,0.3,4.2,0.45c2.7,0.3,5.45,0.55,8.25,0.8c1.75,0.15,3.5,0.3,5.25,0.4h0.601
						c18.049,1.35,37,1.8,56.55,1.55c9.7-0.15,19.5-0.45,29.5-0.9c33.95-1.45,67.75-5.15,101.3-10.1c32.05-4.8,82.7-10.5,122.15-6.5
						c8,0.8,15.55,2,22.4,3.7c12,2.95,21.8,7.4,28.101,13.85c25.649,26.25,58.7,202.2,77.45,313.5c3.9,23,7.15,43.2,9.6,58.8
						c3,19.15,19.5,33.2,38.85,33.2H2096.831z"/>
				</g>
			</g>
			<g>
				<g>
					<path style="fill:#B28574;" d="M1516.581,2577.781c0,0-3.25,56.35-9.95,81.85c-27.75,0.35-54.25-0.65-78.75-3.65
						c8.6-39.7,16.7-79.9,25.6-119.3C1472.031,2556.581,1493.281,2569.731,1516.581,2577.781z"/>
				</g>
			</g>
			<g>
				<g>
					<path style="fill:#FF9292;" d="M1768.832,2343.081c-36.051-4.45-63.651-18.95-82.85-43.5c-19.45-24.8-30.3-59.9-32.55-105.25
						c17.65-8.05,36.85-12.2,56.25-12.95c17.049-0.65,33.65-1.3,49.9-2.05c1.25,16.55,2.4,32.8,3.4,48.8
						C1765.581,2268.181,1767.531,2306.481,1768.832,2343.081z"/>
				</g>
			</g>
			<g>
				<g>
					<path style="fill:#FF9292;" d="M1767.781,2552.431c-1.8,32.3-4.55,62.2-8.2,89.7c-10.5-1.05-21.8-1.45-33.3-1.3
						c-31.8,0.25-65.35,4.3-88.85,7.8c-33.55,4.95-67.35,8.65-101.3,10.1c-10,0.45-19.8,0.75-29.5,0.9
						c6.7-25.5,9.95-81.85,9.95-81.85c39.35,13.6,84.7,12.5,132.95,4.2C1687.631,2575.381,1727.531,2564.331,1767.781,2552.431z"/>
				</g>
			</g>
			<g>
				<g>
					<polygon style="fill:#BECAD3;" points="2871.131,2528.031 2874.731,2559.131 2378.381,2598.831 1830.031,2642.681 
						1828.681,2598.831 2003.381,2584.231 2205.881,2567.281 2216.881,2583.081 					"/>
				</g>
			</g>
			<g>
				<g>
					<path style="fill:#B28574;" d="M2005.381,2484.931c0.15,33.95-0.5,67.1-2,99.3l-174.7,14.6l1.35,43.85l-48.05,3.15
						c-6.85-1.7-14.4-2.9-22.4-3.7c3.65-27.5,6.4-57.4,8.2-89.7c17.55-5.2,35.2-10.55,52.75-15.75c-0.95-2.3-1.9-4.6-2.75-6.85
						c29.6,22.9,86.05-1.5,86.05-1.5s13.55-2.25,48.7,11.15c35.15,13.4,36.85,1.3,34.25-10.05c-2.65-11.3-45.75-51.65-45.75-51.65
						l7.8-9.7C1948.831,2468.081,1982.131,2480.081,2005.381,2484.931z"/>
				</g>
			</g>
			<g>
				<g>
					<path style="fill:#FDD4B6;" d="M2075.281,2399.831c-18.55-1.8-54.95-16.15-57.2-17.05c0,0,0,0-0.05,0c0,0,0.05,0,0.05,0.05
						c2.55,2.2,43.251,37.45,42.85,49c-0.35,11.9-25.25,29-25.25,29s-1.899,15.8-8.75,24.35c-2.2,2.7-10.799,2-21.55-0.25
						c-23.25-4.85-56.55-16.85-56.55-16.85l-7.8,9.7c0,0,43.1,40.35,45.749,51.65c2.6,11.35,0.9,23.45-34.249,10.05
						c-35.15-13.4-48.7-11.15-48.7-11.15s-56.45,24.4-86.051,1.5c-32.65-84.75-0.6-133.95,37.5-179.9c0.05-0.05,0.15-0.15,0.2-0.25
						c3.95-4.75,7.951-9.45,11.951-14.15c0,0,82.5-18.6,119.7-19.35c3.75-0.1,7.85,0.3,12.1,1.05
						c37.951,6.4,92.35,41.35,98.701,51.75C2105.031,2380.531,2094.431,2401.681,2075.281,2399.831z"/>
				</g>
			</g>
			<g>
				<g>
					<path style="fill:#FF9292;" d="M1817.781,2529.831c0.85,2.25,1.8,4.55,2.75,6.85c-17.55,5.2-35.2,10.55-52.75,15.75
						c-91.25,27-180.75,49.65-251.2,25.35c-23.3-8.05-44.55-21.2-63.1-41.1c33.5-148.95,77.8-286.55,199.95-342.35
						c2.75,55.25,18.25,95.3,46.55,120c17.85,15.7,40.799,25.25,68.85,28.75c27.85,3.5,60.699,0.95,98.6-7.55
						c-37.7,44.4-75.5,88.65-59.3,162.6C1810.281,2508.131,1813.481,2518.681,1817.781,2529.831z"/>
				</g>
			</g>
			<g>
				<g>
					<path style="fill:#CCB09E;" d="M1999.231,2317.231c-4.249-0.75-8.35-1.15-12.1-1.05c-37.2,0.75-119.7,19.35-119.7,19.35
						c-37.9,8.5-70.75,11.05-98.6,7.55c-0.451-12.4-0.95-24.95-1.55-37.75c-1.801-40.05-4.4-82.1-7.7-126
						c86.15-3.75,161.35-8.6,226.15-15.75c2.05,19.15,4,38.15,5.75,56.95C1994.581,2253.281,1997.181,2285.531,1999.231,2317.231z"
						/>
				</g>
			</g>
			<g>
				<g>
					<path style="fill:#FF9292;" d="M2364.031,2094.281l-28.949,73.35l-4.25,10.65c-0.05,0.2-0.15,0.35-0.2,0.55l-142.999,362.15
						l18.25,26.3l-141.95,11.9l-60.55,5.05c1.5-32.2,2.15-65.35,2-99.3c10.75,2.25,19.35,2.95,21.55,0.25
						c6.851-8.55,8.75-24.35,8.75-24.35s24.9-17.1,25.25-29c0.4-11.9-42.951-49.1-42.951-49.1s38.151,15.25,57.3,17.1
						c19.15,1.85,29.75-19.3,22.65-30.85c-6.35-10.4-60.75-45.35-98.701-51.75c-2.049-31.7-4.65-63.95-7.75-96.7
						c-1.75-18.8-3.7-37.8-5.75-56.95c207-22.8,307.9-68.6,320.4-175.45c0,0,10.649,14.35,25,39.5
						C2341.081,2045.081,2352.831,2067.681,2364.031,2094.281z"/>
				</g>
			</g>
			<g>
				<g>
					<path style="fill:#CCB09E;" d="M2306.981,1979.231c-0.2,3-0.5,6-0.85,8.9c-7.45,63.8-46.45,105.85-120.75,134.25
						c-50.1,19.1-116.25,32-199.65,41.2c-64.8,7.15-140,12-226.15,15.75c-16.25,0.75-32.85,1.4-49.9,2.05
						c-19.4,0.75-38.6,4.9-56.25,12.95c-122.15,55.8-166.45,193.4-199.95,342.35c-8.9,39.4-17,79.6-25.6,119.3
						c-7.5-0.9-14.85-2.05-22-3.35c-3.65-0.65-7.3-1.45-10.85-2.35c-12.051-3-23.6-7.3-34.501-12.65
						c-11.45-109.6-9.499-252.1,0.3-413.7c3.8-101.65,25.5-189.45,78.2-253.25c15.25-18.55,33.15-35.05,53.95-49.25
						c35.95-24.65,80.601-42.5,135.651-52.3c26.1-0.55,54.549-0.3,82.5,0.4c0,0,0,0,0.05,0c79.05,2.05,153.8,7.6,157.75,7.9
						c0.1,0,0.15,0,0.15,0c149.35,25.1,268.551,22.75,360.75,2.8C2283.081,1915.881,2306.981,1979.231,2306.981,1979.231z"/>
				</g>
			</g>
			<g>
				<g>
					<path style="fill:#CCB09E;" d="M2624.981,1032.131c0.549,72.35-9.501,146.9-33.101,221.05
						c-18.95,59.85-46.799,119.4-85.05,177.35c15.701-48.05,30.601-96.4,44.1-145.25c-12.9-136.1-37.35-244.2-70.55-328.35
						c-54.55-138.1-132.75-211.6-222.25-238.15c-0.05-0.05-0.05-0.05-0.05-0.05c-0.05,0-0.15,0-0.2-0.05
						c-39.5-11.7-81.15-14.25-123.95-9.15c-266.2,31.25-576.65,356.2-677.9,611.45c36.55,276.35,137.25,450.6,296.05,532.55
						c40.85,9.75,79.8,17.65,116.85,23.9c-5.35-0.4-140.45-10.45-240.3-8.3c-411.05-377.9-461.95-625.95-403.151-1021.25
						c11.4-55.05,32.35-107.05,61-155.25c235.3-395.65,991.4-535.85,1264.45,14.4
						C2595.132,801.831,2624.131,914.031,2624.981,1032.131z"/>
				</g>
			</g>
			<g>
				<g>
					<path style="fill:#FDD4B6;" d="M2506.831,1430.531c-13.55,41.35-27.7,82.5-42.2,123.5c25.1,52.25,26.85,112.55,1.05,167.8
						l-0.05,0.05c-32.4,69.35-108.25,130.7-235.8,158.35c-92.2,19.95-211.4,22.3-360.75-2.8c0,0-0.05,0-0.15,0
						c-37.05-6.25-76-14.15-116.85-23.9c-158.8-81.95-259.5-256.2-296.05-532.55c156.35-394.1,811.35-954.4,1032.15-343.35
						c29.25,80.95,50.9,182.45,62.75,307.65C2537.431,1334.131,2522.531,1382.481,2506.831,1430.531z"/>
				</g>
			</g>
			<g>
				<g>
					<path style="fill:#FFFFFF;" d="M2111.531,1693.731c-35.1,16.35-79.8,8.2-101-29.15c10.401-12.75,26.45-20.9,44.451-20.9
						C2084.531,1643.681,2108.832,1665.631,2111.531,1693.731z"/>
				</g>
			</g>
			<g>
				<g>
					<path style="fill:#EFAB92;" d="M2465.631,1721.881c-32.4,69.35-108.25,130.7-235.8,158.35c-92.2,19.95-211.4,22.3-360.75-2.8
						c0,0-0.05,0-0.15,0c-37.05-6.25-76-14.15-116.85-23.9c-158.8-81.95-259.5-256.2-296.05-532.55
						c156.35-394.1,811.35-954.4,1032.15-343.35c-6-12.6-121.55-243.75-477.65-171.4c-366.05,74.4-483.049,529.6-489,595.05
						c-5.95,65.45,86,361,357.9,423.5C2151.281,1887.231,2370.381,1843.131,2465.631,1721.881z"/>
				</g>
			</g>
			<g>
				<g>
					<path style="fill:#B28574;" d="M1456.031,1320.981c36.55,276.35,137.25,450.6,296.05,532.55c40.85,9.75,79.8,17.65,116.85,23.9
						c-5.35-0.4-140.45-10.45-240.3-8.3c-411.05-377.9-461.95-625.95-403.151-1021.25c11.4-55.05,32.35-107.05,61-155.25
						c-24.95,78.75-88.1,317.1,8.9,463.2c117.55,177.05,118.05-263.3,118.05-263.3s38.9,197.1,88.75,213.45
						c45.15,14.85,248.4-383.8,631.75-396.45C1867.731,740.781,1557.281,1065.731,1456.031,1320.981z"/>
				</g>
			</g>
			<g>
				<g>
					<path style="fill:#B28574;" d="M2506.831,1430.531c15.701-48.05,30.601-96.4,44.1-145.25c-12.9-136.1-37.35-244.2-70.55-328.35
						c49.55,79.25,92.95,178.1,111.5,296.25C2572.931,1313.031,2545.082,1372.581,2506.831,1430.531z"/>
				</g>
			</g>
			<g>
				<g>
					<path style="fill:#B28574;" d="M2306.981,1979.231c-0.2,3-0.5,6-0.85,8.9c-7.45,63.8-46.45,105.85-120.75,134.25
						c1.75-5.9,3.9-9.9,6.3-11.5c29.35-19.5,48.35-63.25-31.25-32.75c-79.6,30.5-303.55,8.65-303.55,8.65
						c180.651,9.4,345.95-42.85,360-88.8c14-45.95-42-25.3-42-25.3c-99.351,47.8-235.35,13.25-235.35,13.25
						c312.4-2.25,259.6-71.4,150.25-62c-108.4,9.35-373.9-53.3-378.6-54.4c79.05,2.05,153.8,7.6,157.75,7.9c0.1,0,0.15,0,0.15,0
						c149.35,25.1,268.551,22.75,360.75,2.8C2283.081,1915.881,2306.981,1979.231,2306.981,1979.231z"/>
				</g>
			</g>
			<g>
				<g>
					<path style="fill:#B28574;" d="M1709.681,2181.381c-19.4,0.75-38.6,4.9-56.25,12.95c-122.15,55.8-166.45,193.4-199.95,342.35
						c-8.9,39.4-17,79.6-25.6,119.3c-7.5-0.9-14.85-2.05-22-3.35c-3.65-0.65-7.3-1.45-10.85-2.35c-12.051-3-23.6-7.3-34.501-12.65
						c-11.45-109.6-9.499-252.1,0.3-413.7c3.8-101.65,25.5-189.45,78.2-253.25c15.25-18.55,33.15-35.05,53.95-49.25
						c0,0-58.299,103.9-65.099,193.15c-6.8,89.25-6.75,128,62.8,64.75c0,0-10.799,47,0,81.85
						C1501.431,2296.081,1577.281,2178.231,1709.681,2181.381z"/>
				</g>
			</g>
			<g>
				<g>
					<path style="fill:#B28574;" d="M1991.481,2220.531c-16.95-4.7-38.65-7.3-66.349-5c-107.101,8.9-151.7,94.2-151.7,94.2
						l-6.15-4.4c-1.801-40.05-4.4-82.1-7.7-126c86.15-3.75,161.35-8.6,226.15-15.75
						C1987.781,2182.731,1989.731,2201.731,1991.481,2220.531z"/>
				</g>
			</g>
			<g>
				<g>
					<path style="fill:#E56174;" d="M2187.632,2540.981l18.25,26.3l-141.95,11.9c88.5-25.05,158.2-105.05,152.95-403.6
						c46.15,71.9,84.05,72.95,113.75,3.25L2187.632,2540.981z"/>
				</g>
			</g>
			<g>
				<g>
					<path style="fill:#E56174;" d="M1759.581,2179.331c1.25,16.55,2.4,32.8,3.4,48.8c-24.75,9.75-61.299,30.55-77,71.45
						c-19.45-24.8-30.3-59.9-32.55-105.25c17.65-8.05,36.85-12.2,56.25-12.95
						C1726.731,2180.731,1743.331,2180.081,1759.581,2179.331z"/>
				</g>
			</g>
			<g>
				<g>
					<path style="fill:#E56174;" d="M2331.131,2027.631c-1.45,39.35-30.651,164.45-339.65,192.9c-1.75-18.8-3.7-37.8-5.75-56.95
						c207-22.8,307.9-68.6,320.4-175.45C2306.131,1988.131,2316.781,2002.481,2331.131,2027.631z"/>
				</g>
			</g>
			<g>
				<g>
					<path style="fill:#E56174;" d="M1820.531,2536.681c-17.55,5.2-35.2,10.55-52.75,15.75c-91.25,27-180.75,49.65-251.2,25.35
						c-23.3-8.05-44.55-21.2-63.1-41.1c33.5-148.95,77.8-286.55,199.95-342.35c2.75,55.25,18.25,95.3,46.55,120l-1.951,1.85
						c0,0-60.499-66.95-106.1-37.2c-45.649,29.75-119.5,164.15-60.75,227.1c51.5,55.25,233.049,5.25,276.95-7.95
						c2.15,10,5.35,20.55,9.65,31.7C1818.631,2532.081,1819.581,2534.381,1820.531,2536.681z"/>
				</g>
			</g>
			<g>
				<g>
					<path style="fill:#E56174;" d="M1726.281,2640.831c-31.8,0.25-65.35,4.3-88.85,7.8c-33.55,4.95-67.35,8.65-101.3,10.1
						c-10,0.45-19.8,0.75-29.5,0.9c6.7-25.5,9.95-81.85,9.95-81.85c39.35,13.6,84.7,12.5,132.95,4.2
						c1.701,3.9,19.8,44.65,60.15,50.3C1716.781,2633.281,1722.431,2636.381,1726.281,2640.831z"/>
				</g>
			</g>
			<g>
				<g>
					<path style="fill:#EFAB92;" d="M2060.931,2431.831c-0.35,11.9-25.25,29-25.25,29s-1.899,15.8-8.75,24.35
						c-2.2,2.7-10.799,2-21.55-0.25c-23.25-4.85-56.55-16.85-56.55-16.85l-7.8,9.7c0,0,43.1,40.35,45.749,51.65
						c2.6,11.35,0.9,23.45-34.249,10.05c-35.15-13.4-48.7-11.15-48.7-11.15s-56.45,24.4-86.051,1.5
						c-32.65-84.75-0.6-133.95,37.5-179.9c-3,4.75-52.25,83.75-9.45,118.15c44.1,35.5,172.15-85.35,172.15-85.35s0,0,0.05,0.05
						c0.05,0,0.05,0,0.05,0v0.05C2020.631,2385.031,2061.332,2420.281,2060.931,2431.831z"/>
				</g>
			</g>
			<g>
				<g>
					<path style="fill:#52A7E8;" d="M2506.081,3059.381c-8.7,2.15-17.4,4.05-26.05,5.8l-64.351-95
						c17.45-111.05-20.649-174.05-99.8-170.55c-162.45,63.5-306.7,121.75-428.35,173.55c-18.75-111.3-51.8-287.25-77.45-313.5
						c-6.3-6.45-16.101-10.9-28.101-13.85l48.05-3.15l355.65-28.45c-103.3,20.2-250.05,58.95-268.45,117.95
						c-28.8,92.25-3.4,143.1,132.65,99.8c136.1-43.25,267.75-77.95,267.75-77.95S2462.431,2769.731,2506.081,3059.381z"/>
				</g>
			</g>
			<g>
				<g>
					<path style="fill:#52A7E8;" d="M2405.881,2849.181c0,0-172.8-44.35-222.15,88.8c-38.6,104.15-44.25,202.8-44.9,240.85
						c-20.25-4.05-40.751-7.65-61.45-10.75l19.449-102.9l13.75-72.65c-75.4-19-149.449-22.15-223.049-19.35
						c121.65-51.8,265.9-110.05,428.35-173.55C2358.581,2797.731,2389.381,2815.231,2405.881,2849.181z"/>
				</g>
			</g>
			<g>
				<g>
					<path style="fill:#52A7E8;" d="M2157.231,3283.381c0,0-4.15,0.5-10.85,1.1h-0.05c-34.401-9.55-66.45-19.6-83.101-27.7
						c-6.65-3.25-10.85-6.2-11.75-8.65c-7.1-19.7,11.9-36.25,11.9-36.25c-0.05-0.15-0.1-0.35-0.15-0.5
						c-11.15-32.9,14.15-43.3,14.15-43.3c22.1,3.3,43.95,7.2,65.5,11.6l1.15,7.6c0,0-70.85-3.1-32.95,32.85
						C2069.631,3227.781,2095.881,3251.431,2157.231,3283.381z"/>
				</g>
			</g>
			<g>
				<g>
					<path style="fill:#52A7E8;" d="M2670.181,3096.681c-36.85,14.3-84.45,27.5-107.85,35.2c-8.15,2.7-15.551,4.4-22.15,5.25
						c-26.349,3.45-39.8-7.05-35.85-27.1c0,0-47.1-15.6-24.299-44.85c23.65-4.75,47.5-10.95,71.6-18.45l1.55,0.6
						c0,0-41.3,48.35,17.85,32.7c0,0-62.85,52.1,58,19.35C2648.581,3094.081,2661.881,3093.681,2670.181,3096.681z"/>
				</g>
			</g>
			<g>
				<g>
					<path style="fill:#EFAB92;" d="M2102.507,3361.457c-12.75,70.75,11.874,154.024,21.524,173.174c-29.7-2-54.1,0.4-54.1,0.4
						c-18.201-74.9-26.55-156.05-22.15-245.4c8.9-19.2,15.45-32.85,15.45-32.85c23.3,11.35,76.901,26.5,124.65,38.8
						C2160.681,3289.781,2113.857,3298.307,2102.507,3361.457z"/>
				</g>
			</g>
			<g>
				<g>
					<path style="fill:#EFAB92;" d="M2536.781,3184.181l5.2-19.7l-1.8-27.35c6.6-0.85,14-2.55,22.15-5.25
						c17.35-5.7,47.95-14.45,77.6-24.35c-14,12.2-31.6,31.75-30.25,52.1c2.25,33.5,67.25,115.25,94.8,129.95
						c0.1,0.05,0.15,0.1,0.2,0.1C2636.281,3263.681,2536.781,3184.181,2536.781,3184.181z"/>
				</g>
			</g>
			<g>
				<g>
					<path style="fill:#E56174;" d="M2199.031,3634.731c-1.75,9.05-4.05,16.65-7.1,21.25c-13.4,20.35-110.599-7.9-132.9-34.7
						c-9.2-11.05-21.6-44.75-32.6-82.5c-15.55-53.3-28.4-114.65-25.95-131.9c0.05-0.2,0.05-0.3,0.05-0.3
						c2.95-19.1,29.65-78.95,47.25-116.95c-4.4,89.35,3.95,170.5,22.15,245.4c0,0,6.4-0.65,16.7-0.95c0.4,15.8,4.1,48.3,25.45,71.85
						C2130.281,3625.981,2170.931,3632.581,2199.031,3634.731z"/>
				</g>
			</g>
			<g>
				<g>
					<path style="fill:#E56174;" d="M2825.181,3374.281c-35.8,7.45-80.6,9.15-110.5,0.95c-3.45-0.95-6.75-2-9.8-3.25
						c-50.551-20.45-123.45-70.65-123.45-70.65l14.851,93.7l-20.95-2.95l-13.25-1.85c-30.6-71.7-48.75-135.4-37.15-179.9
						c2.5-9.65,6.4-18.4,11.849-26.15c0,0,29.8,23.8,68.051,49.65l-1.1,5.4c0,0,69.95,79.2,142.1,82.55
						C2793.882,3324.031,2815.881,3354.331,2825.181,3374.281z"/>
				</g>
			</g>
			<g>
				<g>
					<path style="fill:#BECAD3;" d="M2907.931,2491.681l-12.85,27.3c0,0-5.701,3-16.101,8.4l-7.85,0.65l-654.25,55.05l-11-15.8
						l-18.25-26.3l176.399-446.7l32.6-82.55l24.4,43.1c0,0-60.5,282.15-42.65,335.7
						C2396.231,2444.081,2907.931,2491.681,2907.931,2491.681z"/>
				</g>
			</g>
			<g>
				<g>
					<path style="fill:#B6C2CE;" d="M1360.831,2223.931c-9.7,160.25-11.7,301.75-0.6,410.95
						c-89.15-47.05-100.35-152.7-110.95-210.85c-13.4-73.65-75.849-179.25-105.599-236.55c-29.75-57.25,116.75-71.4,144.25-119.75
						c27.549-48.35-89.25-58-89.25-58l-0.75-0.7c110.65-33.55,241.1-38.35,241.1-38.35
						C1386.332,2034.481,1364.631,2122.281,1360.831,2223.931z"/>
				</g>
			</g>
			<g>
				<g>
					<path style="fill:#B6C2CE;" d="M2089.031,3106.431l-11.65,61.65c0,0-25.3,10.4-14.15,43.3c-52.55,0.1-106.65,0.2-161,0.3
						c-194.05,0.2-390.3,0.3-523.55,0l-3.5-0.05l-140.049-1.2c-165.75-199.8-196.6-740.6-196.6-740.6
						c84.95,442.1,349,664.6,828.9,622.4L2089.031,3106.431z"/>
				</g>
			</g>
			<g>
				<g>
					<path style="fill:#B6C2CE;" d="M2732.031,2953.031c-6.4,54.65-12.85,97.55-13.149,99.45c-5.25-13.35-21.801-17.8-21.801-17.8
						c19.7-51.7-9.3-42.65-9.3-42.65c-58.05-116.2-109.7-251-180.95-328.75h121.45c0,0,58.4-0.25,92.2,34.6
						c0,0-49.6-15.25-94.7,8.55C2583.381,2728.831,2664.381,2897.131,2732.031,2953.031z"/>
				</g>
			</g>
			<g>
				<g>
					<path style="fill:#B6C2CE;" d="M2541.981,3164.481l-5.2,19.7c-5.449,7.75-9.349,16.5-11.849,26.15
						c-36.65,0.05-108.201,0.25-199.8,0.5c21.05-38.65,38.35-75.2,52.05-109.3c28.45-1.15,68.4-2.85,104.7-4.5
						c9.05,8.55,22.45,13,22.45,13c-3.95,20.05,9.501,30.55,35.85,27.1L2541.981,3164.481z"/>
				</g>
			</g>
			<g>
				<g>
					<path style="fill:#9E9D9D;" d="M1378.681,3211.681l-27.9,119.7c-8.199-38-25.3-69.3-59.85-64.65
						c-82.55,11.15-84.8,148.8-84.8,148.8l-5.35-2.45l12.8-202.85c7.55,0.75,68.9,1.2,161.6,1.4L1378.681,3211.681z"/>
				</g>
			</g>
			<g>
				<g>
					<path style="fill:#9E9D9D;" d="M2063.231,3256.781c0,0-6.55,13.65-15.45,32.85c-3.65,7.9-7.699,16.75-11.85,25.95
						c-6.05-6.5-13.35-11.45-22-14.25c-72.15-23.45-118.05,93.7-118.05,93.7l6.35-183.35c54.35-0.1,108.45-0.2,161-0.3
						c0.05,0.15,0.1,0.35,0.15,0.5c0,0-19,16.55-11.9,36.25C2052.381,3250.581,2056.581,3253.531,2063.231,3256.781z"/>
				</g>
			</g>
			<g>
				<g>
					<path style="fill:#9E9D9D;" d="M2721.631,3415.881c-14.85-11.65-32.7-19.75-54.4-20.85c-31.55-1.6-54.95,18.2-72.5,45.25
						l-19.4-48.2l20.95,2.95l-14.851-93.7c0,0,72.9,50.2,123.45,70.65c3.05,1.25,6.35,2.3,9.8,3.25v0.05L2721.631,3415.881z"/>
				</g>
			</g>
			<g style="opacity:0.67;">
				<g>
					<path style="fill:#FFFFFF;" d="M2616.781,926.753c-11.653-79.094-35.04-153.643-65.85-219.722
						c-256.287-516.467-938.108-424.648-1215.432-84.27C1796.669,172.38,2530.54,405.813,2616.781,926.753z"/>
				</g>
			</g>
			<g style="opacity:0.67;">
				<g>
					<path style="fill:#FFFFFF;" d="M1858.281,2343.081c0,0-14.449,19.75-26.2,39.4c-157.9,15.55-161.4-90.25-161.4-90.25
						C1718.431,2331.631,1781.281,2348.081,1858.281,2343.081z"/>
				</g>
			</g>
			<g style="opacity:0.67;">
				<g>
					<path style="fill:#FFFFFF;" d="M2210.766,2635.011l180.166-14.876c93.537,21.331,134.523,92.057,170.909,167.107
						C2446.799,2650.383,2405.881,2648.399,2210.766,2635.011z"/>
				</g>
			</g>
			<g>
				<g>
					<path style="fill:#FFFFFF;" d="M1439.031,2685.094c0,0,103.305-0.496,213.388-16.364
						c110.083-15.868,138.843,6.446,143.802,16.364c4.959,9.917,21.545,120.496,21.545,120.496s-22.537-70.661-101.38-87.769
						C1637.543,2700.713,1517.531,2732.556,1439.031,2685.094z"/>
				</g>
			</g>
			<g>
				<g>
					<path style="fill:#FFFFFF;" d="M2506.081,2073.689l574.437-46.116l-121.983,303.471c0,0,99.669-223.141,31.24-246.942
						C2921.344,2060.3,2506.081,2073.689,2506.081,2073.689z"/>
				</g>
			</g>
			<g style="opacity:0.67;">
				<g>
					<path style="fill:#FFFFFF;" d="M1329.609,3318.813c-60.114,108.427-58.566,193.575-62.479,280.785L1329.609,3318.813z"/>
				</g>
			</g>
			<g>
				<g>
					<g>
						<path style="fill:#630500;" d="M2111.531,1693.731c-35.1,16.35-79.8,8.2-101-29.15c-11.25-19.65-15.9-47.45-9.249-84.05
							c40.8,26.4,91.799,37.9,159.15,25.2C2163.031,1650.031,2140.531,1680.231,2111.531,1693.731z"/>
					</g>
				</g>
				<g>
					<g>
						<path style="fill:#F47676;" d="M2111.531,1693.731c-35.1,16.35-79.8,8.2-101-29.15c10.401-12.75,26.45-20.9,44.451-20.9
							C2084.531,1643.681,2108.832,1665.631,2111.531,1693.731z"/>
					</g>
				</g>
				<g>
					<g>
						
							<ellipse transform="matrix(0.0643 -0.9979 0.9979 0.0643 285.1601 3120.5813)" style="fill:#630500;" cx="1806.573" cy="1408.234" rx="131.901" ry="95.642"/>
					</g>
				</g>
				<g>
					<g>
						
							<ellipse transform="matrix(0.0643 -0.9979 0.9979 0.0643 349.4084 3133.238)" style="fill:#FFFFFF;" cx="1845.451" cy="1380.303" rx="36.818" ry="23.802"/>
					</g>
				</g>
				<g style="opacity:0.61;">
					<g>
						
							<ellipse transform="matrix(0.0643 -0.9979 0.9979 0.0643 198.8948 3194.571)" style="fill:#FFFFFF;" cx="1802.904" cy="1491.228" rx="18.595" ry="24.917"/>
					</g>
				</g>
				<g>
					<g>
						
							<ellipse transform="matrix(0.0643 -0.9979 0.9979 0.0643 794.4658 3676.6304)" style="fill:#630500;" cx="2357.73" cy="1414.68" rx="131.901" ry="95.642"/>
					</g>
				</g>
				<g>
					<g>
						
							<ellipse transform="matrix(0.0643 -0.9979 0.9979 0.0643 858.7138 3689.2878)" style="fill:#FFFFFF;" cx="2396.608" cy="1386.749" rx="36.818" ry="23.802"/>
					</g>
				</g>
				<g style="opacity:0.61;">
					<g>
						
							<ellipse transform="matrix(0.0643 -0.9979 0.9979 0.0643 708.2175 3750.6343)" style="fill:#FFFFFF;" cx="2354.061" cy="1497.674" rx="18.595" ry="24.917"/>
					</g>
				</g>
				<g>
					<g>
						<path style="fill:#630500;" d="M1721.808,1122.361c28.301-49.443,95.786-67.595,147.731-47.522
							c17.54,6.65,33.837,17.993,44.595,33.398c3.227,4.619,2.097,10.981-2.524,14.209c-3.777,2.641-8.695,2.349-12.145-0.33
							c-24.035-17.278-53.308-23.922-82.395-21.401c-29.516,2.424-56.899,14.106-79.33,34.055
							C1729.319,1142.71,1716.171,1132.368,1721.808,1122.361L1721.808,1122.361z"/>
					</g>
				</g>
				<g>
					<g>
						<path style="fill:#630500;" d="M2306.022,1157.246c31.771-30.055,83.505-46.477,124.303-23.989
							c13.735,7.468,24.767,18.459,32.171,30.981c2.296,3.884,1.009,8.896-2.875,11.191c-2.792,1.653-6.146,1.447-8.687-0.225
							c-20.826-13.296-40.987-22.156-65.214-21.543c-24.348,0.359-47.96,9.073-71.865,16.635
							C2306.108,1173.042,2299.988,1162.71,2306.022,1157.246L2306.022,1157.246z"/>
					</g>
				</g>
				<g>
					<g>
						<path style="fill:#630500;" d="M2075.629,1711.895c-18.049,0-35.686-5.308-50.276-15.811
							c-18.286-13.169-47.021-45.928-34.006-117.363c0.606-3.32,2.83-6.118,5.925-7.456c3.096-1.343,6.658-1.045,9.495,0.791
							c42.185,27.285,91.831,35.059,151.794,23.755c2.844-0.532,5.796,0.176,8.084,1.963c2.288,1.782,3.696,4.468,3.867,7.363
							c2.432,41.191-15.876,76.646-48.97,94.849C2107.067,1707.945,2091.193,1711.895,2075.629,1711.895z M2009.13,1596.939
							c-3.84,37.749,5.898,66.826,28.025,82.759c20.884,15.039,50.188,16.055,74.653,2.593
							c23.445-12.896,37.146-36.069,38.601-64.604C2096.344,1625.904,2049.873,1619.092,2009.13,1596.939z"/>
					</g>
				</g>
				<g>
					<g>
						<path style="fill:#630500;" d="M2193.088,1603.447l-30.782,12.205c-5.27,2.09-11.237-0.488-13.327-5.759
							c-2.765-6.607,2.487-14.135,9.576-14.082c0,0,31.719-2.495,31.719-2.495l0.455-0.037
							C2196.679,1592.749,2198.607,1601.35,2193.088,1603.447L2193.088,1603.447z"/>
					</g>
				</g>
				<g>
					<g>
						<path style="fill:#630500;" d="M2071.755,1906.041c-87.595,0.005-193.704-12.046-322.012-42.7
							c-0.793-0.186-1.56-0.474-2.285-0.845c-163.821-84.536-265.232-266.289-301.413-540.21c-0.227-1.709-0.012-3.447,0.622-5.044
							c57-143.696,179.792-308.625,320.459-430.427c160.684-139.128,321.328-205.469,452.378-186.773
							c89.775,12.803,163.992,64.561,220.588,153.831c62.537,98.638,103.21,243.457,120.894,430.435
							c0.115,1.226,0.005,2.461-0.322,3.647c-21.614,78.032-47.908,160.068-85.115,265.527
							c33.291,72.871,22.18,154.565-30.073,219.346C2407.49,1819.927,2305.866,1906.031,2071.755,1906.041z M1755.634,1843.985
							c459.153,109.409,624.373-22.153,674.124-83.833c48.157-59.707,57.798-135.132,25.791-201.763
							c-1.162-2.417-1.313-5.205-0.417-7.734c37.485-106.069,63.916-188.306,85.571-266.299
							c-32.83-343.655-144.863-538.765-324.05-564.321c-279.917-39.946-641.436,331.14-750.242,602.217
							C1501.884,1587.168,1599.189,1762.676,1755.634,1843.985z"/>
					</g>
				</g>
				<g>
					<g>
						<path style="fill:#630500;" d="M1446.088,1322.578c-15.021-110.242-28.142-220.6-36.031-331.57
							c-0.254-4.127,6.135-5.065,6.706-0.588c12.317,110.152,29.877,219.849,49.259,328.925
							C1468.151,1332.713,1448.365,1336.086,1446.088,1322.578L1446.088,1322.578z"/>
					</g>
				</g>
				<g>
					<g>
						<path style="fill:#630500;" d="M1869.106,1887.54c-0.256,0-0.515-0.01-0.774-0.029c-1.382-0.103-139.312-10.478-239.492-8.276
							c-2.678,0.107-5.139-0.894-7.056-2.661c-418.579-384.844-464.524-638.813-406.296-1030.156c0.029-0.188,0.061-0.373,0.1-0.562
							c26.694-128.923,104.944-246.406,226.289-339.744c114.146-87.8,258.752-146.694,407.182-165.835
							c312.588-40.315,578.342,95.12,710.918,362.258c51.255,110.056,77.163,230.522,75.029,348.603
							c-2.51,138.828-42.803,268.35-119.761,384.971c-3.071,4.653-9.329,5.938-13.989,2.866c-4.656-3.071-5.938-9.336-2.866-13.989
							c137.942-209.033,154.163-475.837,43.389-713.699c-128.462-258.845-386.504-390.137-690.137-350.981
							c-306.423,39.514-565.527,245.295-616.221,489.368c-56.958,383.071-11.936,632.256,397.048,1009.292
							c100.845-1.88,236.018,8.301,237.39,8.408c5.561,0.425,9.726,5.273,9.304,10.835
							C1878.762,1883.506,1874.335,1887.54,1869.106,1887.54z"/>
					</g>
				</g>
				<g>
					<g>
						<path style="fill:#630500;" d="M1695.275,1877.31c-164.692-126.954-267.543-277.011-330.179-474.955
							c-0.581-1.766,0.383-3.666,2.149-4.244c1.756-0.574,3.643,0.375,4.235,2.117c32.133,91.337,73.773,179.957,130.82,258.347
							c56.578,78.663,128.129,144.656,205.341,202.771C1718.064,1869.518,1706.207,1885.52,1695.275,1877.31L1695.275,1877.31z"/>
					</g>
				</g>
				<g>
					<g>
						<path style="fill:#630500;" d="M1360.52,2647.73c-5.105,0-9.487-3.857-10.032-9.048
							c-10.61-101.572-10.525-237.441,0.266-415.361c3.774-101.108,24.829-178.872,64.355-237.505
							c45.803-67.935,115.066-109.355,211.748-126.626c5.505-0.967,10.735,2.681,11.714,8.164
							c0.982,5.493-2.673,10.737-8.164,11.719c-169.363,30.249-251.816,139.951-259.485,345.234
							c-10.732,177.036-10.842,311.816-0.347,412.275c0.579,5.547-3.447,10.513-8.994,11.094
							C1361.225,2647.71,1360.871,2647.73,1360.52,2647.73z"/>
					</g>
				</g>
				<g>
					<g>
						<path style="fill:#630500;" d="M1583.666,3221.983c-235.439,0-359.844-0.571-371.099-1.704
							c-53.679-5.527-122.063-202.163-166.03-394.595c-53.511-234.194-64.995-613.413,1.001-733.081
							c65.51-118.687,377.856-131.528,391.121-132.017c5.527-0.063,10.256,4.146,10.461,9.722
							c0.205,5.571-4.146,10.254-9.717,10.464c-3.135,0.112-314.165,12.852-374.182,121.587
							c-63.933,115.928-51.728,488.032,1.003,718.823c58.059,254.106,122.869,376.377,148.389,379.004
							c11.438,1.152,167.976,2.29,848.601,1.099c0.005,0,0.012,0,0.017,0c5.569,0,10.088,4.507,10.098,10.078
							c0.01,5.576-4.504,10.107-10.081,10.117C1871.1,3221.812,1711.108,3221.983,1583.666,3221.983z"/>
					</g>
				</g>
				<g>
					<g>
						<path style="fill:#630500;" d="M2325.131,3220.928c-5.564,0-10.083-4.502-10.098-10.068
							c-0.015-5.576,4.495-10.112,10.071-10.127l25.117-0.068c79.543-0.215,141.465-0.386,174.695-0.43c0.005,0,0.01,0,0.015,0
							c5.571,0,10.09,4.512,10.098,10.083c0.007,5.576-4.507,10.103-10.083,10.112c-33.228,0.044-95.139,0.215-174.668,0.43
							l-25.12,0.068C2325.148,3220.928,2325.141,3220.928,2325.131,3220.928z"/>
					</g>
				</g>
				<g>
					<g>
						<path style="fill:#630500;" d="M2480.031,3075.279h-89.099c-5.576,0-10.098-4.521-10.098-10.098s4.521-10.098,10.098-10.098
							h89.099c5.576,0,10.098,4.521,10.098,10.098S2485.607,3075.279,2480.031,3075.279z"/>
					</g>
				</g>
				<g>
					<g>
						<path style="fill:#630500;" d="M2096.831,3075.278c-34.323,0.32-118.069,0.653-151.012,0.816
							c-9.746,0.107-19.88,0.333-28.962-3.697c-17.488-6.778-29.46-23.93-31.393-42.378c0,0-1.038-6.191-1.038-6.191
							c-2.577-15.108-9.818-58.485-12.567-74.292c-11.593-65.758-23.855-131.718-39.918-196.435
							c-7.319-27.216-13.733-55.363-26.75-80.2c-18.324-30.189-111.689-19.202-144.149-15.895
							c-84.031,11.923-169.228,20.719-253.833,6.92c-70.742-11.153-131.165-67.2-148.364-136.568
							c-15.073-65.176-30.072-130.553-51.763-193.786c-20.753-56.546-48.133-133.249-103.658-162.643
							c-1.946-0.9-2.782-3.24-1.831-5.163c0.901-1.836,3.086-2.627,4.945-1.833c16.163,6.914,30.12,18.035,41.699,30.759
							c61.84,70.062,93.933,189.198,117.625,278.915c3.566,14.448,8.368,34.875,11.996,48.653
							c16.403,61.563,70.141,110.271,133.094,120.183c32.068,5.464,65.173,6.592,98.264,5.989c33.22-0.62,66.176-3.059,99.155-7.31
							c33.562-4.504,66.905-10.024,100.892-11.418c17.139-0.789,34.42-0.894,52.011,0.837c18.915,2.266,37.293,4.994,53.63,17.632
							c14.37,12.665,19.699,32.822,25.855,50.017c29.133,97.211,45.113,197.389,61.878,297.2c-0.001,0,3.961,24.912,3.961,24.912
							l0.99,6.228c1.021,15.34,13.055,27.84,28.793,27.698c38.41,0.208,121.407,0.536,160.45,0.855
							C2109.565,3055.232,2110.538,3074.736,2096.831,3075.278L2096.831,3075.278z"/>
					</g>
				</g>
				<g>
					<g>
						<path style="fill:#630500;" d="M1427.91,2666.084c-0.708,0-1.428-0.073-2.148-0.229c-5.449-1.182-8.911-6.558-7.729-12.007
							c3.381-15.601,6.684-31.279,9.99-46.958c36.777-174.482,74.805-354.902,221.221-421.748
							c18.352-8.374,38.557-13.032,60.059-13.843c395.989-14.956,575.501-46.108,587.415-190.479
							c-4.485-10.713-27.825-62.285-72.524-92.192c-4.634-3.101-5.879-9.375-2.776-14.009c3.096-4.639,9.373-5.879,14.007-2.778
							c55.31,37.012,79.968,101.108,80.991,103.818c0.513,1.362,0.725,2.817,0.625,4.268
							c-11.282,161.821-196.365,196.045-606.975,211.548c-18.852,0.713-36.494,4.766-52.434,12.036
							c-137.143,62.612-174.104,237.964-209.846,407.544c-3.313,15.718-6.626,31.431-10.015,47.07
							C1436.743,2662.857,1432.561,2666.084,1427.91,2666.084z"/>
					</g>
				</g>
				<g>
					<g>
						<path style="fill:#630500;" d="M1583.627,1920.75c106.912,17.558,218.443,40.636,325.679,54.954
							c87.363,9.891,201.094,26.125,281.046-15.571c11.559-6.739,22.217-15.033,31.113-25.151c1.048-1.189,2.862-1.304,4.052-0.256
							c1.136,1.001,1.287,2.708,0.385,3.894c-8.608,11.287-19.421,20.803-31.365,28.457
							c-109.126,65.889-328.576,18.092-450.539-4.631c-47.202-9.914-115.249-24.238-161.631-35.32
							c-1.75-0.412-2.833-2.163-2.421-3.909C1580.34,1921.548,1581.964,1920.488,1583.627,1920.75L1583.627,1920.75z"/>
					</g>
				</g>
				<g>
					<g>
						<path style="fill:#630500;" d="M2253.079,1995.481c-76.536,110.78-288.968,104.549-409.813,95.644
							c-20.558-1.852-41.077-3.939-61.52-6.642c-1.573-0.208-2.68-1.653-2.472-3.225c0.198-1.49,1.5-2.555,2.971-2.495
							c20.562,0.696,41.065,1.885,61.598,2.256c113.946,2.18,291.849,6.668,383.05-67.769c7.566-6.559,14.624-13.722,20.928-21.579
							C2250.157,1988.559,2255.408,1992.051,2253.079,1995.481L2253.079,1995.481z"/>
					</g>
				</g>
				<g>
					<g>
						<path style="fill:#630500;" d="M1584.372,2598.121c-53.037,0.005-100.764-14.287-138.281-54.531
							c-3.804-4.077-3.579-10.469,0.5-14.272c4.08-3.794,10.471-3.574,14.27,0.503c75.871,81.377,200.195,44.111,331.816,4.658
							c4.805-1.44,9.607-2.876,14.407-4.312c-30.974-83.467-1.951-134.268,34.482-179.443
							c-61.187,9.502-108.867,1.577-142.012-23.623c-34.25-26.045-53.159-70.552-56.204-132.275
							c-0.273-5.571,4.019-10.308,9.587-10.581c5.703-0.283,10.31,4.019,10.584,9.585c2.737,55.493,18.972,94.927,48.257,117.197
							c33.088,25.156,84.714,30.083,153.44,14.629c4.233-0.942,8.608,0.918,10.854,4.629c2.248,3.716,1.868,8.452-0.945,11.763
							c-43.193,50.825-83.782,98.584-45.293,190.767c1.104,2.646,1.033,5.635-0.198,8.228c-1.23,2.588-3.503,4.531-6.252,5.347
							c-8.294,2.456-16.602,4.946-24.91,7.437C1725.283,2575.762,1650.683,2598.121,1584.372,2598.121z"/>
					</g>
				</g>
				<g>
					<g>
						<path style="fill:#630500;" d="M1384.949,2649.678c10.44-120.594,19.542-241.388,39.631-360.847
							c0.798-4.081,7.213-3.363,6.639,1.124c-8.394,59.637-12.365,119.997-16.484,180.107
							c-3.901,60.237-7.055,120.583-9.627,180.852C1404.203,2664.333,1384.255,2663.321,1384.949,2649.678L1384.949,2649.678z"/>
					</g>
				</g>
				<g>
					<g>
						<path style="fill:#630500;" d="M1976.711,2555.474c-7.2,0-16.289-2.173-27.761-6.548
							c-26.245-9.995-39.375-10.566-42.803-10.625c-10.3,4.141-63.362,23.647-94.558-0.474c-4.411-3.413-5.222-9.751-1.811-14.165
							c3.413-4.409,9.753-5.22,14.165-1.812c20.327,15.713,61.672,3.315,75.884-2.788c0.754-0.322,1.55-0.557,2.358-0.693
							c2.715-0.435,18.076-1.982,53.953,11.689c13.118,5,19.063,5.396,21.333,5.21c-0.037-0.747-0.173-1.895-0.554-3.56
							c-2.083-5.781-23.835-28.833-42.8-46.577c-3.865-3.613-4.285-9.6-0.957-13.716l7.81-9.673
							c2.705-3.34,7.231-4.604,11.277-3.154c26.184,9.429,58.442,18.354,68.132,18.325c3.022-5.2,4.822-13.555,5.256-17.261
							c0.342-2.886,1.914-5.488,4.309-7.139c9.831-6.768,19.595-16.479,20.813-20.591c-2.385-6.216-20.339-25.21-39.336-41.523
							c-3.747-3.218-4.617-8.672-2.058-12.896c2.561-4.219,7.81-5.967,12.383-4.141c10.239,4.092,39.988,15.02,54.502,16.431
							c6.587,0.635,10.21-3.433,11.768-5.923c2.371-3.789,2.456-7.783,1.333-9.614c-5.74-8.467-66.648-48.003-101.143-48.003
							c-0.293,0-0.583,0-0.874,0.01c-35.74,0.713-116.863,18.911-117.678,19.092c-5.437,1.25-10.842-2.188-12.07-7.627
							c-1.225-5.439,2.19-10.845,7.629-12.07c3.411-0.771,83.938-18.833,121.714-19.59c39.824-0.84,110.547,42.793,119.641,57.637
							c5.376,8.77,4.814,20.889-1.431,30.874c-6.76,10.811-18.306,16.514-30.842,15.313c-4.929-0.479-10.898-1.729-17.139-3.359
							c9.426,10.933,14.08,19.497,13.889,25.61c-0.425,13.628-17.122,27.808-26.082,34.453c-1.194,6.25-4.045,17.31-10.171,24.927
							c-3.43,4.272-10.308,12.827-73.655-8.447c15.703,15.493,33.259,34.526,35.462,44.121c2.405,10.474,0.671,18.354-5.154,23.423
							C1987.734,2553.853,1982.927,2555.474,1976.711,2555.474z"/>
					</g>
				</g>
				<g>
					<g>
						<path style="fill:#630500;" d="M2029.299,2468.677c-19.351-18.3-39.044-36.895-59.97-53.347
							c-1.508-1.128-1.805-3.282-0.647-4.77c1.024-1.323,2.838-1.675,4.264-0.908c12.078,6.484,23.597,13.667,35.057,20.94
							c11.458,7.305,22.731,14.744,34.022,22.407c4.631,3.142,5.838,9.446,2.695,14.077
							C2041.281,2472.255,2033.729,2473.025,2029.299,2468.677L2029.299,2468.677z"/>
					</g>
				</g>
				<g>
					<g>
						<path style="fill:#630500;" d="M1759.594,2652.227c-0.442,0-0.889-0.029-1.34-0.088c-5.527-0.732-9.414-5.811-8.682-11.338
							c3.628-27.329,6.362-57.251,8.127-88.931c0.308-5.571,5.144-9.805,10.642-9.521c5.569,0.313,9.832,5.078,9.519,10.645
							c-1.792,32.192-4.575,62.627-8.269,90.464C1768.918,2648.536,1764.579,2652.227,1759.594,2652.227z"/>
					</g>
				</g>
				<g>
					<g>
						<path style="fill:#630500;" d="M1768.823,2353.179c-5.413,0-9.893-4.292-10.083-9.741
							c-1.775-50.508-4.88-105.464-9.226-163.35c-0.417-5.562,3.752-10.41,9.312-10.825c5.63-0.454,10.408,3.755,10.825,9.312
							c4.368,58.154,7.488,113.379,9.27,164.15c0.198,5.576-4.163,10.254-9.736,10.449
							C1769.064,2353.179,1768.942,2353.179,1768.823,2353.179z"/>
					</g>
				</g>
				<g>
					<g>
						<path style="fill:#630500;" d="M1830.031,2652.779c-2.476,0-4.876-0.908-6.733-2.573c-2.061-1.846-3.274-4.453-3.359-7.212
							l-1.35-43.848c-0.166-5.371,3.899-9.927,9.25-10.376l377.2-31.553c5.579-0.513,10.439,3.662,10.903,9.224
							c0.466,5.557-3.662,10.439-9.219,10.903l-367.654,30.752l0.727,23.672l1023.701-81.87l-2.395-20.703
							c-0.642-5.542,3.33-10.552,8.87-11.191c5.515-0.674,10.549,3.335,11.189,8.867l3.599,31.099
							c0.315,2.725-0.488,5.454-2.229,7.573c-1.738,2.114-4.265,3.438-6.995,3.652l-1044.7,83.55
							C1830.568,2652.769,1830.297,2652.779,1830.031,2652.779z"/>
					</g>
				</g>
				<g>
					<g>
						<path style="fill:#630500;" d="M2216.879,2593.184c-3.289,0-6.394-1.606-8.291-4.336l-29.25-42.104
							c-1.926-2.773-2.339-6.328-1.099-9.473l208.999-529.248c1.411-3.569,4.722-6.03,8.545-6.353l696.802-58.599
							c3.562-0.313,7.085,1.343,9.146,4.307l29.197,42.1c1.924,2.773,2.336,6.328,1.096,9.463l-208.95,529.199
							c-1.409,3.574-4.722,6.035-8.545,6.357l-696.799,58.652C2217.446,2593.174,2217.163,2593.184,2216.879,2593.184z
							 M2199.008,2539.664l22.839,32.871l684.744-57.637l204.666-518.345l-22.796-32.866l-684.741,57.583L2199.008,2539.664z"/>
					</g>
				</g>
				<g>
					<g>
						<path style="fill:#630500;" d="M2216.855,2593.169c-3.174,0-6.187-1.499-8.101-4.072c-2.085-2.803-2.571-6.484-1.289-9.731
							l208.953-529.214c1.409-3.574,4.722-6.035,8.545-6.357l696.804-58.623c3.455-0.288,6.868,1.235,8.95,4.038
							c2.085,2.803,2.571,6.484,1.289,9.731l-208.955,529.214c-1.409,3.574-4.722,6.035-8.545,6.357l-696.802,58.623
							C2217.421,2593.16,2217.138,2593.169,2216.855,2593.169z M2432.9,2063.394l-200.674,508.252l674.343-56.733l200.676-508.252
							L2432.9,2063.394z M2913.659,2524.449h0.049H2913.659z"/>
					</g>
				</g>
				<g>
					<g>
						<path style="fill:#630500;" d="M1506.647,2669.712c-0.852,0-1.714-0.107-2.576-0.332c-5.393-1.421-8.616-6.943-7.197-12.334
							c6.372-24.219,9.604-79.282,9.636-79.834c0.32-5.566,5.056-9.795,10.661-9.502c5.569,0.322,9.822,5.098,9.5,10.664
							c-0.134,2.344-3.386,57.651-10.266,83.809C1515.214,2666.714,1511.123,2669.712,1506.647,2669.712z"/>
					</g>
				</g>
				<g>
					<g>
						<path style="fill:#630500;" d="M2003.388,2594.327c-0.159,0-0.317-0.005-0.479-0.01c-5.569-0.259-9.875-4.985-9.614-10.557
							c1.47-31.548,2.139-64.785,1.987-98.784c-0.024-5.576,4.475-10.117,10.054-10.142c0.015,0,0.029,0,0.044,0
							c5.557,0,10.073,4.492,10.098,10.054c0.154,34.341-0.522,67.92-2.012,99.81
							C2013.215,2590.108,2008.749,2594.327,2003.388,2594.327z"/>
					</g>
				</g>
				<g>
					<g>
						<path style="fill:#630500;" d="M1999.221,2327.33c-5.278,0-9.719-4.102-10.066-9.443
							c-3.123-47.93-7.524-98.052-13.462-153.228c-0.598-5.542,3.413-10.522,8.96-11.118c5.53-0.566,10.52,3.413,11.118,8.96
							c5.969,55.459,10.396,105.859,13.535,154.077c0.364,5.562-3.855,10.366-9.419,10.732
							C1999.662,2327.325,1999.44,2327.33,1999.221,2327.33z"/>
					</g>
				</g>
				<g>
					<g>
						<path style="fill:#630500;" d="M1858.715,2187.234c6.975,27.524,8.303,56.033,5.707,84.238
							c-1.018,9.421-2.517,18.96-6.13,28.145c-0.59,1.499-2.283,2.236-3.781,1.648c-1.131-0.444-1.828-1.519-1.849-2.661
							c-0.158-9.179-0.654-18.348-1.024-27.561c-1.018-27.749-2.397-55.544,0.599-83.296
							C1852.521,2184.209,1857.901,2183.805,1858.715,2187.234L1858.715,2187.234z"/>
					</g>
				</g>
				<g>
					<g>
						<path style="fill:#630500;" d="M1905.442,2199.006c7.139,19.203,8.86,39.742,7.209,60.039
							c-0.686,6.79-1.791,13.667-4.493,20.303c-0.618,1.519-2.349,2.249-3.867,1.631c-0.995-0.405-1.651-1.289-1.811-2.275
							c-2.093-13.122-3.449-26.01-4.339-39.16c-0.672-13.282-1.161-26.484,0.856-39.81
							C1899.404,2196.423,1904.332,2195.91,1905.442,2199.006L1905.442,2199.006z"/>
					</g>
				</g>
				<g>
					<g>
						<path style="fill:#630500;" d="M1781.984,2655.948c-5.273,0-9.714-4.097-10.066-9.434c-0.366-5.562,3.848-10.371,9.411-10.737
							l48.037-3.169c5.574-0.483,10.374,3.848,10.74,9.409c0.366,5.562-3.848,10.371-9.412,10.737l-48.037,3.169
							C1782.433,2655.943,1782.207,2655.948,1781.984,2655.948z"/>
					</g>
				</g>
				<g>
					<g>
						<path style="fill:#630500;" d="M2364.04,2104.375c-3.94,0-7.686-2.319-9.312-6.177
							c-26.499-62.93-56.421-103.643-56.721-104.043c-3.318-4.482-2.378-10.806,2.102-14.126c4.475-3.315,10.796-2.388,14.118,2.095
							c1.279,1.719,31.607,42.92,59.114,108.232c2.163,5.142-0.249,11.064-5.388,13.228
							C2366.674,2104.122,2365.346,2104.375,2364.04,2104.375z"/>
					</g>
				</g>
				<g>
					<g>
						<path style="fill:#630500;" d="M2238.552,2197.585c8.28,61.183,12.052,122.45,16.476,183.926
							c0.169,2.542-1.756,4.741-4.298,4.91c-2.446,0.164-4.577-1.641-4.886-4.041c-5.813-45.534-11.939-91.08-19.139-136.394
							c-2.42-15.054-4.942-30.144-8.022-44.79c-1.18-5.469,2.32-10.863,7.797-12.014
							C2232.144,2187.971,2237.719,2191.857,2238.552,2197.585L2238.552,2197.585z"/>
					</g>
				</g>
				<g>
					<g>
						<path style="fill:#630500;" d="M2315.878,3237.681c-1.104,0-2.219-0.181-3.311-0.562
							c-16.938-5.884-33.97-11.426-50.615-16.475c-62.195-19.102-124.783-33.423-186.062-42.578
							c-2.715-0.405-5.149-1.899-6.738-4.136c-1.592-2.236-2.202-5.029-1.692-7.725l31.416-166.133
							c-61.965-14.561-129.326-19.878-210.962-16.807c-4.839,0.083-9.175-3.13-10.237-7.881c-1.065-4.756,1.416-9.59,5.898-11.499
							c117.918-50.205,258.123-107.012,428.628-173.662c1.033-0.405,2.124-0.635,3.23-0.684
							c38.538-1.689,69.404,11.499,89.246,38.179c35.054,47.134,33.555,132.646-4.211,240.781l0,0
							c-16.028,46.045-38.391,95.552-66.467,147.153c-2.717,5.029-5.53,10.078-8.386,15.205l-0.913,1.636
							C2322.878,3235.772,2319.458,3237.681,2315.878,3237.681z M2089.245,3159.688c58.953,9.336,118.979,23.33,178.601,41.641
							c14.246,4.321,28.792,9.004,43.323,13.955c1.719-3.096,3.416-6.172,5.078-9.253c27.568-50.664,49.482-99.16,65.149-144.17
							c0-0.005,0.002-0.005,0.002-0.01c34.98-100.146,37.561-181.089,7.078-222.08c-15.611-20.986-39.319-31.089-70.505-30.117
							c-147.129,57.524-271.626,107.695-378.652,152.603c64.819,0.508,120.955,7.183,173.73,20.483
							c5.178,1.304,8.447,6.421,7.454,11.67L2089.245,3159.688z"/>
					</g>
				</g>
				<g>
					<g>
						<path style="fill:#630500;" d="M2277.58,3327.427c-0.747,0-1.492-0.083-2.224-0.249
							c-0.549-0.122-55.588-12.573-110.781-27.285c-116.414-31.025-120.137-41.465-122.603-48.369
							c-6.758-18.745,3.518-34.688,10.066-42.373c-7.502-29.575,10.366-45.83,21.506-50.41c5.158-2.109,11.057,0.347,13.176,5.503
							c2.122,5.156-0.342,11.055-5.5,13.179c-2.625,1.172-15.979,8.428-8.425,30.718c0.051,0.151,0.178,0.566,0.222,0.723
							c1.079,3.77-0.049,8.057-3.003,10.63c-0.095,0.088-12.957,11.729-9.363,24.199c13.049,11.846,119.29,41.162,216.902,63.281
							c2.544-0.757,7.781-2.827,10.752-7.627c3.191-5.156,3.342-12.646,0.457-22.261c-1.248-4.15,0.293-8.633,3.828-11.143
							c0.774-0.562,19.91-14.746,13.63-35.425c-1.621-5.337,1.389-10.977,6.726-12.598c5.322-1.621,10.974,1.392,12.595,6.729
							c7.871,25.908-7.131,44.81-15.786,53.115c2.637,12.749,1.138,23.672-4.48,32.534c-8.918,14.058-24.456,16.758-26.199,17.017
							C2278.581,3327.388,2278.081,3327.427,2277.58,3327.427z M2060.971,3244.683c0.002,0.005,0.007,0.015,0.01,0.024
							C2060.979,3244.698,2060.974,3244.688,2060.971,3244.683z M2060.168,3243.218"/>
					</g>
				</g>
				<g>
					<g>
						<path style="fill:#630500;" d="M2480.019,3075.279c-3.306,0-6.458-1.626-8.359-4.438l-64.329-95.02
							c-3.125-4.614-1.917-10.894,2.7-14.019c4.622-3.135,10.896-1.924,14.023,2.7l60.54,89.424
							c59.517-12.637,123.228-35,189.607-66.558c-12.771-25.918-25.371-52.861-37.6-79.014
							c-68.838-147.207-140.032-299.434-257.305-299.434c-0.315,0-0.605,0.029-0.928,0.005c-5.547,0-10.059-4.478-10.095-10.034
							c-0.034-5.576,4.458-10.127,10.034-10.161c0.334,0,0.686-0.005,1.02-0.005c130.115,0,204.046,158.125,275.567,311.074
							c13.625,29.136,27.715,59.272,41.929,87.725c1.206,2.412,1.394,5.205,0.527,7.759s-2.72,4.653-5.144,5.835
							c-73.684,35.835-144.402,60.718-210.193,73.96C2481.35,3075.215,2480.681,3075.279,2480.019,3075.279z"/>
					</g>
				</g>
				<g>
					<g>
						<path style="fill:#630500;" d="M2530.783,3147.93c-11.658,0-20.999-2.949-27.659-8.843c-6.282-5.552-9.558-13.364-9.573-22.51
							c-9.365-4.341-24.285-13.286-28.64-27.651c-2.07-6.826-2.51-17.563,7.146-29.951c3.428-4.399,9.77-5.181,14.172-1.758
							c4.397,3.428,5.183,9.771,1.755,14.17c-5.239,6.724-4.121,10.439-3.752,11.66c2.424,8.066,16.733,15.225,23.284,17.427
							c4.81,1.621,7.693,6.563,6.707,11.543c-1.111,5.605-0.344,9.624,2.278,11.943c4.927,4.355,18.733,6.206,42.676-1.68
							c7.163-2.358,16.572-5.225,27.241-8.477c32.346-9.854,118.269-36.03,123.809-50.41c2.024-13.574-13.965-18.462-15.793-18.975
							c-2.734-0.767-5.051-2.651-6.328-5.186c-1.279-2.534-1.462-5.503-0.452-8.154c9.114-23.901,5.5-29.521,5.461-29.575
							c-0.242-0.034-1.619-0.015-2.485,0.22c-5.31,1.426-10.896-1.621-12.429-6.899c-1.536-5.283,1.333-10.791,6.582-12.427
							c1.431-0.454,14.239-4.092,23.064,5.293c7.6,8.086,8.257,21.343,1.926,41.323c11.294,6.143,23.286,18.262,20.359,37.671
							c-3.289,21.792-47.063,38.789-137.827,66.436c-10.5,3.198-19.761,6.021-26.809,8.34
							C2552.387,3145.777,2540.742,3147.93,2530.783,3147.93z"/>
					</g>
				</g>
				<g>
					<g>
						<path style="fill:#630500;" d="M2718.918,3062.623c-0.503,0-1.011-0.034-1.523-0.112c-5.513-0.835-9.307-5.981-8.472-11.494
							c0.325-2.163,32.566-216.929,24.355-300.972c-7.371-75.425-98.958-76.67-104.785-76.67c-0.063,0-0.117,0-0.161,0H2506.84
							c-5.576,0-10.098-4.521-10.098-10.098s4.521-10.098,10.098-10.098h121.445c0.188,0,0.378,0,0.569,0
							c40.171,0,117.18,19.761,124.521,94.902c8.457,86.533-23.137,297.036-24.487,305.952
							C2728.132,3059.039,2723.828,3062.623,2718.918,3062.623z"/>
					</g>
				</g>
				<g>
					<g>
						<path style="fill:#630500;" d="M2749.235,3308.34c-4.609,0-9.509-0.21-14.724-0.669
							c-65.874-5.776-198.406-111.118-204.016-115.596c-3.123-2.5-4.48-6.602-3.459-10.469l4.785-18.11l-1.726-25.679
							c-0.373-5.566,3.836-10.381,9.4-10.752c5.557-0.381,10.376,3.833,10.752,9.395l1.836,27.334
							c0.073,1.099-0.032,2.197-0.313,3.257l-3.511,13.286c25.063,19.448,134.939,102.563,188.018,107.217
							c41.375,3.652,56.733-10.049,61.782-17.002c-35.94-56.201-67.378-118.594-96.013-190.513
							c-2.061-5.181,0.466-11.055,5.647-13.115c5.183-2.061,11.055,0.464,13.118,5.645c28.997,72.832,60.867,135.649,97.437,192.031
							c1.658,2.554,2.073,5.723,1.128,8.623C2818.874,3274.761,2807.209,3308.34,2749.235,3308.34z"/>
					</g>
				</g>
				<g>
					<g>
						<path style="fill:#630500;" d="M2596.303,3405.152c-0.469,0-0.942-0.034-1.413-0.098l-34.214-4.839
							c-3.499-0.498-6.484-2.783-7.874-6.035c-46.072-107.925-53.547-174.492-24.241-215.835c3.225-4.551,9.529-5.615,14.077-2.397
							c4.548,3.223,5.623,9.526,2.397,14.077c-24.021,33.887-16.365,94.658,24.124,190.991l15.029,2.129l-12.734-80.229
							c-0.632-3.989,1.172-7.969,4.587-10.122c3.416-2.158,7.788-2.07,11.113,0.225c0.72,0.493,72.576,49.819,121.528,69.614
							c36.453,14.746,113.879,7.319,149.333-8.867c10.12-4.619,13.784-8.667,14.353-10.332c3.816-11.138-32.668-43.35-67.837-64.707
							c-4.766-2.896-6.284-9.106-3.389-13.872c2.893-4.766,9.102-6.279,13.872-3.394c20.735,12.593,87.527,56.191,76.46,88.516
							c-2.927,8.545-11.128,15.796-25.071,22.163c-40.015,18.267-122.666,26.46-165.295,9.214
							c-35.462-14.341-80.759-42.383-106.099-58.853l11.265,70.972c0.5,3.164-0.528,6.377-2.773,8.662
							C2601.591,3404.078,2598.991,3405.152,2596.303,3405.152z"/>
					</g>
				</g>
				<g>
					<g>
						<path style="fill:#630500;" d="M2170.439,3673.028c-35.442,0-99.421-21.582-119.165-45.273
							c-24.441-29.326-65.742-190.449-60.735-222.72c4.561-29.39,57.566-140.107,63.594-152.637
							c2.417-5.024,8.45-7.148,13.477-4.717c5.027,2.417,7.139,8.452,4.722,13.477c-16.023,33.291-58.364,124.6-61.836,146.973
							c-4.094,26.382,35.549,181.807,56.292,206.694c13.928,16.714,69.133,37.31,101.845,37.998
							c12.097,0.229,14.881-2.412,14.905-2.437c8.472-12.871,11.362-64.189,11.182-93.496c-0.002-0.503,0.032-1.001,0.103-1.499
							c6.597-45.947,20.444-81.46,35.103-119.063c13.796-35.381,28.062-71.963,37.751-120.957c1.082-5.474,6.399-8.999,11.863-7.949
							c5.471,1.084,9.028,6.396,7.947,11.865c-10.037,50.747-24.631,88.179-38.745,124.38
							c-14.146,36.279-27.51,70.557-33.823,113.857c0.068,15.313-0.464,82.627-14.561,104.033
							c-4.497,6.826-13.11,10.649-25.598,11.353C2173.374,3672.989,2171.928,3673.023,2170.439,3673.028z"/>
					</g>
				</g>
				<g>
					<g>
						<path style="fill:#630500;" d="M2204.807,3566.924c-1.975,0-3.97-0.576-5.718-1.782
							c-41.033-28.267-127.292-20.161-128.159-20.083c-4.998,0.532-9.614-2.773-10.803-7.666
							c-19.404-79.878-26.741-161.089-22.429-248.271c0.278-5.566,5.078-9.834,10.584-9.585c5.571,0.273,9.863,5.01,9.587,10.581
							c-4.065,82.188,2.451,158.896,19.907,234.185c24.534-1.436,93.64-2.749,132.769,24.209c4.592,3.164,5.752,9.453,2.588,14.043
							C2211.174,3565.396,2208.017,3566.924,2204.807,3566.924z"/>
					</g>
				</g>
				<g>
					<g>
						<path style="fill:#630500;" d="M2009.355,3579.766c-9.895,0-29.617-2.148-37.908-18.335
							c-8.203-16.021,8.496-105.171,19.182-156.89c1.125-5.464,6.448-8.975,11.931-7.847c5.461,1.128,8.972,6.47,7.844,11.929
							c-12.517,60.601-23.984,132.524-20.84,143.867c2.756,4.873,10.976,6.65,17.51,7.007l10.02-24.521
							c2.109-5.161,7.996-7.646,13.169-5.527c5.161,2.109,7.637,8.003,5.527,13.164l-12.537,30.679
							c-1.413,3.457-4.617,5.85-8.33,6.226C2014.189,3579.595,2012.167,3579.766,2009.355,3579.766z M1989.621,3552.681h0.051
							H1989.621z"/>
					</g>
				</g>
				<g>
					<g>
						<path style="fill:#630500;" d="M1279.775,3645.772h-92.976c-2.788,0-5.452-1.152-7.361-3.184
							c-1.909-2.036-2.891-4.766-2.717-7.549l26.782-425.444c0.337-5.322,4.753-9.463,10.076-9.463c0.032,0,0.061,0,0.09,0
							l165.12,1.45c3.066,0.029,5.955,1.445,7.849,3.857c1.895,2.407,2.593,5.547,1.897,8.535l-98.926,423.994
							C1288.542,3642.54,1284.467,3645.772,1279.775,3645.772z M1197.551,3625.577h74.211l94.241-403.911l-142.944-1.255
							L1197.551,3625.577z"/>
					</g>
				</g>
				<g>
					<g>
						<path style="fill:#630500;" d="M2000.178,3645.772h-112.646c-2.739,0-5.359-1.113-7.263-3.081
							c-1.902-1.973-2.922-4.629-2.827-7.368l14.685-424.043c0.193-5.576,4.944-9.868,10.44-9.741
							c5.574,0.195,9.934,4.868,9.741,10.444l-14.321,413.594h93.074l5.815-57.031c0.569-5.547,5.486-9.624,11.072-9.019
							c5.547,0.566,9.585,5.522,9.021,11.069l-6.743,66.104C2009.697,3641.851,2005.358,3645.772,2000.178,3645.772z"/>
					</g>
				</g>
				<g>
					<g>
						<path style="fill:#630500;" d="M2759.196,3645.772h-85.911c-4.121,0-7.83-2.505-9.368-6.328l-97.966-243.589
							c-2.083-5.176,0.427-11.055,5.601-13.14c5.168-2.07,11.052,0.425,13.135,5.601l95.42,237.261h67.119l-42.48-248.618
							c-0.94-5.493,2.756-10.713,8.252-11.65c5.51-0.991,10.715,2.754,11.655,8.252l44.497,260.415
							c0.5,2.93-0.317,5.938-2.236,8.208C2764.995,3644.458,2762.172,3645.772,2759.196,3645.772z"/>
					</g>
				</g>
			</g>
			<g>
				<g>
					<path style="fill:#630500;" d="M2702.601,2228.633c-3.617-0.532-7.188-0.744-10.697-0.73
						c15.569,10.748,24.625,27.4,22.099,44.582c-3.406,23.164-26.643,39.4-54.166,39.505c8.095,5.589,17.917,9.611,28.858,11.219
						c31.983,4.702,61.022-12.658,64.862-38.774C2757.397,2258.317,2734.583,2233.335,2702.601,2228.633z"/>
				</g>
			</g>
		</g>
		<g>
			<g>
				<path style="fill:#630500;" d="M2170.434,3685.528c-39.294,0-106.431-22.964-128.762-49.766
					c-4.849-5.82-10.144-15.513-15.832-28.965l-3.179,31.172c-1.187,11.577-10.852,20.303-22.483,20.303h-112.646
					c-6.089,0-12.009-2.51-16.245-6.89c-4.246-4.399-6.548-10.405-6.338-16.494l13.875-400.63
					c-210.186,0.273-371.111,0.298-482.2,0.059l-94.844,406.494c-2.4,10.278-11.45,17.461-22.007,17.461h-92.974
					c-6.211,0-12.214-2.598-16.47-7.124c-4.255-4.536-6.47-10.688-6.084-16.885l25.823-410.186
					c-74.111-52.617-142.412-337.383-155.715-395.61c-53.992-236.294-65.032-619.922,2.241-741.899
					c62.559-113.345,325.935-134.478,391.55-137.998c38.792-43.94,89.329-74.194,153.855-92.031
					c-190.557-180.259-300.662-333.311-355.923-494.175c-49.558-144.263-56.208-294.275-22.952-517.783
					c0.073-0.479,0.146-0.886,0.232-1.296c27.302-131.86,107.148-251.892,230.901-347.078
					c115.864-89.126,262.612-148.906,413.206-168.325c318.101-41.052,588.64,96.936,723.709,369.102
					c52.153,111.965,78.501,234.412,76.333,354.38c-2.532,140.171-42.944,271.035-120.132,389.014
					c-11.409,34.79-23.987,71.68-38.384,112.578c32.7,76.001,20.227,160.762-33.784,227.72
					c-28.127,34.878-81.47,81.245-178.11,110.532c34.434,36.729,50.269,78.062,51.018,80.049c1.152,3.062,1.621,6.27,1.396,9.531
					c-0.029,0.405-0.059,0.806-0.09,1.201c6.875,10.083,19.084,29.077,32.793,55.381l13.401-33.936
					c3.181-8.047,10.505-13.491,19.121-14.219l696.802-58.599c7.903-0.771,15.798,2.915,20.461,9.639l29.202,42.1
					c0.881,1.26,1.462,2.466,1.838,3.296c0.203,0.396,0.403,0.82,0.542,1.167c0.725,1.826,1.199,3.643,1.438,5.469
					c0.505,3.823,0.032,7.715-1.372,11.26l-208.945,529.185c-1.543,3.921-4.163,7.334-7.566,9.858c-3.35,2.5-7.366,4.023-11.58,4.38
					l-19.294,1.621l0.918,7.944c0.706,6.045-1.113,12.227-4.988,16.943c-3.879,4.722-9.592,7.7-15.671,8.179l-391.609,31.318
					c10.603,7.896,21.011,17.1,31.35,27.705h112.595c43.784,0,128.757,22.192,136.963,106.187
					c8.015,81.992-19.148,272.271-23.833,304.082c1.25,5.649,1.421,11.553,0.508,17.603c-0.647,4.287-2.236,8.442-4.751,12.427
					c26.604,64.907,55.537,121.46,88.301,172.598c42.546,26.572,89.375,65.068,77.261,100.449
					c-4.104,11.978-14.48,21.621-31.719,29.492c-32.38,14.775-86.038,22.358-129.304,18.999l39.189,229.355
					c1.123,6.582-0.703,13.281-5.012,18.379c-4.294,5.098-10.591,8.022-17.263,8.022h-85.908c-9.275,0-17.502-5.562-20.964-14.16
					l-93.094-231.47l-0.298-0.044c-7.795-1.108-14.541-6.284-17.625-13.501c-30.513-71.489-44.185-124.858-42.388-166.118
					c-31.665,0.063-76.123,0.186-129.653,0.327l-29.321,0.078c1.597,17.192-4.348,34.326-16.865,48.53
					c1.541,13.271-0.888,25.049-7.248,35.078c-5.347,8.428-12.38,13.77-18.696,17.129c-10.095,45.718-23.635,80.454-36.748,114.087
					c-13.789,35.371-26.807,68.76-32.969,110.215c0.076,26.152-1.465,86.992-16.621,110.005
					c-6.79,10.317-18.682,16.025-35.337,16.963C2173.847,3685.484,2172.172,3685.528,2170.434,3685.528z M2025.085,3556.304
					c0.139,0,0.278,0,0.42,0.005c5.227,0.176,9.792,3.589,11.443,8.55c13.083,39.331,21.094,51.494,23.931,54.897
					c17.839,21.411,81.99,42.319,113.174,40.674c4.685-0.264,12.974-1.362,15.862-5.747c8.875-13.477,12.673-58.477,12.5-97.1
					c-0.002-0.62,0.042-1.24,0.132-1.855c6.516-44.697,20.125-79.604,34.534-116.563c13.345-34.229,27.129-69.585,36.919-116.377
					c0.876-4.194,3.838-7.642,7.847-9.146c3.892-1.46,9.285-4.385,12.871-10.039c3.867-6.094,4.78-13.721,2.795-23.306
					c-0.872-4.209,0.483-8.574,3.584-11.553c6.592-6.323,17.085-19.565,13.325-37.148c-0.632-2.959-0.168-6.055,1.306-8.701
					l4.421-8.013c2.192-3.984,6.375-6.465,10.92-6.475l38.13-0.103c61.777-0.166,111.479-0.298,143.376-0.356
					c0.007,0,0.015,0,0.022,0c3.618,0,7.061,1.567,9.434,4.297c2.38,2.739,3.452,6.377,2.942,9.966
					c-5.354,37.598,7.336,91.846,38.794,165.82l6.106,0.859c4.429,0.625,8.186,3.564,9.854,7.715l95.183,236.665h81.438
					l-41.519-242.988c-0.679-3.975,0.601-8.032,3.438-10.898c2.837-2.866,6.89-4.17,10.864-3.55
					c40.415,6.489,99.658-0.273,132.073-15.063c10.362-4.727,16.741-9.863,18.448-14.849c4.985-14.556-23.452-44.399-69.155-72.573
					c-1.587-0.977-2.935-2.295-3.943-3.862c-35.366-54.824-66.338-115.591-94.685-185.771c-1.831-4.531-0.854-9.707,2.498-13.262
					c1.389-1.47,3.105-3.643,3.406-5.63c0.532-3.525,0.361-6.714-0.52-9.756c-0.503-1.729-0.625-3.545-0.359-5.322
					c3.301-22.168,32.014-218.911,24.043-300.449c-6.46-66.143-76.14-83.618-112.08-83.618h-117.93
					c-3.442,0-6.733-1.421-9.097-3.926c-20.254-21.484-40.483-36.807-61.841-46.836c-5.132-2.407-8-7.969-6.987-13.545
					c1.013-5.581,5.652-9.775,11.304-10.229l427.754-34.209l-2.117-18.281c-0.388-3.359,0.601-6.733,2.744-9.351
					c2.141-2.617,5.254-4.258,8.625-4.541l30.676-2.583l207.937-526.631l-27.678-39.902L2398.317,2014l-23.208,58.77
					c-1.833,4.644-6.255,7.754-11.245,7.905c-4.937,0.234-9.595-2.681-11.707-7.207c-20.293-43.452-40.203-72.91-45.823-80.903
					c-1.714-2.437-2.5-5.41-2.217-8.384c0.164-1.685,0.305-3.14,0.413-4.595c-2.134-5.483-20.706-51.143-59.985-85.049
					c-3.518-3.037-5.059-7.773-4.004-12.3s4.534-8.096,9.031-9.263c109.041-28.315,163.447-79.814,186.174-107.993
					c49.043-60.801,59.673-137.925,28.433-206.304c-1.345-2.949-1.497-6.299-0.417-9.355
					c15.244-43.213,28.449-81.914,40.369-118.306c0.344-1.05,0.828-2.051,1.433-2.974
					c75.144-114.326,114.49-241.211,116.946-377.131c2.1-116.191-23.442-234.832-73.865-343.093
					c-129.973-261.892-390.955-394.761-697.983-355.142c-146.279,18.862-288.748,76.872-401.162,163.345
					c-118.94,91.484-195.591,206.416-221.67,332.373c-57.029,383.291-13.528,631.582,387.979,1005.591
					c3.396,3.164,4.761,7.949,3.54,12.432c-1.218,4.478-4.822,7.91-9.353,8.916c-72.031,15.981-126.45,46.577-166.37,93.55
					c-2.241,2.637-5.474,4.229-8.933,4.39c-32.268,1.528-316.968,18.042-376.211,125.371
					c-64.717,117.354-52.786,492.168,0.242,724.258c46.909,205.322,108.516,362.905,149.812,383.218
					c4.529,2.227,7.276,6.963,6.958,12.002l-26.135,415.151h88.508l96.67-414.321c1.321-5.654,6.365-9.658,12.173-9.658
					c0.01,0,0.02,0,0.029,0c113.55,0.269,282.097,0.244,505.01-0.049c0.005,0,0.012,0,0.017,0c3.386,0,6.628,1.377,8.984,3.809
					c2.358,2.441,3.625,5.732,3.508,9.126l-14.238,411.094h107.991l5.64-55.308c0.505-4.941,3.877-9.072,8.525-10.601l1.34-3.286
					C2015.441,3559.366,2020.024,3556.304,2025.085,3556.304z M3093.798,1955.513l-0.076,0.005
					C3093.747,1955.518,3093.774,1955.513,3093.798,1955.513z"/>
			</g>
		</g>
	</g>
</g>
</svg>
