<svg xmlns="http://www.w3.org/2000/svg" xmlns:xlink="http://www.w3.org/1999/xlink" xml:space="preserve" viewBox="0 0 500 500"><path d="M0 0h500v500H0z" style="fill:#dce4f9"/><defs><path id="a" d="M0 0h500v500H0z"/></defs><clipPath id="b"><use xlink:href="#a" style="overflow:visible"/></clipPath><g style="opacity:.64;clip-path:url(#b)"><path d="M553.255 93.324c-4.189 18.374-20.89 31.207-37.944 39.228-17.053 8.021-35.722 12.986-51.159 23.796-12.107 8.477-21.644 20.167-33.503 28.987-11.859 8.821-25.828 13.217-39.509 7.621-8.846 8.056-17.323 17.982-28.001 23.687-6.853 3.661-28.652 11.691-20.372-4.955.826-1.661 20.271-31.88 20.496-29.916-1.41-12.982 3.188-26.494 12.222-35.922 9.035-9.428 22.339-14.597 35.369-13.742-5.769-10.793 1.355-22.989 10.104-31.546 22.054-21.569 54.207-32.342 84.804-28.416 2.265-10.269 9.33-19.275 19.463-22.088s21.701.396 28.937 8.027c6.931 7.312 1.332 25.417-.907 35.239M534.22 233.033c-18.804 30.057-51.681 51.814-87.865 58.148-3.371 15.27-18.74 22.327-33.781 16.077a191 191 0 0 1-38.275 19.504c-3.896 1.462-8.215 2.81-12.189 1.555-4.212-1.331-6.999-5.497-7.297-9.706s1.568-8.359 4.32-11.669c6.343-7.63 17.714-11.108 27.548-8.426-7.842-6.371-12.354-22.264-8.537-31.374s12.533-15.835 22.203-19.25 20.245-3.84 30.534-3.117c5.583-17.813 16.341-34.044 33.059-43.688s37.247-13.146 56.449-9.632c5.728-12.182 17.931-18.352 31.819-20.304s28.661 3.252 37.854 13.337c-12.545 22.447-30.482 40.476-55.842 48.545M133.413 307.58c11.995 2.518 7.54-8.604 5.593-12.828-3.316-7.194-8.046-16.384-19.033-20.236-7.727-2.709-17.791-2.048-22.21 2.281-.621-13.382-8.093-27.694-24.513-36.758s-38.393-13.167-57.668-10.768c-.686-7.733-8.86-13.254-17.259-19.249-14.078-10.048-28.814-20.416-47.337-25.928s-41.977-4.628-52.167 5.549c2.564-13.089-14.267-22.717-24.55-35.089-10.282-12.372-27.729-22.688-47.622-26.855s-41.882-1.71-55.435 7.172c-22.231 14.57-12.95 44.489 7.924 63.272 20.875 18.783 54.826 30.001 88.049 33.58 16.035 22.974 52.957 43.553 89.235 43.687 9.456 8.487 19.4 16.298 34.351 18.561s16.752-2.28 28.486-7.559c13.45 8.422 31.672 8.214 46.368 3.175 15.043 5.477 42.863 12.757 67.788 17.993M146.664 217.903c-10.696-2.477-18.484 10.267-60.706-16.528 0 0-11.628-10.236-22.901-10.641s-9.873-.433-20.21-4.948-19.42-13.343-21.389-24.45c-36.831 9.246-78.971-8.94-92.305-44.496-20.342.675-40.829-7.339-55.315-21.637s-22.765-34.679-22.356-55.028c40.741-19.68 90.051-13.289 123.527 17.148 10.37-14.38 30.795-19.192 47.819-14.24 17.023 4.952 30.715 18.102 39.986 33.214s14.673 32.221 19.988 49.135c11.201.815 20.266 3.03 27.151 11.903 6.886 8.872 9.796 20.717 7.806 31.77 19.25.798 34.035 13.615 38.858 30.738 1.376 4.884-.573 10.57-2.429 14.451a6.664 6.664 0 0 1-7.524 3.609" style="fill:#fff"/></g><defs><path id="c" d="M.201 254.124H500V500H.201z"/></defs><clipPath id="d"><use xlink:href="#c" style="overflow:visible"/></clipPath><g style="clip-path:url(#d)"><path d="M76.381 422.077c-17.407-26.184-42.531-51.132-73.926-52.869a429.2 429.2 0 0 0 57.609 97.676c8.145 10.375 42.286 52.174 52.746 23.628 6.001-16.372-27.256-54.638-36.429-68.435" style="fill:#8ead61"/><path d="M-52.082 439.683c7.249 36.964 38.864 66.064 74.742 77.539 25.752 8.237 88.292 15.969 109.331-5.022-16.225-29.421-51.734-51.526-82.272-63.329-7.837-3.028-103.879-19.785-101.801-9.188" style="fill:#435421"/><path d="M428.207 412.329c17.407-26.184 42.531-51.132 73.926-52.869a429.2 429.2 0 0 1-57.609 97.676c-8.145 10.375-42.285 52.174-52.746 23.628-6-16.372 27.257-54.638 36.429-68.435" style="fill:#8ead61"/><path d="M556.67 429.935c-7.249 36.964-38.864 66.064-74.742 77.539-25.752 8.237-88.292 15.969-109.331-5.022 16.225-29.421 51.734-51.526 82.272-63.329 7.838-3.028 103.88-19.785 101.801-9.188" style="fill:#435421"/><defs><path id="e" d="M356.835 483.952c.954-30.982 1.951-62.28 9.849-92.254s23.428-58.947 48.427-77.273c6.131-4.495 13.24-8.431 20.836-8.134 14.491.567 24.193 16.793 23.386 31.272-.807 14.48-8.92 27.372-16.394 39.799a670.6 670.6 0 0 0-49.864 101.385c5.393-19.239 13.181-31.205 28.106-44.489 5.633-5.013 11.991-9.506 19.289-11.4s15.695-.81 21.285 4.25c8.15 7.376 7.865 20.751 2.798 30.506-5.066 9.755-13.778 16.987-21.54 24.771s-15.069 17.107-15.945 28.064H358.93c0-8.197-2.347-18.304-2.095-26.497"/></defs><use xlink:href="#e" style="overflow:visible;fill:#b7c97b"/><clipPath id="f"><use xlink:href="#e" style="overflow:visible"/></clipPath><path d="m358.079 545.372 1.241-7.452c13.707-82.272 41.543-160.759 82.736-233.278l1.738.988c-39.878 70.204-67.202 146.015-81.269 225.445 22.193-45.047 59.267-86.106 107.631-119.103l1.127 1.652c-50.412 34.394-88.473 77.574-110.066 124.874z" style="clip-path:url(#f)"/><defs><path id="g" d="M138.142 483.952c-.953-30.982-1.951-62.28-9.849-92.254s-23.428-58.947-48.427-77.273c-6.131-4.495-13.24-8.431-20.837-8.134-14.491.567-24.193 16.793-23.386 31.272.807 14.48 8.92 27.372 16.394 39.799a670.5 670.5 0 0 1 49.864 101.385c-5.393-19.239-13.181-31.205-28.106-44.489-5.633-5.013-11.991-9.506-19.289-11.4s-15.695-.81-21.285 4.25c-8.15 7.376-7.865 20.751-2.798 30.506 5.066 9.755 13.778 16.987 21.54 24.771s15.069 17.107 15.945 28.064h68.141c-.002-8.197 2.345-18.304 2.093-26.497"/></defs><use xlink:href="#g" style="overflow:visible;fill:#b7c97b"/><clipPath id="h"><use xlink:href="#g" style="overflow:visible"/></clipPath><path d="m129.604 548.042-2.022-4.403c-20.515-44.667-52.995-89.267-93.929-128.978l1.393-1.436C74.818 451.809 106.65 495 127.348 538.42 124.3 453.518 93.356 370.637 39.93 304.527l1.556-1.258c54.711 67.701 85.965 152.91 88.004 239.929z" style="clip-path:url(#h)"/></g><g style="clip-path:url(#d)"><path d="M109.935 489.864a.98.98 0 0 1-.936-.692C91.376 431.647 60.61 377.796 20.03 333.443a.98.98 0 0 1 1.445-1.323c40.775 44.566 71.688 98.675 89.396 156.477a.98.98 0 0 1-.936 1.267"/><path d="M10.763 330.632c1.699 3.211 3.42 6.454 5.818 9.182 2.399 2.728 5.576 4.932 9.17 5.459s7.588-.904 9.465-4.014c2.21-3.663 1.057-8.381-.531-12.353a68.2 68.2 0 0 0-6.426-12.275c-1.099-1.663-2.879-3.49-4.755-2.815-1.282.461-1.914 1.993-1.784 3.349s.842 2.578 1.537 3.75c-.681-1.098-1.609-1.251-2.576-2.108-.967-.856-2.263-1.434-3.541-1.245-2.203.325-3.53 2.831-3.358 5.051s1.425 4.189 2.641 6.055c-.289-1.528-1.99-3.16-3.086-4.264s-3.221-1.31-4.066-.005c-.599.924-.324 2.156.115 3.166.438 1.009.862 2.093 1.377 3.067" style="fill:#d25948"/><path d="M24.145 341.115a.75.75 0 0 1-.644-.365c-1.53-2.564-4.196-4.42-7.13-4.966a.75.75 0 0 1 .274-1.475c3.351.624 6.396 2.744 8.144 5.671a.75.75 0 0 1-.644 1.135M31.42 337.474a.75.75 0 0 1-.646-.368 16.25 16.25 0 0 1-2.188-9.555.75.75 0 0 1 1.496.127 14.73 14.73 0 0 0 1.983 8.664.75.75 0 0 1-.645 1.132M27.337 339.83a.75.75 0 0 1-.677-.427 101 101 0 0 0-5.477-9.969.749.749 0 1 1 1.272-.795 102 102 0 0 1 5.559 10.117.75.75 0 0 1-.677 1.074" style="fill:#edb0a9"/><path d="M391.813 509.736a.98.98 0 0 0 .936-.692c17.624-57.525 48.389-111.376 88.969-155.728a.98.98 0 1 0-1.445-1.322c-40.775 44.566-71.688 98.675-89.397 156.477a.98.98 0 0 0 .937 1.265"/><path d="M490.985 350.503c-1.699 3.211-3.42 6.454-5.818 9.182s-5.576 4.932-9.17 5.459-7.588-.904-9.465-4.014c-2.211-3.663-1.057-8.381.531-12.353a68.2 68.2 0 0 1 6.426-12.275c1.099-1.663 2.879-3.489 4.755-2.814 1.282.461 1.914 1.993 1.784 3.349s-.842 2.578-1.537 3.75c.681-1.098 1.609-1.251 2.576-2.108.967-.856 2.263-1.434 3.541-1.245 2.203.325 3.53 2.831 3.358 5.051s-1.425 4.19-2.641 6.055c.289-1.528 1.99-3.16 3.086-4.264s3.221-1.31 4.067-.005c.599.924.324 2.155-.115 3.166-.439 1.008-.863 2.092-1.378 3.066" style="fill:#d25948"/><path d="M477.603 360.987c.255 0 .504-.13.645-.365 1.53-2.563 4.196-4.42 7.13-4.966a.75.75 0 0 0-.274-1.475c-3.351.624-6.396 2.744-8.144 5.671a.75.75 0 0 0 .643 1.135M470.328 357.345a.75.75 0 0 0 .646-.368 16.25 16.25 0 0 0 2.188-9.555.75.75 0 0 0-1.496.127 14.73 14.73 0 0 1-1.983 8.664.75.75 0 0 0 .645 1.132M474.411 359.701a.75.75 0 0 0 .677-.427 101 101 0 0 1 5.477-9.969.75.75 0 1 0-1.272-.795 102 102 0 0 0-5.559 10.117.75.75 0 0 0 .677 1.074" style="fill:#edb0a9"/><path d="M365.388 451.447a.89.89 0 0 0 .693-.806c4.033-54.763 20.506-108.917 47.637-156.606a.894.894 0 0 0-1.554-.884c-27.261 47.919-43.813 102.332-47.866 157.358a.894.894 0 0 0 1.09.938"/><path d="M421.396 289.656c-.861 3.201-1.736 6.436-3.318 9.35s-3.963 5.518-7.055 6.715-6.936.732-9.236-1.655c-2.709-2.812-2.638-7.245-2.029-11.101a62.2 62.2 0 0 1 3.233-12.226c.642-1.702 1.855-3.688 3.661-3.468 1.234.151 2.107 1.386 2.266 2.619s-.227 2.465-.608 3.648c.384-1.115 1.179-1.439 1.866-2.397s1.723-1.734 2.899-1.825c2.026-.157 3.715 1.805 4.012 3.815s-.42 4.017-1.124 5.923c-.052-1.418 1.131-3.216 1.883-4.419s2.601-1.819 3.618-.828c.72.701.725 1.853.539 2.84-.188.987-.346 2.038-.607 3.009" style="fill:#d25948"/><path d="M411.61 301.696a.69.69 0 0 0 .5-.456c.843-2.591 2.839-4.783 5.339-5.863a.685.685 0 0 0-.543-1.257c-2.856 1.234-5.136 3.737-6.099 6.696a.685.685 0 0 0 .803.88M404.398 299.928a.69.69 0 0 0 .5-.458c.925-2.883.929-6.061.012-8.946a.684.684 0 1 0-1.305.416 13.44 13.44 0 0 1-.01 8.112.685.685 0 0 0 .803.876M408.509 301.199a.69.69 0 0 0 .516-.517 92 92 0 0 1 2.855-9.981.683.683 0 1 0-1.293-.45 93 93 0 0 0-2.898 10.129.684.684 0 0 0 .82.819" style="fill:#edb0a9"/><path d="M139.748 453.502a.89.89 0 0 1-.693-.806c-4.033-54.763-20.506-108.917-47.637-156.606a.894.894 0 0 1 1.554-.884c27.261 47.919 43.813 102.332 47.866 157.358a.894.894 0 0 1-1.09.938"/><path d="M83.741 291.711c.861 3.201 1.736 6.436 3.318 9.35s3.963 5.518 7.055 6.715 6.936.732 9.236-1.655c2.709-2.812 2.638-7.245 2.029-11.101a62.3 62.3 0 0 0-3.233-12.226c-.642-1.703-1.855-3.688-3.661-3.468-1.234.151-2.107 1.386-2.266 2.619s.227 2.465.608 3.648c-.384-1.115-1.178-1.439-1.866-2.398-.687-.958-1.723-1.734-2.899-1.825-2.026-.157-3.715 1.805-4.012 3.815s.42 4.017 1.124 5.923c.052-1.418-1.131-3.216-1.883-4.42s-2.601-1.818-3.618-.828c-.72.701-.725 1.853-.539 2.84.187.99.346 2.041.607 3.011" style="fill:#d25948"/><path d="M93.527 303.751a.69.69 0 0 1-.5-.456c-.843-2.591-2.839-4.783-5.339-5.863a.685.685 0 0 1 .543-1.257c2.856 1.234 5.136 3.737 6.099 6.696a.685.685 0 0 1-.803.88M100.738 301.984a.68.68 0 0 1-.5-.458 14.83 14.83 0 0 1-.012-8.946.686.686 0 0 1 1.305.416 13.44 13.44 0 0 0 .01 8.112.685.685 0 0 1-.803.876M96.628 303.254a.69.69 0 0 1-.516-.517 92 92 0 0 0-2.855-9.981.685.685 0 0 1 1.293-.45 93 93 0 0 1 2.898 10.129.684.684 0 0 1-.82.819" style="fill:#edb0a9"/></g><defs><path id="i" d="M13.96 359.001h471.091V499.02H13.96z"/></defs><clipPath id="j"><use xlink:href="#i" style="overflow:visible"/></clipPath><g style="clip-path:url(#j)"><path d="M363.413 729.617a1.52 1.52 0 0 0 1.263-1.293c12.769-92.553 46.595-182.728 97.82-260.773a1.52 1.52 0 1 0-2.543-1.669c-51.471 78.421-85.459 169.027-98.29 262.025a1.52 1.52 0 0 0 1.75 1.71"/><path d="M476.007 460.945c-1.809 5.343-3.644 10.741-6.645 15.517s-7.326 8.942-12.705 10.639c-5.379 1.698-11.857.493-15.504-3.809-4.296-5.067-3.697-12.587-2.246-19.07a106 106 0 0 1 6.811-20.41c1.273-2.822 3.549-6.063 6.592-5.492 2.08.39 3.428 2.581 3.565 4.693s-.652 4.161-1.427 6.129c.773-1.851 2.157-2.317 3.428-3.869s3.114-2.758 5.12-2.786c3.457-.047 6.113 3.466 6.399 6.912s-1.147 6.776-2.549 9.936c.065-2.414 2.268-5.338 3.675-7.301 1.406-1.963 4.613-2.807 6.233-1.015 1.147 1.269 1.03 3.224.608 4.881s-.807 3.426-1.355 5.045" style="fill:#d25948"/><path d="M458.089 480.332c.391-.063.74-.324.898-.72 1.711-4.309 5.337-7.815 9.7-9.379.605-.218.92-.885.703-1.49a1.167 1.167 0 0 0-1.489-.703c-4.983 1.787-9.125 5.791-11.08 10.711a1.164 1.164 0 0 0 1.268 1.581M446.034 476.551c.393-.064.743-.327.899-.724a25.2 25.2 0 0 0 .987-15.189 1.165 1.165 0 0 0-2.261.565 22.86 22.86 0 0 1-.895 13.773 1.165 1.165 0 0 0 1.27 1.575M452.877 479.152c.429-.069.802-.377.933-.822a156 156 0 0 1 5.927-16.639 1.164 1.164 0 1 0-2.146-.904 159 159 0 0 0-6.016 16.887 1.163 1.163 0 0 0 1.302 1.478" style="fill:#edb0a9"/><path d="M134.321 734.806a1.52 1.52 0 0 1-1.263-1.293c-12.769-92.553-46.595-182.728-97.82-260.773a1.52 1.52 0 1 1 2.543-1.669c51.471 78.421 85.459 169.027 98.29 262.025a1.52 1.52 0 0 1-1.75 1.71"/><path d="M21.727 466.134c1.809 5.343 3.644 10.742 6.645 15.517 3.001 4.776 7.326 8.942 12.705 10.639 5.379 1.698 11.857.493 15.504-3.809 4.296-5.067 3.697-12.587 2.246-19.07a106 106 0 0 0-6.811-20.41c-1.274-2.822-3.549-6.063-6.592-5.492-2.08.39-3.428 2.581-3.565 4.693s.652 4.161 1.427 6.129c-.773-1.851-2.157-2.317-3.428-3.869s-3.114-2.758-5.12-2.786c-3.457-.047-6.113 3.466-6.399 6.912s1.147 6.776 2.549 9.936c-.065-2.414-2.269-5.338-3.675-7.301-1.407-1.963-4.614-2.807-6.233-1.015-1.147 1.269-1.03 3.224-.608 4.881.425 1.658.807 3.425 1.355 5.045" style="fill:#d25948"/><path d="M39.646 485.52a1.17 1.17 0 0 1-.898-.72c-1.711-4.309-5.337-7.815-9.7-9.379a1.166 1.166 0 0 1 .786-2.193c4.983 1.787 9.125 5.791 11.08 10.711a1.164 1.164 0 0 1-1.268 1.581M51.7 481.74a1.17 1.17 0 0 1-.899-.724 25.2 25.2 0 0 1-.987-15.189 1.165 1.165 0 0 1 2.261.565 22.87 22.87 0 0 0 .895 13.774 1.165 1.165 0 0 1-1.27 1.574M44.857 484.341a1.16 1.16 0 0 1-.932-.822 156 156 0 0 0-5.927-16.639 1.164 1.164 0 1 1 2.146-.904 159 159 0 0 1 6.016 16.887 1.163 1.163 0 0 1-1.303 1.478" style="fill:#edb0a9"/></g><defs><path id="k" d="M2.258 0H500v500H2.258z"/></defs><clipPath id="l"><use xlink:href="#k" style="overflow:visible"/></clipPath><g style="clip-path:url(#l)"><defs><path id="m" d="M373.876 223.738c11.058 12.559 16.154 68.076 12.692 95.767 0 0 36.954 167.922 44.475 221.164H261.2s15.682-115.774 27.594-196.11c5.146-34.707 3.225-98.706 5.604-133.711 27.633-9.828 50.2 11.166 79.478 12.89"/></defs><use xlink:href="#m" style="overflow:visible;fill:#ccb1e5"/><clipPath id="n"><use xlink:href="#m" style="overflow:visible"/></clipPath><g style="clip-path:url(#n)"><path d="M285.547 568.805h-.035a1.397 1.397 0 0 1-1.361-1.428 924.3 924.3 0 0 1 22.465-180.883 1.38 1.38 0 0 1 1.668-1.051c.751.17 1.221.916 1.051 1.668a921.5 921.5 0 0 0-22.395 180.334 1.395 1.395 0 0 1-1.393 1.36M345.883 579.531h-.004a1.395 1.395 0 0 1-1.39-1.399l.568-187.555a1.394 1.394 0 0 1 1.394-1.39h.004c.77.002 1.392.629 1.39 1.399l-.568 187.555a1.394 1.394 0 0 1-1.394 1.39M405.056 584.361a1.394 1.394 0 0 1-1.389-1.28l-15.743-191.429a1.395 1.395 0 0 1 2.779-.228l15.742 191.428a1.395 1.395 0 0 1-1.389 1.509"/></g><path d="M375.096 146.564c.643-7.984 1.288-15.97 1.162-23.969-.135-8.55-1.244-17.368-5.561-24.75-4.964-8.488-13.868-14.27-23.413-16.631s-19.675-1.528-29.159 1.067c-16.165 4.424-29.231 11.044-33.851 34.14-4.484 22.42-8.679 43.33-12.584 65.869-4.474 25.823-2.065 58.734 2.784 77.445 8.916-4.117 16.133-11.781 19.708-20.928 3.111-7.959 3.506-16.761 6.471-24.776s2.071-6.862 10.601-6.341c8.983.549 20.278.788 23.926 9.015 6.414 14.466 22.159 16.583 34.127 20.207 3.368 1.02 7.255 1.611 10.214-.293 4.683-3.013 4.124-9.923 2.921-15.36-3.494-15.789-7.721-31.549-8.41-47.705-.383-9.002.34-17.994 1.064-26.99" style="fill:#755293"/><path d="m468.884 265.62 12.435-45.861c1.576-5.651-3.811-10.66-8.854-8.234l-85.213 34.739 22.918 39.394z" style="fill:#7bb7e7"/><path d="m468.884 258.294-25.806-55.877-82.515 42.891 28.349 40.635z" style="fill:#fceed6"/><path d="m466.937 262.782 9.445-55.6-99.913 41.832 30.078 32.152z" style="fill:#fceed6"/><path d="M466.937 262.782c.497-5.825-2.983-59.836-2.983-59.836s-104.386 48.186-102.895 48.186 40.263 31.242 40.263 31.242z" style="fill:#fceed6"/><path d="m466.937 262.782-13.421-61.954-92.953 44.48 35.292 47.127z" style="fill:#fceed6"/><path d="M468.07 252.619a.836.836 0 0 1-.804-.607l-14.553-50.954a.835.835 0 0 1 .574-1.034.83.83 0 0 1 1.034.575l14.553 50.954a.836.836 0 0 1-.804 1.066"/><path d="M467.865 249.363a.836.836 0 0 1-.832-.765l-3.911-45.581a.84.84 0 0 1 .761-.905.827.827 0 0 1 .905.762l3.911 45.581a.84.84 0 0 1-.834.908"/><path d="m468.143 257.396-25.821-54.623a.836.836 0 1 1 1.512-.715l23.592 49.905 8.133-44.932a.846.846 0 0 1 .973-.674.837.837 0 0 1 .674.972z"/><path d="m395.584 295.656-36.029-42.938c-4.149-4.903-2.675-12.682 2.935-15.486l59.617-29.5c3.809-1.904 8.345-.823 11.029 2.628l34.648 44.321c3.871 4.978 2.258 12.512-3.256 15.209l-58.236 28.118c-3.668 1.794-8.005.841-10.708-2.352" style="fill:#7bb7e7"/><path d="M440.593 264.242a9.14 9.14 0 0 1-7.474-3.875l-17.246-24.584c-2.711-3.864-1.985-9.246 1.656-12.252a9 9 0 0 1 6.926-2.016 9.02 9.02 0 0 1 6.219 3.652l17.867 24.364a9.03 9.03 0 0 1 1.361 8.065 9.03 9.03 0 0 1-5.66 5.904l-.619.221a9 9 0 0 1-3.03.521m-17.284-40.567a6.8 6.8 0 0 0-4.359 1.577c-2.748 2.27-3.297 6.333-1.25 9.251l17.246 24.584a6.9 6.9 0 0 0 7.93 2.533l.619-.221a6.81 6.81 0 0 0 4.275-4.458 6.82 6.82 0 0 0-1.027-6.089l-17.867-24.364a6.8 6.8 0 0 0-4.695-2.757 7 7 0 0 0-.872-.056" style="fill:#020302"/><path d="M432.295 277.48c6.533-3.325 13.399-7.819 19.933-11.144 1.362-.693 3.302-1.205 4.067.243.399.755.226 1.76-.216 2.484s-1.106 1.229-1.755 1.717c1.356-1.629 3.447-2.332 5.311-3.087.668-.271 1.437-.47 2.064-.094.816.49 1.009 1.785.666 2.753s-1.074 1.681-1.778 2.355c.868-1.436 2.698-2.838 4.207-3.19 2.926 2.478 1.138 5.376.131 7.655-4.333 9.81-10.883 13.565-18.484 17.988-14.815 8.619-28.282 11.852-44.174 8.081 1.198-6.242-.374-12.351-.481-18.737 5.902-1.171 11.849-1.07 16.825-4.278 4.255-2.744 7.853-6.503 11.795-9.789.622-.519 1.256-1.045 1.986-1.334s2.651-1.117 3.307-.655c1.01.713 1.212 2.647.5 3.726-2.226 3.373-3.904 5.306-3.904 5.306" style="fill:#cd8566"/><path d="M276.549 244.661c-4.494 25.806-6.053 52.028-7.659 78.144-.734 11.94-1.154 25.027 6.074 34.559 8.252 10.884 23.621 13.267 37.265 12.63 36.76-1.714 72.455-19.797 95.582-48.422 1.684-2.084 3.354-4.331 3.827-6.969.404-2.254-.111-4.56-.624-6.792l-7.575-32.988a563 563 0 0 1-65.183 26.244c2.361-23.649 3.13-47.554.352-71.157-1.231-10.458-5.227-19.357-13.483-26.727-10.297-9.193-27.756-6.497-35.801 2.653-7.923 9.011-9.514 21.591-11.708 32.994a343 343 0 0 0-1.067 5.831" style="fill:#ccb1e5"/><defs><path id="o" d="M373.358 133.251c-1.067 10.837-1.177 23.587-8.749 32.239-7.144 8.164-19.707 10.425-29.868 6.627s-17.823-12.875-21.439-23.103c-6.763-19.126-2.64-43.365 17.491-52.244 8.578-3.784 18.621-3.921 27.441-.743 4.223 1.521 8.315 3.894 10.843 7.604 5.515 8.096 5.306 19.219 4.281 29.62"/></defs><use xlink:href="#o" style="overflow:visible;fill:#cd8566"/><clipPath id="p"><use xlink:href="#o" style="overflow:visible"/></clipPath><path d="M377.115 118.943c-8.319-9.454-21.961-12.928-34.466-11.446s-24.085 7.288-34.794 13.915c.115-12.444 5.598-23.552 16.373-29.778s24.842-6.299 35.681-.185 16.962 15.052 17.206 27.494" style="clip-path:url(#p)"/><path d="M316.651 372.939c-10.072 0-19.016-1.74-26.678-5.2-11.943-5.394-20.716-15.271-23.468-26.421a1.115 1.115 0 1 1 2.166-.534c2.589 10.49 10.896 19.807 22.221 24.922 9.455 4.269 20.993 5.82 34.296 4.6 35.475-3.248 68.273-24.543 85.692-55.609-.721-4.083-6.326-32.735-7.725-38.683-10.535 4.358-21.394 8.723-31.909 12.951-10.891 4.379-22.153 8.907-33.035 13.418a1.116 1.116 0 0 1-1.499-1.34c4.764-16.522 3.858-43.24.588-59.988a1.116 1.116 0 0 1 2.189-.427c3.18 16.282 4.145 41.884-.046 58.83 10.241-4.229 20.768-8.462 30.971-12.563 10.891-4.379 22.153-8.907 33.035-13.418.163-.069.341-.101.52-.081 1.118.093 1.118.093 5.248 21.022.912 4.618 3.541 18.088 3.902 20.19l.007.023h-.002q.037.213.037.248c.007.251-.07.485-.206.676-17.739 31.825-51.279 53.649-87.565 56.972a96 96 0 0 1-8.739.412M436.204 283.978c-.51 0-.985-.325-1.15-.837a1.21 1.21 0 0 1 .777-1.524c4.439-1.443 13.665-6.293 19.523-13.165a1.206 1.206 0 0 1 1.705-.136c.509.432.57 1.196.136 1.705-6.223 7.304-15.738 12.314-20.616 13.897a1.2 1.2 0 0 1-.375.06M442.938 288.827a1.21 1.21 0 0 1-.439-2.338c7.335-2.844 15.347-9.638 20.41-17.308a1.21 1.21 0 0 1 2.019 1.334c-5.404 8.185-13.663 15.171-21.554 18.232-.142.054-.29.08-.436.08M445.829 294.972a.967.967 0 0 1-.335-1.876c8.296-3.069 14.957-9.268 19.26-17.927a.969.969 0 0 1 1.734.86c-4.527 9.11-11.555 15.639-20.323 18.881a1 1 0 0 1-.336.062M427.855 283.467a.967.967 0 0 1-.666-1.671q.788-.744 1.53-1.436c4.266-3.983 7.085-6.613 6.95-11.004a.97.97 0 0 1 .938-.997l.031-.001c.521 0 .95.414.966.939.162 5.267-3.078 8.291-7.563 12.478q-.739.688-1.521 1.426a.96.96 0 0 1-.665.266M347.504 159.517a10 10 0 0 1-1.978-.195c-2.901-.583-5.496-2.473-6.942-5.056a1.12 1.12 0 1 1 1.957-1.094 8.13 8.13 0 0 0 5.427 3.953 8.13 8.13 0 0 0 6.532-1.551 1.12 1.12 0 0 1 1.382 1.766c-1.808 1.414-4.091 2.177-6.378 2.177M353.783 151.696a1.1 1.1 0 0 1-.427-.084 19.4 19.4 0 0 1-8.303-6.53 1.12 1.12 0 1 1 1.812-1.318 17.4 17.4 0 0 0 4.837 4.486 53.9 53.9 0 0 1-2.974-17.218 1.12 1.12 0 0 1 1.114-1.128h.007c.616 0 1.117.497 1.121 1.114a51.6 51.6 0 0 0 3.849 19.132 1.12 1.12 0 0 1-1.036 1.546M335.891 133.985c0 3.271-1.358 5.924-3.034 5.924s-3.034-2.652-3.034-5.924c0-3.271 1.358-5.923 3.034-5.923s3.034 2.652 3.034 5.923M360.473 134.26c0 3.271-1.358 5.923-3.034 5.923s-3.034-2.652-3.034-5.923 1.358-5.924 3.034-5.924 3.034 2.652 3.034 5.924"/><path d="M335.958 119.707c-2.764-1.113-6.038-.781-8.542.87-.34.224-.53.598-.506.998.024.416.272.802.634.983.146.073.301.11.456.11.205 0 .409-.063.599-.187a7.2 7.2 0 0 1 6.643-.653c.26.105.555.091.824-.04.296-.145.524-.413.612-.716.163-.568-.132-1.129-.72-1.365M361.15 121.283l-.001-.001a7.38 7.38 0 0 0-7.442-.945 1 1 0 0 0-.552.622c-.104.317-.07.669.09.941.293.503.899.68 1.472.433 1.593-.685 3.584-.434 4.952.627.235.183.504.274.763.274.284 0 .556-.108.771-.321a1.17 1.17 0 0 0 .323-.892 1 1 0 0 0-.376-.738" style="fill:#020302"/><path d="M343.267 176.285q-.129 0-.259-.034c-14.548-3.879-25.185-11.806-31.618-23.562-10.686-19.53-6.493-44.274-3.977-52.16a1 1 0 0 1 1.906.609c-2.445 7.659-6.523 31.678 3.825 50.591 6.159 11.257 16.38 18.857 30.379 22.589a1 1 0 0 1-.256 1.967M354.386 210.2c-.307 0-.609-.141-.806-.406-6.599-8.938-14.078-19.07-24.561-24.585-13.917-7.321-32.402-4.892-43.954 5.782a1 1 0 0 1-1.357-1.469c12.153-11.227 31.601-13.786 46.243-6.083 10.888 5.728 18.512 16.055 25.238 25.167a1 1 0 0 1-.803 1.594M350.105 187.18q-.406 0-.814-.017a1 1 0 0 1-.959-1.04.997.997 0 0 1 1.039-.959c9.667.387 19.196-7.341 20.804-16.884a.993.993 0 0 1 1.152-.82 1 1 0 0 1 .82 1.152c-1.751 10.398-11.539 18.568-22.042 18.568"/><path d="M343.267 176.284q-.033 0-.066-.002c-18.939-1.246-42.819-12.771-48.376-29.217a1 1 0 1 1 1.895-.641c5.293 15.664 28.316 26.659 46.612 27.862a1 1 0 0 1-.065 1.998"/><path d="M145.266 343.073a1929 1929 0 0 0-14.234 221.57h155.052c-12.036-78.243-23.115-154.452-37.408-232.198-35.545 2.944-67.866 7.684-103.41 10.628" style="fill:#7bb7e7"/><path d="m152.468 346.655 80.27 3.301-15.01-165.036-52.86 7.152z"/><path d="M76.558 325.509c13.023 37.566 61.452 30.398 67.154 12.322 10.768-24.835 10.992-55.094 16.326-81.632 3.521-17.515.991-39.782 3.286-57.499-7.15 1.814-13.094 7.332-17.995 12.846s-8.578 11.993-11.967 18.546c-12.079 23.354-20.927 48.21-30.813 72.574-2.723 6.71 5.542 11.77-.199 16.184-6.343 4.874-17.887 5.432-25.792 6.659" style="fill:#5d73dc"/><path d="M174.866 201.916a1689.5 1689.5 0 0 0-15.695 238.169c-12.442 8.899-29.016 14.694-44.037 11.8 5.291-88.31 18.045-171.623 41.735-256.861 6.745 1.52 11.252 5.374 17.997 6.892" style="fill:#5d73dc"/><path d="M194.545 199.96a2141 2141 0 0 0-9.54 239.486c24.568 15.833 57.4 19.179 82.149 3.63-2.651-81.853-14.169-165.095-35.007-244.296-7.474-3.915-14.109-8.887-22.471-10.018s-9.949 4.539-15.131 11.198" style="fill:#5274e0"/><path d="M116.185 449.506h-.016a1 1 0 0 1-.985-1.016c1.376-90.119 23.86-176.648 37.141-220.206a1 1 0 0 1 1.913.583c-13.249 43.457-35.682 129.781-37.054 219.655a1 1 0 0 1-.999.984"/><path d="m133.903 328.639 30.98-15.251c1.914-.942 1.463-3.791-.648-4.096L60.036 294.21l-20.54 19.202z" style="fill:#202021"/><path d="M86.861 328.001c-6.143.058-11.901-3.082-18.424-7.209-.995-.63-3.719-2.049-3.966-3.201-.225-1.049.614-2.091 1.616-2.474s2.117-.273 3.184-.158l5.979.646c1.137 3.055 9.159 10.247 11.611 12.396" style="fill:#ffbcae"/><path d="m46.161 237.615 78.167 12.119a9.7 9.7 0 0 1 8.211 9.395l1.363 69.51-94.406-15.227-4.498-65.548c-.426-6.205 5.017-11.202 11.163-10.249" style="fill:#444"/><circle cx="79.591" cy="275.964" r="6.892" style="fill:#efebf7"/><path d="M168.345 308.505c-6.826.47-14.364 1.822-21.19 2.292-1.423.098-3.277-.171-3.404-1.694-.066-.794.449-1.594 1.093-2.055s1.399-.652 2.134-.833c-1.76.904-3.812.744-5.689.712-.673-.011-1.406-.122-1.807-.673-.522-.718-.215-1.902.433-2.608s1.536-1.052 2.388-1.373c-1.27.916-3.354 1.452-4.778 1.204-1.608-3.197.986-5.033 2.684-6.622 7.305-6.843 14.301-7.676 22.445-8.699 15.872-1.992 28.619.15 40.892 9.193-3.308 4.923-4.19 10.745-6.43 16.268-5.497-1.15-10.567-3.409-16.013-2.47-4.657.802-9.12 2.717-13.706 4.1-.724.218-1.461.439-2.193.42-.732-.018-2.685-.008-3.079-.645-.607-.981-.074-2.717.931-3.383 3.142-2.087 5.289-3.134 5.289-3.134" style="fill:#ffbcae"/><path d="M167.699 301.142a1.1 1.1 0 0 1 .66 1.113 1.1 1.1 0 0 1-1.197.994c-4.227-.391-13.679.342-21.043 3.976a1.1 1.1 0 1 1-.974-1.972c7.826-3.863 17.576-4.625 22.22-4.194q.179.014.334.083M163.818 294.669a1.1 1.1 0 0 1-.475 2.111c-7.151-.262-16.287 2.531-23.275 7.117a1.101 1.101 0 0 1-1.208-1.84c7.458-4.894 16.87-7.759 24.563-7.478q.211.011.395.09M163.613 288.497a.88.88 0 0 1-.395 1.688c-8.034-.421-15.828 2.362-22.537 8.048a.88.88 0 0 1-1.139-1.343c7.058-5.982 15.278-8.908 23.768-8.462q.163.008.303.069M174.49 304.572a.88.88 0 0 1-.045 1.636q-.925.338-1.795.649c-4.996 1.792-8.297 2.976-9.763 6.693a.88.88 0 0 1-1.142.495l-.026-.01a.88.88 0 0 1-.469-1.132c1.759-4.458 5.553-5.818 10.806-7.703q.864-.308 1.783-.644a.87.87 0 0 1 .651.016"/><path d="M222.916 189.839c10.109 2.152 18.942 8.464 25.926 16.083 15.732 17.165 27.978 37.622 33.735 60.298 4.641 18.281 9.848 52.026-4.812 67.109-11.084 11.393-98.515-11.216-97.623-17.984 1.31-9.931.393-22.758 1.702-32.688 12.024-.79 30.424 4.526 42.448 3.736 1.426-31.529 1.653-65.139-1.376-96.554" style="fill:#5274e0"/><path d="M157.133 106.149c9.107-16.047 29.086-24.773 47.248-21.519s33.56 17.752 38.895 35.415.854 37.728-10.676 52.133c4.085-3.026 12.472.717 16.294 4.07s5.854 8.26 7.546 13.055c1.691 4.794 3.234 9.782 6.406 13.755 3.49 4.37 8.874 7.174 14.456 7.527-11.342 4.337-24.884 6.118-36.592 2.894s-22.33-10.269-29.853-19.801c-4.226 5.654-9.918 8.62-16.763 10.343s-13.975 1.868-21.032 2.003c-6.137.118-12.756.093-17.737-3.495-5.305-3.822-7.399-11.229-5.682-17.539 1.716-6.309 6.79-11.4 12.785-14.012-3.668-19.681-1.629-45.149-5.295-64.829" style="fill:#7db7e6"/><defs><path id="q" d="M152.262 140.185c1.067 10.837 1.178 23.587 8.749 32.239 7.144 8.164 19.707 10.425 29.868 6.627s17.823-12.876 21.439-23.103c6.763-19.126 2.639-43.365-17.491-52.245-8.578-3.784-18.621-3.921-27.441-.743-4.222 1.521-8.315 3.894-10.843 7.604-5.515 8.097-5.306 19.22-4.281 29.621"/></defs><use xlink:href="#q" style="overflow:visible;fill:#ffbcae"/><path d="M152.738 150.125c-1.168-12.847-.667-22.426 3.416-31.012s13.256-15.535 22.618-13.878c8.744 1.548 18.077 9.416 22.436 17.152 6.114 10.85 8.468 20.147 11.516 34.4 7.029-11.127 10.785-24.451 7.545-37.208s-12.908-23.968-25.442-27.981-27.516-.104-35.673 10.225c-9.562 12.105-7.963 32.955-6.416 48.302" style="fill:#7bb7e7"/><path d="M175.764 167.022c.759.058 1.525.043 2.285-.05 3.376-.414 6.517-2.353 8.401-5.188a1.29 1.29 0 0 0-2.148-1.426 9.35 9.35 0 0 1-6.568 4.056 9.34 9.34 0 0 1-7.352-2.35 1.287 1.287 0 1 0-1.738 1.903c1.948 1.78 4.499 2.855 7.12 3.055M169.76 157.862q.203.016.404-.048a18.1 18.1 0 0 0 8.198-5.492 1.046 1.046 0 1 0-1.595-1.357 16.2 16.2 0 0 1-4.825 3.834 50.3 50.3 0 0 0 3.996-15.826 1.05 1.05 0 0 0-.958-1.13l-.006-.001a1.046 1.046 0 0 0-1.123.958 48.2 48.2 0 0 1-4.946 17.546 1.048 1.048 0 0 0 .855 1.516M193.312 140.235c0 3.939-1.892 7.132-4.226 7.132s-4.226-3.193-4.226-7.132 1.892-7.132 4.226-7.132 4.226 3.193 4.226 7.132M170.066 139.971c0 3.939-1.892 7.132-4.226 7.132s-4.226-3.193-4.226-7.132 1.892-7.132 4.226-7.132 4.226 3.193 4.226 7.132M161.311 124.526c-1.482-.219-3.278.252-4.307.776-.494.252-.97.574-1.275 1.036-.306.462-.41 1.087-.148 1.576.478.892 1.748.854 2.747.693l3.382-.547c.595-.096 1.248-.225 1.619-.701.362-.465.329-1.16.015-1.658-.439-.698-1.184-1.05-2.033-1.175M194.489 125.315a2 2 0 0 0-.185-.201c-1.184-1.094-3.764-1.216-5.27-.933-.811.152-1.609.602-1.972 1.342-.364.74-.15 1.776.582 2.157.371.193.806.201 1.224.205l4.121.038c.471.004.973 0 1.369-.256.749-.484.688-1.644.131-2.352M186.888 576.099a1.395 1.395 0 0 1-1.379-1.196 1271 1271 0 0 1-12.811-187.646 1.395 1.395 0 0 1 1.394-1.386h.009c.77.004 1.391.633 1.386 1.403a1268.5 1268.5 0 0 0 12.782 187.233 1.394 1.394 0 0 1-1.381 1.592M220.196 392.718c-4.741 0-9.483-.381-14.173-1.149a1.393 1.393 0 0 1-1.15-1.601 1.387 1.387 0 0 1 1.601-1.15 85.5 85.5 0 0 0 41.479-3.513 1.39 1.39 0 0 1 1.772.865 1.393 1.393 0 0 1-.865 1.771 88.3 88.3 0 0 1-28.664 4.777M142.436 389.525c-5.367 0-10.745-1.337-15.385-3.965a1.394 1.394 0 0 1 1.375-2.427c7.425 4.206 16.931 4.778 24.807 1.491a1.394 1.394 0 0 1 1.075 2.573c-3.734 1.558-7.8 2.328-11.872 2.328M177.559 207.305c-9.033 0-18.084-2.083-26.121-6.14a1.114 1.114 0 1 1 1.005-1.991c11.923 6.017 26.168 7.517 39.084 4.112 12.915-3.405 24.57-11.731 31.977-22.845a1.116 1.116 0 0 1 1.857 1.237c-7.705 11.561-19.83 20.223-33.265 23.765a57 57 0 0 1-14.537 1.862M190.633 180.266a1.116 1.116 0 0 1-.551-2.086c13.501-7.641 23.427-21.275 26.552-36.472a1.115 1.115 0 1 1 2.185.449c-3.253 15.818-13.585 30.01-27.639 37.964a1.1 1.1 0 0 1-.547.145M219.065 130.787h-.029a1.115 1.115 0 0 1-1.086-1.144c.294-11.412-6.33-22.586-16.483-27.805a1.115 1.115 0 1 1 1.02-1.984c10.899 5.602 18.01 17.597 17.694 29.847a1.12 1.12 0 0 1-1.116 1.086M182.268 284.466a1.001 1.001 0 0 1-.231-1.973 320.7 320.7 0 0 1 68.792-8.694c.52-.025 1.007.431 1.017.983a1 1 0 0 1-.983 1.017 318.8 318.8 0 0 0-68.362 8.64 1 1 0 0 1-.233.027M233.529 268.196a1 1 0 0 1-.971-.765 191.6 191.6 0 0 1-5.298-39.352 1 1 0 0 1 .97-1.029 1 1 0 0 1 1.029.97 189.6 189.6 0 0 0 5.242 38.94 1 1 0 0 1-.972 1.236M259.363 338.582c-22.681 0-58.164-9.742-77.539-19.134a1 1 0 1 1 .872-1.799c12.528 6.072 31.224 12.067 48.791 15.645 19.63 3.998 35.055 4.369 42.321 1.018 2.565-1.184 4.139-2.827 4.675-4.884.14-.535.692-.85 1.22-.716a1 1 0 0 1 .716 1.22c-.695 2.665-2.638 4.75-5.772 6.195-3.704 1.708-9.005 2.455-15.284 2.455"/><path d="M195.85 151.782h-11.858a4.86 4.86 0 0 1-4.809-4.232l-1.462-11.406a4.847 4.847 0 0 1 4.809-5.464h14.832a4.848 4.848 0 0 1 4.806 5.485l-1.511 11.406a4.864 4.864 0 0 1-4.807 4.211m-13.321-19.102a2.85 2.85 0 0 0-2.826 3.211l1.462 11.406a2.855 2.855 0 0 0 2.825 2.486h11.858a2.86 2.86 0 0 0 2.824-2.474l1.511-11.406a2.85 2.85 0 0 0-2.824-3.222h-14.83zM168.791 150.658h-11.858a4.86 4.86 0 0 1-4.809-4.231l-1.463-11.406a4.848 4.848 0 0 1 4.809-5.465h14.832a4.848 4.848 0 0 1 4.806 5.484l-1.511 11.406a4.86 4.86 0 0 1-4.806 4.212m-13.32-19.102a2.85 2.85 0 0 0-2.825 3.211l1.463 11.406a2.855 2.855 0 0 0 2.825 2.486h11.858a2.86 2.86 0 0 0 2.824-2.474l1.511-11.406a2.85 2.85 0 0 0-2.824-3.222h-14.832z"/><path d="M178.079 140.95c-.079-1.174-.936-2.249-1.911-2.396-.464-.068-1.006.144-1.38.546-.139.148-.451.544-.348 1.004l-1.952.435c-.218-.978.088-1.999.838-2.803.823-.883 2.029-1.327 3.141-1.159 1.915.288 3.465 2.112 3.608 4.24z" style="fill:#020302"/><path d="M200.093 138.677h8.412v2h-8.412z" style="fill:#020302" transform="rotate(-5.97 204.289 139.67)"/><path d="M72.442 318.789s-3.107-6.44-3.204-11.816c0 0-3.404-9.212 3.28-15.083 1.511-1.327 4.044-.139 4.387.729-.544-1.082.736-2.514 2.045-3.011s2.986-.153 3.948.718a2.92 2.92 0 0 1 .763 3.289c.22-.568.4-1.267 1.193-1.94.922-.782 1.845-.474 2.553-.311.849.195 1.276.946 1.547 1.624a15.9 15.9 0 0 1 1.148 5.443c.113-.798 2.102-.817 2.904-.342s1.131 1.313 1.33 2.1c2.813 11.137 5.393 16.243 8.145 25.26-2.345 2.506-11.224 2.587-15.113 2.609-6.493.038-10.384-5.521-14.926-9.269" style="fill:#ffbcae"/><path d="M89.926 314.994a.99.99 0 0 1-.969-.789 38.9 38.9 0 0 1 .064-16.247.99.99 0 1 1 1.937.418 37 37 0 0 0-.06 15.425.992.992 0 0 1-.972 1.193M83.962 313.299a.99.99 0 0 1-.935-.66c-2.262-6.393-.992-15.898 1.351-21.599a.992.992 0 0 1 1.833.754c-2.234 5.435-3.337 14.47-1.315 20.183a.993.993 0 0 1-.934 1.322M77.69 313.721a.99.99 0 0 1-.824-.439c-3.65-5.442-3.237-15.046-1.809-19.822.457-1.526 1.238-3.38 3.248-4.169a.992.992 0 0 1 .724 1.846c-1.205.473-1.724 1.727-2.072 2.892-1.373 4.59-1.596 13.45 1.556 18.15a.99.99 0 0 1-.823 1.542"/><path d="M72.655 314.69a1 1 0 0 1-.816-.427c-4.943-7.14-4.852-16.321.233-23.393a.99.99 0 1 1 1.609 1.156c-4.589 6.382-4.672 14.667-.212 21.107a.992.992 0 0 1-.814 1.557"/></g><path d="M130.345 91.107c0-24.448-20.283-44.159-44.94-43.223-22.418.851-40.686 19.119-41.537 41.537-.936 24.657 18.774 44.94 43.223 44.94 2.211 0 4.383-.168 6.504-.488l15.239 8.222c2.247 1.212 4.743-1.188 3.589-3.465a83 83 0 0 1-4.188-9.792c13.192-7.408 22.11-21.524 22.11-37.731" style="fill:#916aad"/><path d="M81.554 113.521a15.65 15.65 0 0 0-.632-6.955c-7.224-2.317-13.133-9.558-13.919-17.103-.785-7.545 3.139-15.358 9.609-19.318s15.152-3.922 21.64.008c6.248 3.784 8.354 10.466 7.962 17.76s-3.394 14.832-10.246 17.362c.215 3.478-.5 6.988-.285 10.466-4.313 2.987-10.648 1.708-14.129-2.22" style="fill:#eee8f9"/><path d="M92.422 117.1c-1.162.048-2.371.092-3.58.136-1.285.046-2.571.093-3.799.144a4.353 4.353 0 0 1-4.534-3.987l-.169-1.966c-.142-1.649-.284-3.297-.396-4.757-8.785-3.178-14.65-12.73-13.421-22.015 1.237-9.347 9.483-17.084 18.868-17.782q.194-.015.387-.025c9.544-.51 18.788 6.365 21.044 15.652 2.211 9.1-2.484 19.17-10.728 23.218l.498 6.701a4.33 4.33 0 0 1-1.092 3.225 4.33 4.33 0 0 1-2.93 1.449zM68.206 84.877c-1.131 8.546 4.614 17.681 12.807 20.365a.85.85 0 0 1 .583.744c.118 1.586.277 3.44.438 5.296l.168 1.968a2.66 2.66 0 0 0 2.77 2.434c1.231-.052 2.52-.098 3.809-.145a892 892 0 0 0 3.571-.135 2.65 2.65 0 0 0 1.88-.89 2.64 2.64 0 0 0 .667-1.969l-.542-7.284a.85.85 0 0 1 .498-.837c7.858-3.541 12.389-12.995 10.317-21.523-2.035-8.377-10.695-14.817-19.303-14.357a13 13 0 0 0-.337.022c-8.477.629-16.21 7.876-17.326 16.311"/><path d="M84.853 117.754a4.72 4.72 0 0 1-4.713-4.33l-.186-2.166c-.128-1.494-.256-2.982-.361-4.324-8.919-3.35-14.685-12.903-13.437-22.328 1.249-9.443 9.686-17.394 19.207-18.102l.396-.025c9.708-.53 19.125 6.479 21.423 15.934 2.241 9.224-2.353 19.289-10.7 23.526l.48 6.454a4.7 4.7 0 0 1-1.186 3.498 4.7 4.7 0 0 1-3.178 1.571l-.16.009h-.001c-1.159.048-2.365.092-3.57.136l-.254.009c-1.203.044-2.404.087-3.554.135zm1.926-50.564q-.49 0-.981.026l-.38.024c-9.185.683-17.323 8.353-18.529 17.462-1.193 9.018 4.596 18.514 13.181 21.619l.225.081.018.238c.108 1.401.243 2.973.378 4.553l.186 2.167a3.99 3.99 0 0 0 4.151 3.65c1.151-.049 2.353-.092 3.557-.136l.244-.009c1.215-.044 2.42-.088 3.578-.136l.135-.008a3.97 3.97 0 0 0 2.682-1.326 3.96 3.96 0 0 0 1-2.951l-.517-6.95.224-.11c8.051-3.954 12.678-13.969 10.532-22.8-2.139-8.799-10.667-15.394-19.684-15.394m-1.923 48.865a3.027 3.027 0 0 1-3.023-2.775l-.169-1.968c-.16-1.857-.32-3.713-.438-5.3a.48.48 0 0 0-.329-.42c-8.354-2.736-14.211-12.051-13.058-20.764 1.128-8.53 9.053-15.991 17.664-16.632l.343-.022c8.791-.471 17.608 6.098 19.683 14.639 2.114 8.696-2.509 18.336-10.523 21.948a.48.48 0 0 0-.282.473l.542 7.284a3 3 0 0 1-.76 2.242 3 3 0 0 1-2.14 1.013c-1.16.048-2.367.091-3.573.135l-.414.015c-1.15.042-2.294.084-3.393.13zm1.887-47.165q-.427 0-.854.023l-.329.021c-8.281.616-15.901 7.79-16.986 15.992-1.108 8.378 4.524 17.334 12.555 19.964.471.154.8.573.837 1.068.118 1.584.277 3.438.437 5.292l.169 1.968a2.287 2.287 0 0 0 2.386 2.097c1.1-.047 2.246-.089 3.397-.13l.414-.015a628 628 0 0 0 3.569-.135 2.27 2.27 0 0 0 1.619-.767c.417-.467.621-1.07.575-1.695l-.542-7.284c-.038-.509.25-.992.715-1.202 7.7-3.47 12.141-12.738 10.109-21.1-1.93-7.935-9.921-14.097-18.071-14.097"/><path d="m81.614 110.276 13.785-.73.09 1.696-13.785.73z"/><path d="m81.35 112.364-.129-2.434 14.523-.766.129 2.434zm.648-1.734.051.958 13.047-.688-.051-.958z"/><path d="m90.788 93.92-.52-.054a142 142 0 0 1-3.44-.426l.012.287.689 16.179-1.697.073-.689-16.179-.027-.597-1.703-.244c-2.571-.37-4.022-1.345-4.312-2.9-.15-.802.105-1.644.698-2.309.674-.757 1.691-1.186 2.655-1.12 1.519.105 2.96 1.239 3.671 2.888.307.71.472 1.454.569 2.19 1.251.171 2.51.333 3.76.471q.3.034.597.061.081-.486.169-.972c.2-1.107.432-2.179 1.062-3.13.799-1.205 2.11-1.862 3.345-1.672.804.124 1.51.603 1.988 1.348.54.841.705 1.896.442 2.821-.417 1.465-1.751 2.663-3.483 3.126a8.2 8.2 0 0 1-2.083.255 73.8 73.8 0 0 0-.525 16.807l-1.693.141a75.5 75.5 0 0 1 .515-17.044m2.909-4.845c-.452.682-.639 1.569-.807 2.494a60 60 0 0 0-.13.74 6.2 6.2 0 0 0 1.375-.191c1.139-.304 2.037-1.069 2.287-1.949.13-.457.039-1.008-.238-1.439-.123-.191-.392-.521-.817-.587a1 1 0 0 0-.257-.009c-.568.042-1.113.489-1.413.941m-12.631-.197c-.141.159-.368.483-.297.868.177.947 1.666 1.355 2.885 1.53l1.282.184a6 6 0 0 0-.372-1.271c-.379-.878-1.215-1.796-2.229-1.866a1 1 0 0 0-.179.001 1.68 1.68 0 0 0-1.09.554"/><path d="m89.935 111.361-.031-.368a76 76 0 0 1 .464-16.745l-.141-.015c-1.003-.11-2.009-.236-3.012-.369l.698 16.394-2.436.104-.717-16.838-1.401-.2c-2.745-.395-4.301-1.471-4.623-3.198-.171-.915.116-1.872.786-2.624.748-.84 1.877-1.323 2.955-1.243 1.656.114 3.22 1.335 3.986 3.11.255.591.438 1.25.556 2.008 1.157.157 2.32.305 3.474.432l.25.025.112-.634c.208-1.146.449-2.259 1.118-3.268.878-1.326 2.334-2.046 3.709-1.833.91.14 1.706.678 2.243 1.514.596.929.778 2.095.487 3.121-.452 1.59-1.887 2.885-3.743 3.381a8.2 8.2 0 0 1-1.858.262 73.6 73.6 0 0 0-.478 16.412l.031.369zm-3.497-18.348.438.059c1.141.154 2.288.299 3.431.426l.901.091-.055.383a75.2 75.2 0 0 0-.542 16.59l.956-.08a74.3 74.3 0 0 1 .557-16.522l.046-.315.318-.001a7.7 7.7 0 0 0 1.99-.243c1.606-.429 2.841-1.528 3.222-2.869.234-.825.085-1.767-.398-2.52-.421-.656-1.036-1.076-1.733-1.183-1.092-.165-2.261.425-2.98 1.511-.592.892-.814 1.924-1.007 2.991q-.088.483-.169.967l-.057.339-.343-.032q-.299-.029-.602-.063a140 140 0 0 1-3.77-.471l-.28-.039-.037-.28c-.105-.809-.283-1.493-.541-2.092-.658-1.524-1.975-2.57-3.358-2.665-.847-.062-1.753.323-2.353.997-.517.58-.74 1.308-.611 1.996.258 1.381 1.604 2.257 4.001 2.602l2.005.286.042.905.674 15.81.958-.041zm5.882-.318.206-1.192c.175-.965.372-1.892.863-2.632.315-.475.948-1.049 1.695-1.105q.172-.013.339.013c.569.088.917.509 1.073.753.333.518.44 1.184.283 1.74-.285 1.002-1.285 1.867-2.548 2.205a6.5 6.5 0 0 1-1.457.204zm1.685-3.416c-.412.623-.59 1.47-.751 2.356l-.048.274c.3-.03.575-.079.833-.148 1.017-.271 1.813-.936 2.027-1.693.101-.352.024-.799-.193-1.138-.089-.139-.281-.377-.563-.421a.7.7 0 0 0-.173-.006c-.445.033-.899.425-1.132.776m-8.612 2.619-1.791-.257c-1.946-.28-3.021-.895-3.195-1.828-.101-.54.197-.973.384-1.182.345-.388.846-.64 1.339-.677q.118-.01.234-.001c1.167.08 2.118 1.107 2.541 2.088.173.4.302.842.396 1.35zm-4.051-2.774c-.096.108-.252.325-.209.554.105.563 1.043 1.012 2.574 1.232l.752.108a5 5 0 0 0-.234-.683c-.324-.75-1.061-1.585-1.915-1.643a1 1 0 0 0-.127 0 1.3 1.3 0 0 0-.841.432M110.725 88.712l4.075.664c.439.071.775.562.669.998a.867.867 0 0 1-.998.669l-4.075-.664c-.439-.071-.775-.562-.669-.998a.866.866 0 0 1 .998-.669"/><path d="M114.625 91.425q-.105 0-.214-.017l-4.075-.664a1.2 1.2 0 0 1-.793-.53 1.18 1.18 0 0 1-.177-.92 1.23 1.23 0 0 1 1.417-.947l4.075.664c.314.051.603.244.792.53.186.281.251.616.177.92a1.226 1.226 0 0 1-1.202.964m-4.05-2.356a.5.5 0 0 0-.489.399.44.44 0 0 0 .075.338.46.46 0 0 0 .295.208l4.075.664a.5.5 0 0 0 .579-.391.44.44 0 0 0-.075-.337.46.46 0 0 0-.295-.209l-4.075-.664a1 1 0 0 0-.09-.008M112.808 75.27l-3.26.743c-.231.053-.438.071-.659-.037a.87.87 0 0 1-.427-.477c-.122-.396.051-.98.514-1.086l3.26-.743c.231-.053.438-.072.659.037.183.09.366.279.427.477.122.397-.051.98-.514 1.086"/><path d="M109.234 76.425c-.16 0-.331-.029-.507-.116a1.23 1.23 0 0 1-.618-.7 1.37 1.37 0 0 1 .124-1.054c.151-.26.386-.439.662-.502l3.259-.743c.259-.06.57-.099.904.065.288.141.53.416.618.701.104.338.056.741-.124 1.053a1.03 1.03 0 0 1-.661.502l-3.26.744c-.123.027-.256.05-.397.05m3.317-2.427c-.063 0-.136.011-.232.033l-3.26.743q-.114.026-.186.151a.63.63 0 0 0-.057.466.5.5 0 0 0 .236.253c.108.052.212.054.415.009l3.26-.744a.3.3 0 0 0 .186-.151.63.63 0 0 0 .057-.465.5.5 0 0 0-.236-.255.4.4 0 0 0-.183-.04M99.476 61.4l-1.112 2.969c-.071.188-.295.362-.477.427a.87.87 0 0 1-.659-.037c-.19-.103-.362-.265-.427-.477-.071-.23-.047-.434.037-.659l1.112-2.969c.071-.188.295-.362.477-.427a.87.87 0 0 1 .659.037c.19.103.362.265.427.477.071.23.047.434-.037.659"/><path d="M97.598 65.213c-.196 0-.389-.044-.547-.13-.302-.164-.516-.41-.604-.693-.09-.292-.076-.577.044-.898l1.111-2.968c.118-.314.445-.555.7-.646a1.23 1.23 0 0 1 .96.06c.303.166.516.412.604.694.09.293.076.578-.044.897l-1.112 2.969c-.117.314-.444.555-.699.646-.13.047-.272.069-.413.069m1.12-4.664a.5.5 0 0 0-.167.026c-.108.039-.233.149-.256.209l-1.111 2.968c-.063.168-.071.286-.03.421.029.095.121.191.25.261a.5.5 0 0 0 .358.013c.108-.039.232-.148.255-.208l1.112-2.969c.063-.168.071-.286.029-.422-.029-.094-.12-.19-.251-.261a.4.4 0 0 0-.189-.038M80.694 59.297a17 17 0 0 1 .563 4.216c.001.443-.302.896-.784.91-.433.013-.909-.308-.91-.784a16 16 0 0 0-.125-1.975 15 15 0 0 0-.152-.958l-.045-.229a15.624 15.624 0 0 0-.147-.609c-.111-.428.049-.943.514-1.086.407-.125.966.055 1.086.515"/><path d="M80.447 64.793c-.333 0-.672-.136-.912-.369a1.1 1.1 0 0 1-.342-.784 16 16 0 0 0-.27-2.865l-.043-.214a16 16 0 0 0-.143-.598c-.151-.583.065-1.318.763-1.533.336-.103.72-.061 1.028.111.266.148.452.384.524.663.377 1.451.57 2.901.575 4.308.002.613-.426 1.26-1.143 1.281zm-.774-4.027q.078.425.131.852c.083.653.126 1.333.128 2.02q.002.142.117.255c.106.102.279.177.412.16.264-.008.426-.286.425-.539a16.7 16.7 0 0 0-.551-4.124.33.33 0 0 0-.169-.204.6.6 0 0 0-.451-.05c-.275.085-.32.425-.265.64q.07.268.132.539l.093.45zM68.602 72.426l-2.698-2c-.167-.124-.278-.379-.293-.58a.87.87 0 0 1 .204-.617c.334-.356.816-.372 1.198-.089l2.698 2c.167.124.278.379.293.58a.86.86 0 0 1-.203.617c-.335.356-.816.372-1.199.089"/><path d="M69.165 72.991c-.268 0-.541-.089-.783-.268l-2.699-2c-.277-.206-.421-.575-.441-.85a1.23 1.23 0 0 1 .302-.897c.452-.481 1.147-.535 1.688-.134l2.699 2.001c.277.205.421.574.441.85.024.324-.095.676-.303.898-.248.264-.572.4-.904.4m-2.715-3.679a.5.5 0 0 0-.366.168.5.5 0 0 0-.104.337.5.5 0 0 0 .144.311l2.698 2c.243.18.514.163.708-.045a.5.5 0 0 0 .104-.337.5.5 0 0 0-.144-.31l-2.699-2.001a.57.57 0 0 0-.341-.123M62.926 86.591l-2.829.211c-.443.033-.896-.325-.91-.784-.014-.46.309-.875.784-.91l2.829-.21c.443-.033.897.325.91.784s-.309.873-.784.909"/><path d="M60.039 87.173c-.299 0-.597-.116-.83-.325a1.14 1.14 0 0 1-.392-.819c-.02-.675.475-1.242 1.126-1.29l2.829-.21c.329-.018.662.094.916.323.243.219.382.51.391.818.02.674-.475 1.241-1.127 1.29l-2.829.21zm2.818-1.908-.029.001-2.829.21c-.297.022-.449.289-.441.531a.42.42 0 0 0 .147.291.5.5 0 0 0 .365.135l2.829-.21c.297-.022.449-.29.442-.531a.42.42 0 0 0-.147-.291.52.52 0 0 0-.337-.136M65.972 99.515a19 19 0 0 1-3.855 1.812c-.42.142-.95-.07-1.086-.514-.133-.434.064-.934.514-1.086a18 18 0 0 0 2.287-.948l.094-.047-.01.005.216-.115a17 17 0 0 0 .876-.506c.379-.232.929-.185 1.182.218.234.372.186.933-.218 1.181"/><path d="M61.844 101.741c-.201 0-.403-.048-.587-.142a1.14 1.14 0 0 1-.579-.677c-.202-.656.127-1.335.749-1.544a18 18 0 0 0 2.24-.929l.288-.151q.437-.236.86-.496c.588-.361 1.346-.21 1.688.337.18.287.242.656.164.986-.07.3-.248.551-.502.707a19.3 19.3 0 0 1-3.931 1.847 1.3 1.3 0 0 1-.39.062m2.058-2.585q-.175.086-.354.169c-.599.279-1.233.533-1.885.752-.264.089-.35.394-.279.626a.4.4 0 0 0 .21.236.54.54 0 0 0 .404.036 18.6 18.6 0 0 0 3.779-1.777.38.38 0 0 0 .168-.244.58.58 0 0 0-.07-.425c-.14-.222-.462-.23-.675-.099q-.44.27-.894.516l-.172.091-.102-.099.062.12h-.001l-.188.098zM107.332 101.745l2.312 2.439c.16.168.275.34.293.58a.86.86 0 0 1-.203.617c-.15.16-.354.286-.581.293-.212.006-.465-.043-.617-.203l-2.312-2.439c-.16-.168-.275-.34-.293-.58a.86.86 0 0 1 .204-.617c.15-.16.354-.286.58-.293.211-.007.465.043.617.203"/><path d="M109.116 106.045c-.349 0-.656-.115-.85-.32l-2.311-2.439c-.168-.177-.365-.429-.393-.807a1.23 1.23 0 0 1 .303-.898c.238-.255.536-.4.839-.409.384-.008.695.105.896.319l2.312 2.439c.168.177.364.428.393.807a1.23 1.23 0 0 1-.303.898c-.238.255-.536.4-.839.409zm-2.366-4.134-.024.001c-.103.003-.22.067-.322.176a.5.5 0 0 0-.105.337c.009.119.061.215.192.353l2.312 2.439c.055.058.195.102.338.089.102-.003.22-.067.322-.176a.5.5 0 0 0 .104-.337c-.009-.119-.061-.216-.192-.353l-2.312-2.439c-.051-.055-.175-.09-.313-.09"/><path d="M391.976 83.659c0-23.976 19.892-43.307 44.072-42.388 21.986.835 39.901 18.75 40.736 40.736.918 24.181-18.412 44.073-42.388 44.073-2.168 0-4.298-.165-6.379-.479l-14.944 8.063c-2.204 1.189-4.651-1.165-3.52-3.398a81 81 0 0 0 4.107-9.603c-12.938-7.267-21.684-21.11-21.684-37.004" style="fill:#916aad"/><path d="M408.843 77.893a136.8 136.8 0 0 0 24.775-12.962c7.841 1.496 16.778 3.251 24.618 4.747-1.782 1.782-3.168 3.648-4.95 5.43.71 4.931 1.703 9.057 2.413 13.988-6.443 2.801-15.57 5.337-17.854 11.309-5.457-3.525-11.363-4.732-17.855-4.503.381-4.466-.738-9.256-2.293-13.46-3.653-.879-5.774-2.396-8.854-4.549" style="fill:#ede7f2"/><path d="M435.541 87.173a.8.8 0 0 1-.224.001c-6.131-.876-20.858-4.675-29.09-6.862a.765.765 0 0 1-.123-1.434c9.746-4.468 26.903-13.924 27.075-14.019a.77.77 0 0 1 .425-.093c9.807.722 18.481 2.041 25.783 3.922a.765.765 0 0 1 .317 1.311c-5.149 4.584-14.5 11.809-23.907 17.084a.7.7 0 0 1-.256.09m-26.885-7.8c7.312 1.924 20.771 5.369 26.621 6.249 8.591-4.847 17.107-11.309 22.316-15.805-6.855-1.657-14.878-2.836-23.875-3.508-1.828 1.004-15.718 8.616-25.062 13.064"/><path d="M435.425 87.633q-.086 0-.17-.012c-6.156-.88-20.902-4.684-29.145-6.873a1.215 1.215 0 0 1-.193-2.28c9.601-4.401 26.336-13.613 27.044-14.003.207-.115.439-.167.678-.148 9.83.724 18.532 2.047 25.861 3.934.437.113.773.455.878.892.107.437-.036.895-.374 1.194-5.162 4.596-14.542 11.844-23.984 17.14q-.189.106-.409.141h-.003a1 1 0 0 1-.183.015m-1.878-22.418a.3.3 0 0 0-.149.039c-.711.392-17.475 9.619-27.107 14.034a.31.31 0 0 0-.181.311.31.31 0 0 0 .231.278c8.222 2.184 22.928 5.978 29.038 6.851l.161.445-.071-.446a.3.3 0 0 0 .107-.036c9.382-5.261 18.699-12.461 23.828-17.028a.31.31 0 0 0 .096-.307.31.31 0 0 0-.227-.23c-7.277-1.874-15.924-3.189-25.703-3.909zm1.818 20.877-.154-.023c-5.842-.879-19.217-4.299-26.67-6.259l-1.192-.314 1.113-.53c9.397-4.473 23.466-12.188 25.039-13.053l.117-.065.134.01c9.012.674 17.069 1.858 23.947 3.52l.854.207-.665.573c-5.215 4.502-13.836 11.031-22.389 15.857zm-25.406-6.844c7.523 1.969 19.657 5.043 25.233 5.905 8.093-4.583 16.233-10.686 21.434-15.102-6.605-1.536-14.272-2.64-22.807-3.283-1.976 1.085-14.69 8.044-23.86 12.48" style="fill:#020302"/><path d="M436.595 102.063a.76.76 0 0 1-.585-.152c-5.901-4.576-12.506-6.397-17.666-4.866a.763.763 0 0 1-.976-.83c.58-4.572.233-8.842-1.092-13.438a.765.765 0 1 1 1.47-.424c1.278 4.43 1.685 8.575 1.264 12.947 5.242-1.093 11.572.695 17.293 4.912 3.95-5.564 9.937-9.442 17.818-11.541-1.566-3.767-1.969-8.667-2.298-12.66l-.063-.755a.765.765 0 0 1 1.525-.127l.063.756c.343 4.174.77 9.368 2.531 12.965a.764.764 0 0 1-.505 1.079c-8.254 2.023-14.397 5.992-18.257 11.799a.77.77 0 0 1-.513.331q-.006.004-.009.004"/><path d="M436.479 102.523c-.268 0-.531-.089-.746-.255-5.788-4.489-12.241-6.277-17.261-4.789a1.2 1.2 0 0 1-1.132-.239 1.21 1.21 0 0 1-.419-1.081c.571-4.51.229-8.722-1.078-13.255a1.216 1.216 0 0 1 .83-1.505 1.224 1.224 0 0 1 1.506.832c1.242 4.304 1.668 8.299 1.332 12.519 5.144-.859 11.174.883 16.69 4.834 3.926-5.336 9.746-9.106 17.313-11.212-1.439-3.763-1.827-8.491-2.141-12.32l-.062-.755a1.21 1.21 0 0 1 1.11-1.312 1.223 1.223 0 0 1 1.313 1.11l.063.756c.339 4.139.762 9.285 2.487 12.804.162.334.164.716.007 1.051-.154.333-.45.576-.809.665-8.142 1.994-14.194 5.901-17.989 11.61a1.22 1.22 0 0 1-.816.527l-.081-.444.069.446a2 2 0 0 1-.186.013m-14.319-6.459c4.486 0 9.523 1.921 14.127 5.491a.3.3 0 0 0 .238.062l.006-.001a.33.33 0 0 0 .209-.135c3.924-5.904 10.158-9.937 18.526-11.987a.316.316 0 0 0 .207-.443c-1.798-3.671-2.229-8.911-2.575-13.122l-.065-.759c-.013-.172-.14-.29-.338-.287a.312.312 0 0 0-.286.339l.062.755c.322 3.93.724 8.82 2.265 12.524l.197.476-.498.133c-7.772 2.07-13.682 5.894-17.566 11.366l-.266.374-.37-.272c-5.621-4.143-11.786-5.908-16.933-4.833l-.599.125.059-.61c.416-4.324.019-8.385-1.249-12.779a.315.315 0 0 0-.577-.065.31.31 0 0 0-.026.238c1.343 4.656 1.694 8.983 1.107 13.62a.31.31 0 0 0 .107.278.31.31 0 0 0 .294.063 13.8 13.8 0 0 1 3.944-.551" style="fill:#020302"/><path d="M451.649 101.717a.766.766 0 0 1-.874-.86c1.362-9.889-4.471-20.444-13.569-24.551a.765.765 0 1 1 .63-1.394c9.692 4.376 15.906 15.619 14.455 26.154a.77.77 0 0 1-.642.651"/><path d="M451.533 102.177q-.081 0-.164-.011a1.2 1.2 0 0 1-.806-.47 1.2 1.2 0 0 1-.235-.901c1.336-9.698-4.385-20.05-13.308-24.078a1.218 1.218 0 0 1 .073-2.246c.302-.116.634-.104.929.03 9.867 4.454 16.193 15.901 14.714 26.626a1.22 1.22 0 0 1-1.203 1.05M437.52 75.295a.309.309 0 0 0-.285.185.313.313 0 0 0 .156.415c9.274 4.186 15.219 14.945 13.83 25.024a.315.315 0 0 0 .269.354l.09-.001a.31.31 0 0 0 .263-.267c1.425-10.344-4.677-21.384-14.194-25.681a.3.3 0 0 0-.129-.029" style="fill:#020302"/><path d="M453.878 102.845a2.605 2.605 0 1 1-5.15.79 2.605 2.605 0 0 1 5.15-.79"/><path d="M451.302 106.297a3.06 3.06 0 0 1-3.021-2.593 3.06 3.06 0 0 1 2.56-3.485 3.03 3.03 0 0 1 2.271.557 3.04 3.04 0 0 1 1.213 2 3.04 3.04 0 0 1-.558 2.272 3.03 3.03 0 0 1-2 1.212 3 3 0 0 1-.465.037m.006-5.211q-.164 0-.331.025a2.16 2.16 0 0 0-1.803 2.456 2.152 2.152 0 0 0 3.866.947c.341-.464.48-1.033.392-1.601a2.14 2.14 0 0 0-.854-1.41 2.14 2.14 0 0 0-1.27-.417" style="fill:#020302"/></svg>