<?xml version="1.0" encoding="utf-8"?>
<!-- Generator: Adobe Illustrator 27.5.0, SVG Export Plug-In . SVG Version: 6.00 Build 0)  -->
<svg version="1.1" xmlns="http://www.w3.org/2000/svg" xmlns:xlink="http://www.w3.org/1999/xlink" x="0px" y="0px"
	 viewBox="0 0 500 500" style="enable-background:new 0 0 500 500;" xml:space="preserve">
<g id="BACKGROUND">
	<g>
		<rect style="fill:#DCE4F9;" width="500" height="500"/>
	</g>
</g>
<g id="OBJECTS">
	<g>
		<defs>
			<rect id="SVGID_1_" width="500" height="500"/>
		</defs>
		<clipPath id="SVGID_00000014618712717395306580000016815425741515827619_">
			<use xlink:href="#SVGID_1_"  style="overflow:visible;"/>
		</clipPath>
		<g style="opacity:0.64;clip-path:url(#SVGID_00000014618712717395306580000016815425741515827619_);">
			<g>
				<path style="fill:#FFFFFF;" d="M553.255,93.324c-4.189,18.374-20.89,31.207-37.944,39.228
					c-17.053,8.021-35.722,12.986-51.159,23.796c-12.107,8.477-21.644,20.167-33.503,28.987
					c-11.859,8.821-25.828,13.217-39.509,7.621c-8.846,8.056-17.323,17.982-28.001,23.687c-6.853,3.661-28.652,11.691-20.372-4.955
					c0.826-1.661,20.271-31.88,20.496-29.916c-1.41-12.982,3.188-26.494,12.222-35.922c9.035-9.428,22.339-14.597,35.369-13.742
					c-5.769-10.793,1.355-22.989,10.104-31.546c22.054-21.569,54.207-32.342,84.804-28.416c2.265-10.269,9.33-19.275,19.463-22.088
					c10.133-2.813,21.701,0.396,28.937,8.027C561.093,65.397,555.494,83.502,553.255,93.324z"/>
			</g>
			<g>
				<path style="fill:#FFFFFF;" d="M534.22,233.033c-18.804,30.057-51.681,51.814-87.865,58.148
					c-3.371,15.27-18.74,22.327-33.781,16.077c-11.906,7.881-24.779,14.441-38.275,19.504c-3.896,1.462-8.215,2.81-12.189,1.555
					c-4.212-1.331-6.999-5.497-7.297-9.706c-0.298-4.209,1.568-8.359,4.32-11.669c6.343-7.63,17.714-11.108,27.548-8.426
					c-7.842-6.371-12.354-22.264-8.537-31.374c3.817-9.11,12.533-15.835,22.203-19.25c9.671-3.415,20.245-3.84,30.534-3.117
					c5.583-17.813,16.341-34.044,33.059-43.688c16.717-9.644,37.247-13.146,56.449-9.632c5.728-12.182,17.931-18.352,31.819-20.304
					c13.888-1.952,28.661,3.252,37.854,13.337C577.517,206.935,559.58,224.964,534.22,233.033z"/>
			</g>
			<g>
				<path style="fill:#FFFFFF;" d="M133.413,307.58c11.995,2.518,7.54-8.604,5.593-12.828c-3.316-7.194-8.046-16.384-19.033-20.236
					c-7.727-2.709-17.791-2.048-22.21,2.281c-0.621-13.382-8.093-27.694-24.513-36.758c-16.42-9.064-38.393-13.167-57.668-10.768
					c-0.686-7.733-8.86-13.254-17.259-19.249c-14.078-10.048-28.814-20.416-47.337-25.928s-41.977-4.628-52.167,5.549
					c2.564-13.089-14.267-22.717-24.55-35.089c-10.282-12.372-27.729-22.688-47.622-26.855c-19.893-4.168-41.882-1.71-55.435,7.172
					c-22.231,14.57-12.95,44.489,7.924,63.272c20.875,18.783,54.826,30.001,88.049,33.58c16.035,22.974,52.957,43.553,89.235,43.687
					c9.456,8.487,19.4,16.298,34.351,18.561s16.752-2.28,28.486-7.559c13.45,8.422,31.672,8.214,46.368,3.175
					C80.668,295.064,108.488,302.344,133.413,307.58z"/>
			</g>
			<g>
				<path style="fill:#FFFFFF;" d="M146.664,217.903c-10.696-2.477-18.484,10.267-60.706-16.528c0,0-11.628-10.236-22.901-10.641
					c-11.273-0.405-9.873-0.433-20.21-4.948c-10.337-4.515-19.42-13.343-21.389-24.45c-36.831,9.246-78.971-8.94-92.305-44.496
					c-20.342,0.675-40.829-7.339-55.315-21.637c-14.485-14.298-22.765-34.679-22.356-55.028
					c40.741-19.68,90.051-13.289,123.527,17.148c10.37-14.38,30.795-19.192,47.819-14.24c17.023,4.952,30.715,18.102,39.986,33.214
					s14.673,32.221,19.988,49.135c11.201,0.815,20.266,3.03,27.151,11.903c6.886,8.872,9.796,20.717,7.806,31.77
					c19.25,0.798,34.035,13.615,38.858,30.738c1.376,4.884-0.573,10.57-2.429,14.451C152.84,217.115,149.71,218.609,146.664,217.903
					z"/>
			</g>
		</g>
	</g>
	<g>
		<g>
			<defs>
				
					<rect id="SVGID_00000142875373252857035650000018236638906250807709_" x="0.201" y="254.124" width="499.799" height="245.876"/>
			</defs>
			<clipPath id="SVGID_00000012468886120600526620000004072497839907166859_">
				<use xlink:href="#SVGID_00000142875373252857035650000018236638906250807709_"  style="overflow:visible;"/>
			</clipPath>
			<g style="clip-path:url(#SVGID_00000012468886120600526620000004072497839907166859_);">
				<g>
					<g>
						<g>
							<path style="fill:#8EAD61;" d="M76.381,422.077c-17.407-26.184-42.531-51.132-73.926-52.869
								c14.77,34.915,34.198,67.857,57.609,97.676c8.145,10.375,42.286,52.174,52.746,23.628
								C118.811,474.14,85.554,435.874,76.381,422.077z"/>
						</g>
						<g>
							<path style="fill:#435421;" d="M-52.082,439.683c7.249,36.964,38.864,66.064,74.742,77.539
								c25.752,8.237,88.292,15.969,109.331-5.022c-16.225-29.421-51.734-51.526-82.272-63.329
								C41.882,445.843-54.16,429.086-52.082,439.683z"/>
						</g>
					</g>
					<g>
						<g>
							<path style="fill:#8EAD61;" d="M428.207,412.329c17.407-26.184,42.531-51.132,73.926-52.869
								c-14.77,34.916-34.198,67.857-57.609,97.676c-8.145,10.375-42.285,52.174-52.746,23.628
								C385.778,464.392,419.035,426.126,428.207,412.329z"/>
						</g>
						<g>
							<path style="fill:#435421;" d="M556.67,429.935c-7.249,36.964-38.864,66.064-74.742,77.539
								c-25.752,8.237-88.292,15.969-109.331-5.022c16.225-29.421,51.734-51.526,82.272-63.329
								C462.707,436.095,558.749,419.338,556.67,429.935z"/>
						</g>
					</g>
				</g>
				<g>
					<g>
						<defs>
							<path id="SVGID_00000089544224067725484070000002148938181288694436_" d="M356.835,483.952
								c0.954-30.982,1.951-62.28,9.849-92.254s23.428-58.947,48.427-77.273c6.131-4.495,13.24-8.431,20.836-8.134
								c14.491,0.567,24.193,16.793,23.386,31.272c-0.807,14.48-8.92,27.372-16.394,39.799
								c-19.434,32.312-36.134,66.268-49.864,101.385c5.393-19.239,13.181-31.205,28.106-44.489
								c5.633-5.013,11.991-9.506,19.289-11.4c7.298-1.894,15.695-0.81,21.285,4.25c8.15,7.376,7.865,20.751,2.798,30.506
								c-5.066,9.755-13.778,16.987-21.54,24.771c-7.762,7.784-15.069,17.107-15.945,28.064H358.93
								C358.93,502.252,356.583,492.145,356.835,483.952z"/>
						</defs>
						<use xlink:href="#SVGID_00000089544224067725484070000002148938181288694436_"  style="overflow:visible;fill:#B7C97B;"/>
						<clipPath id="SVGID_00000106849669032265634040000015846797801202639499_">
							<use xlink:href="#SVGID_00000089544224067725484070000002148938181288694436_"  style="overflow:visible;"/>
						</clipPath>
						<g style="clip-path:url(#SVGID_00000106849669032265634040000015846797801202639499_);">
							<path d="M358.079,545.372l1.241-7.452c13.707-82.272,41.543-160.759,82.736-233.278l1.738,0.988
								c-39.878,70.204-67.202,146.015-81.269,225.445c22.193-45.047,59.267-86.106,107.631-119.103l1.127,1.652
								c-50.412,34.394-88.473,77.574-110.066,124.874L358.079,545.372z"/>
						</g>
					</g>
					<g>
						<defs>
							<path id="SVGID_00000003809501831111601950000002880346535000161935_" d="M138.142,483.952
								c-0.953-30.982-1.951-62.28-9.849-92.254c-7.898-29.974-23.428-58.947-48.427-77.273c-6.131-4.495-13.24-8.431-20.837-8.134
								c-14.491,0.567-24.193,16.793-23.386,31.272c0.807,14.48,8.92,27.372,16.394,39.799
								c19.434,32.312,36.135,66.268,49.864,101.385c-5.393-19.239-13.181-31.205-28.106-44.489
								c-5.633-5.013-11.991-9.506-19.289-11.4c-7.299-1.894-15.695-0.81-21.285,4.25c-8.15,7.376-7.865,20.751-2.798,30.506
								c5.066,9.755,13.778,16.987,21.54,24.771c7.762,7.784,15.069,17.107,15.945,28.064h68.141
								C136.047,502.252,138.394,492.145,138.142,483.952z"/>
						</defs>
						<use xlink:href="#SVGID_00000003809501831111601950000002880346535000161935_"  style="overflow:visible;fill:#B7C97B;"/>
						<clipPath id="SVGID_00000135678102183690422940000005259098041029010097_">
							<use xlink:href="#SVGID_00000003809501831111601950000002880346535000161935_"  style="overflow:visible;"/>
						</clipPath>
						<g style="clip-path:url(#SVGID_00000135678102183690422940000005259098041029010097_);">
							<path d="M129.604,548.042l-2.022-4.403c-20.515-44.667-52.995-89.267-93.929-128.978l1.393-1.436
								c39.772,38.584,71.604,81.775,92.302,125.195C124.3,453.518,93.356,370.637,39.93,304.527l1.556-1.258
								c54.711,67.701,85.965,152.91,88.004,239.929L129.604,548.042z"/>
						</g>
					</g>
				</g>
			</g>
			<g style="clip-path:url(#SVGID_00000012468886120600526620000004072497839907166859_);">
				<g>
					<g>
						<g>
							<path d="M109.935,489.864c-0.419,0-0.807-0.27-0.936-0.692c-17.623-57.525-48.389-111.376-88.969-155.729
								c-0.365-0.399-0.337-1.019,0.061-1.384c0.4-0.365,1.019-0.337,1.384,0.061c40.775,44.566,71.688,98.675,89.396,156.477
								c0.158,0.518-0.132,1.065-0.649,1.224C110.127,489.851,110.031,489.864,109.935,489.864z"/>
						</g>
					</g>
					<g>
						<g>
							<g>
								<g>
									<path style="fill:#D25948;" d="M10.763,330.632c1.699,3.211,3.42,6.454,5.818,9.182c2.399,2.728,5.576,4.932,9.17,5.459
										c3.594,0.527,7.588-0.904,9.465-4.014c2.21-3.663,1.057-8.381-0.531-12.353c-1.718-4.296-3.875-8.416-6.426-12.275
										c-1.099-1.663-2.879-3.49-4.755-2.815c-1.282,0.461-1.914,1.993-1.784,3.349c0.13,1.356,0.842,2.578,1.537,3.75
										c-0.681-1.098-1.609-1.251-2.576-2.108c-0.967-0.856-2.263-1.434-3.541-1.245c-2.203,0.325-3.53,2.831-3.358,5.051
										c0.172,2.22,1.425,4.189,2.641,6.055c-0.289-1.528-1.99-3.16-3.086-4.264c-1.096-1.104-3.221-1.31-4.066-0.005
										c-0.599,0.924-0.324,2.156,0.115,3.166C9.824,328.574,10.248,329.658,10.763,330.632z"/>
								</g>
							</g>
						</g>
						<g>
							<g>
								<g>
									<g>
										<path style="fill:#EDB0A9;" d="M24.145,341.115c-0.255,0-0.504-0.13-0.644-0.365c-1.53-2.564-4.196-4.42-7.13-4.966
											c-0.407-0.076-0.676-0.468-0.6-0.875c0.075-0.407,0.47-0.674,0.874-0.6c3.351,0.624,6.396,2.744,8.144,5.671
											c0.212,0.355,0.096,0.816-0.26,1.028C24.409,341.081,24.276,341.115,24.145,341.115z"/>
									</g>
								</g>
							</g>
							<g>
								<g>
									<g>
										<path style="fill:#EDB0A9;" d="M31.42,337.474c-0.256,0-0.506-0.132-0.646-0.368c-1.689-2.855-2.466-6.249-2.188-9.555
											c0.036-0.412,0.403-0.721,0.811-0.684c0.413,0.034,0.719,0.397,0.685,0.811c-0.253,2.997,0.451,6.074,1.983,8.664
											c0.211,0.356,0.093,0.816-0.264,1.027C31.682,337.44,31.55,337.474,31.42,337.474z"/>
									</g>
								</g>
							</g>
							<g>
								<g>
									<g>
										<path style="fill:#EDB0A9;" d="M27.337,339.83c-0.28,0-0.548-0.157-0.677-0.427c-1.632-3.415-3.474-6.77-5.477-9.969
											c-0.22-0.351-0.113-0.814,0.238-1.033c0.35-0.219,0.814-0.114,1.034,0.238c2.032,3.247,3.902,6.65,5.559,10.117
											c0.179,0.374,0.021,0.821-0.354,1C27.556,339.807,27.446,339.83,27.337,339.83z"/>
									</g>
								</g>
							</g>
						</g>
					</g>
				</g>
				<g>
					<g>
						<g>
							<path d="M391.813,509.736c0.419,0,0.807-0.271,0.936-0.692c17.624-57.525,48.389-111.376,88.969-155.728
								c0.365-0.399,0.337-1.019-0.061-1.384c-0.4-0.365-1.019-0.337-1.384,0.062c-40.775,44.566-71.688,98.675-89.397,156.477
								c-0.158,0.518,0.132,1.065,0.649,1.224C391.621,509.722,391.717,509.736,391.813,509.736z"/>
						</g>
					</g>
					<g>
						<g>
							<g>
								<g>
									<path style="fill:#D25948;" d="M490.985,350.503c-1.699,3.211-3.42,6.454-5.818,9.182c-2.398,2.728-5.576,4.932-9.17,5.459
										c-3.594,0.527-7.588-0.904-9.465-4.014c-2.211-3.663-1.057-8.381,0.531-12.353c1.718-4.296,3.875-8.416,6.426-12.275
										c1.099-1.663,2.879-3.489,4.755-2.814c1.282,0.461,1.914,1.993,1.784,3.349c-0.13,1.356-0.842,2.578-1.537,3.75
										c0.681-1.098,1.609-1.251,2.576-2.108c0.967-0.856,2.263-1.434,3.541-1.245c2.203,0.325,3.53,2.831,3.358,5.051
										c-0.172,2.22-1.425,4.19-2.641,6.055c0.289-1.528,1.99-3.16,3.086-4.264s3.221-1.31,4.067-0.005
										c0.599,0.924,0.324,2.155-0.115,3.166C491.924,348.445,491.5,349.529,490.985,350.503z"/>
								</g>
							</g>
						</g>
						<g>
							<g>
								<g>
									<g>
										<path style="fill:#EDB0A9;" d="M477.603,360.987c0.255,0,0.504-0.13,0.645-0.365c1.53-2.563,4.196-4.42,7.13-4.966
											c0.407-0.076,0.676-0.468,0.6-0.875c-0.075-0.407-0.47-0.674-0.874-0.6c-3.351,0.624-6.396,2.744-8.144,5.671
											c-0.212,0.355-0.096,0.816,0.26,1.028C477.339,360.952,477.472,360.987,477.603,360.987z"/>
									</g>
								</g>
							</g>
							<g>
								<g>
									<g>
										<path style="fill:#EDB0A9;" d="M470.328,357.345c0.256,0,0.506-0.132,0.646-0.368c1.689-2.856,2.466-6.249,2.188-9.555
											c-0.036-0.412-0.403-0.721-0.811-0.684c-0.413,0.034-0.719,0.397-0.685,0.811c0.253,2.997-0.451,6.074-1.983,8.664
											c-0.211,0.356-0.093,0.816,0.264,1.027C470.066,357.312,470.198,357.345,470.328,357.345z"/>
									</g>
								</g>
							</g>
							<g>
								<g>
									<g>
										<path style="fill:#EDB0A9;" d="M474.411,359.701c0.28,0,0.548-0.157,0.677-0.427c1.632-3.415,3.474-6.77,5.477-9.969
											c0.22-0.351,0.113-0.813-0.238-1.033c-0.35-0.219-0.814-0.114-1.034,0.238c-2.032,3.247-3.902,6.65-5.559,10.117
											c-0.179,0.374-0.021,0.821,0.353,1C474.192,359.678,474.302,359.701,474.411,359.701z"/>
									</g>
								</g>
							</g>
						</g>
					</g>
				</g>
				<g>
					<g>
						<g>
							<path d="M365.388,451.447c0.373-0.085,0.663-0.404,0.693-0.806c4.033-54.763,20.506-108.917,47.637-156.606
								c0.244-0.429,0.094-0.975-0.335-1.219c-0.43-0.244-0.975-0.094-1.219,0.335c-27.261,47.919-43.813,102.332-47.866,157.358
								c-0.036,0.493,0.334,0.921,0.826,0.957C365.215,451.474,365.304,451.466,365.388,451.447z"/>
						</g>
					</g>
					<g>
						<g>
							<g>
								<g>
									<path style="fill:#D25948;" d="M421.396,289.656c-0.861,3.201-1.736,6.436-3.318,9.35s-3.963,5.518-7.055,6.715
										c-3.092,1.197-6.936,0.732-9.236-1.655c-2.709-2.812-2.638-7.245-2.029-11.101c0.659-4.171,1.743-8.274,3.233-12.226
										c0.642-1.702,1.855-3.688,3.661-3.468c1.234,0.151,2.107,1.386,2.266,2.619c0.159,1.233-0.227,2.465-0.608,3.648
										c0.384-1.115,1.179-1.439,1.866-2.397c0.687-0.958,1.723-1.734,2.899-1.825c2.026-0.157,3.715,1.805,4.012,3.815
										c0.297,2.01-0.42,4.017-1.124,5.923c-0.052-1.418,1.131-3.216,1.883-4.419s2.601-1.819,3.618-0.828
										c0.72,0.701,0.725,1.853,0.539,2.84C421.815,287.634,421.657,288.685,421.396,289.656z"/>
								</g>
							</g>
						</g>
						<g>
							<g>
								<g>
									<g>
										<path style="fill:#EDB0A9;" d="M411.61,301.696c0.227-0.052,0.422-0.218,0.5-0.456c0.843-2.591,2.839-4.783,5.339-5.863
											c0.347-0.15,0.507-0.553,0.357-0.9c-0.149-0.347-0.555-0.505-0.9-0.357c-2.856,1.234-5.136,3.737-6.099,6.696
											c-0.117,0.359,0.08,0.746,0.44,0.863C411.368,301.719,411.493,301.722,411.61,301.696z"/>
									</g>
								</g>
							</g>
							<g>
								<g>
									<g>
										<path style="fill:#EDB0A9;" d="M404.398,299.928c0.228-0.052,0.423-0.22,0.5-0.458c0.925-2.883,0.929-6.061,0.012-8.946
											c-0.115-0.359-0.505-0.56-0.86-0.444c-0.36,0.114-0.56,0.499-0.445,0.86c0.832,2.616,0.829,5.497-0.01,8.112
											c-0.116,0.36,0.083,0.745,0.443,0.861C404.159,299.952,404.283,299.955,404.398,299.928z"/>
									</g>
								</g>
							</g>
							<g>
								<g>
									<g>
										<path style="fill:#EDB0A9;" d="M408.509,301.199c0.249-0.057,0.456-0.251,0.516-0.517c0.761-3.37,1.721-6.728,2.855-9.981
											c0.125-0.356-0.064-0.747-0.421-0.871c-0.355-0.124-0.747,0.063-0.872,0.421c-1.151,3.301-2.126,6.709-2.898,10.129
											c-0.083,0.369,0.148,0.735,0.517,0.818C408.31,301.222,408.413,301.22,408.509,301.199z"/>
									</g>
								</g>
							</g>
						</g>
					</g>
				</g>
				<g>
					<g>
						<g>
							<path d="M139.748,453.502c-0.373-0.085-0.663-0.404-0.693-0.806c-4.033-54.763-20.506-108.917-47.637-156.606
								c-0.244-0.429-0.094-0.975,0.335-1.219c0.43-0.244,0.975-0.093,1.219,0.335c27.261,47.919,43.813,102.332,47.866,157.358
								c0.036,0.493-0.334,0.921-0.826,0.957C139.922,453.529,139.833,453.522,139.748,453.502z"/>
						</g>
					</g>
					<g>
						<g>
							<g>
								<g>
									<path style="fill:#D25948;" d="M83.741,291.711c0.861,3.201,1.736,6.436,3.318,9.35c1.582,2.913,3.963,5.518,7.055,6.715
										c3.092,1.197,6.936,0.732,9.236-1.655c2.709-2.812,2.638-7.245,2.029-11.101c-0.659-4.171-1.744-8.274-3.233-12.226
										c-0.642-1.703-1.855-3.688-3.661-3.468c-1.234,0.151-2.107,1.386-2.266,2.619s0.227,2.465,0.608,3.648
										c-0.384-1.115-1.178-1.439-1.866-2.398c-0.687-0.958-1.723-1.734-2.899-1.825c-2.026-0.157-3.715,1.805-4.012,3.815
										c-0.297,2.01,0.42,4.017,1.124,5.923c0.052-1.418-1.131-3.216-1.883-4.42c-0.752-1.204-2.601-1.818-3.618-0.828
										c-0.72,0.701-0.725,1.853-0.539,2.84C83.321,289.69,83.48,290.741,83.741,291.711z"/>
								</g>
							</g>
						</g>
						<g>
							<g>
								<g>
									<g>
										<path style="fill:#EDB0A9;" d="M93.527,303.751c-0.227-0.052-0.422-0.218-0.5-0.456c-0.843-2.591-2.839-4.783-5.339-5.863
											c-0.347-0.15-0.507-0.553-0.357-0.9c0.149-0.347,0.555-0.504,0.9-0.357c2.856,1.234,5.136,3.737,6.099,6.696
											c0.117,0.359-0.08,0.746-0.439,0.863C93.768,303.774,93.643,303.778,93.527,303.751z"/>
									</g>
								</g>
							</g>
							<g>
								<g>
									<g>
										<path style="fill:#EDB0A9;" d="M100.738,301.984c-0.228-0.052-0.424-0.22-0.5-0.458c-0.925-2.883-0.929-6.061-0.012-8.946
											c0.115-0.36,0.505-0.56,0.86-0.444c0.36,0.114,0.56,0.499,0.445,0.86c-0.832,2.616-0.829,5.497,0.01,8.112
											c0.116,0.36-0.083,0.745-0.443,0.861C100.978,302.007,100.854,302.01,100.738,301.984z"/>
									</g>
								</g>
							</g>
							<g>
								<g>
									<g>
										<path style="fill:#EDB0A9;" d="M96.628,303.254c-0.249-0.057-0.456-0.251-0.516-0.517
											c-0.761-3.37-1.721-6.728-2.855-9.981c-0.125-0.357,0.064-0.747,0.421-0.871c0.356-0.124,0.748,0.063,0.872,0.421
											c1.151,3.301,2.126,6.709,2.898,10.129c0.083,0.369-0.148,0.735-0.517,0.818
											C96.827,303.277,96.724,303.276,96.628,303.254z"/>
									</g>
								</g>
							</g>
						</g>
					</g>
				</g>
			</g>
		</g>
		<g>
			<defs>
				
					<rect id="SVGID_00000147933660806434310320000009955562353985079428_" x="13.96" y="359.001" width="471.091" height="140.019"/>
			</defs>
			<clipPath id="SVGID_00000146499413640808146160000006474501125631007415_">
				<use xlink:href="#SVGID_00000147933660806434310320000009955562353985079428_"  style="overflow:visible;"/>
			</clipPath>
			<g style="clip-path:url(#SVGID_00000146499413640808146160000006474501125631007415_);">
				<g>
					<g>
						<g>
							<path d="M363.413,729.617c0.642-0.104,1.17-0.615,1.263-1.293c12.769-92.553,46.595-182.728,97.82-260.773
								c0.461-0.703,0.265-1.645-0.437-2.106c-0.703-0.461-1.646-0.264-2.106,0.437c-51.471,78.421-85.459,169.027-98.29,262.025
								c-0.114,0.833,0.467,1.601,1.299,1.715C363.116,729.644,363.267,729.641,363.413,729.617z"/>
						</g>
					</g>
					<g>
						<g>
							<g>
								<g>
									<path style="fill:#D25948;" d="M476.007,460.945c-1.809,5.343-3.644,10.741-6.645,15.517
										c-3.001,4.776-7.326,8.942-12.705,10.639c-5.379,1.698-11.857,0.493-15.504-3.809c-4.296-5.067-3.697-12.587-2.246-19.07
										c1.569-7.011,3.855-13.862,6.811-20.41c1.273-2.822,3.549-6.063,6.592-5.492c2.08,0.39,3.428,2.581,3.565,4.693
										c0.137,2.111-0.652,4.161-1.427,6.129c0.773-1.851,2.157-2.317,3.428-3.869c1.271-1.552,3.114-2.758,5.12-2.786
										c3.457-0.047,6.113,3.466,6.399,6.912c0.286,3.446-1.147,6.776-2.549,9.936c0.065-2.414,2.268-5.338,3.675-7.301
										c1.406-1.963,4.613-2.807,6.233-1.015c1.147,1.269,1.03,3.224,0.608,4.881S476.555,459.326,476.007,460.945z"/>
								</g>
							</g>
						</g>
						<g>
							<g>
								<g>
									<g>
										<path style="fill:#EDB0A9;" d="M458.089,480.332c0.391-0.063,0.74-0.324,0.898-0.72c1.711-4.309,5.337-7.815,9.7-9.379
											c0.605-0.218,0.92-0.885,0.703-1.49c-0.216-0.606-0.887-0.917-1.489-0.703c-4.983,1.787-9.125,5.791-11.08,10.711
											c-0.238,0.598,0.055,1.275,0.653,1.512C457.676,480.345,457.888,480.364,458.089,480.332z"/>
									</g>
								</g>
							</g>
							<g>
								<g>
									<g>
										<path style="fill:#EDB0A9;" d="M446.034,476.551c0.393-0.064,0.743-0.327,0.899-0.724
											c1.883-4.796,2.233-10.191,0.987-15.189c-0.157-0.623-0.797-1.005-1.412-0.847c-0.624,0.155-1.004,0.787-0.849,1.412
											c1.13,4.532,0.813,9.424-0.895,13.773c-0.235,0.599,0.06,1.275,0.659,1.51
											C445.625,476.565,445.835,476.583,446.034,476.551z"/>
									</g>
								</g>
							</g>
							<g>
								<g>
									<g>
										<path style="fill:#EDB0A9;" d="M452.877,479.152c0.429-0.069,0.802-0.377,0.933-0.822
											c1.656-5.639,3.649-11.238,5.927-16.639c0.25-0.592-0.028-1.275-0.62-1.525c-0.59-0.249-1.276,0.026-1.526,0.621
											c-2.311,5.481-4.335,11.162-6.016,16.887c-0.181,0.618,0.172,1.264,0.79,1.445
											C452.536,479.17,452.711,479.179,452.877,479.152z"/>
									</g>
								</g>
							</g>
						</g>
					</g>
				</g>
				<g>
					<g>
						<g>
							<path d="M134.321,734.806c-0.642-0.104-1.17-0.615-1.263-1.293c-12.769-92.553-46.595-182.728-97.82-260.773
								c-0.461-0.703-0.265-1.645,0.437-2.106c0.703-0.461,1.646-0.264,2.106,0.437c51.471,78.421,85.459,169.027,98.29,262.025
								c0.114,0.833-0.467,1.601-1.299,1.715C134.619,734.832,134.467,734.829,134.321,734.806z"/>
						</g>
					</g>
					<g>
						<g>
							<g>
								<g>
									<path style="fill:#D25948;" d="M21.727,466.134c1.809,5.343,3.644,10.742,6.645,15.517
										c3.001,4.776,7.326,8.942,12.705,10.639c5.379,1.698,11.857,0.493,15.504-3.809c4.296-5.067,3.697-12.587,2.246-19.07
										c-1.569-7.011-3.855-13.862-6.811-20.41c-1.274-2.822-3.549-6.063-6.592-5.492c-2.08,0.39-3.428,2.581-3.565,4.693
										c-0.137,2.111,0.652,4.161,1.427,6.129c-0.773-1.851-2.157-2.317-3.428-3.869c-1.271-1.553-3.114-2.758-5.12-2.786
										c-3.457-0.047-6.113,3.466-6.399,6.912c-0.286,3.446,1.147,6.776,2.549,9.936c-0.065-2.414-2.269-5.338-3.675-7.301
										c-1.407-1.963-4.614-2.807-6.233-1.015c-1.147,1.269-1.03,3.224-0.608,4.881C20.797,462.747,21.179,464.514,21.727,466.134
										z"/>
								</g>
							</g>
						</g>
						<g>
							<g>
								<g>
									<g>
										<path style="fill:#EDB0A9;" d="M39.646,485.52c-0.391-0.063-0.74-0.324-0.898-0.72c-1.711-4.309-5.337-7.815-9.7-9.379
											c-0.605-0.218-0.92-0.884-0.703-1.49c0.216-0.606,0.887-0.917,1.489-0.703c4.983,1.787,9.125,5.791,11.08,10.711
											c0.238,0.598-0.055,1.275-0.653,1.512C40.058,485.533,39.846,485.553,39.646,485.52z"/>
									</g>
								</g>
							</g>
							<g>
								<g>
									<g>
										<path style="fill:#EDB0A9;" d="M51.7,481.74c-0.393-0.064-0.743-0.327-0.899-0.724
											c-1.883-4.796-2.233-10.191-0.987-15.189c0.157-0.623,0.797-1.005,1.412-0.847c0.624,0.155,1.004,0.787,0.849,1.412
											c-1.13,4.532-0.813,9.424,0.895,13.774c0.235,0.599-0.06,1.275-0.659,1.51C52.11,481.754,51.9,481.772,51.7,481.74z"/>
									</g>
								</g>
							</g>
							<g>
								<g>
									<g>
										<path style="fill:#EDB0A9;" d="M44.857,484.341c-0.429-0.069-0.802-0.377-0.932-0.822
											c-1.656-5.639-3.649-11.238-5.927-16.639c-0.25-0.592,0.028-1.275,0.62-1.525c0.59-0.249,1.276,0.027,1.526,0.621
											c2.311,5.481,4.335,11.162,6.016,16.887c0.181,0.618-0.172,1.264-0.79,1.445
											C45.199,484.359,45.024,484.368,44.857,484.341z"/>
									</g>
								</g>
							</g>
						</g>
					</g>
				</g>
			</g>
		</g>
	</g>
	<g>
		<defs>
			<rect id="SVGID_00000082343493836266843940000011739632890195322533_" x="2.258" width="497.742" height="500"/>
		</defs>
		<clipPath id="SVGID_00000127731944051202193790000008084468024745972617_">
			<use xlink:href="#SVGID_00000082343493836266843940000011739632890195322533_"  style="overflow:visible;"/>
		</clipPath>
		<g style="clip-path:url(#SVGID_00000127731944051202193790000008084468024745972617_);">
			<g>
				<g>
					<g>
						<defs>
							<path id="SVGID_00000150089321637052910370000008891267962366752133_" d="M373.876,223.738
								c11.058,12.559,16.154,68.076,12.692,95.767c0,0,36.954,167.922,44.475,221.164H261.2c0,0,15.682-115.774,27.594-196.11
								c5.146-34.707,3.225-98.706,5.604-133.711C322.031,201.02,344.598,222.014,373.876,223.738z"/>
						</defs>
						<use xlink:href="#SVGID_00000150089321637052910370000008891267962366752133_"  style="overflow:visible;fill:#CCB1E5;"/>
						<clipPath id="SVGID_00000095321592010476118310000014631237779038134178_">
							<use xlink:href="#SVGID_00000150089321637052910370000008891267962366752133_"  style="overflow:visible;"/>
						</clipPath>
						<g style="clip-path:url(#SVGID_00000095321592010476118310000014631237779038134178_);">
							<g>
								<g>
									<g>
										<g>
											<path d="M285.547,568.805c-0.012,0-0.024,0-0.035,0c-0.77-0.02-1.379-0.659-1.361-1.428
												c1.495-60.756,9.052-121.614,22.465-180.883c0.169-0.751,0.903-1.229,1.668-1.051c0.751,0.17,1.221,0.916,1.051,1.668
												c-13.371,59.089-20.906,119.762-22.395,180.334C286.922,568.202,286.301,568.805,285.547,568.805z"/>
										</g>
									</g>
								</g>
							</g>
							<g>
								<g>
									<g>
										<g>
											<path d="M345.883,579.531c-0.001,0-0.003,0-0.004,0c-0.77-0.002-1.392-0.629-1.39-1.399l0.568-187.555
												c0.002-0.768,0.626-1.39,1.394-1.39c0.001,0,0.003,0,0.004,0c0.77,0.002,1.392,0.629,1.39,1.399l-0.568,187.555
												C347.275,578.909,346.651,579.531,345.883,579.531z"/>
										</g>
									</g>
								</g>
							</g>
							<g>
								<g>
									<g>
										<g>
											<path d="M405.056,584.361c-0.719,0-1.329-0.551-1.389-1.28l-15.743-191.429c-0.063-0.768,0.509-1.441,1.275-1.504
												c0.781-0.057,1.441,0.509,1.504,1.276l15.742,191.428c0.063,0.768-0.509,1.441-1.276,1.504
												C405.132,584.36,405.094,584.361,405.056,584.361z"/>
										</g>
									</g>
								</g>
							</g>
						</g>
					</g>
					<g>
						<g>
							<g>
								<g>
									<path style="fill:#755293;" d="M375.096,146.564c0.643-7.984,1.288-15.97,1.162-23.969
										c-0.135-8.55-1.244-17.368-5.561-24.75c-4.964-8.488-13.868-14.27-23.413-16.631c-9.545-2.361-19.675-1.528-29.159,1.067
										c-16.165,4.424-29.231,11.044-33.851,34.14c-4.484,22.42-8.679,43.33-12.584,65.869
										c-4.474,25.823-2.065,58.734,2.784,77.445c8.916-4.117,16.133-11.781,19.708-20.928c3.111-7.959,3.506-16.761,6.471-24.776
										c2.965-8.015,2.071-6.862,10.601-6.341c8.983,0.549,20.278,0.788,23.926,9.015c6.414,14.466,22.159,16.583,34.127,20.207
										c3.368,1.02,7.255,1.611,10.214-0.293c4.683-3.013,4.124-9.923,2.921-15.36c-3.494-15.789-7.721-31.549-8.41-47.705
										C373.649,164.552,374.372,155.56,375.096,146.564z"/>
								</g>
							</g>
						</g>
						<g>
							<g>
								<g>
									<g>
										<path style="fill:#7BB7E7;" d="M468.884,265.62l12.435-45.861c1.576-5.651-3.811-10.66-8.854-8.234l-85.213,34.739
											l22.918,39.394L468.884,265.62z"/>
									</g>
								</g>
							</g>
							<g>
								<g>
									<g>
										<polygon style="fill:#FCEED6;" points="468.884,258.294 443.078,202.417 360.563,245.308 388.912,285.943 										"/>
									</g>
								</g>
							</g>
							<g>
								<g>
									<g>
										<polygon style="fill:#FCEED6;" points="466.937,262.782 476.382,207.182 376.469,249.014 406.547,281.166 										"/>
									</g>
								</g>
							</g>
							<g>
								<g>
									<g>
										<path style="fill:#FCEED6;" d="M466.937,262.782c0.497-5.825-2.983-59.836-2.983-59.836s-104.386,48.186-102.895,48.186
											c1.491,0,40.263,31.242,40.263,31.242L466.937,262.782z"/>
									</g>
								</g>
							</g>
							<g>
								<g>
									<g>
										<polygon style="fill:#FCEED6;" points="466.937,262.782 453.516,200.828 360.563,245.308 395.855,292.435 										"/>
									</g>
								</g>
							</g>
							<g>
								<g>
									<g>
										<g>
											<path d="M468.07,252.619c-0.365,0-0.699-0.239-0.804-0.607l-14.553-50.954c-0.128-0.445,0.13-0.907,0.574-1.034
												c0.456-0.126,0.909,0.131,1.034,0.575l14.553,50.954c0.127,0.445-0.13,0.907-0.574,1.034
												C468.222,252.609,468.145,252.619,468.07,252.619z"/>
										</g>
									</g>
								</g>
								<g>
									<g>
										<g>
											<path d="M467.865,249.363c-0.429,0-0.795-0.329-0.832-0.765l-3.911-45.581c-0.039-0.46,0.302-0.865,0.761-0.905
												c0.476-0.041,0.866,0.302,0.905,0.762l3.911,45.581c0.039,0.46-0.302,0.865-0.761,0.905
												C467.913,249.362,467.889,249.363,467.865,249.363z"/>
										</g>
									</g>
								</g>
								<g>
									<g>
										<g>
											<path d="M468.143,257.396l-25.821-54.623c-0.198-0.417-0.02-0.916,0.399-1.114c0.42-0.199,0.916-0.017,1.113,0.399
												l23.592,49.905l8.133-44.932c0.083-0.455,0.529-0.752,0.973-0.674c0.454,0.082,0.756,0.518,0.674,0.972L468.143,257.396z
												"/>
										</g>
									</g>
								</g>
							</g>
							<g>
								<g>
									<g>
										<path style="fill:#7BB7E7;" d="M395.584,295.656l-36.029-42.938c-4.149-4.903-2.675-12.682,2.935-15.486l59.617-29.5
											c3.809-1.904,8.345-0.823,11.029,2.628l34.648,44.321c3.871,4.978,2.258,12.512-3.256,15.209l-58.236,28.118
											C402.624,299.802,398.287,298.849,395.584,295.656z"/>
									</g>
								</g>
							</g>
							<g>
								<g>
									<g>
										<path style="fill:#020302;" d="M440.593,264.242c-2.912,0-5.737-1.399-7.474-3.875l-17.246-24.584
											c-2.711-3.864-1.985-9.246,1.656-12.252c1.952-1.613,4.406-2.333,6.926-2.016c2.513,0.313,4.721,1.609,6.219,3.652
											l17.867,24.364c1.72,2.346,2.216,5.285,1.361,8.065c-0.856,2.78-2.918,4.931-5.66,5.904l-0.619,0.221
											C442.63,264.074,441.606,264.242,440.593,264.242z M423.309,223.675c-1.589,0-3.111,0.546-4.359,1.577
											c-2.748,2.27-3.297,6.333-1.25,9.251l17.246,24.584c1.768,2.518,5.025,3.561,7.93,2.533l0.619-0.221
											c2.072-0.734,3.629-2.359,4.275-4.458c0.646-2.098,0.271-4.318-1.027-6.089l-17.867-24.364
											c-1.131-1.542-2.797-2.521-4.695-2.757C423.888,223.693,423.598,223.675,423.309,223.675z"/>
									</g>
								</g>
							</g>
						</g>
						<g>
							<g>
								<g>
									<path style="fill:#CD8566;" d="M432.295,277.48c6.533-3.325,13.399-7.819,19.933-11.144
										c1.362-0.693,3.302-1.205,4.067,0.243c0.399,0.755,0.226,1.76-0.216,2.484c-0.442,0.724-1.106,1.229-1.755,1.717
										c1.356-1.629,3.447-2.332,5.311-3.087c0.668-0.271,1.437-0.47,2.064-0.094c0.816,0.49,1.009,1.785,0.666,2.753
										c-0.343,0.968-1.074,1.681-1.778,2.355c0.868-1.436,2.698-2.838,4.207-3.19c2.926,2.478,1.138,5.376,0.131,7.655
										c-4.333,9.81-10.883,13.565-18.484,17.988c-14.815,8.619-28.282,11.852-44.174,8.081
										c1.198-6.242-0.374-12.351-0.481-18.737c5.902-1.171,11.849-1.07,16.825-4.278c4.255-2.744,7.853-6.503,11.795-9.789
										c0.622-0.519,1.256-1.045,1.986-1.334c0.73-0.289,2.651-1.117,3.307-0.655c1.01,0.713,1.212,2.647,0.5,3.726
										C433.973,275.547,432.295,277.48,432.295,277.48z"/>
								</g>
							</g>
						</g>
						<g>
							<g>
								<g>
									<path style="fill:#CCB1E5;" d="M276.549,244.661c-4.494,25.806-6.053,52.028-7.659,78.144
										c-0.734,11.94-1.154,25.027,6.074,34.559c8.252,10.884,23.621,13.267,37.265,12.63
										c36.76-1.714,72.455-19.797,95.582-48.422c1.684-2.084,3.354-4.331,3.827-6.969c0.404-2.254-0.111-4.56-0.624-6.792
										c-2.525-10.996-5.05-21.992-7.575-32.988c-21.153,10.094-42.937,18.865-65.183,26.244
										c2.361-23.649,3.13-47.554,0.352-71.157c-1.231-10.458-5.227-19.357-13.483-26.727
										c-10.297-9.193-27.756-6.497-35.801,2.653c-7.923,9.011-9.514,21.591-11.708,32.994
										C277.243,240.772,276.888,242.715,276.549,244.661z"/>
								</g>
							</g>
						</g>
						<g>
							<defs>
								<path id="SVGID_00000146494534347802672880000009662661428569434539_" d="M373.358,133.251
									c-1.067,10.837-1.177,23.587-8.749,32.239c-7.144,8.164-19.707,10.425-29.868,6.627
									c-10.161-3.799-17.823-12.875-21.439-23.103c-6.763-19.126-2.64-43.365,17.491-52.244
									c8.578-3.784,18.621-3.921,27.441-0.743c4.223,1.521,8.315,3.894,10.843,7.604
									C374.592,111.727,374.383,122.85,373.358,133.251z"/>
							</defs>
							<use xlink:href="#SVGID_00000146494534347802672880000009662661428569434539_"  style="overflow:visible;fill:#CD8566;"/>
							<clipPath id="SVGID_00000174600735221081332500000015589175859953405834_">
								<use xlink:href="#SVGID_00000146494534347802672880000009662661428569434539_"  style="overflow:visible;"/>
							</clipPath>
							<g style="clip-path:url(#SVGID_00000174600735221081332500000015589175859953405834_);">
								<g>
									<g>
										<path d="M377.115,118.943c-8.319-9.454-21.961-12.928-34.466-11.446c-12.506,1.482-24.085,7.288-34.794,13.915
											c0.115-12.444,5.598-23.552,16.373-29.778c10.775-6.226,24.842-6.299,35.681-0.185
											C370.748,97.563,376.871,106.501,377.115,118.943z"/>
									</g>
								</g>
							</g>
						</g>
					</g>
				</g>
				<g>
					<g>
						<g>
							<g>
								<path d="M316.651,372.939c-10.072,0-19.016-1.74-26.678-5.2c-11.943-5.394-20.716-15.271-23.468-26.421
									c-0.148-0.598,0.218-1.203,0.816-1.35c0.599-0.145,1.203,0.218,1.35,0.816c2.589,10.49,10.896,19.807,22.221,24.922
									c9.455,4.269,20.993,5.82,34.296,4.6c35.475-3.248,68.273-24.543,85.692-55.609c-0.721-4.083-6.326-32.735-7.725-38.683
									c-10.535,4.358-21.394,8.723-31.909,12.951c-10.891,4.379-22.153,8.907-33.035,13.418c-0.394,0.162-0.851,0.085-1.17-0.198
									c-0.32-0.286-0.448-0.73-0.329-1.142c4.764-16.522,3.858-43.24,0.588-59.988c-0.118-0.604,0.277-1.19,0.881-1.308
									c0.599-0.12,1.191,0.277,1.308,0.881c3.18,16.282,4.145,41.884-0.046,58.83c10.241-4.229,20.768-8.462,30.971-12.563
									c10.891-4.379,22.153-8.907,33.035-13.418c0.163-0.069,0.341-0.101,0.52-0.081c1.118,0.093,1.118,0.093,5.248,21.022
									c0.912,4.618,3.541,18.088,3.902,20.19c0.002,0.008,0.004,0.015,0.007,0.023h-0.002c0.024,0.141,0.037,0.225,0.037,0.248
									c0.007,0.251-0.07,0.485-0.206,0.676c-17.739,31.825-51.279,53.649-87.565,56.972
									C322.392,372.802,319.477,372.939,316.651,372.939z"/>
							</g>
						</g>
					</g>
					<g>
						<g>
							<g>
								<g>
									<g>
										<path d="M436.204,283.978c-0.51,0-0.985-0.325-1.15-0.837c-0.207-0.635,0.141-1.318,0.777-1.524
											c4.439-1.443,13.665-6.293,19.523-13.165c0.431-0.508,1.195-0.573,1.705-0.136c0.509,0.432,0.57,1.196,0.136,1.705
											c-6.223,7.304-15.738,12.314-20.616,13.897C436.454,283.959,436.328,283.978,436.204,283.978z"/>
									</g>
								</g>
							</g>
							<g>
								<g>
									<g>
										<path d="M442.938,288.827c-0.485,0-0.942-0.293-1.129-0.772c-0.241-0.623,0.067-1.324,0.69-1.566
											c7.335-2.844,15.347-9.638,20.41-17.308c0.368-0.557,1.12-0.711,1.676-0.343c0.558,0.368,0.711,1.119,0.343,1.677
											c-5.404,8.185-13.663,15.171-21.554,18.232C443.232,288.801,443.084,288.827,442.938,288.827z"/>
									</g>
								</g>
							</g>
							<g>
								<g>
									<g>
										<path d="M445.829,294.972c-0.393,0-0.764-0.242-0.907-0.633c-0.186-0.501,0.071-1.058,0.572-1.243
											c8.296-3.069,14.957-9.268,19.26-17.927c0.24-0.479,0.819-0.674,1.297-0.437c0.479,0.238,0.674,0.819,0.437,1.297
											c-4.527,9.11-11.555,15.639-20.323,18.881C446.055,294.952,445.94,294.972,445.829,294.972z"/>
									</g>
								</g>
							</g>
							<g>
								<g>
									<g>
										<path d="M427.855,283.467c-0.256,0-0.512-0.101-0.703-0.303c-0.368-0.388-0.351-1.001,0.037-1.368
											c0.524-0.497,1.036-0.974,1.53-1.436c4.266-3.983,7.085-6.613,6.95-11.004c-0.016-0.534,0.403-0.98,0.938-0.997
											c0.01,0,0.02-0.001,0.031-0.001c0.521,0,0.95,0.414,0.966,0.939c0.162,5.267-3.078,8.291-7.563,12.478
											c-0.492,0.459-1,0.933-1.521,1.426C428.333,283.379,428.094,283.467,427.855,283.467z"/>
									</g>
								</g>
							</g>
						</g>
						<g>
							<g>
								<g>
									<g>
										<g>
											<g>
												<path d="M347.504,159.517c-0.662,0-1.326-0.064-1.978-0.195c-2.901-0.583-5.496-2.473-6.942-5.056
													c-0.302-0.54-0.11-1.223,0.431-1.525c0.541-0.302,1.223-0.109,1.526,0.431c1.13,2.02,3.158,3.498,5.427,3.953
													c2.267,0.456,4.709-0.124,6.532-1.551c0.487-0.383,1.192-0.295,1.573,0.192c0.382,0.487,0.297,1.191-0.191,1.574
													C352.074,158.754,349.791,159.517,347.504,159.517z"/>
											</g>
										</g>
									</g>
								</g>
								<g>
									<g>
										<g>
											<g>
												<path d="M353.783,151.696c-0.143,0-0.289-0.027-0.427-0.084c-3.321-1.368-6.192-3.626-8.303-6.53
													c-0.365-0.501-0.254-1.201,0.247-1.566c0.502-0.363,1.202-0.253,1.565,0.248c1.29,1.775,2.958,3.313,4.837,4.486
													c-1.916-5.515-2.938-11.411-2.974-17.218c-0.004-0.619,0.495-1.124,1.114-1.128c0.002,0,0.004,0,0.007,0
													c0.616,0,1.117,0.497,1.121,1.114c0.04,6.501,1.372,13.117,3.849,19.132c0.172,0.419,0.076,0.9-0.244,1.219
													C354.361,151.582,354.074,151.696,353.783,151.696z"/>
											</g>
										</g>
									</g>
								</g>
								<g>
									<g>
										<g>
											<g>
												<path d="M335.891,133.985c0,3.271-1.358,5.924-3.034,5.924c-1.676,0-3.034-2.652-3.034-5.924
													c0-3.271,1.358-5.923,3.034-5.923C334.532,128.062,335.891,130.714,335.891,133.985z"/>
											</g>
										</g>
									</g>
								</g>
								<g>
									<g>
										<g>
											<g>
												<path d="M360.473,134.26c0,3.271-1.358,5.923-3.034,5.923c-1.676,0-3.034-2.652-3.034-5.923
													c0-3.271,1.358-5.924,3.034-5.924C359.115,128.336,360.473,130.988,360.473,134.26z"/>
											</g>
										</g>
									</g>
								</g>
							</g>
							<g>
								<g>
									<g>
										<g>
											<g>
												<path style="fill:#020302;" d="M335.958,119.707c-2.764-1.113-6.038-0.781-8.542,0.87
													c-0.34,0.224-0.53,0.598-0.506,0.998c0.024,0.416,0.272,0.802,0.634,0.983c0.146,0.073,0.301,0.11,0.456,0.11
													c0.205,0,0.409-0.063,0.599-0.187c1.964-1.293,4.444-1.537,6.643-0.653c0.26,0.105,0.555,0.091,0.824-0.04
													c0.296-0.145,0.524-0.413,0.612-0.716C336.841,120.504,336.546,119.943,335.958,119.707z"/>
											</g>
										</g>
									</g>
								</g>
								<g>
									<g>
										<g>
											<g>
												<path style="fill:#020302;" d="M361.15,121.283l-0.001-0.001c-2.124-1.647-4.974-2.009-7.442-0.945
													c-0.262,0.113-0.458,0.334-0.552,0.622c-0.104,0.317-0.07,0.669,0.09,0.941c0.293,0.503,0.899,0.68,1.472,0.433
													c1.593-0.685,3.584-0.434,4.952,0.627c0.235,0.183,0.504,0.274,0.763,0.274c0.284,0,0.556-0.108,0.771-0.321
													c0.223-0.224,0.345-0.558,0.323-0.892C361.507,121.719,361.373,121.457,361.15,121.283z"/>
											</g>
										</g>
									</g>
								</g>
							</g>
						</g>
					</g>
				</g>
				<g>
					<g>
						<path d="M343.267,176.285c-0.086,0-0.172-0.011-0.259-0.034c-14.548-3.879-25.185-11.806-31.618-23.562
							c-10.686-19.53-6.493-44.274-3.977-52.16c0.168-0.525,0.732-0.817,1.257-0.648c0.526,0.168,0.816,0.73,0.649,1.257
							c-2.445,7.659-6.523,31.678,3.825,50.591c6.159,11.257,16.38,18.857,30.379,22.589c0.533,0.143,0.851,0.69,0.708,1.224
							C344.112,175.989,343.708,176.285,343.267,176.285z"/>
					</g>
					<g>
						<path d="M354.386,210.2c-0.307,0-0.609-0.141-0.806-0.406c-6.599-8.938-14.078-19.07-24.561-24.585
							c-13.917-7.321-32.402-4.892-43.954,5.782c-0.405,0.374-1.037,0.35-1.413-0.056c-0.375-0.406-0.35-1.039,0.056-1.413
							c12.153-11.227,31.601-13.786,46.243-6.083c10.888,5.728,18.512,16.055,25.238,25.167c0.328,0.444,0.233,1.07-0.211,1.398
							C354.8,210.137,354.592,210.2,354.386,210.2z"/>
					</g>
					<g>
						<path d="M350.105,187.18c-0.271,0-0.542-0.005-0.814-0.017c-0.552-0.022-0.981-0.488-0.959-1.04
							c0.021-0.552,0.493-0.99,1.039-0.959c9.667,0.387,19.196-7.341,20.804-16.884c0.092-0.545,0.6-0.915,1.152-0.82
							c0.545,0.092,0.912,0.608,0.82,1.152C370.396,179.01,360.608,187.18,350.105,187.18z"/>
					</g>
					<g>
						<path d="M343.267,176.284c-0.022,0-0.044,0-0.066-0.002c-18.939-1.246-42.819-12.771-48.376-29.217
							c-0.177-0.523,0.103-1.091,0.627-1.268c0.524-0.178,1.092,0.104,1.268,0.627c5.293,15.664,28.316,26.659,46.612,27.862
							c0.552,0.037,0.969,0.513,0.933,1.063C344.228,175.878,343.789,176.284,343.267,176.284z"/>
					</g>
				</g>
			</g>
			<g>
				<g>
					<g>
						<path style="fill:#7BB7E7;" d="M145.266,343.073c-8.987,73.394-13.746,147.464-14.234,221.57h155.052
							c-12.036-78.243-23.115-154.452-37.408-232.198C213.131,335.389,180.81,340.129,145.266,343.073z"/>
					</g>
					<g>
						<g>
							<g>
								<polygon points="152.468,346.655 232.738,349.956 217.728,184.92 164.868,192.072 								"/>
							</g>
						</g>
						<g>
							<g>
								<path style="fill:#5D73DC;" d="M76.558,325.509c13.023,37.566,61.452,30.398,67.154,12.322
									c10.768-24.835,10.992-55.094,16.326-81.632c3.521-17.515,0.991-39.782,3.286-57.499
									c-7.15,1.814-13.094,7.332-17.995,12.846c-4.901,5.514-8.578,11.993-11.967,18.546
									c-12.079,23.354-20.927,48.21-30.813,72.574c-2.723,6.71,5.542,11.77-0.199,16.184
									C96.007,323.724,84.463,324.282,76.558,325.509z"/>
							</g>
						</g>
						<g>
							<g>
								<path style="fill:#5D73DC;" d="M174.866,201.916c-10.838,78.887-16.087,158.542-15.695,238.169
									c-12.442,8.899-29.016,14.694-44.037,11.8c5.291-88.31,18.045-171.623,41.735-256.861
									C163.614,196.544,168.121,200.398,174.866,201.916z"/>
							</g>
						</g>
						<g>
							<g>
								<path style="fill:#5274E0;" d="M194.545,199.96c-7.648,79.567-10.835,159.563-9.54,239.486
									c24.568,15.833,57.4,19.179,82.149,3.63c-2.651-81.853-14.169-165.095-35.007-244.296
									c-7.474-3.915-14.109-8.887-22.471-10.018C201.315,187.63,199.727,193.301,194.545,199.96z"/>
							</g>
						</g>
						<g>
							<g>
								<path d="M116.185,449.506c-0.005,0-0.011,0-0.016,0c-0.552-0.009-0.993-0.463-0.985-1.016
									c1.376-90.119,23.86-176.648,37.141-220.206c0.161-0.528,0.718-0.829,1.248-0.665c0.528,0.161,0.826,0.72,0.665,1.248
									c-13.249,43.457-35.682,129.781-37.054,219.655C117.176,449.068,116.73,449.506,116.185,449.506z"/>
							</g>
						</g>
						<g>
							<g>
								<path style="fill:#202021;" d="M133.903,328.639l30.98-15.251c1.914-0.942,1.463-3.791-0.648-4.096L60.036,294.21
									l-20.54,19.202L133.903,328.639z"/>
							</g>
						</g>
						<g>
							<g>
								<path style="fill:#FFBCAE;" d="M86.861,328.001c-6.143,0.058-11.901-3.082-18.424-7.209
									c-0.995-0.63-3.719-2.049-3.966-3.201c-0.225-1.049,0.614-2.091,1.616-2.474c1.003-0.383,2.117-0.273,3.184-0.158
									c1.993,0.215,3.986,0.43,5.979,0.646C76.387,318.66,84.409,325.852,86.861,328.001z"/>
							</g>
						</g>
						<g>
							<g>
								<path style="fill:#444444;" d="M46.161,237.615l78.167,12.119c4.656,0.722,8.119,4.684,8.211,9.395l1.363,69.51
									l-94.406-15.227l-4.498-65.548C34.572,241.659,40.015,236.662,46.161,237.615z"/>
							</g>
							<circle style="fill:#EFEBF7;" cx="79.591" cy="275.964" r="6.892"/>
						</g>
					</g>
					<g>
						<g>
							<g>
								<path style="fill:#FFBCAE;" d="M168.345,308.505c-6.826,0.47-14.364,1.822-21.19,2.292
									c-1.423,0.098-3.277-0.171-3.404-1.694c-0.066-0.794,0.449-1.594,1.093-2.055c0.644-0.461,1.399-0.652,2.134-0.833
									c-1.76,0.904-3.812,0.744-5.689,0.712c-0.673-0.011-1.406-0.122-1.807-0.673c-0.522-0.718-0.215-1.902,0.433-2.608
									c0.648-0.706,1.536-1.052,2.388-1.373c-1.27,0.916-3.354,1.452-4.778,1.204c-1.608-3.197,0.986-5.033,2.684-6.622
									c7.305-6.843,14.301-7.676,22.445-8.699c15.872-1.992,28.619,0.15,40.892,9.193c-3.308,4.923-4.19,10.745-6.43,16.268
									c-5.497-1.15-10.567-3.409-16.013-2.47c-4.657,0.802-9.12,2.717-13.706,4.1c-0.724,0.218-1.461,0.439-2.193,0.42
									c-0.732-0.018-2.685-0.008-3.079-0.645c-0.607-0.981-0.074-2.717,0.931-3.383
									C166.198,309.552,168.345,308.505,168.345,308.505z"/>
							</g>
						</g>
						<g>
							<g>
								<g>
									<path d="M167.699,301.142c0.426,0.183,0.706,0.625,0.66,1.113c-0.055,0.605-0.591,1.051-1.197,0.994
										c-4.227-0.391-13.679,0.342-21.043,3.976c-0.543,0.269-1.204,0.049-1.473-0.499c-0.269-0.544-0.046-1.204,0.499-1.473
										c7.826-3.863,17.576-4.625,22.22-4.194C167.484,301.068,167.596,301.097,167.699,301.142z"/>
								</g>
							</g>
							<g>
								<g>
									<path d="M163.818,294.669c0.405,0.174,0.682,0.584,0.665,1.051c-0.023,0.607-0.533,1.082-1.14,1.06
										c-7.151-0.262-16.287,2.531-23.275,7.117c-0.508,0.333-1.191,0.191-1.524-0.316c-0.333-0.508-0.192-1.19,0.316-1.524
										c7.458-4.894,16.87-7.759,24.563-7.478C163.563,294.586,163.696,294.617,163.818,294.669z"/>
								</g>
							</g>
							<g>
								<g>
									<path d="M163.613,288.497c0.329,0.141,0.551,0.477,0.53,0.855c-0.025,0.486-0.44,0.858-0.925,0.833
										c-8.034-0.421-15.828,2.362-22.537,8.048c-0.373,0.314-0.927,0.269-1.241-0.102c-0.315-0.372-0.269-0.927,0.102-1.241
										c7.058-5.982,15.278-8.908,23.768-8.462C163.418,288.432,163.52,288.457,163.613,288.497z"/>
								</g>
							</g>
							<g>
								<g>
									<path d="M174.49,304.572c0.214,0.092,0.391,0.269,0.478,0.506c0.168,0.456-0.067,0.962-0.523,1.13
										c-0.616,0.226-1.216,0.441-1.795,0.649c-4.996,1.792-8.297,2.976-9.763,6.693c-0.178,0.452-0.689,0.674-1.142,0.495
										c-0.008-0.004-0.017-0.006-0.026-0.01c-0.435-0.187-0.645-0.688-0.469-1.132c1.759-4.458,5.553-5.818,10.806-7.703
										c0.576-0.206,1.171-0.419,1.783-0.644C174.059,304.473,174.29,304.486,174.49,304.572z"/>
								</g>
							</g>
						</g>
					</g>
					<g>
						<path style="fill:#5274E0;" d="M222.916,189.839c10.109,2.152,18.942,8.464,25.926,16.083
							c15.732,17.165,27.978,37.622,33.735,60.298c4.641,18.281,9.848,52.026-4.812,67.109
							c-11.084,11.393-98.515-11.216-97.623-17.984c1.31-9.931,0.393-22.758,1.702-32.688c12.024-0.79,30.424,4.526,42.448,3.736
							C225.718,254.864,225.945,221.254,222.916,189.839z"/>
					</g>
					<g>
						<path style="fill:#7DB7E6;" d="M157.133,106.149c9.107-16.047,29.086-24.773,47.248-21.519
							c18.162,3.255,33.56,17.752,38.895,35.415c5.335,17.663,0.854,37.728-10.676,52.133c4.085-3.026,12.472,0.717,16.294,4.07
							c3.822,3.353,5.854,8.26,7.546,13.055c1.691,4.794,3.234,9.782,6.406,13.755c3.49,4.37,8.874,7.174,14.456,7.527
							c-11.342,4.337-24.884,6.118-36.592,2.894c-11.708-3.224-22.33-10.269-29.853-19.801c-4.226,5.654-9.918,8.62-16.763,10.343
							c-6.845,1.723-13.975,1.868-21.032,2.003c-6.137,0.118-12.756,0.093-17.737-3.495c-5.305-3.822-7.399-11.229-5.682-17.539
							c1.716-6.309,6.79-11.4,12.785-14.012C158.76,151.297,160.799,125.829,157.133,106.149z"/>
					</g>
					<g>
						<defs>
							<path id="SVGID_00000100384392010458987630000002065373798680778117_" d="M152.262,140.185
								c1.067,10.837,1.178,23.587,8.749,32.239c7.144,8.164,19.707,10.425,29.868,6.627c10.161-3.799,17.823-12.876,21.439-23.103
								c6.763-19.126,2.639-43.365-17.491-52.245c-8.578-3.784-18.621-3.921-27.441-0.743c-4.222,1.521-8.315,3.894-10.843,7.604
								C151.028,118.661,151.237,129.784,152.262,140.185z"/>
						</defs>
						<use xlink:href="#SVGID_00000100384392010458987630000002065373798680778117_"  style="overflow:visible;fill:#FFBCAE;"/>
						<clipPath id="SVGID_00000047053051976729511250000006853950546317808568_">
							<use xlink:href="#SVGID_00000100384392010458987630000002065373798680778117_"  style="overflow:visible;"/>
						</clipPath>
					</g>
					<g>
						<path style="fill:#7BB7E7;" d="M152.738,150.125c-1.168-12.847-0.667-22.426,3.416-31.012
							c4.083-8.586,13.256-15.535,22.618-13.878c8.744,1.548,18.077,9.416,22.436,17.152c6.114,10.85,8.468,20.147,11.516,34.4
							c7.029-11.127,10.785-24.451,7.545-37.208c-3.24-12.756-12.908-23.968-25.442-27.981
							c-12.535-4.013-27.516-0.104-35.673,10.225C149.592,113.928,151.191,134.778,152.738,150.125z"/>
					</g>
				</g>
				<g>
					<g>
						<g>
							<g>
								<g>
									<g>
										<g>
											<g>
												<path d="M175.764,167.022c0.759,0.058,1.525,0.043,2.285-0.05c3.376-0.414,6.517-2.353,8.401-5.188
													c0.394-0.593,0.233-1.393-0.361-1.786c-0.593-0.394-1.392-0.232-1.787,0.36c-1.472,2.216-3.927,3.733-6.568,4.056
													c-2.639,0.325-5.388-0.554-7.352-2.35c-0.525-0.481-1.341-0.443-1.82,0.082c-0.481,0.525-0.444,1.34,0.082,1.821
													C170.592,165.747,173.143,166.822,175.764,167.022z"/>
											</g>
										</g>
									</g>
									<g>
										<g>
											<g>
												<path d="M169.76,157.862c0.134,0.01,0.271-0.005,0.404-0.048c3.191-1.038,6.026-2.937,8.198-5.492
													c0.375-0.44,0.322-1.101-0.119-1.476c-0.442-0.374-1.102-0.322-1.476,0.119c-1.328,1.561-2.991,2.876-4.825,3.834
													c2.177-5.001,3.549-10.42,3.996-15.826c0.048-0.576-0.381-1.082-0.958-1.13c-0.002,0-0.004,0-0.006-0.001
													c-0.574-0.044-1.075,0.383-1.123,0.958c-0.5,6.053-2.211,12.12-4.946,17.546c-0.19,0.378-0.134,0.833,0.141,1.153
													C169.23,157.715,169.489,157.842,169.76,157.862z"/>
											</g>
										</g>
									</g>
									<g>
										<g>
											<path d="M193.312,140.235c0,3.939-1.892,7.132-4.226,7.132c-2.334,0-4.226-3.193-4.226-7.132s1.892-7.132,4.226-7.132
												C191.419,133.103,193.312,136.296,193.312,140.235z"/>
										</g>
									</g>
									<g>
										<g>
											<path d="M170.066,139.971c0,3.939-1.892,7.132-4.226,7.132s-4.226-3.193-4.226-7.132s1.892-7.132,4.226-7.132
												S170.066,136.032,170.066,139.971z"/>
										</g>
									</g>
								</g>
								<g>
									<g>
										<g>
											<path d="M161.311,124.526c-1.482-0.219-3.278,0.252-4.307,0.776c-0.494,0.252-0.97,0.574-1.275,1.036
												c-0.306,0.462-0.41,1.087-0.148,1.576c0.478,0.892,1.748,0.854,2.747,0.693c1.127-0.182,2.255-0.365,3.382-0.547
												c0.595-0.096,1.248-0.225,1.619-0.701c0.362-0.465,0.329-1.16,0.015-1.658
												C162.905,125.003,162.16,124.651,161.311,124.526z"/>
										</g>
									</g>
									<g>
										<g>
											<path d="M194.489,125.315c-0.057-0.072-0.118-0.139-0.185-0.201c-1.184-1.094-3.764-1.216-5.27-0.933
												c-0.811,0.152-1.609,0.602-1.972,1.342c-0.364,0.74-0.15,1.776,0.582,2.157c0.371,0.193,0.806,0.201,1.224,0.205
												c1.374,0.013,2.747,0.025,4.121,0.038c0.471,0.004,0.973,0,1.369-0.256C195.107,127.183,195.046,126.023,194.489,125.315
												z"/>
										</g>
									</g>
								</g>
							</g>
						</g>
					</g>
					<g>
						<g>
							<g>
								<path d="M186.888,576.099c-0.682,0-1.279-0.501-1.379-1.196c-8.884-61.942-13.194-125.075-12.811-187.646
									c0.005-0.767,0.628-1.386,1.394-1.386c0.003,0,0.005,0,0.009,0c0.77,0.004,1.391,0.633,1.386,1.403
									c-0.382,62.433,3.918,125.428,12.782,187.233c0.109,0.763-0.42,1.469-1.182,1.578
									C187.02,576.094,186.953,576.099,186.888,576.099z"/>
							</g>
						</g>
						<g>
							<g>
								<g>
									<path d="M220.196,392.718c-4.741,0-9.483-0.381-14.173-1.149c-0.76-0.124-1.275-0.841-1.15-1.601
										c0.124-0.759,0.836-1.281,1.601-1.15c13.857,2.268,28.202,1.053,41.479-3.513c0.728-0.254,1.522,0.136,1.772,0.865
										c0.251,0.728-0.137,1.521-0.865,1.771C239.641,391.111,229.923,392.718,220.196,392.718z"/>
								</g>
							</g>
							<g>
								<g>
									<path d="M142.436,389.525c-5.367,0-10.745-1.337-15.385-3.965c-0.67-0.38-0.905-1.231-0.525-1.901
										c0.379-0.671,1.23-0.906,1.9-0.526c7.425,4.206,16.931,4.778,24.807,1.491c0.708-0.297,1.527,0.038,1.824,0.75
										c0.297,0.71-0.039,1.527-0.749,1.823C150.574,388.755,146.508,389.525,142.436,389.525z"/>
								</g>
							</g>
						</g>
					</g>
				</g>
			</g>
			<g>
				<g>
					<path d="M177.559,207.305c-9.033,0-18.084-2.083-26.121-6.14c-0.55-0.277-0.771-0.948-0.493-1.498
						c0.277-0.55,0.949-0.771,1.498-0.493c11.923,6.017,26.168,7.517,39.084,4.112c12.915-3.405,24.57-11.731,31.977-22.845
						c0.341-0.512,1.033-0.652,1.547-0.31c0.513,0.342,0.651,1.034,0.31,1.547c-7.705,11.561-19.83,20.223-33.265,23.765
						C187.366,206.69,182.465,207.305,177.559,207.305z"/>
				</g>
				<g>
					<path d="M190.633,180.266c-0.389,0-0.767-0.204-0.972-0.566c-0.304-0.536-0.115-1.217,0.421-1.52
						c13.501-7.641,23.427-21.275,26.552-36.472c0.125-0.604,0.715-0.994,1.317-0.868c0.604,0.124,0.992,0.714,0.868,1.317
						c-3.253,15.818-13.585,30.01-27.639,37.964C191.008,180.219,190.819,180.266,190.633,180.266z"/>
				</g>
				<g>
					<path d="M219.065,130.787c-0.01,0-0.02,0-0.029,0c-0.616-0.016-1.102-0.528-1.086-1.144
						c0.294-11.412-6.33-22.586-16.483-27.805c-0.548-0.282-0.764-0.954-0.482-1.502c0.282-0.547,0.954-0.763,1.502-0.482
						c10.899,5.602,18.01,17.597,17.694,29.847C220.164,130.306,219.667,130.787,219.065,130.787z"/>
				</g>
			</g>
			<g>
				<g>
					<g>
						<path d="M182.268,284.466c-0.452,0-0.862-0.309-0.972-0.768c-0.128-0.537,0.204-1.077,0.741-1.205
							c22.511-5.371,45.656-8.296,68.792-8.694c0.52-0.025,1.007,0.431,1.017,0.983c0.01,0.553-0.431,1.008-0.983,1.017
							c-22.991,0.396-45.991,3.303-68.362,8.64C182.423,284.457,182.345,284.466,182.268,284.466z"/>
					</g>
					<g>
						<path d="M233.529,268.196c-0.451,0-0.86-0.307-0.971-0.765c-3.121-12.871-4.903-26.111-5.298-39.352
							c-0.017-0.552,0.417-1.013,0.97-1.029c0.547-0.024,1.013,0.418,1.029,0.97c0.391,13.102,2.154,26.203,5.242,38.94
							c0.13,0.536-0.199,1.077-0.736,1.207C233.686,268.188,233.607,268.196,233.529,268.196z"/>
					</g>
					<g>
						<path d="M259.363,338.582c-22.681,0-58.164-9.742-77.539-19.134c-0.497-0.24-0.705-0.839-0.464-1.336
							c0.241-0.497,0.84-0.703,1.336-0.463c12.528,6.072,31.224,12.067,48.791,15.645c19.63,3.998,35.055,4.369,42.321,1.018
							c2.565-1.184,4.139-2.827,4.675-4.884c0.14-0.535,0.692-0.85,1.22-0.716c0.535,0.14,0.855,0.686,0.716,1.22
							c-0.695,2.665-2.638,4.75-5.772,6.195C270.943,337.835,265.642,338.582,259.363,338.582z"/>
					</g>
				</g>
				<g>
					<g>
						<g>
							<path d="M195.85,151.782h-11.858c-2.432,0-4.499-1.819-4.809-4.232l-1.462-11.406c-0.178-1.381,0.249-2.773,1.169-3.819
								c0.92-1.046,2.247-1.645,3.64-1.645h14.832c1.397,0,2.726,0.602,3.646,1.653c0.921,1.05,1.343,2.447,1.16,3.832
								l-1.511,11.406C200.338,149.972,198.271,151.782,195.85,151.782z M182.529,132.68c-0.818,0-1.598,0.352-2.139,0.967
								c-0.541,0.614-0.791,1.432-0.687,2.244l1.462,11.406c0.182,1.417,1.396,2.486,2.825,2.486h11.858
								c1.423,0,2.637-1.063,2.824-2.474l1.511-11.406c0.108-0.814-0.141-1.634-0.681-2.251c-0.541-0.617-1.322-0.971-2.143-0.971
								H182.529z"/>
						</g>
					</g>
					<g>
						<g>
							<path d="M168.791,150.658h-11.858c-2.432,0-4.5-1.819-4.809-4.231l-1.463-11.406c-0.177-1.382,0.249-2.774,1.169-3.819
								c0.92-1.046,2.247-1.646,3.64-1.646h14.832c1.397,0,2.726,0.603,3.646,1.653c0.921,1.05,1.343,2.447,1.16,3.831
								l-1.511,11.406C173.28,148.848,171.213,150.658,168.791,150.658z M155.471,131.556c-0.818,0-1.598,0.353-2.138,0.967
								c-0.54,0.614-0.791,1.432-0.687,2.244l1.463,11.406c0.182,1.417,1.396,2.486,2.825,2.486h11.858
								c1.423,0,2.637-1.064,2.824-2.474l1.511-11.406c0.108-0.814-0.141-1.634-0.681-2.251c-0.541-0.617-1.322-0.971-2.143-0.971
								H155.471z"/>
						</g>
					</g>
					<g>
						<g>
							<g>
								<path style="fill:#020302;" d="M178.079,140.95c-0.079-1.174-0.936-2.249-1.911-2.396c-0.464-0.068-1.006,0.144-1.38,0.546
									c-0.139,0.148-0.451,0.544-0.348,1.004l-1.952,0.435c-0.218-0.978,0.088-1.999,0.838-2.803
									c0.823-0.883,2.029-1.327,3.141-1.159c1.915,0.288,3.465,2.112,3.608,4.24L178.079,140.95z"/>
							</g>
						</g>
						<g>
							<g>
								
									<rect x="200.093" y="138.677" transform="matrix(0.9946 -0.104 0.104 0.9946 -13.4177 22.0029)" style="fill:#020302;" width="8.412" height="2"/>
							</g>
						</g>
					</g>
				</g>
			</g>
			<g>
				<g>
					<path style="fill:#FFBCAE;" d="M72.442,318.789c0,0-3.107-6.44-3.204-11.816c0,0-3.404-9.212,3.28-15.083
						c1.511-1.327,4.044-0.139,4.387,0.729c-0.544-1.082,0.736-2.514,2.045-3.011c1.309-0.497,2.986-0.153,3.948,0.718
						c0.963,0.871,1.215,2.179,0.763,3.289c0.22-0.568,0.4-1.267,1.193-1.94c0.922-0.782,1.845-0.474,2.553-0.311
						c0.849,0.195,1.276,0.946,1.547,1.624c0.704,1.757,1.092,3.596,1.148,5.443c0.113-0.798,2.102-0.817,2.904-0.342
						c0.802,0.475,1.131,1.313,1.33,2.1c2.813,11.137,5.393,16.243,8.145,25.26c-2.345,2.506-11.224,2.587-15.113,2.609
						C80.875,328.096,76.984,322.537,72.442,318.789z"/>
				</g>
				<g>
					<g>
						<path d="M89.926,314.994c-0.46,0-0.872-0.321-0.969-0.789c-1.122-5.395-1.1-10.86,0.064-16.247
							c0.116-0.535,0.645-0.875,1.178-0.76c0.535,0.115,0.875,0.643,0.759,1.178c-1.105,5.114-1.125,10.304-0.06,15.425
							c0.111,0.536-0.232,1.061-0.769,1.173C90.06,314.987,89.993,314.994,89.926,314.994z"/>
					</g>
					<g>
						<path d="M83.962,313.299c-0.408,0-0.79-0.254-0.935-0.66c-2.262-6.393-0.992-15.898,1.351-21.599
							c0.207-0.506,0.786-0.749,1.293-0.54c0.506,0.208,0.748,0.787,0.54,1.294c-2.234,5.435-3.337,14.47-1.315,20.183
							c0.182,0.517-0.088,1.083-0.604,1.266C84.184,313.28,84.072,313.299,83.962,313.299z"/>
					</g>
					<g>
						<path d="M77.69,313.721c-0.319,0-0.633-0.154-0.824-0.439c-3.65-5.442-3.237-15.046-1.809-19.822
							c0.457-1.526,1.238-3.38,3.248-4.169c0.509-0.2,1.084,0.051,1.285,0.561c0.2,0.51-0.051,1.085-0.561,1.285
							c-1.205,0.473-1.724,1.727-2.072,2.892c-1.373,4.59-1.596,13.45,1.556,18.15c0.305,0.454,0.184,1.07-0.271,1.375
							C78.072,313.666,77.88,313.721,77.69,313.721z"/>
					</g>
					<g>
						<path d="M72.655,314.69c-0.314,0-0.624-0.15-0.816-0.427c-4.943-7.14-4.852-16.321,0.233-23.393
							c0.319-0.445,0.938-0.547,1.383-0.227c0.444,0.319,0.545,0.938,0.226,1.383c-4.589,6.382-4.672,14.667-0.212,21.107
							c0.312,0.45,0.199,1.067-0.25,1.379C73.046,314.632,72.85,314.69,72.655,314.69z"/>
					</g>
				</g>
			</g>
		</g>
	</g>
	<g>
		<g>
			<g>
				<path style="fill:#916AAD;" d="M130.345,91.107c0-24.448-20.283-44.159-44.94-43.223c-22.418,0.851-40.686,19.119-41.537,41.537
					c-0.936,24.657,18.774,44.94,43.223,44.94c2.211,0,4.383-0.168,6.504-0.488c5.08,2.741,10.159,5.481,15.239,8.222
					c2.247,1.212,4.743-1.188,3.589-3.465c-1.605-3.169-3.004-6.443-4.188-9.792C121.427,121.43,130.345,107.314,130.345,91.107z"/>
			</g>
			<g>
				<path style="fill:#EEE8F9;" d="M81.554,113.521c0.317-2.326,0.099-4.724-0.632-6.955c-7.224-2.317-13.133-9.558-13.919-17.103
					c-0.785-7.545,3.139-15.358,9.609-19.318c6.47-3.96,15.152-3.922,21.64,0.008c6.248,3.784,8.354,10.466,7.962,17.76
					c-0.392,7.294-3.394,14.832-10.246,17.362c0.215,3.478-0.5,6.988-0.285,10.466C91.37,118.728,85.035,117.449,81.554,113.521z"/>
				<g>
					<g>
						<g>
							<g>
								<g>
									<path d="M92.422,117.1c-1.162,0.048-2.371,0.092-3.58,0.136c-1.285,0.046-2.571,0.093-3.799,0.144
										c-2.344,0.099-4.336-1.652-4.534-3.987l-0.169-1.966c-0.142-1.649-0.284-3.297-0.396-4.757
										c-8.785-3.178-14.65-12.73-13.421-22.015c1.237-9.347,9.483-17.084,18.868-17.782c0.128-0.01,0.259-0.018,0.387-0.025
										c9.544-0.51,18.788,6.365,21.044,15.652c2.211,9.1-2.484,19.17-10.728,23.218l0.498,6.701
										c0.089,1.189-0.3,2.334-1.092,3.225c-0.76,0.854-1.796,1.364-2.93,1.449C92.521,117.095,92.471,117.098,92.422,117.1z
										 M68.206,84.877c-1.131,8.546,4.614,17.681,12.807,20.365c0.327,0.107,0.557,0.401,0.583,0.744
										c0.118,1.586,0.277,3.44,0.438,5.296l0.168,1.968c0.121,1.425,1.338,2.494,2.77,2.434c1.231-0.052,2.52-0.098,3.809-0.145
										c1.206-0.044,2.412-0.088,3.571-0.135c0.724-0.03,1.396-0.346,1.88-0.89c0.484-0.543,0.721-1.243,0.667-1.969l-0.542-7.284
										c-0.026-0.356,0.173-0.691,0.498-0.837c7.858-3.541,12.389-12.995,10.317-21.523c-2.035-8.377-10.695-14.817-19.303-14.357
										c-0.112,0.006-0.225,0.013-0.337,0.022C77.055,69.195,69.322,76.442,68.206,84.877z"/>
								</g>
								<g>
									<path d="M84.853,117.754c-2.453,0-4.504-1.865-4.713-4.33l-0.186-2.166c-0.128-1.494-0.256-2.982-0.361-4.324
										c-8.919-3.35-14.685-12.903-13.437-22.328c1.249-9.443,9.686-17.394,19.207-18.102l0.396-0.025
										c9.708-0.53,19.125,6.479,21.423,15.934c2.241,9.224-2.353,19.289-10.7,23.526l0.48,6.454
										c0.095,1.29-0.325,2.532-1.186,3.498c-0.821,0.922-1.95,1.48-3.178,1.571l-0.16,0.009h0h-0.001
										c-1.159,0.048-2.365,0.092-3.57,0.136l-0.254,0.009c-1.203,0.044-2.404,0.087-3.554,0.135
										C84.99,117.752,84.921,117.754,84.853,117.754z M86.779,67.19c-0.327,0-0.654,0.008-0.981,0.026l-0.38,0.024
										c-9.185,0.683-17.323,8.353-18.529,17.462c-1.193,9.018,4.596,18.514,13.181,21.619l0.225,0.081l0.018,0.238
										c0.108,1.401,0.243,2.973,0.378,4.553l0.186,2.167c0.181,2.138,2.005,3.736,4.151,3.65
										c1.151-0.049,2.353-0.092,3.557-0.136l0.244-0.009c1.215-0.044,2.42-0.088,3.578-0.136l0.135-0.008
										c1.037-0.077,1.99-0.548,2.682-1.326c0.726-0.814,1.081-1.862,1-2.951l-0.517-6.95l0.224-0.11
										c8.051-3.954,12.678-13.969,10.532-22.8C104.324,73.785,95.796,67.19,86.779,67.19z M84.856,116.055
										c-1.574,0-2.889-1.195-3.023-2.775l-0.169-1.968c-0.16-1.857-0.32-3.713-0.438-5.3c-0.015-0.194-0.144-0.359-0.329-0.42
										c-8.354-2.736-14.211-12.051-13.058-20.764c1.128-8.53,9.053-15.991,17.664-16.632l0.343-0.022
										c8.791-0.471,17.608,6.098,19.683,14.639c2.114,8.696-2.509,18.336-10.523,21.948c-0.183,0.082-0.297,0.272-0.282,0.473
										l0.542,7.284c0.062,0.827-0.208,1.624-0.76,2.242c-0.551,0.619-1.311,0.979-2.14,1.013
										c-1.16,0.048-2.367,0.091-3.573,0.135l-0.414,0.015c-1.15,0.042-2.294,0.084-3.393,0.13
										C84.943,116.054,84.9,116.055,84.856,116.055z M86.743,68.89c-0.285,0-0.569,0.007-0.854,0.023l-0.329,0.021
										c-8.281,0.616-15.901,7.79-16.986,15.992l0,0c-1.108,8.378,4.524,17.334,12.555,19.964c0.471,0.154,0.8,0.573,0.837,1.068
										c0.118,1.584,0.277,3.438,0.437,5.292l0.169,1.968c0.104,1.228,1.15,2.151,2.386,2.097c1.1-0.047,2.246-0.089,3.397-0.13
										l0.414-0.015c1.205-0.043,2.411-0.087,3.569-0.135c0.627-0.026,1.202-0.298,1.619-0.767
										c0.417-0.467,0.621-1.07,0.575-1.695l-0.542-7.284c-0.038-0.509,0.25-0.992,0.715-1.202
										c7.7-3.47,12.141-12.738,10.109-21.1C102.884,75.052,94.893,68.89,86.743,68.89z"/>
								</g>
							</g>
						</g>
						<g>
							<g>
								<g>
									
										<rect x="81.645" y="109.915" transform="matrix(0.9986 -0.0528 0.0528 0.9986 -5.7199 4.8254)" width="13.804" height="1.698"/>
								</g>
								<g>
									<path d="M81.35,112.364l-0.129-2.434l14.523-0.766l0.129,2.434L81.35,112.364z M81.998,110.63l0.051,0.958l13.047-0.688
										l-0.051-0.958L81.998,110.63z"/>
								</g>
							</g>
						</g>
						<g>
							<g>
								<g>
									<path d="M90.788,93.92c-0.173-0.017-0.346-0.035-0.52-0.054c-1.147-0.126-2.297-0.272-3.44-0.426
										c0.004,0.097,0.008,0.192,0.012,0.287l0.689,16.179l-1.697,0.073l-0.689-16.179c-0.009-0.198-0.017-0.398-0.027-0.597
										c-0.572-0.081-1.14-0.163-1.703-0.244c-2.571-0.37-4.022-1.345-4.312-2.9c-0.15-0.802,0.105-1.644,0.698-2.309
										c0.674-0.757,1.691-1.186,2.655-1.12c1.519,0.105,2.96,1.239,3.671,2.888c0.307,0.71,0.472,1.454,0.569,2.19
										c1.251,0.171,2.51,0.333,3.76,0.471c0.2,0.022,0.399,0.043,0.597,0.061c0.054-0.324,0.111-0.648,0.169-0.972
										c0.2-1.107,0.432-2.179,1.062-3.13c0.799-1.205,2.11-1.862,3.345-1.672c0.804,0.124,1.51,0.603,1.988,1.348
										c0.54,0.841,0.705,1.896,0.442,2.821c-0.417,1.465-1.751,2.663-3.483,3.126c-0.691,0.184-1.385,0.252-2.083,0.255
										c-0.814,5.561-0.991,11.203-0.525,16.807l-1.693,0.141C89.8,105.28,89.974,99.56,90.788,93.92z M93.697,89.075
										c-0.452,0.682-0.639,1.569-0.807,2.494c-0.045,0.246-0.088,0.493-0.13,0.74c0.475-0.017,0.933-0.073,1.375-0.191
										c1.139-0.304,2.037-1.069,2.287-1.949c0.13-0.457,0.039-1.008-0.238-1.439c-0.123-0.191-0.392-0.521-0.817-0.587
										c-0.085-0.013-0.171-0.016-0.257-0.009C94.542,88.176,93.997,88.623,93.697,89.075z M81.066,88.878
										c-0.141,0.159-0.368,0.483-0.297,0.868c0.177,0.947,1.666,1.355,2.885,1.53c0.424,0.061,0.852,0.123,1.282,0.184
										c-0.081-0.441-0.198-0.869-0.372-1.271c-0.379-0.878-1.215-1.796-2.229-1.866c-0.059-0.004-0.119-0.004-0.179,0.001
										C81.763,88.353,81.35,88.559,81.066,88.878z"/>
								</g>
								<g>
									<path d="M89.935,111.361l-0.031-0.368c-0.464-5.572-0.308-11.203,0.464-16.745l-0.141-0.015
										c-1.003-0.11-2.009-0.236-3.012-0.369l0.698,16.394l-2.436,0.104L84.76,93.524l-1.401-0.2
										c-2.745-0.395-4.301-1.471-4.623-3.198c-0.171-0.915,0.116-1.872,0.786-2.624c0.748-0.84,1.877-1.323,2.955-1.243
										c1.656,0.114,3.22,1.335,3.986,3.11c0.255,0.591,0.438,1.25,0.556,2.008c1.157,0.157,2.32,0.305,3.474,0.432l0.25,0.025
										c0.037-0.212,0.074-0.423,0.112-0.634c0.208-1.146,0.449-2.259,1.118-3.268c0.878-1.326,2.334-2.046,3.709-1.833
										c0.91,0.14,1.706,0.678,2.243,1.514c0.596,0.929,0.778,2.095,0.487,3.121c-0.452,1.59-1.887,2.885-3.743,3.381
										c-0.573,0.153-1.184,0.239-1.858,0.262c-0.771,5.431-0.932,10.95-0.478,16.412l0.031,0.369L89.935,111.361z M86.438,93.013
										l0.438,0.059c1.141,0.154,2.288,0.299,3.431,0.426l0.901,0.091l-0.055,0.383c-0.792,5.487-0.974,11.067-0.542,16.59
										l0.956-0.08c-0.43-5.501-0.242-11.058,0.557-16.522l0.046-0.315l0.318-0.001c0.738-0.003,1.389-0.082,1.99-0.243
										c1.606-0.429,2.841-1.528,3.222-2.869c0.234-0.825,0.085-1.767-0.398-2.52c-0.421-0.656-1.036-1.076-1.733-1.183
										c-1.092-0.165-2.261,0.425-2.98,1.511c-0.592,0.892-0.814,1.924-1.007,2.991c-0.059,0.322-0.115,0.644-0.169,0.967
										l-0.057,0.339l-0.343-0.032c-0.199-0.019-0.4-0.04-0.602-0.063c-1.253-0.137-2.515-0.299-3.77-0.471l-0.28-0.039
										l-0.037-0.28c-0.105-0.809-0.283-1.493-0.541-2.092c-0.658-1.524-1.975-2.57-3.358-2.665
										c-0.847-0.062-1.753,0.323-2.353,0.997c-0.517,0.58-0.74,1.308-0.611,1.996c0.258,1.381,1.604,2.257,4.001,2.602
										l2.005,0.286l0.042,0.905l0.674,15.81l0.958-0.041L86.438,93.013z M92.32,92.695l0.206-1.192
										c0.175-0.965,0.372-1.892,0.863-2.632l0,0c0.315-0.475,0.948-1.049,1.695-1.105c0.114-0.009,0.228-0.004,0.339,0.013
										c0.569,0.088,0.917,0.509,1.073,0.753c0.333,0.518,0.44,1.184,0.283,1.74c-0.285,1.002-1.285,1.867-2.548,2.205
										c-0.439,0.118-0.916,0.184-1.457,0.204L92.32,92.695z M94.005,89.279L94.005,89.279c-0.412,0.623-0.59,1.47-0.751,2.356
										l-0.048,0.274c0.3-0.03,0.575-0.079,0.833-0.148c1.017-0.271,1.813-0.936,2.027-1.693c0.101-0.352,0.024-0.799-0.193-1.138
										c-0.089-0.139-0.281-0.377-0.563-0.421c-0.055-0.009-0.114-0.011-0.173-0.006C94.692,88.536,94.238,88.928,94.005,89.279z
										 M85.393,91.898l-1.791-0.257c-1.946-0.28-3.021-0.895-3.195-1.828c-0.101-0.54,0.197-0.973,0.384-1.182l0,0
										c0.345-0.388,0.846-0.64,1.339-0.677c0.079-0.006,0.156-0.007,0.234-0.001c1.167,0.08,2.118,1.107,2.541,2.088
										c0.173,0.4,0.302,0.842,0.396,1.35L85.393,91.898z M81.342,89.124L81.342,89.124c-0.096,0.108-0.252,0.325-0.209,0.554
										c0.105,0.563,1.043,1.012,2.574,1.232l0.752,0.108c-0.065-0.246-0.143-0.472-0.234-0.683
										c-0.324-0.75-1.061-1.585-1.915-1.643c-0.043-0.003-0.085-0.003-0.127,0C81.882,88.715,81.559,88.88,81.342,89.124z"/>
								</g>
							</g>
						</g>
					</g>
					<g>
						<g>
							<g>
								<g>
									<path d="M110.725,88.712c1.358,0.222,2.717,0.443,4.075,0.664c0.439,0.071,0.775,0.562,0.669,0.998
										c-0.112,0.459-0.528,0.746-0.998,0.669c-1.358-0.221-2.717-0.443-4.075-0.664c-0.439-0.071-0.775-0.562-0.669-0.998
										C109.838,88.922,110.254,88.635,110.725,88.712L110.725,88.712z"/>
								</g>
								<g>
									<path d="M114.625,91.425c-0.07,0-0.141-0.006-0.214-0.017l-4.075-0.664c-0.315-0.052-0.603-0.245-0.793-0.53
										c-0.186-0.281-0.251-0.616-0.177-0.92c0.16-0.657,0.758-1.055,1.417-0.947l4.075,0.664c0.314,0.051,0.603,0.244,0.792,0.53
										c0.186,0.281,0.251,0.616,0.177,0.92C115.686,91.045,115.198,91.425,114.625,91.425z M110.575,89.069
										c-0.234,0-0.429,0.155-0.489,0.399c-0.025,0.104,0.002,0.228,0.075,0.338c0.075,0.113,0.185,0.191,0.295,0.208l4.075,0.664
										c0.274,0.046,0.512-0.116,0.579-0.391c0.025-0.104-0.002-0.227-0.075-0.337c-0.075-0.113-0.185-0.191-0.295-0.209
										l-4.075-0.664C110.634,89.072,110.604,89.069,110.575,89.069z"/>
								</g>
							</g>
						</g>
					</g>
					<g>
						<g>
							<g>
								<g>
									<path d="M112.808,75.27c-1.087,0.248-2.173,0.496-3.26,0.743c-0.231,0.053-0.438,0.071-0.659-0.037
										c-0.183-0.09-0.366-0.279-0.427-0.477c-0.122-0.396,0.051-0.98,0.514-1.086c1.087-0.248,2.173-0.496,3.26-0.743
										c0.231-0.053,0.438-0.072,0.659,0.037c0.183,0.09,0.366,0.279,0.427,0.477C113.444,74.581,113.271,75.164,112.808,75.27
										L112.808,75.27z"/>
								</g>
								<g>
									<path d="M109.234,76.425c-0.16,0-0.331-0.029-0.507-0.116c-0.287-0.141-0.53-0.415-0.618-0.7
										c-0.104-0.339-0.057-0.742,0.124-1.054c0.151-0.26,0.386-0.439,0.662-0.502l3.259-0.743c0.259-0.06,0.57-0.099,0.904,0.065
										c0.288,0.141,0.53,0.416,0.618,0.701c0.104,0.338,0.056,0.741-0.124,1.053c-0.151,0.261-0.386,0.439-0.661,0.502
										l-3.26,0.744C109.508,76.402,109.375,76.425,109.234,76.425z M112.551,73.998c-0.063,0-0.136,0.011-0.232,0.033
										l-3.26,0.743c-0.076,0.017-0.138,0.068-0.186,0.151c-0.077,0.133-0.1,0.324-0.057,0.466
										c0.028,0.09,0.133,0.203,0.236,0.253c0.108,0.052,0.212,0.054,0.415,0.009l3.26-0.744c0.075-0.017,0.138-0.068,0.186-0.151
										c0.077-0.133,0.1-0.324,0.057-0.465c-0.027-0.09-0.134-0.204-0.236-0.255C112.676,74.011,112.62,73.998,112.551,73.998z"/>
								</g>
							</g>
						</g>
					</g>
					<g>
						<g>
							<g>
								<g>
									<path d="M99.476,61.4c-0.371,0.99-0.741,1.979-1.112,2.969c-0.071,0.188-0.295,0.362-0.477,0.427
										c-0.199,0.071-0.47,0.066-0.659-0.037c-0.19-0.103-0.362-0.265-0.427-0.477c-0.071-0.23-0.047-0.434,0.037-0.659
										c0.371-0.99,0.741-1.979,1.112-2.969c0.071-0.188,0.295-0.362,0.477-0.427c0.199-0.071,0.47-0.066,0.659,0.037
										c0.19,0.103,0.362,0.265,0.427,0.477C99.584,60.971,99.56,61.175,99.476,61.4L99.476,61.4z"/>
								</g>
								<g>
									<path d="M97.598,65.213c-0.196,0-0.389-0.044-0.547-0.13c-0.302-0.164-0.516-0.41-0.604-0.693
										c-0.09-0.292-0.076-0.577,0.044-0.898l1.111-2.968c0.118-0.314,0.445-0.555,0.7-0.646c0.311-0.111,0.687-0.088,0.96,0.06
										c0.303,0.166,0.516,0.412,0.604,0.694c0.09,0.293,0.076,0.578-0.044,0.897l-1.112,2.969
										c-0.117,0.314-0.444,0.555-0.699,0.646C97.881,65.191,97.739,65.213,97.598,65.213z M98.718,60.549
										c-0.058,0-0.117,0.009-0.167,0.026c-0.108,0.039-0.233,0.149-0.256,0.209l-1.111,2.968
										c-0.063,0.168-0.071,0.286-0.03,0.421c0.029,0.095,0.121,0.191,0.25,0.261c0.086,0.047,0.247,0.054,0.358,0.013
										c0.108-0.039,0.232-0.148,0.255-0.208l1.112-2.969c0.063-0.168,0.071-0.286,0.029-0.422
										c-0.029-0.094-0.12-0.19-0.251-0.261C98.861,60.562,98.791,60.549,98.718,60.549z"/>
								</g>
							</g>
						</g>
					</g>
					<g>
						<g>
							<g>
								<g>
									<path d="M80.694,59.297c0.358,1.379,0.559,2.791,0.563,4.216c0.001,0.443-0.302,0.896-0.784,0.91
										c-0.433,0.013-0.909-0.308-0.91-0.784c-0.002-0.66-0.042-1.319-0.125-1.975c-0.041-0.321-0.091-0.641-0.152-0.958
										c-0.014-0.076-0.03-0.153-0.045-0.229c0.037,0.182-0.01-0.042-0.018-0.081c-0.04-0.177-0.083-0.353-0.129-0.528
										c-0.111-0.428,0.049-0.943,0.514-1.086C80.015,58.657,80.574,58.837,80.694,59.297L80.694,59.297z"/>
								</g>
								<g>
									<path d="M80.447,64.793c-0.333,0-0.672-0.136-0.912-0.369c-0.219-0.213-0.341-0.491-0.342-0.784
										c-0.002-0.657-0.043-1.306-0.122-1.929c-0.039-0.314-0.089-0.626-0.148-0.936l-0.043-0.214
										c-0.056-0.255-0.099-0.427-0.143-0.598c-0.151-0.583,0.065-1.318,0.763-1.533c0.336-0.103,0.72-0.061,1.028,0.111
										c0.266,0.148,0.452,0.384,0.524,0.663c0.377,1.451,0.57,2.901,0.575,4.308c0.002,0.613-0.426,1.26-1.143,1.281
										C80.471,64.793,80.459,64.793,80.447,64.793z M79.673,60.766c0.052,0.283,0.095,0.567,0.131,0.852
										c0.083,0.653,0.126,1.333,0.128,2.02c0.001,0.094,0.04,0.18,0.117,0.255c0.106,0.102,0.279,0.177,0.412,0.16
										c0.264-0.008,0.426-0.286,0.425-0.539c-0.004-1.345-0.19-2.733-0.551-4.124l0,0c-0.022-0.085-0.079-0.153-0.169-0.204
										c-0.131-0.073-0.311-0.093-0.451-0.05c-0.275,0.085-0.32,0.425-0.265,0.64c0.047,0.179,0.091,0.358,0.132,0.539l0.093,0.45
										L79.673,60.766z"/>
								</g>
							</g>
						</g>
					</g>
					<g>
						<g>
							<g>
								<g>
									<path d="M68.602,72.426c-0.899-0.667-1.799-1.333-2.698-2c-0.167-0.124-0.278-0.379-0.293-0.58
										c-0.015-0.208,0.059-0.463,0.204-0.617c0.334-0.356,0.816-0.372,1.198-0.089c0.9,0.667,1.799,1.334,2.698,2
										c0.167,0.124,0.278,0.379,0.293,0.58c0.015,0.208-0.058,0.463-0.203,0.617C69.466,72.693,68.985,72.709,68.602,72.426
										L68.602,72.426z"/>
								</g>
								<g>
									<path d="M69.165,72.991c-0.268,0-0.541-0.089-0.783-0.268l-2.699-2c-0.277-0.206-0.421-0.575-0.441-0.85
										c-0.024-0.324,0.095-0.675,0.302-0.897c0.452-0.481,1.147-0.535,1.688-0.134l2.699,2.001
										c0.277,0.205,0.421,0.574,0.441,0.85c0.024,0.324-0.095,0.676-0.303,0.898C69.821,72.855,69.497,72.991,69.165,72.991z
										 M66.45,69.312c-0.133,0-0.261,0.056-0.366,0.168c-0.066,0.07-0.113,0.222-0.104,0.337
										c0.009,0.124,0.084,0.266,0.144,0.311l2.698,2c0.243,0.18,0.514,0.163,0.708-0.045c0.066-0.07,0.113-0.221,0.104-0.337
										c-0.009-0.123-0.084-0.266-0.144-0.31l-2.699-2.001C66.681,69.353,66.564,69.312,66.45,69.312z"/>
								</g>
							</g>
						</g>
					</g>
					<g>
						<g>
							<g>
								<g>
									<path d="M62.926,86.591c-0.943,0.07-1.886,0.14-2.829,0.211c-0.443,0.033-0.896-0.325-0.91-0.784
										c-0.014-0.46,0.309-0.875,0.784-0.91c0.943-0.07,1.886-0.14,2.829-0.21c0.443-0.033,0.897,0.325,0.91,0.784
										C63.724,86.141,63.401,86.555,62.926,86.591L62.926,86.591z"/>
								</g>
								<g>
									<path d="M60.039,87.173c-0.299,0-0.597-0.116-0.83-0.325c-0.244-0.22-0.383-0.51-0.392-0.819
										c-0.02-0.675,0.475-1.242,1.126-1.29l2.829-0.21c0.329-0.018,0.662,0.094,0.916,0.323c0.243,0.219,0.382,0.51,0.391,0.818
										c0.02,0.674-0.475,1.241-1.127,1.29l-2.829,0.21C60.096,87.172,60.068,87.173,60.039,87.173z M62.857,85.265
										c-0.01,0-0.02,0-0.029,0.001l-2.829,0.21c-0.297,0.022-0.449,0.289-0.441,0.531c0.004,0.142,0.094,0.244,0.147,0.291
										c0.104,0.093,0.232,0.146,0.365,0.135l2.829-0.21c0.297-0.022,0.449-0.29,0.442-0.531
										c-0.004-0.141-0.094-0.243-0.147-0.291C63.097,85.314,62.974,85.265,62.857,85.265z"/>
								</g>
							</g>
						</g>
					</g>
					<g>
						<g>
							<g>
								<g>
									<path d="M65.972,99.515c-1.213,0.743-2.507,1.358-3.855,1.812c-0.42,0.142-0.95-0.07-1.086-0.514
										c-0.133-0.434,0.064-0.934,0.514-1.086c0.629-0.212,1.245-0.457,1.847-0.736c0.148-0.069,0.294-0.139,0.44-0.212
										c0.031-0.016,0.062-0.031,0.094-0.047c-0.092,0.048-0.096,0.049-0.01,0.005c0.072-0.038,0.144-0.076,0.216-0.115
										c0.297-0.16,0.589-0.329,0.876-0.506c0.379-0.232,0.929-0.185,1.182,0.218C66.424,98.706,66.376,99.267,65.972,99.515
										L65.972,99.515z"/>
								</g>
								<g>
									<path d="M61.844,101.741c-0.201,0-0.403-0.048-0.587-0.142c-0.284-0.146-0.49-0.387-0.579-0.677
										c-0.202-0.656,0.127-1.335,0.749-1.544c0.625-0.211,1.234-0.453,1.809-0.721c0.144-0.067,0.288-0.137,0.431-0.208
										l0.288-0.151c0.292-0.157,0.578-0.323,0.86-0.496c0.588-0.361,1.346-0.21,1.688,0.337c0.18,0.287,0.242,0.656,0.164,0.986
										c-0.07,0.3-0.248,0.551-0.502,0.707l0,0c-1.256,0.77-2.578,1.392-3.931,1.847C62.109,101.72,61.977,101.741,61.844,101.741
										z M63.902,99.156c-0.117,0.057-0.235,0.114-0.354,0.169c-0.599,0.279-1.233,0.533-1.885,0.752
										c-0.264,0.089-0.35,0.394-0.279,0.626c0.038,0.126,0.136,0.198,0.21,0.236c0.127,0.064,0.277,0.078,0.404,0.036
										c1.3-0.438,2.571-1.035,3.779-1.777h0c0.107-0.065,0.15-0.169,0.168-0.244c0.033-0.141,0.006-0.303-0.07-0.425
										c-0.14-0.222-0.462-0.23-0.675-0.099c-0.293,0.18-0.592,0.352-0.894,0.516l-0.172,0.091l-0.102-0.099l0.062,0.12l-0.001,0
										l-0.188,0.098L63.902,99.156z"/>
								</g>
							</g>
						</g>
					</g>
					<g>
						<g>
							<g>
								<g>
									<path d="M107.332,101.745c0.771,0.813,1.541,1.626,2.312,2.439c0.16,0.168,0.275,0.34,0.293,0.58
										c0.015,0.208-0.058,0.463-0.203,0.617c-0.15,0.16-0.354,0.286-0.581,0.293c-0.212,0.006-0.465-0.043-0.617-0.203
										c-0.771-0.813-1.541-1.626-2.312-2.439c-0.16-0.168-0.275-0.34-0.293-0.58c-0.015-0.208,0.058-0.463,0.204-0.617
										c0.15-0.16,0.354-0.286,0.58-0.293C106.926,101.535,107.18,101.585,107.332,101.745L107.332,101.745z"/>
								</g>
								<g>
									<path d="M109.116,106.045c-0.349,0-0.656-0.115-0.85-0.32l-2.311-2.439c-0.168-0.177-0.365-0.429-0.393-0.807
										c-0.024-0.324,0.095-0.677,0.303-0.898c0.238-0.255,0.536-0.4,0.839-0.409c0.384-0.008,0.695,0.105,0.896,0.319
										l2.312,2.439c0.168,0.177,0.364,0.428,0.393,0.807c0.024,0.325-0.095,0.677-0.303,0.898
										c-0.238,0.255-0.536,0.4-0.839,0.409C109.147,106.045,109.131,106.045,109.116,106.045z M106.75,101.911
										c-0.008,0-0.016,0-0.024,0.001c-0.103,0.003-0.22,0.067-0.322,0.176c-0.067,0.071-0.113,0.222-0.105,0.337
										c0.009,0.119,0.061,0.215,0.192,0.353l2.312,2.439c0.055,0.058,0.195,0.102,0.338,0.089
										c0.102-0.003,0.22-0.067,0.322-0.176c0.066-0.071,0.113-0.222,0.104-0.337c-0.009-0.119-0.061-0.216-0.192-0.353
										l-2.312-2.439C107.012,101.946,106.888,101.911,106.75,101.911z"/>
								</g>
							</g>
						</g>
					</g>
				</g>
			</g>
		</g>
		<g>
			<g>
				<g>
					<path style="fill:#916AAD;" d="M391.976,83.659c0-23.976,19.892-43.307,44.072-42.388c21.986,0.835,39.901,18.75,40.736,40.736
						c0.918,24.181-18.412,44.073-42.388,44.073c-2.168,0-4.298-0.165-6.379-0.479c-4.981,2.688-9.963,5.376-14.944,8.063
						c-2.204,1.189-4.651-1.165-3.52-3.398c1.574-3.108,2.946-6.318,4.107-9.603C400.722,113.396,391.976,99.553,391.976,83.659z"/>
				</g>
			</g>
			<path style="fill:#EDE7F2;" d="M408.843,77.893c8.672-3.459,16.988-7.81,24.775-12.962c7.841,1.496,16.778,3.251,24.618,4.747
				c-1.782,1.782-3.168,3.648-4.95,5.43c0.71,4.931,1.703,9.057,2.413,13.988c-6.443,2.801-15.57,5.337-17.854,11.309
				c-5.457-3.525-11.363-4.732-17.855-4.503c0.381-4.466-0.738-9.256-2.293-13.46C414.044,81.563,411.923,80.046,408.843,77.893z"/>
			<g>
				<g>
					<g>
						<g>
							<path d="M435.541,87.173c-0.074,0.011-0.149,0.012-0.224,0.001c-6.131-0.876-20.858-4.675-29.09-6.862
								c-0.312-0.083-0.538-0.352-0.566-0.674c-0.027-0.321,0.15-0.626,0.443-0.76c9.746-4.468,26.903-13.924,27.075-14.019
								c0.13-0.071,0.278-0.104,0.425-0.093c9.807,0.722,18.481,2.041,25.783,3.922c0.273,0.071,0.486,0.286,0.552,0.56
								c0.067,0.275-0.024,0.563-0.235,0.751c-5.149,4.584-14.5,11.809-23.907,17.084C435.718,87.129,435.631,87.159,435.541,87.173
								z M408.656,79.373c7.312,1.924,20.771,5.369,26.621,6.249c8.591-4.847,17.107-11.309,22.316-15.805
								c-6.855-1.657-14.878-2.836-23.875-3.508C431.89,67.313,418,74.925,408.656,79.373z"/>
						</g>
						<g>
							<path style="fill:#020302;" d="M435.425,87.633c-0.058,0-0.114-0.004-0.17-0.012c-6.156-0.88-20.902-4.684-29.145-6.873
								c-0.495-0.132-0.855-0.563-0.899-1.072c-0.045-0.509,0.24-0.996,0.706-1.208c9.601-4.401,26.336-13.613,27.044-14.003
								c0.207-0.115,0.439-0.167,0.678-0.148c9.83,0.724,18.532,2.047,25.861,3.934c0.437,0.113,0.773,0.455,0.878,0.892
								c0.107,0.437-0.036,0.895-0.374,1.194c-5.162,4.596-14.542,11.844-23.984,17.14c-0.125,0.07-0.263,0.118-0.409,0.141h-0.003
								C435.547,87.628,435.486,87.633,435.425,87.633z M433.547,65.215c-0.053,0-0.103,0.013-0.149,0.039
								c-0.711,0.392-17.475,9.619-27.107,14.034c-0.12,0.055-0.193,0.18-0.181,0.311c0.011,0.133,0.103,0.244,0.231,0.278
								c8.222,2.184,22.928,5.978,29.038,6.851l0.161,0.445l-0.071-0.446c0.039-0.006,0.075-0.018,0.107-0.036
								c9.382-5.261,18.699-12.461,23.828-17.028c0.087-0.077,0.123-0.195,0.096-0.307c-0.027-0.114-0.114-0.201-0.227-0.23
								c-7.277-1.874-15.924-3.189-25.703-3.909C433.564,65.216,433.556,65.215,433.547,65.215z M435.365,86.092l-0.154-0.023
								c-5.842-0.879-19.217-4.299-26.67-6.259l-1.192-0.314l1.113-0.53c9.397-4.473,23.466-12.188,25.039-13.053l0.117-0.065
								l0.134,0.01c9.012,0.674,17.069,1.858,23.947,3.52l0.854,0.207l-0.665,0.573c-5.215,4.502-13.836,11.031-22.389,15.857
								L435.365,86.092z M409.959,79.248c7.523,1.969,19.657,5.043,25.233,5.905c8.093-4.583,16.233-10.686,21.434-15.102
								c-6.605-1.536-14.272-2.64-22.807-3.283C431.843,67.853,419.129,74.812,409.959,79.248z"/>
						</g>
					</g>
				</g>
				<g>
					<g>
						<g>
							<path d="M436.595,102.063c-0.207,0.032-0.419-0.023-0.585-0.152c-5.901-4.576-12.506-6.397-17.666-4.866
								c-0.249,0.074-0.516,0.017-0.713-0.151c-0.197-0.167-0.296-0.423-0.263-0.679c0.58-4.572,0.233-8.842-1.092-13.438
								c-0.117-0.406,0.117-0.83,0.523-0.947c0.406-0.116,0.83,0.117,0.947,0.523c1.278,4.43,1.685,8.575,1.264,12.947
								c5.242-1.093,11.572,0.695,17.293,4.912c3.95-5.564,9.937-9.442,17.818-11.541c-1.566-3.767-1.969-8.667-2.298-12.66
								l-0.063-0.755c-0.035-0.421,0.277-0.79,0.699-0.826c0.421-0.035,0.79,0.278,0.826,0.699l0.063,0.756
								c0.343,4.174,0.77,9.368,2.531,12.965c0.102,0.208,0.104,0.451,0.006,0.66c-0.098,0.21-0.286,0.364-0.511,0.419
								c-8.254,2.023-14.397,5.992-18.257,11.799c-0.118,0.177-0.304,0.297-0.513,0.331
								C436.6,102.062,436.597,102.063,436.595,102.063z"/>
						</g>
						<g>
							<path style="fill:#020302;" d="M436.479,102.523c-0.268,0-0.531-0.089-0.746-0.255c-5.788-4.489-12.241-6.277-17.261-4.789
								c-0.391,0.119-0.818,0.029-1.132-0.239c-0.315-0.267-0.472-0.671-0.419-1.081c0.571-4.51,0.229-8.722-1.078-13.255
								c-0.09-0.311-0.054-0.64,0.103-0.924c0.157-0.284,0.416-0.49,0.727-0.581c0.641-0.181,1.321,0.189,1.506,0.832
								c1.242,4.304,1.668,8.299,1.332,12.519c5.144-0.859,11.174,0.883,16.69,4.834c3.926-5.336,9.746-9.106,17.313-11.212
								c-1.439-3.763-1.827-8.491-2.141-12.32l-0.062-0.755c-0.027-0.323,0.074-0.638,0.283-0.886
								c0.209-0.248,0.503-0.399,0.827-0.426c0.653-0.061,1.256,0.442,1.313,1.11l0.063,0.756c0.339,4.139,0.762,9.285,2.487,12.804
								c0.162,0.334,0.164,0.716,0.007,1.051c-0.154,0.333-0.45,0.576-0.809,0.665c-8.142,1.994-14.194,5.901-17.989,11.61
								c-0.186,0.28-0.484,0.473-0.816,0.527l-0.081-0.444l0.069,0.446C436.603,102.518,436.54,102.523,436.479,102.523z
								 M422.16,96.064c4.486,0,9.523,1.921,14.127,5.491c0.068,0.053,0.153,0.076,0.238,0.062l0.006-0.001
								c0.101-0.025,0.167-0.071,0.209-0.135c3.924-5.904,10.158-9.937,18.526-11.987c0.092-0.023,0.168-0.085,0.208-0.171
								c0.041-0.087,0.04-0.187-0.001-0.272c-1.798-3.671-2.229-8.911-2.575-13.122l-0.065-0.759
								c-0.013-0.172-0.14-0.29-0.338-0.287c-0.083,0.007-0.16,0.046-0.213,0.11c-0.054,0.064-0.08,0.145-0.073,0.229l0.062,0.755
								c0.322,3.93,0.724,8.82,2.265,12.524l0.197,0.476l-0.498,0.133c-7.772,2.07-13.682,5.894-17.566,11.366l-0.266,0.374
								l-0.37-0.272c-5.621-4.143-11.786-5.908-16.933-4.833l-0.599,0.125l0.059-0.61c0.416-4.324,0.019-8.385-1.249-12.779
								c-0.047-0.166-0.216-0.261-0.39-0.214c-0.079,0.023-0.146,0.076-0.187,0.149c-0.04,0.073-0.049,0.158-0.026,0.238
								c1.343,4.656,1.694,8.983,1.107,13.62c-0.014,0.106,0.027,0.21,0.107,0.278c0.082,0.07,0.187,0.094,0.294,0.063
								C419.46,96.244,420.784,96.064,422.16,96.064z"/>
						</g>
					</g>
				</g>
				<g>
					<g>
						<g>
							<path d="M451.649,101.717c-0.071,0.011-0.145,0.012-0.22,0.002c-0.419-0.058-0.711-0.444-0.654-0.862
								c1.362-9.889-4.471-20.444-13.569-24.551c-0.385-0.174-0.556-0.627-0.382-1.012c0.174-0.385,0.627-0.556,1.012-0.382
								c9.692,4.376,15.906,15.619,14.455,26.154C452.243,101.409,451.974,101.667,451.649,101.717z"/>
						</g>
						<g>
							<path style="fill:#020302;" d="M451.533,102.177c-0.054,0-0.109-0.004-0.164-0.011c-0.323-0.044-0.61-0.211-0.806-0.47
								c-0.196-0.259-0.28-0.578-0.235-0.901c1.336-9.698-4.385-20.05-13.308-24.078c-0.611-0.277-0.883-0.998-0.607-1.609
								c0.134-0.297,0.376-0.523,0.68-0.637c0.302-0.116,0.634-0.104,0.929,0.03c9.867,4.454,16.193,15.901,14.714,26.626
								c-0.072,0.529-0.491,0.955-1.02,1.036C451.657,102.172,451.595,102.177,451.533,102.177z M437.52,75.295
								c-0.038,0-0.074,0.006-0.11,0.02c-0.079,0.03-0.141,0.088-0.175,0.165c-0.072,0.158-0.001,0.344,0.156,0.415
								c9.274,4.186,15.219,14.945,13.83,25.024c-0.011,0.083,0.011,0.166,0.061,0.232c0.05,0.067,0.124,0.11,0.208,0.122
								l0.09-0.001c0.139-0.021,0.243-0.129,0.263-0.267c1.425-10.344-4.677-21.384-14.194-25.681
								C437.608,75.304,437.564,75.295,437.52,75.295z"/>
						</g>
					</g>
				</g>
				<g>
					<g>
						<g>
							<path d="M453.878,102.845c0.218,1.422-0.758,2.752-2.181,2.97c-1.422,0.218-2.752-0.758-2.97-2.18
								c-0.218-1.422,0.758-2.752,2.181-2.97C452.33,100.447,453.66,101.423,453.878,102.845z"/>
						</g>
						<g>
							<path style="fill:#020302;" d="M451.302,106.297c-1.484,0-2.789-1.084-3.021-2.593c-0.254-1.667,0.894-3.23,2.56-3.485
								c0.808-0.123,1.613,0.073,2.271,0.557c0.658,0.483,1.089,1.193,1.213,2l0,0c0.123,0.807-0.074,1.614-0.558,2.272
								c-0.483,0.658-1.193,1.089-2,1.212C451.61,106.285,451.454,106.297,451.302,106.297z M451.308,101.086
								c-0.109,0-0.22,0.008-0.331,0.025c-1.173,0.18-1.983,1.282-1.803,2.456c0.18,1.174,1.272,1.981,2.456,1.802
								c0.569-0.088,1.069-0.391,1.41-0.855c0.341-0.464,0.48-1.033,0.392-1.601c-0.087-0.569-0.39-1.07-0.854-1.41
								C452.204,101.229,451.762,101.086,451.308,101.086z"/>
						</g>
					</g>
				</g>
			</g>
		</g>
	</g>
</g>
</svg>
