<svg version="1.2" xmlns="http://www.w3.org/2000/svg" viewBox="0 0 750 500" width="750" height="500"><defs><clipPath clipPathUnits="userSpaceOnUse" id="cp1"><path d="m483.63 381.66l9.62 17.55c4.17 5.15 9.09 7.4 15.52 7.31q0.71-0.01 1.45-0.08c8.52-0.81 20.09-2.81 21.48 2.12 0.45 1.6-0.48 3.26-1.95 4.04-4.36 2.33-39.24 16.67-39.24 16.67 0 0-6.61 2.16-9.32-7.86-2.7-10.03-19.53-36.87-19.53-36.87z"/></clipPath><clipPath clipPathUnits="userSpaceOnUse" id="cp2"><path d="m477.84 382.46l11.85 16.14c4.81 4.56 9.98 6.14 16.34 5.2q0.7-0.1 1.43-0.27c8.34-1.93 19.54-5.42 21.57-0.73 0.66 1.53-0.05 3.3-1.4 4.27-4.02 2.88-36.71 21.69-36.71 21.69 0 0-6.27 3.01-10.27-6.58-4-9.58-24.21-33.98-24.21-33.98z"/></clipPath><clipPath clipPathUnits="userSpaceOnUse" id="cp3"><path d="m423.88 390.93l1.33 19.98c1.61 6.42 5.13 10.53 11 13.16q0.65 0.29 1.35 0.54c8.07 2.84 19.4 5.9 18.59 10.95-0.26 1.64-1.81 2.76-3.47 2.85-4.94 0.27-42.61-1.39-42.61-1.39 0 0-6.91-0.83-5.14-11.06 1.76-10.23-2.2-41.67-2.2-41.67z"/></clipPath><clipPath clipPathUnits="userSpaceOnUse" id="cp4"><path d="m423.88 390.93l1.33 19.98c1.61 6.42 5.13 10.53 11 13.16q0.65 0.29 1.35 0.54c8.07 2.84 19.4 5.9 18.59 10.95-0.26 1.64-1.81 2.76-3.47 2.85-4.94 0.27-42.61-1.39-42.61-1.39 0 0-6.91-0.83-5.14-11.06 1.76-10.23-2.2-41.67-2.2-41.67z"/></clipPath></defs><style>.a{fill:#f3f3f3}.b{fill:#fdfbf9}.c{fill:#fff}.d{fill:none;stroke:#d0cae0;stroke-miterlimit:10;stroke-width:1}.e{fill:#96cbbd}.f{fill:#d087b7}.g{fill:#6980bc}.h{fill:#f2d981}.i{fill:none;stroke:#fdfbf9;stroke-miterlimit:10;stroke-width:6.1}.j{fill:#d0cae0}.k{fill:none;stroke:#fff;stroke-miterlimit:10;stroke-width:2}.l{fill:#d4bda8}.m{fill:#bd9880}.n{fill:none;stroke:#fdfbf9;stroke-linecap:round;stroke-linejoin:round;stroke-width:2}.o{fill:none;stroke:#b25d98;stroke-miterlimit:10;stroke-width:1}.p{fill:#ebb79d}.q{fill:#203833}.r{fill:#3e2216}.s{fill:none;stroke:#5c76ae;stroke-linecap:round;stroke-linejoin:round;stroke-width:1}.t{fill:none;stroke:#fff;stroke-linecap:round;stroke-linejoin:round;stroke-width:.8}.u{fill:none;stroke:#3e2216;stroke-linecap:round;stroke-linejoin:round;stroke-width:1}.v{fill:none;stroke:#3e2216;stroke-miterlimit:10;stroke-width:1.8}.w{fill:#bdcddc}.x{fill:#5c76ae}.y{fill:none;stroke:#b8afd1;stroke-miterlimit:10;stroke-width:2}</style><path fill-rule="evenodd" class="a" d="m0.2-0.2h750v500.4h-750z"/><path fill-rule="evenodd" class="b" d="m463.3 95.7h99.8v185.6h-99.8z"/><path fill-rule="evenodd" class="b" d="m570.4 95.7h99.8v185.6h-99.8z"/><path class="c" d="m98 334.4v103.3h94.9v-103.3zm6.5 48.4v-41.9h82v41.9zm0 48.4v-41.9h81.9v41.9z"/><path fill-rule="evenodd" class="d" d="m121.6 264l23 50.4"/><path fill-rule="evenodd" class="d" d="m144.2 278.9l2.2 29.8"/><path fill-rule="evenodd" class="d" d="m170.3 252.1l-22.3 59.4"/><path fill-rule="evenodd" class="e" d="m127.6 263.9c-0.7 4.1-4.5 6.8-8.6 6.1-4-0.6-6.8-4.4-6.1-8.5 0.6-4 4.5-6.8 8.5-6.1 4.1 0.6 6.8 4.4 6.2 8.5z"/><path fill-rule="evenodd" class="f" d="m145.4 282.7c-3.4 0-6.1-2.7-6.1-6.1 0-3.3 2.7-6 6.1-6 3.4 0 6.1 2.7 6.1 6 0 3.4-2.7 6.1-6.1 6.1z"/><path fill-rule="evenodd" class="g" d="m169.4 265.2c-4.9 0-8.9-4-8.9-8.9 0-4.9 4-8.9 8.9-8.9 4.9 0 8.8 4 8.8 8.9 0 4.9-3.9 8.9-8.8 8.9z"/><path class="h" d="m168.4 313.4l-9.7-12.9h-13.7-0.3-13.7l-9.7 12.9c-1.9 2.5-2.1 6-0.6 8.7l6.9 11.8h16.8 0.9 16.8l6.8-11.8c1.6-2.7 1.4-6.2-0.5-8.7z"/><path fill-rule="evenodd" class="i" d="m83.6 91.8h76.2v104.6h-76.2z"/><path fill-rule="evenodd" class="j" d="m101.3 111.9h40.8v63.4h-40.8z"/><path fill-rule="evenodd" class="k" d="m644.6 344.6c-4.4 0-8-3.6-8-8.2 0-4.5 3.6-8.1 8-8.1 4.5 0 8.1 3.6 8.1 8.1 0 4.6-3.6 8.2-8.1 8.2z"/><path fill-rule="evenodd" class="k" d="m127.7 64.1c-4.5 0-8.1-3.6-8.1-8.2 0-4.5 3.6-8.2 8.1-8.2 4.5 0 8.1 3.7 8.1 8.2 0 4.6-3.6 8.2-8.1 8.2z"/><path class="k" d="m352 84.6c0 3-2.4 5.4-5.4 5.4-2.9 0-5.3-2.4-5.3-5.4 0-3 2.4-5.5 5.3-5.5 3 0 5.4 2.5 5.4 5.5z"/><path fill-rule="evenodd" class="k" d="m50.7 296.2h9.1v9.3h-9.1z"/><path fill-rule="evenodd" class="k" d="m594.6 54.9h9.1v9.3h-9.1z"/><path class="f" d="m496 144.5h-52.3c-5.9 0-10.6-4.8-10.6-10.7v-47.3c0-5.8 4.7-10.6 10.6-10.6h52.3c5.9 0 10.6 4.8 10.6 10.6v47.3c0 5.9-4.7 10.7-10.6 10.7z"/><path class="b" d="m469.9 90c-9.9 0-17.9 8-17.9 17.9 0 9.8 8 17.9 17.9 17.9 9.8 0 17.8-8.1 17.8-17.9 0-9.9-8-17.9-17.8-17.9zm1.6 9.6c0.7-0.4 1.6-0.2 2 0.5 0.3 0.5 0.8 0.6 1 0.6 0.1 0 0.6-0.1 0.9-0.6 0.5-0.7 1.4-0.9 2-0.5 0.7 0.5 0.9 1.4 0.5 2.1-0.7 1.2-2 1.9-3.4 1.9-1.4 0-2.7-0.7-3.5-1.9-0.4-0.7-0.2-1.7 0.5-2.1zm-9.3 0c0.7-0.4 1.6-0.2 2.1 0.5 0.3 0.5 0.7 0.6 0.9 0.6 0.2 0 0.6-0.1 0.9-0.6 0.5-0.7 1.4-0.9 2.1-0.5 0.7 0.5 0.9 1.4 0.5 2.1-0.8 1.2-2.1 1.9-3.5 1.9-1.4 0-2.6-0.7-3.5-1.9-0.4-0.7-0.1-1.7 0.5-2.1zm19.1 10c-0.7 5.6-5.7 9.9-11.4 9.9-5.8 0-10.7-4.3-11.5-9.9-0.1-0.9 0.1-1.6 0.6-2.3 0.5-0.6 1.3-0.9 2.1-0.9h17.6c0.8 0 1.5 0.3 2 0.9 0.5 0.7 0.8 1.4 0.6 2.3z"/><path class="b" d="m469.9 116.6c4.2 0 7.8-3.1 8.5-7.3h-17.1c0.7 4.2 4.4 7.3 8.6 7.3z"/><path class="h" d="m240.6 145.7h-2.1c-14.1 0-25.4-11.4-25.4-25.4 0-14.1 11.3-25.5 25.4-25.5h2.1c14.1 0 25.5 11.4 25.5 25.5 0 14-11.4 25.4-25.5 25.4z"/><path class="c" d="m248.8 113.6c-2.2-2.2-5.7-2.1-7.8 0.1l-1.5 1.4-1.4-1.4c-2.2-2.2-5.7-2.2-7.9 0-2.1 2.2-2.1 5.7 0.1 7.9l5.4 5.3q0 0 0 0c0.9 0.9 2 1.4 3.1 1.5 1.7 0.3 3.5-0.2 4.8-1.6l5.3-5.4c2.1-2.2 2.1-5.7-0.1-7.8z"/><path fill-rule="evenodd" class="l" d="m316.9 388.2l-9.8 50.2h9.8l15.9-50.2z"/><path fill-rule="evenodd" class="m" d="m264.3 388.2l-9.9 50.2h9.9l15.8-50.2z"/><path fill-rule="evenodd" class="l" d="m560 388.2l9.8 50.2h-9.8l-15.9-50.2z"/><path fill-rule="evenodd" class="m" d="m498.8 388.2l9.8 50.2h-9.8l-15.9-50.2z"/><path class="j" d="m220.5 217.4l12.5 151.5c1 11.9 11 21 22.9 21h279l21.2-170.7c2.1-16.8-11-31.7-28-31.7l-280.5 0.3c-15.9 0-28.5 13.7-27.1 29.6z"/><path class="j" d="m542.6 284.4c0 0 46.1 11.9 48.2 46.1 0.7 11.9 0.9 22.7 0.9 31.8 0 15.3-12.4 27.6-27.7 27.6h-72.5z"/><path class="f" d="m511.5 342.1h-54c-7.3 0-13.2-6-13.2-13.3v-15c0-7.3 5.9-13.3 13.2-13.3h54c7.4 0 13.3 6 13.3 13.3v15c0 7.3-5.9 13.3-13.3 13.3z"/><path class="h" d="m514.3 340.6l-37.6-9.9c-4.8-1.2-7.6-6.1-6.4-10.8l9.8-37.6c1.3-4.8 6.1-7.6 10.9-6.4l37.6 9.8c4.8 1.3 7.6 6.1 6.4 10.9l-9.9 37.6c-1.2 4.8-6.1 7.6-10.8 6.4z"/><path fill-rule="evenodd" class="n" d="m459.8 342.1h72"/><path class="b" d="m366.3 208.7c0 0 27.8 38.5 33.8 54.3 3.5 9.2-0.7 19.4-9.6 23.6-9.9 4.6-21.7-0.3-25.4-10.6 0 0-27.4-39-33-54.9-3.3-9.6 1.8-20.1 11.5-23.3 9.2-3 19.3 1.8 22.7 10.9z"/><path class="b" d="m436.1 218.5l-64.8 38.5c-5.1 4.3-6.2 14.2-4.1 20.5 3.7 10.6 18.3 14.1 26.9 6.9l59.6-36.1z"/><path fill-rule="evenodd" class="b" d="m459.8 219.1v-18.4l-23.7 5.6v15.9z"/><path fill-rule="evenodd" class="b" d="m454.4 219.1v-20.4l-18.3 7.6v15.9z"/><path fill-rule="evenodd" class="b" d="m433.2 206.3l-52.6-5.6-0.8 67.3 53.4-0.2z"/><path fill-rule="evenodd" class="f" d="m439 206.3v63.2l23.5-7.8v-55.4z"/><path fill-rule="evenodd" class="f" d="m439 206.3h-5.8v64.5l5.8-1.3z"/><path fill-rule="evenodd" class="f" d="m433.2 206.3h-49.3v64.6l49.3-0.1z"/><path fill-rule="evenodd" class="o" d="m433.2 206.3v64.5"/><path fill-rule="evenodd" class="o" d="m439 206.3v63.2"/><path fill-rule="evenodd" class="b" d="m396.2 218.5h26.4v13.2h-26.4z"/><path fill-rule="evenodd" class="o" d="m400.4 223.2h17.9"/><path fill-rule="evenodd" class="o" d="m400.4 227.2h8.1"/><path class="p" d="m462.5 225.8v1.5c0 0-9-0.8-9 2.8 0 3.7 10.7 4.7 12.3 3.4 1.7-1.2 2.6-6.2-3.3-7.7z"/><path class="p" d="m462.5 244.3v1.5c0 0-5.1-0.9-5.1 2.8 0 3.6 6.8 4.7 8.4 3.4 1.7-1.3 2.6-6.2-3.3-7.7z"/><path class="p" d="m462.4 233.4v1.8c0 0-10.4-1.1-10.4 3.1 0 4.2 12.3 5.4 14.2 3.9 1.9-1.4 3-7-3.8-8.8z"/><path class="b" d="m307.6 198.3l-3.5 109.2 67.5-2.7c0 0-4.5-53.2-11.3-102.9z"/><path fill-rule="evenodd" class="d" d="m361.8 228l1.9 14.8"/><path fill-rule="evenodd" class="d" d="m369.5 277.3l1.3 11.7"/><path class="g" d="m362.2 158.9c0 0 7.4-30.9-24.1-30.9-27.4-0.1-28 27.2-27.7 37.9 0.1 5.7 1.2 27.4-8.8 37.5 0 0 13.9-4.1 19.8 5.7 10.1 16.7 37.6 18.4 41.7-3.8 0.8-4.4 0-9.5-0.1-24.5-0.1-9-0.8-21.9-0.8-21.9z"/><path class="q" d="m349.7 198.1c0 0 9-1.5 9.4-21.2l-11 4.1z"/><path fill-rule="evenodd" class="q" d="m322.5 158.2l22-0.4 0.7 39.1-22 0.4z"/><path class="p" d="m349.5 185v15.7c0 5.5-3.4 8.5-8.8 8.4-4.6 0-8.9-2.4-9.5-7l1.2-24.7z"/><path fill-rule="evenodd" class="r" d="m349.7 198.1l-19.4-16.7 19.3 2z"/><path class="p" d="m344.9 187.9c9.3-0.6 15.9-8.5 15.7-16l-0.3-17.2c-0.3-9.4-6-10.5-15.4-10.6-9.7-0.1-20 2.7-20.1 12.4l-0.4 12.4c0.5 11 9.5 18.9 20.5 19z"/><path class="e" d="m326.1 160.2c0 0 22.7-17.7 34.5-4.6 0 0 0.8-13.9-14.6-13.8-19.1 0.1-19.1 12.7-19.9 18.4z"/><path class="g" d="m332.7 145.2c0 0-12 7.1-4.1 46 0 0 9.8 9.3 21.1 6.9l6.9 0.2-2.9 10.6-16.2 4.4-21.2-11.6-4.7-28.9 3.8-20.1 2.5-4z"/><path fill-rule="evenodd" class="s" d="m329.2 192.7c0 0 1.9 23.2 33 14.3"/><path class="t" d="m335.1 168.2c0 3.9 3.2 7.1 7.1 7.1 4 0 7.1-3.2 7.1-7.1 0-3.9-3.1-7.1-7.1-7.1-3.9 0-7.1 3.2-7.1 7.1z"/><path class="t" d="m352.3 168.2c0 3.9 3.1 7.1 7.1 7.1 3.9 0 7.1-3.2 7.1-7.1 0-3.9-3.2-7.1-7.1-7.1-4 0-7.1 3.2-7.1 7.1z"/><path fill-rule="evenodd" class="t" d="m354.1 163.4h-6.6"/><path fill-rule="evenodd" class="t" d="m336.9 163.4c0 0-10.9-1-10.8-1"/><path fill-rule="evenodd" class="u" d="m350.7 169.1l1.2 4.3-2.3 0.2"/><path class="r" d="m354.2 167.2c0 0.9 0.7 1.5 1.5 1.5 0.8 0 1.5-0.7 1.5-1.5-0.1-0.9-0.7-1.5-1.6-1.5-0.8 0.1-1.4 0.7-1.4 1.5z"/><path class="r" d="m341 167.6c0 0.8 0.7 1.5 1.5 1.4 0.9 0 1.5-0.7 1.5-1.5 0-0.8-0.7-1.4-1.5-1.4-0.9 0-1.5 0.7-1.5 1.5z"/><path fill-rule="evenodd" class="u" d="m343.4 177c0 0 3.9 2.5 8.5 0.2"/><path fill-rule="evenodd" class="v" d="m344.4 159.3l-8 0.9"/><path fill-rule="evenodd" class="v" d="m353.1 158.9l4.9 0.4"/><path class="c" d="m483.6 381.7l9.6 17.5c4.2 5.2 9.1 7.4 15.6 7.3q0.7 0 1.4-0.1c8.5-0.8 20.1-2.8 21.5 2.2 0.4 1.6-0.5 3.2-2 4-4.3 2.3-39.2 16.7-39.2 16.7 0 0-6.6 2.1-9.3-7.9-2.7-10-19.5-36.9-19.5-36.9z"/><g clip-path="url(#cp1)"><path class="w" d="m521.5 409.5c1.6 4.3 7.3 8.1 11.6 6.5 4.4-1.7 6.6-6.6 4.9-11-1.7-4.3-6.6-6.5-10.9-4.8-4.4 1.6-7.3 4.9-5.6 9.3z"/></g><g clip-path="url(#cp2)"><path fill-rule="evenodd" class="w" d="m487.8 434.1c-4.7 0.6-8.9-2.6-9.5-7.3-0.7-4.6 2.6-8.9 7.2-9.5 4.7-0.6 8.9 2.7 9.5 7.3 0.7 4.6-2.6 8.9-7.2 9.5z"/></g><path class="x" d="m400.4 308.2h39.7c8.6 0 16.3 4.9 20.1 12.6l36.1 74.6-31 12.4-33.5-63.3h-31.4z"/><path class="c" d="m423.9 390.9l1.3 20c1.6 6.4 5.1 10.5 11 13.2q0.7 0.3 1.4 0.5c8 2.9 19.4 5.9 18.6 11-0.3 1.6-1.9 2.7-3.5 2.8-5 0.3-42.6-1.4-42.6-1.4 0 0-6.9-0.8-5.2-11 1.8-10.3-2.2-41.7-2.2-41.7z"/><g clip-path="url(#cp3)"><path class="w" d="m446.5 432.1c-0.3 4.6 3.2 10.5 7.8 10.8 4.7 0.3 8.8-3.2 9.1-7.9 0.3-4.7-3.2-8.7-7.9-9-4.7-0.3-8.7 1.4-9 6.1z"/></g><g clip-path="url(#cp4)"><path class="w" d="m399.6 431.6c-0.3 4.7 3.3 8.7 7.9 9 4.7 0.3 8.7-3.2 9-7.9 0.4-4.6-3.2-8.7-7.8-9-4.7-0.3-8.7 3.2-9.1 7.9z"/></g><path class="g" d="m366.3 304.8h38.7c8.7 0 15.9 6.6 16.8 15.2l8.9 86.7-36.8 2.9-6.3-61.4h-67.7c-2.4 0-4.7-0.7-6.7-1.9-6.1-3.8-18.2-14.1-9.1-38.8z"/><path class="b" d="m323.2 227.6c0 0-8.1 46.8-15.2 62.1-4.1 8.9-14.4 13.1-23.6 9.6-10.2-3.9-14.1-6.4-11.8-19 0 0 10.5-53.4 17.9-68.5 4.5-9.1 15.6-12.7 24.6-8.1 8.7 4.5 12.3 15 8.1 23.9z"/><path class="p" d="m359.4 250.9c0 0 23-12.6 39.9-10.5 0 0 5.3 0.6 4.3 3.7-0.3 0.9-1 1.6-1.9 1.9-2 0.7-6.5 2.2-12.4 2.7 0 0 14.8-0.2 15.5 3.6 0.6 3.8-15.6 2-15.6 2 0 0 13.5 1.5 13.7 5.6 0.1 4.1-15.1-0.5-15.1-0.5 0 0 10.9 3.7 12.8 6.1 1.9 2.4-5.8 2.9-14.2-0.7l-14.5 5z"/><path class="b" d="m365.4 242.3l-84.2 25.3c-6 2.8-9.6 12.1-9.2 18.7 0.8 11.2 12.5 18.2 22.7 13.5l80-24.2z"/><path fill-rule="evenodd" class="d" d="m373.4 269.3l1.9 6.1-74.5 23.5"/><path fill-rule="evenodd" class="d" d="m367.2 247.2l-1.5-5.1-49.3 14.8 5.4-25.2"/><path fill-rule="evenodd" class="d" d="m316.4 256.9l-13.6 4.2"/><path class="j" d="m226 284.4h52.5c29.9 0 54.1 24.2 54.1 54.1v51.4l-102.4-55.9z"/><path fill-rule="evenodd" class="n" d="m237 284.1h41.1c30.1 0 54.5 24.4 54.5 54.5v36.6"/><path fill-rule="evenodd" class="y" d="m68.4 438.4h607.9"/></svg>