<?xml version="1.0" encoding="utf-8"?>
<!-- Generator: Adobe Illustrator 27.5.0, SVG Export Plug-In . SVG Version: 6.00 Build 0)  -->
<svg version="1.1" xmlns="http://www.w3.org/2000/svg" xmlns:xlink="http://www.w3.org/1999/xlink" x="0px" y="0px"
	 viewBox="0 0 500 500" style="enable-background:new 0 0 500 500;" xml:space="preserve">
<g id="BACKGROUND">
	<g>
		<rect style="fill:#E9E8FF;" width="500" height="500"/>
		<g style="opacity:0.2;">
			<g>
				
					<line style="fill:none;stroke:#8F8BFD;stroke-width:2;stroke-linecap:round;stroke-linejoin:round;stroke-miterlimit:10;" x1="0" y1="33.333" x2="500" y2="33.333"/>
				
					<line style="fill:none;stroke:#8F8BFD;stroke-width:2;stroke-linecap:round;stroke-linejoin:round;stroke-miterlimit:10;" x1="0" y1="66.667" x2="500" y2="66.667"/>
				
					<line style="fill:none;stroke:#8F8BFD;stroke-width:2;stroke-linecap:round;stroke-linejoin:round;stroke-miterlimit:10;" x1="0" y1="100" x2="500" y2="100"/>
				
					<line style="fill:none;stroke:#8F8BFD;stroke-width:2;stroke-linecap:round;stroke-linejoin:round;stroke-miterlimit:10;" x1="0" y1="133.333" x2="500" y2="133.333"/>
				
					<line style="fill:none;stroke:#8F8BFD;stroke-width:2;stroke-linecap:round;stroke-linejoin:round;stroke-miterlimit:10;" x1="0" y1="166.667" x2="500" y2="166.667"/>
				
					<line style="fill:none;stroke:#8F8BFD;stroke-width:2;stroke-linecap:round;stroke-linejoin:round;stroke-miterlimit:10;" x1="0" y1="200" x2="500" y2="200"/>
				
					<line style="fill:none;stroke:#8F8BFD;stroke-width:2;stroke-linecap:round;stroke-linejoin:round;stroke-miterlimit:10;" x1="0" y1="233.333" x2="500" y2="233.333"/>
				
					<line style="fill:none;stroke:#8F8BFD;stroke-width:2;stroke-linecap:round;stroke-linejoin:round;stroke-miterlimit:10;" x1="0" y1="266.667" x2="500" y2="266.667"/>
				
					<line style="fill:none;stroke:#8F8BFD;stroke-width:2;stroke-linecap:round;stroke-linejoin:round;stroke-miterlimit:10;" x1="0" y1="300" x2="500" y2="300"/>
				
					<line style="fill:none;stroke:#8F8BFD;stroke-width:2;stroke-linecap:round;stroke-linejoin:round;stroke-miterlimit:10;" x1="0" y1="333.333" x2="500" y2="333.333"/>
				
					<line style="fill:none;stroke:#8F8BFD;stroke-width:2;stroke-linecap:round;stroke-linejoin:round;stroke-miterlimit:10;" x1="0" y1="366.667" x2="500" y2="366.667"/>
				
					<line style="fill:none;stroke:#8F8BFD;stroke-width:2;stroke-linecap:round;stroke-linejoin:round;stroke-miterlimit:10;" x1="0" y1="400" x2="500" y2="400"/>
				
					<line style="fill:none;stroke:#8F8BFD;stroke-width:2;stroke-linecap:round;stroke-linejoin:round;stroke-miterlimit:10;" x1="0" y1="433.333" x2="500" y2="433.333"/>
				
					<line style="fill:none;stroke:#8F8BFD;stroke-width:2;stroke-linecap:round;stroke-linejoin:round;stroke-miterlimit:10;" x1="0" y1="466.667" x2="500" y2="466.667"/>
			</g>
			<g>
				
					<line style="fill:none;stroke:#8F8BFD;stroke-width:2;stroke-linecap:round;stroke-linejoin:round;stroke-miterlimit:10;" x1="466.667" y1="0" x2="466.667" y2="500"/>
				
					<line style="fill:none;stroke:#8F8BFD;stroke-width:2;stroke-linecap:round;stroke-linejoin:round;stroke-miterlimit:10;" x1="433.333" y1="0" x2="433.333" y2="500"/>
				
					<line style="fill:none;stroke:#8F8BFD;stroke-width:2;stroke-linecap:round;stroke-linejoin:round;stroke-miterlimit:10;" x1="400" y1="0" x2="400" y2="500"/>
				
					<line style="fill:none;stroke:#8F8BFD;stroke-width:2;stroke-linecap:round;stroke-linejoin:round;stroke-miterlimit:10;" x1="366.667" y1="0" x2="366.667" y2="500"/>
				
					<line style="fill:none;stroke:#8F8BFD;stroke-width:2;stroke-linecap:round;stroke-linejoin:round;stroke-miterlimit:10;" x1="333.333" y1="0" x2="333.333" y2="500"/>
				
					<line style="fill:none;stroke:#8F8BFD;stroke-width:2;stroke-linecap:round;stroke-linejoin:round;stroke-miterlimit:10;" x1="300" y1="0" x2="300" y2="500"/>
				
					<line style="fill:none;stroke:#8F8BFD;stroke-width:2;stroke-linecap:round;stroke-linejoin:round;stroke-miterlimit:10;" x1="266.667" y1="0" x2="266.667" y2="500"/>
				
					<line style="fill:none;stroke:#8F8BFD;stroke-width:2;stroke-linecap:round;stroke-linejoin:round;stroke-miterlimit:10;" x1="233.333" y1="0" x2="233.333" y2="500"/>
				
					<line style="fill:none;stroke:#8F8BFD;stroke-width:2;stroke-linecap:round;stroke-linejoin:round;stroke-miterlimit:10;" x1="200" y1="0" x2="200" y2="500"/>
				
					<line style="fill:none;stroke:#8F8BFD;stroke-width:2;stroke-linecap:round;stroke-linejoin:round;stroke-miterlimit:10;" x1="166.667" y1="0" x2="166.667" y2="500"/>
				
					<line style="fill:none;stroke:#8F8BFD;stroke-width:2;stroke-linecap:round;stroke-linejoin:round;stroke-miterlimit:10;" x1="133.333" y1="0" x2="133.333" y2="500"/>
				
					<line style="fill:none;stroke:#8F8BFD;stroke-width:2;stroke-linecap:round;stroke-linejoin:round;stroke-miterlimit:10;" x1="100" y1="0" x2="100" y2="500"/>
				
					<line style="fill:none;stroke:#8F8BFD;stroke-width:2;stroke-linecap:round;stroke-linejoin:round;stroke-miterlimit:10;" x1="66.667" y1="0" x2="66.667" y2="500"/>
				
					<line style="fill:none;stroke:#8F8BFD;stroke-width:2;stroke-linecap:round;stroke-linejoin:round;stroke-miterlimit:10;" x1="33.333" y1="0" x2="33.333" y2="500"/>
			</g>
		</g>
	</g>
	<g>
		<circle style="fill:#FFFFFF;" cx="250" cy="250" r="204.484"/>
		<circle style="fill:none;stroke:#FFFFFF;stroke-width:10;stroke-miterlimit:10;" cx="250" cy="250" r="218.541"/>
	</g>
</g>
<g id="OBJECTS">
	<g>
		<defs>
			<rect id="SVGID_1_" y="341.655" width="500" height="158.346"/>
		</defs>
		<clipPath id="SVGID_00000083774992632972756160000005431099857615097268_">
			<use xlink:href="#SVGID_1_"  style="overflow:visible;"/>
		</clipPath>
		<g style="clip-path:url(#SVGID_00000083774992632972756160000005431099857615097268_);">
			<path style="fill:#786CDE;stroke:#080E17;stroke-width:2;stroke-linecap:round;stroke-linejoin:round;stroke-miterlimit:10;" d="
				M135.964,500.455c-3.134-12.75-16.534-22.097-29.582-20.634c-3.304-8.413-12.636-14.018-21.616-12.983
				c-0.355-14.194-7.665-28.05-19.18-36.355c-11.515-8.306-26.97-10.869-40.55-6.727c-4.91-12.882-18.246-22.064-32.032-22.053
				v109.567"/>
			<g>
				<g>
					<g>
						<path style="fill:#D671DE;stroke:#080E17;stroke-width:2;stroke-miterlimit:10;" d="M22.284,380.066
							c0.886-3.544,2.228-6.974,3.983-10.178c2.724,1.92,5.104,4.326,6.993,7.071c0.102,0.149,0.221,0.311,0.399,0.343
							c0.247,0.045,0.453-0.179,0.602-0.381c2.13-2.886,3.982-5.977,5.521-9.216c2.583,3.197,4.936,6.578,7.036,10.11
							c-3.518,2.44-7.362,5.729-11.573,6.502C31.034,385.09,24.926,383.435,22.284,380.066z"/>
						<path style="fill:none;stroke:#080E17;stroke-width:2;stroke-miterlimit:10;" d="M36.529,395.309
							c2.299,16.365,0.893,32.998-0.517,49.464"/>
						<path style="fill:#D671DE;stroke:#080E17;stroke-width:2;stroke-miterlimit:10;" d="M47.302,366.418
							c2.703,5.325,3.848,11.429,3.257,17.372c-0.598,6.01-3.518,12.392-9.154,14.563c-1.553,0.599-3.224,0.841-4.887,0.917
							c-2.861,0.131-5.792-0.234-8.38-1.463c-4.268-2.027-7.2-6.248-8.577-10.768c-1.376-4.52-1.365-9.343-1.011-14.054
							c2.475,2.393,5.276,4.618,7.751,7.011c0.167,0.161,0.389,0.335,0.606,0.253c0.151-0.058,0.231-0.22,0.296-0.368
							c1.645-3.723,3.29-7.447,4.935-11.17c3.516,2.173,6.597,5.049,9.007,8.408c0.14,0.196,0.335,0.418,0.572,0.372
							c0.198-0.038,0.307-0.246,0.389-0.43C43.629,373.621,45.779,369.857,47.302,366.418z"/>
					</g>
				</g>
				<path style="fill:#8F8BFD;stroke:#080E17;stroke-width:2;stroke-miterlimit:10;" d="M37.086,428.199
					c-6.496,0.122-12.758-3.373-16.815-8.448s-6.064-11.57-6.552-18.049c7.38,1.878,15.112,5.71,19.514,11.924
					C36.486,418.219,35.748,422.733,37.086,428.199z"/>
			</g>
			<g>
				
					<path style="fill:#8F8BFD;stroke:#080036;stroke-width:2;stroke-linecap:round;stroke-linejoin:round;stroke-miterlimit:10;" d="
					M122.282,516.602c-3.134-12.75-16.534-22.097-29.582-20.635c-3.304-8.413-12.636-14.018-21.616-12.983
					c-0.355-14.193-7.665-28.05-19.18-36.355c-11.515-8.306-26.97-10.869-40.551-6.727c-4.909-12.882-18.246-22.064-32.032-22.053
					v109.567"/>
				<path style="fill:none;stroke:#080E17;stroke-width:2;stroke-linecap:round;stroke-linejoin:round;stroke-miterlimit:10;" d="
					M13.719,460.909c4.229-0.701,8.581,1.382,11.453,4.564c2.873,3.182,4.458,7.325,5.481,11.488
					c4.369-3.317,10.862-1.593,15.169,1.804c3.543,2.795,6.277,6.604,7.792,10.855"/>
			</g>
			<g>
				<g>
					<g>
						<path style="fill:#D671DE;stroke:#080E17;stroke-width:2;stroke-miterlimit:10;" d="M92.069,438.225
							c-0.378-3.634-1.224-7.218-2.51-10.637c-2.967,1.517-5.662,3.564-7.919,6.016c-0.122,0.133-0.263,0.276-0.443,0.284
							c-0.251,0.01-0.423-0.241-0.542-0.462c-1.702-3.157-3.101-6.478-4.169-9.902c-3.007,2.801-5.813,5.818-8.389,9.019
							c3.139,2.911,6.482,6.708,10.542,8.066S88.979,441.189,92.069,438.225z"/>
						<path style="fill:none;stroke:#080E17;stroke-width:2;stroke-miterlimit:10;" d="M75.819,451.311
							c-4.58,15.879-5.529,32.544-6.451,49.044"/>
						<path style="fill:#D671DE;stroke:#080E17;stroke-width:2;stroke-miterlimit:10;" d="M69.221,421.191
							c-3.426,4.891-5.419,10.774-5.67,16.74c-0.254,6.035,1.738,12.764,7.012,15.707c1.454,0.811,3.074,1.286,4.71,1.596
							c2.814,0.533,5.768,0.583,8.502-0.269c4.51-1.406,8.008-5.172,10.007-9.453c1.999-4.281,2.666-9.058,2.98-13.771
							c-2.787,2.021-5.873,3.829-8.661,5.85c-0.188,0.136-0.433,0.277-0.636,0.165c-0.142-0.078-0.198-0.25-0.242-0.406
							c-1.104-3.918-2.209-7.836-3.313-11.753c-3.787,1.657-7.242,4.07-10.101,7.056c-0.167,0.174-0.39,0.366-0.618,0.288
							c-0.19-0.066-0.269-0.287-0.324-0.48C71.844,428.839,70.245,424.81,69.221,421.191z"/>
					</g>
				</g>
				<path style="fill:#8F8BFD;stroke:#080E17;stroke-width:2;stroke-miterlimit:10;" d="M71.664,487.314
					c6.415,1.035,13.106-1.543,17.837-5.997c4.731-4.454,7.633-10.6,9.028-16.947c-7.571,0.821-15.765,3.526-20.998,9.058
					C73.663,477.517,73.759,482.09,71.664,487.314z"/>
			</g>
		</g>
		<g style="clip-path:url(#SVGID_00000083774992632972756160000005431099857615097268_);">
			<path style="fill:#786CDE;stroke:#080E17;stroke-width:2;stroke-linecap:round;stroke-linejoin:round;stroke-miterlimit:10;" d="
				M367.903,500.455c3.134-12.75,16.534-22.097,29.582-20.634c3.304-8.413,12.636-14.018,21.616-12.983
				c0.355-14.194,7.665-28.05,19.18-36.355c11.515-8.306,26.97-10.869,40.55-6.727c4.91-12.882,18.246-22.064,32.032-22.053v109.567
				"/>
			<g>
				<g>
					<g>
						<path style="fill:#D671DE;stroke:#080E17;stroke-width:2;stroke-miterlimit:10;" d="M481.583,380.066
							c-0.886-3.544-2.228-6.974-3.983-10.178c-2.724,1.92-5.104,4.326-6.993,7.071c-0.102,0.149-0.221,0.311-0.399,0.343
							c-0.247,0.045-0.453-0.179-0.602-0.381c-2.13-2.886-3.982-5.977-5.521-9.216c-2.583,3.197-4.936,6.578-7.036,10.11
							c3.518,2.44,7.362,5.729,11.573,6.502C472.833,385.09,478.941,383.435,481.583,380.066z"/>
						<path style="fill:none;stroke:#080E17;stroke-width:2;stroke-miterlimit:10;" d="M467.338,395.309
							c-2.299,16.365-0.893,32.998,0.518,49.464"/>
						<path style="fill:#D671DE;stroke:#080E17;stroke-width:2;stroke-miterlimit:10;" d="M456.565,366.418
							c-2.703,5.325-3.848,11.429-3.257,17.372c0.598,6.01,3.517,12.392,9.154,14.563c1.553,0.599,3.224,0.841,4.887,0.917
							c2.861,0.131,5.792-0.234,8.38-1.463c4.268-2.027,7.2-6.248,8.577-10.768c1.376-4.52,1.365-9.343,1.012-14.054
							c-2.475,2.393-5.276,4.618-7.751,7.011c-0.167,0.161-0.389,0.335-0.606,0.253c-0.151-0.058-0.231-0.22-0.296-0.368
							c-1.645-3.723-3.29-7.447-4.935-11.17c-3.516,2.173-6.597,5.049-9.007,8.408c-0.14,0.196-0.335,0.418-0.572,0.372
							c-0.198-0.038-0.307-0.246-0.389-0.43C460.238,373.621,458.089,369.857,456.565,366.418z"/>
					</g>
				</g>
				<path style="fill:#8F8BFD;stroke:#080E17;stroke-width:2;stroke-miterlimit:10;" d="M466.781,428.199
					c6.496,0.122,12.758-3.373,16.815-8.448c4.057-5.076,6.064-11.57,6.552-18.049c-7.38,1.878-15.112,5.71-19.514,11.924
					C467.381,418.219,468.12,422.733,466.781,428.199z"/>
			</g>
			<g>
				
					<path style="fill:#8F8BFD;stroke:#080036;stroke-width:2;stroke-linecap:round;stroke-linejoin:round;stroke-miterlimit:10;" d="
					M381.585,516.602c3.134-12.75,16.534-22.097,29.582-20.635c3.305-8.413,12.636-14.018,21.616-12.983
					c0.355-14.193,7.665-28.05,19.18-36.355c11.515-8.306,26.97-10.869,40.551-6.727c4.909-12.882,18.246-22.064,32.032-22.053
					v109.567"/>
				<path style="fill:none;stroke:#080E17;stroke-width:2;stroke-linecap:round;stroke-linejoin:round;stroke-miterlimit:10;" d="
					M490.148,460.909c-4.229-0.701-8.581,1.382-11.453,4.564c-2.873,3.182-4.458,7.325-5.481,11.488
					c-4.369-3.317-10.862-1.593-15.169,1.804c-3.543,2.795-6.277,6.604-7.792,10.855"/>
			</g>
			<g>
				<g>
					<g>
						<path style="fill:#D671DE;stroke:#080E17;stroke-width:2;stroke-miterlimit:10;" d="M411.799,438.225
							c0.378-3.634,1.224-7.218,2.51-10.637c2.967,1.517,5.662,3.564,7.919,6.016c0.122,0.133,0.263,0.276,0.443,0.284
							c0.251,0.01,0.423-0.241,0.542-0.462c1.702-3.157,3.101-6.478,4.169-9.902c3.007,2.801,5.813,5.818,8.389,9.019
							c-3.139,2.911-6.482,6.708-10.542,8.066S414.889,441.189,411.799,438.225z"/>
						<path style="fill:none;stroke:#080E17;stroke-width:2;stroke-miterlimit:10;" d="M428.048,451.311
							c4.581,15.879,5.529,32.544,6.451,49.044"/>
						<path style="fill:#D671DE;stroke:#080E17;stroke-width:2;stroke-miterlimit:10;" d="M434.646,421.191
							c3.426,4.891,5.419,10.774,5.67,16.74c0.254,6.035-1.738,12.764-7.012,15.707c-1.454,0.811-3.074,1.286-4.71,1.596
							c-2.814,0.533-5.768,0.583-8.502-0.269c-4.51-1.406-8.008-5.172-10.007-9.453c-1.999-4.281-2.666-9.058-2.98-13.771
							c2.787,2.021,5.873,3.829,8.661,5.85c0.188,0.136,0.433,0.277,0.635,0.165c0.142-0.078,0.198-0.25,0.242-0.406
							c1.104-3.918,2.209-7.836,3.313-11.753c3.787,1.657,7.242,4.07,10.101,7.056c0.167,0.174,0.391,0.366,0.618,0.288
							c0.19-0.066,0.269-0.287,0.324-0.48C432.023,428.839,433.622,424.81,434.646,421.191z"/>
					</g>
				</g>
				<path style="fill:#8F8BFD;stroke:#080E17;stroke-width:2;stroke-miterlimit:10;" d="M432.203,487.314
					c-6.415,1.035-13.106-1.543-17.837-5.997c-4.731-4.454-7.633-10.6-9.027-16.947c7.571,0.821,15.765,3.526,20.998,9.058
					C430.204,477.517,430.108,482.09,432.203,487.314z"/>
			</g>
		</g>
	</g>
	<g>
		<g>
			
				<polyline style="fill:#D671DE;stroke:#080E17;stroke-width:2;stroke-linecap:round;stroke-linejoin:round;stroke-miterlimit:10;" points="
				133.689,500 141.03,461.023 329.864,461.023 337.613,500 			"/>
			<g>
				<g>
					<g>
						
							<path style="fill:#8F8BFD;stroke:#080E17;stroke-width:2;stroke-linecap:round;stroke-linejoin:round;stroke-miterlimit:10;" d="
							M318.089,226.483c0,0,23.335,7.518,30.383,27.722c7.048,20.204,44.652,141.393,36.311,155.311
							c-8.341,13.918-40.703,9.612-40.703,9.612s5.801,42.849-7.825,51.496c-13.626,8.647-58.3,8.177-90.702,9.117
							s-93.015,10.807-108.52-4.699c-15.506-15.506-14.216-81.093-13.276-136.067c0.94-54.974-8.337-80.541,5.289-93.697
							c13.626-13.156,33.83-25.373,33.83-25.373L318.089,226.483z"/>
						<path style="fill:none;stroke:#080E17;stroke-width:2;stroke-linecap:round;stroke-linejoin:round;stroke-miterlimit:10;" d="
							M331.962,263.831c1.229,17.951,1.119,35.994-0.329,53.929"/>
					</g>
					<g>
						<defs>
							<path id="XMLID_3_" d="M383.424,415.916c0,0-0.416,0.974-9.504,1.864c-9.088,0.889-15.676,1.294-15.676,1.294
								s-4.92-1.841-4.019-8.564c0.901-6.723,6.693-12.814,6.693-12.814l15.656,0.529L383.424,415.916z"/>
						</defs>
						<use xlink:href="#XMLID_3_"  style="overflow:visible;fill:#786CDE;"/>
						<clipPath id="XMLID_00000001663296170356226220000010133949958953404607_">
							<use xlink:href="#XMLID_3_"  style="overflow:visible;"/>
						</clipPath>
						
							<path style="clip-path:url(#XMLID_00000001663296170356226220000010133949958953404607_);fill:none;stroke:#080E17;stroke-width:2;stroke-linecap:round;stroke-linejoin:round;stroke-miterlimit:10;" d="
							M349.607,414.888c12.305-0.858,24.575-2.228,36.766-4.105"/>
						
							<path style="clip-path:url(#XMLID_00000001663296170356226220000010133949958953404607_);fill:none;stroke:#080E17;stroke-width:2;stroke-linecap:round;stroke-linejoin:round;stroke-miterlimit:10;" d="
							M352.123,405.998c10.255-0.005,20.511-0.01,30.766-0.015"/>
						
							<path style="clip-path:url(#XMLID_00000001663296170356226220000010133949958953404607_);fill:none;stroke:#080E17;stroke-width:2;stroke-linecap:round;stroke-linejoin:round;stroke-miterlimit:10;" d="
							M356.546,400.189c8.774,0.522,17.528,1.372,26.238,2.549"/>
						
							<use xlink:href="#XMLID_3_"  style="overflow:visible;fill:none;stroke:#080E17;stroke-width:2;stroke-linecap:round;stroke-linejoin:round;stroke-miterlimit:10;"/>
					</g>
				</g>
				<g>
					<g>
						
							<path style="fill:#080E17;stroke:#080E17;stroke-width:2;stroke-linecap:round;stroke-linejoin:round;stroke-miterlimit:10;" d="
							M245.878,270.693c0,1.914-1.552,3.466-3.466,3.466c-1.914,0-3.466-1.552-3.466-3.466c0-1.914,1.552-3.466,3.466-3.466
							C244.326,267.227,245.878,268.779,245.878,270.693z"/>
						
							<path style="fill:#D671DE;stroke:#080E17;stroke-width:2;stroke-linecap:round;stroke-linejoin:round;stroke-miterlimit:10;" d="
							M240.364,322.569c0,1.914-1.552,3.466-3.466,3.466c-1.914,0-3.466-1.552-3.466-3.466s1.552-3.466,3.466-3.466
							C238.812,319.103,240.364,320.655,240.364,322.569z"/>
						<path style="fill:none;stroke:#080E17;stroke-width:2;stroke-linecap:round;stroke-linejoin:round;stroke-miterlimit:10;" d="
							M241.916,272.395c-0.788,15.159-3.084,31.652-5.018,46.708"/>
					</g>
					<g>
						
							<path style="fill:#080E17;stroke:#080E17;stroke-width:2;stroke-linecap:round;stroke-linejoin:round;stroke-miterlimit:10;" d="
							M254.211,270.693c0,1.914,1.552,3.466,3.466,3.466c1.914,0,3.466-1.552,3.466-3.466c0-1.914-1.552-3.466-3.466-3.466
							C255.762,267.227,254.211,268.779,254.211,270.693z"/>
						
							<path style="fill:#D671DE;stroke:#080E17;stroke-width:2;stroke-linecap:round;stroke-linejoin:round;stroke-miterlimit:10;" d="
							M259.725,322.569c0,1.914,1.552,3.466,3.466,3.466c1.914,0,3.466-1.552,3.466-3.466s-1.552-3.466-3.466-3.466
							C261.277,319.103,259.725,320.655,259.725,322.569z"/>
						<path style="fill:none;stroke:#080E17;stroke-width:2;stroke-linecap:round;stroke-linejoin:round;stroke-miterlimit:10;" d="
							M258.173,272.395c0.788,15.159,3.084,31.652,5.018,46.708"/>
					</g>
				</g>
			</g>
			
				<rect x="168.313" y="200.372" style="fill:#080E17;stroke:#080E17;stroke-width:2;stroke-linecap:round;stroke-linejoin:round;stroke-miterlimit:10;" width="154.482" height="28.539"/>
			<g>
				<defs>
					<path id="XMLID_7_" d="M179.511,228.682c0,0,15.067-25.989,15.881-37.02c0.814-11.031-17.003-55.206-5.294-90.844
						c11.71-35.638,41.367-46.368,76.982-41.535c36.389,4.938,56.582,49.712,49.66,86.955c-6.922,37.243-25.165,54.753-24.595,62.49
						c0.57,7.737,17.265,27.69,17.265,27.69l-62.522,24.478L179.511,228.682z"/>
				</defs>
				<use xlink:href="#XMLID_7_"  style="overflow:visible;fill:#D671DE;"/>
				<clipPath id="XMLID_00000021081436246505863820000010725599767449749670_">
					<use xlink:href="#XMLID_7_"  style="overflow:visible;"/>
				</clipPath>
				
					<path style="clip-path:url(#XMLID_00000021081436246505863820000010725599767449749670_);fill:none;stroke:#080E17;stroke-width:2;stroke-linecap:round;stroke-linejoin:round;stroke-miterlimit:10;" d="
					M245.006,56.915c-14.506,6.891-25.299,20.245-31.364,35.116c-6.064,14.87-7.756,31.201-7.482,47.259
					c0.116,6.781,0.585,13.636,2.642,20.099"/>
				
					<path style="clip-path:url(#XMLID_00000021081436246505863820000010725599767449749670_);fill:none;stroke:#080E17;stroke-width:2;stroke-linecap:round;stroke-linejoin:round;stroke-miterlimit:10;" d="
					M222.795,195.838c9.167,15.532,23.999,27.401,40.728,34.139c16.729,6.739,35.256,8.498,53.16,6.323"/>
				
					<path style="clip-path:url(#XMLID_00000021081436246505863820000010725599767449749670_);fill:none;stroke:#080E17;stroke-width:2;stroke-linecap:round;stroke-linejoin:round;stroke-miterlimit:10;" d="
					M191.73,186.866c11.612,21.743,29.257,40.561,51.231,51.731c21.974,11.169,48.337,14.262,71.747,6.546"/>
				
					<path style="clip-path:url(#XMLID_00000021081436246505863820000010725599767449749670_);fill:none;stroke:#080E17;stroke-width:2;stroke-linecap:round;stroke-linejoin:round;stroke-miterlimit:10;" d="
					M302.789,142.596c5.012,11.512,8.066,23.874,8.992,36.396"/>
				
					<path style="clip-path:url(#XMLID_00000021081436246505863820000010725599767449749670_);fill:none;stroke:#080E17;stroke-width:2;stroke-linecap:round;stroke-linejoin:round;stroke-miterlimit:10;" d="
					M216.076,86.658c0,0,35.424-30.034,72.948-3.348c30.507,21.696,30.776,86.503,30.776,86.503"/>
				
					<use xlink:href="#XMLID_7_"  style="overflow:visible;fill:none;stroke:#080E17;stroke-width:2;stroke-linecap:round;stroke-linejoin:round;stroke-miterlimit:10;"/>
			</g>
			<g>
				<g>
					
						<path style="fill:#C77B6A;stroke:#080E17;stroke-width:2;stroke-linecap:round;stroke-linejoin:round;stroke-miterlimit:10;" d="
						M303.47,144.227c0,0-5.213-18.008-15.164-29.855c-9.952-11.847-22.036-19.192-32.461-19.192
						c-4.912,0-21.448,9.034-32.224,23.22c-12.095,15.923-16.27,32.978-16.27,32.978s4.897,63.22,49.442,65.826
						S303.47,144.227,303.47,144.227z"/>
					<g>
						
							<path style="fill:#080E17;stroke:#080E17;stroke-width:2;stroke-linecap:round;stroke-linejoin:round;stroke-miterlimit:10;" d="
							M273.753,146.239c0,2.839,2.301,5.14,5.14,5.14c2.839,0,5.14-2.301,5.14-5.14c0-2.839-2.301-5.14-5.14-5.14
							C276.054,141.099,273.753,143.4,273.753,146.239z"/>
						
							<circle style="fill:#080E17;stroke:#080E17;stroke-width:2;stroke-linecap:round;stroke-linejoin:round;stroke-miterlimit:10;" cx="241.749" cy="146.239" r="5.14"/>
						
							<path style="fill:#080E17;stroke:#080E17;stroke-width:2;stroke-linecap:round;stroke-linejoin:round;stroke-miterlimit:10;" d="
							M292.145,135.18c-0.545-0.182-20.889-7.811-20.889-7.811s2.15-3.411,10.445-1.049
							C289.995,128.681,292.145,135.18,292.145,135.18z"/>
						
							<path style="fill:#080E17;stroke:#080E17;stroke-width:2;stroke-linecap:round;stroke-linejoin:round;stroke-miterlimit:10;" d="
							M228.62,135.18c0.545-0.182,20.889-7.811,20.889-7.811s-2.15-3.411-10.445-1.049C230.77,128.681,228.62,135.18,228.62,135.18z
							"/>
						<g style="opacity:0.4;">
							<circle style="fill:#C77B6A;" cx="281.701" cy="171.547" r="7.323"/>
							<circle style="fill:#C77B6A;" cx="237.197" cy="171.547" r="7.323"/>
						</g>
						<path style="fill:none;stroke:#080E17;stroke-width:2;stroke-linecap:round;stroke-linejoin:round;stroke-miterlimit:10;" d="
							M264.251,139.82c1.432,12.521,4.044,36.402,2.186,37.726c-1.859,1.324-8.611,0-8.611,0"/>
						<g>
							<defs>
								<path id="XMLID_6_" d="M252.004,186.23c-0.69,1.227,4.434,8.4,9.184,7.906c4.75-0.494,9.593-5.139,9.099-7.214
									C269.793,184.847,252.894,184.649,252.004,186.23z"/>
							</defs>
							<use xlink:href="#XMLID_6_"  style="overflow:visible;fill:#080E17;"/>
							<clipPath id="XMLID_00000161593864031154444500000012888212616630790567_">
								<use xlink:href="#XMLID_6_"  style="overflow:visible;"/>
							</clipPath>
							
								<path style="clip-path:url(#XMLID_00000161593864031154444500000012888212616630790567_);fill:#D671DE;stroke:#080E17;stroke-width:2;stroke-linecap:round;stroke-linejoin:round;stroke-miterlimit:10;" d="
								M251.942,189.51c2.833-1.12,6.123-1.029,8.89,0.247c2.767,1.276,4.973,3.718,5.961,6.6c-2.533,1.258-5.601,1.384-8.229,0.339
								c-2.627-1.045-4.771-3.244-5.749-5.897"/>
							
								<use xlink:href="#XMLID_6_"  style="overflow:visible;fill:none;stroke:#080E17;stroke-width:2;stroke-linecap:round;stroke-linejoin:round;stroke-miterlimit:10;"/>
						</g>
					</g>
				</g>
			</g>
			<g>
				
					<path style="fill:#8F8BFD;stroke:#080E17;stroke-width:2;stroke-linecap:round;stroke-linejoin:round;stroke-miterlimit:10;" d="
					M194.322,183.816c0.908,4.068,2.628,11.979-2.207,19.438c0,0-17.879,1.302-17.516,10.389
					c0.364,9.087,31.624,12.821,48.708,25.081c17.084,12.259,23.582,22.173,23.582,22.173s-25.399-11.268-49.753-18.538
					c-24.354-7.27-45.99-13.879-43.619-31.26C156.168,191.663,194.322,183.816,194.322,183.816z"/>
				
					<path style="fill:#8F8BFD;stroke:#080E17;stroke-width:2;stroke-linecap:round;stroke-linejoin:round;stroke-miterlimit:10;" d="
					M304.082,183.816c-2.506,5.68-9.927,18.331-9.927,18.331s25.387,2.409,25.023,11.496s-31.624,12.821-48.708,25.081
					c-17.084,12.259-23.582,22.173-23.582,22.173s25.399-11.268,49.753-18.538c24.354-7.27,45.99-13.879,43.619-31.26
					C337.61,191.663,304.082,183.816,304.082,183.816z"/>
			</g>
			<g>
				<path style="fill:#FFFFFF;stroke:#080E17;stroke-width:2;stroke-linecap:round;stroke-miterlimit:10;" d="M70.54,309.967
					l9.672,103.442l135.249-12.645l3.693-4.1l-13.365-99.342l-131.555,8.546L70.54,309.967z M80.134,317.623
					c-1.267,0.118-2.39-0.813-2.509-2.079c-0.118-1.267,0.813-2.39,2.08-2.509c1.267-0.118,2.39,0.813,2.509,2.08
					C82.332,316.381,81.401,317.504,80.134,317.623z M89.271,316.769c-1.267,0.118-2.39-0.813-2.509-2.079
					c-0.118-1.267,0.813-2.39,2.08-2.509c1.267-0.118,2.39,0.813,2.509,2.08C91.469,315.527,90.538,316.65,89.271,316.769z
					 M98.408,315.914c-1.267,0.118-2.39-0.813-2.509-2.079c-0.118-1.267,0.813-2.39,2.08-2.509c1.267-0.118,2.39,0.813,2.509,2.08
					C100.606,314.673,99.675,315.796,98.408,315.914z M107.545,315.06c-1.267,0.118-2.39-0.813-2.509-2.08
					c-0.118-1.267,0.813-2.39,2.08-2.509c1.267-0.118,2.39,0.813,2.509,2.08C109.743,313.818,108.812,314.942,107.545,315.06z
					 M116.682,314.206c-1.267,0.118-2.39-0.813-2.509-2.08c-0.118-1.267,0.813-2.39,2.08-2.509c1.267-0.118,2.39,0.813,2.509,2.08
					C118.88,312.964,117.949,314.087,116.682,314.206z M125.819,313.352c-1.267,0.118-2.39-0.813-2.509-2.08
					c-0.118-1.267,0.813-2.39,2.08-2.509c1.267-0.118,2.39,0.813,2.509,2.08C128.017,312.11,127.086,313.233,125.819,313.352z
					 M134.956,312.497c-1.267,0.118-2.39-0.813-2.509-2.079c-0.118-1.267,0.813-2.39,2.08-2.509c1.267-0.118,2.39,0.813,2.509,2.08
					C137.154,311.255,136.223,312.379,134.956,312.497z M144.093,311.643c-1.267,0.118-2.39-0.813-2.509-2.08
					c-0.118-1.267,0.813-2.39,2.08-2.509c1.267-0.118,2.39,0.813,2.509,2.08C146.291,310.401,145.36,311.524,144.093,311.643z
					 M153.23,310.789c-1.267,0.118-2.39-0.813-2.509-2.079c-0.118-1.267,0.813-2.39,2.08-2.509c1.267-0.118,2.39,0.813,2.509,2.08
					C155.428,309.547,154.497,310.67,153.23,310.789z M162.367,309.934c-1.267,0.118-2.39-0.813-2.509-2.079
					c-0.118-1.267,0.813-2.39,2.08-2.509s2.39,0.813,2.509,2.08C164.565,308.693,163.634,309.816,162.367,309.934z M171.504,309.08
					c-1.267,0.118-2.39-0.813-2.509-2.079c-0.118-1.267,0.813-2.39,2.08-2.509c1.267-0.118,2.39,0.813,2.509,2.08
					C173.702,307.838,172.771,308.962,171.504,309.08z M180.641,308.226c-1.267,0.118-2.39-0.813-2.509-2.079
					c-0.118-1.267,0.813-2.39,2.08-2.509c1.267-0.118,2.39,0.813,2.509,2.08C182.839,306.984,181.908,308.107,180.641,308.226z
					 M189.778,307.371c-1.267,0.118-2.39-0.813-2.509-2.079c-0.118-1.267,0.813-2.39,2.08-2.509c1.267-0.118,2.39,0.813,2.509,2.08
					C191.976,306.13,191.045,307.253,189.778,307.371z M198.915,306.517c-1.267,0.118-2.39-0.813-2.509-2.08
					c-0.118-1.267,0.813-2.39,2.08-2.509c1.267-0.118,2.39,0.813,2.509,2.08C201.113,305.276,200.182,306.399,198.915,306.517z"/>
				<path style="fill:#FFFFFF;stroke:#080E17;stroke-width:2;stroke-linecap:round;stroke-miterlimit:10;" d="M74.234,305.868
					l9.672,103.442l135.249-12.645l-9.672-103.442L74.234,305.868z M83.827,313.523c-1.267,0.118-2.39-0.813-2.509-2.079
					c-0.118-1.267,0.813-2.39,2.08-2.509s2.39,0.813,2.509,2.08C86.026,312.281,85.094,313.405,83.827,313.523z M92.964,312.669
					c-1.267,0.118-2.39-0.813-2.509-2.079c-0.118-1.267,0.813-2.39,2.08-2.509c1.267-0.118,2.39,0.813,2.509,2.08
					C95.163,311.427,94.231,312.55,92.964,312.669z M102.101,311.815c-1.267,0.118-2.39-0.813-2.509-2.08
					c-0.118-1.267,0.813-2.39,2.08-2.509c1.267-0.118,2.39,0.813,2.509,2.08C104.3,310.573,103.368,311.696,102.101,311.815z
					 M111.238,310.96c-1.267,0.118-2.39-0.813-2.509-2.079c-0.118-1.267,0.813-2.39,2.08-2.509c1.267-0.118,2.39,0.813,2.509,2.08
					C113.437,309.719,112.506,310.842,111.238,310.96z M120.376,310.106c-1.267,0.118-2.39-0.813-2.509-2.079
					c-0.118-1.267,0.813-2.39,2.08-2.509c1.267-0.118,2.39,0.813,2.509,2.08C122.574,308.864,121.643,309.987,120.376,310.106z
					 M129.513,309.252c-1.267,0.118-2.39-0.813-2.509-2.079c-0.118-1.267,0.813-2.39,2.08-2.509c1.267-0.118,2.39,0.813,2.509,2.08
					C131.711,308.01,130.78,309.133,129.513,309.252z M138.65,308.397c-1.267,0.118-2.39-0.813-2.509-2.08
					c-0.118-1.267,0.813-2.39,2.08-2.509c1.267-0.118,2.39,0.813,2.509,2.08C140.848,307.156,139.917,308.279,138.65,308.397z
					 M147.787,307.543c-1.267,0.118-2.39-0.813-2.509-2.08c-0.118-1.267,0.813-2.39,2.08-2.509c1.267-0.118,2.39,0.813,2.509,2.08
					C149.985,306.301,149.054,307.425,147.787,307.543z M156.924,306.689c-1.267,0.118-2.39-0.813-2.509-2.08
					c-0.118-1.267,0.813-2.39,2.08-2.509c1.267-0.118,2.39,0.813,2.509,2.08C159.122,305.447,158.191,306.57,156.924,306.689z
					 M166.061,305.835c-1.267,0.118-2.39-0.813-2.509-2.08c-0.118-1.267,0.813-2.39,2.08-2.509c1.267-0.118,2.39,0.813,2.509,2.08
					C168.259,304.593,167.328,305.716,166.061,305.835z M175.198,304.98c-1.267,0.118-2.39-0.813-2.509-2.079
					c-0.118-1.267,0.813-2.39,2.08-2.509c1.267-0.118,2.39,0.813,2.509,2.08C177.396,303.738,176.465,304.862,175.198,304.98z
					 M184.335,304.126c-1.267,0.118-2.39-0.813-2.509-2.079c-0.118-1.267,0.813-2.39,2.08-2.509c1.267-0.118,2.39,0.813,2.509,2.08
					C186.533,302.884,185.602,304.007,184.335,304.126z M193.472,303.272c-1.267,0.118-2.39-0.813-2.509-2.079
					c-0.118-1.267,0.813-2.39,2.08-2.509c1.267-0.118,2.39,0.813,2.509,2.08C195.67,302.03,194.739,303.153,193.472,303.272z
					 M202.609,302.417c-1.267,0.118-2.39-0.813-2.509-2.079c-0.118-1.267,0.813-2.39,2.08-2.509c1.267-0.118,2.39,0.813,2.509,2.08
					C204.807,301.176,203.876,302.299,202.609,302.417z"/>
				
					<line style="fill:#FFFFFF;stroke:#080E17;stroke-width:2;stroke-linecap:round;stroke-miterlimit:10;" x1="210.728" y1="306.548" x2="75.48" y2="319.194"/>
				
					<line style="fill:none;stroke:#8F8BFD;stroke-width:2;stroke-miterlimit:10;" x1="204.167" y1="308.232" x2="212.392" y2="396.206"/>
				
					<line style="fill:none;stroke:#8F8BFD;stroke-width:2;stroke-miterlimit:10;" x1="197.324" y1="308.871" x2="205.55" y2="396.846"/>
				
					<line style="fill:none;stroke:#8F8BFD;stroke-width:2;stroke-miterlimit:10;" x1="190.481" y1="309.511" x2="198.707" y2="397.485"/>
				
					<line style="fill:none;stroke:#8F8BFD;stroke-width:2;stroke-miterlimit:10;" x1="183.638" y1="310.151" x2="191.864" y2="398.125"/>
				
					<line style="fill:none;stroke:#8F8BFD;stroke-width:2;stroke-miterlimit:10;" x1="176.796" y1="310.791" x2="185.021" y2="398.765"/>
				
					<line style="fill:none;stroke:#8F8BFD;stroke-width:2;stroke-miterlimit:10;" x1="169.953" y1="311.431" x2="178.178" y2="399.405"/>
				
					<line style="fill:none;stroke:#8F8BFD;stroke-width:2;stroke-miterlimit:10;" x1="163.11" y1="312.07" x2="171.335" y2="400.045"/>
				
					<line style="fill:none;stroke:#8F8BFD;stroke-width:2;stroke-miterlimit:10;" x1="156.267" y1="312.71" x2="164.492" y2="400.684"/>
				
					<line style="fill:none;stroke:#8F8BFD;stroke-width:2;stroke-miterlimit:10;" x1="149.424" y1="313.35" x2="157.649" y2="401.324"/>
				
					<line style="fill:none;stroke:#8F8BFD;stroke-width:2;stroke-miterlimit:10;" x1="142.581" y1="313.99" x2="150.807" y2="401.964"/>
				
					<line style="fill:none;stroke:#8F8BFD;stroke-width:2;stroke-miterlimit:10;" x1="135.738" y1="314.629" x2="143.964" y2="402.604"/>
				
					<line style="fill:none;stroke:#8F8BFD;stroke-width:2;stroke-miterlimit:10;" x1="128.895" y1="315.269" x2="137.121" y2="403.244"/>
				
					<line style="fill:none;stroke:#8F8BFD;stroke-width:2;stroke-miterlimit:10;" x1="122.052" y1="315.909" x2="130.278" y2="403.883"/>
				
					<line style="fill:none;stroke:#8F8BFD;stroke-width:2;stroke-miterlimit:10;" x1="115.21" y1="316.549" x2="123.435" y2="404.523"/>
				
					<line style="fill:none;stroke:#8F8BFD;stroke-width:2;stroke-miterlimit:10;" x1="108.367" y1="317.189" x2="116.592" y2="405.163"/>
				
					<line style="fill:none;stroke:#8F8BFD;stroke-width:2;stroke-miterlimit:10;" x1="101.524" y1="317.828" x2="109.749" y2="405.803"/>
				
					<line style="fill:none;stroke:#8F8BFD;stroke-width:2;stroke-miterlimit:10;" x1="94.681" y1="318.468" x2="102.906" y2="406.443"/>
				
					<line style="fill:none;stroke:#8F8BFD;stroke-width:2;stroke-miterlimit:10;" x1="87.838" y1="319.108" x2="96.063" y2="407.082"/>
				
					<line style="fill:none;stroke:#8F8BFD;stroke-width:2;stroke-miterlimit:10;" x1="80.995" y1="319.748" x2="89.221" y2="407.722"/>
			</g>
			<g>
				
					<path style="fill:#EBAD2A;stroke:#080E17;stroke-width:2;stroke-linecap:round;stroke-linejoin:round;stroke-miterlimit:10;" d="
					M230.708,399.661h39.415v5.538h-44.952l0,0C225.171,402.14,227.65,399.661,230.708,399.661z"/>
				<g>
					
						<polygon style="fill:#C77B6A;stroke:#080E17;stroke-width:2;stroke-linecap:round;stroke-linejoin:round;stroke-miterlimit:10;" points="
						266.25,405.199 426.086,405.199 443.043,294.721 283.207,294.721 					"/>
					<g>
						<defs>
							<polygon id="XMLID_9_" points="270.123,405.199 429.959,405.199 446.916,294.721 287.08,294.721 							"/>
						</defs>
						<use xlink:href="#XMLID_9_"  style="overflow:visible;fill:#EBAD2A;"/>
						<clipPath id="XMLID_00000045584631552068861710000008299925381451296934_">
							<use xlink:href="#XMLID_9_"  style="overflow:visible;"/>
						</clipPath>
						
							<path style="clip-path:url(#XMLID_00000045584631552068861710000008299925381451296934_);fill:#D671DE;stroke:#080E17;stroke-width:2;stroke-miterlimit:10;" d="
							M321.505,306.605c-2.989,1.311-5.377,3.84-6.648,6.957c-2.686-1.378-5.904-1.453-8.898-0.141
							c-4.676,2.05-8.381,7.377-6.413,13.59c0.393,1.242,1.111,2.363,2.053,3.374c5.69,6.102,19.611,8.173,20.296,8.272l0.95,0.136
							l0.001-0.001l0.642-0.834c0.463-0.602,9.838-12.888,10.748-21.884c0.151-1.49,0.07-2.891-0.323-4.132
							C331.944,305.729,326.181,304.554,321.505,306.605z"/>
						<g style="clip-path:url(#XMLID_00000045584631552068861710000008299925381451296934_);">
							
								<ellipse transform="matrix(0.7337 -0.6795 0.6795 0.7337 -118.8876 385.4113)" style="fill:#8F8BFD;stroke:#080E17;stroke-width:2;stroke-miterlimit:10;" cx="432.207" cy="344.365" rx="17.853" ry="15.315"/>
							
								<ellipse transform="matrix(0.7337 -0.6795 0.6795 0.7337 -118.8877 385.4106)" style="fill:#D671DE;stroke:#080E17;stroke-width:2;stroke-miterlimit:10;" cx="432.207" cy="344.365" rx="12.624" ry="10.829"/>
						</g>
						<g style="clip-path:url(#XMLID_00000045584631552068861710000008299925381451296934_);">
							<path style="fill:#FFFFFF;stroke:#080E17;stroke-width:2;stroke-miterlimit:10;" d="M327.913,369.884l-29.819,21.829
								c-4.367,3.197-10.016,2.646-12.618-1.23l0,0c-2.602-3.876-1.171-9.61,3.196-12.807l29.82-21.829
								c4.367-3.197,10.016-2.646,12.618,1.23l0,0C333.711,360.954,332.28,366.687,327.913,369.884z"/>
							
								<line style="fill:#FFFFFF;stroke:#080E17;stroke-width:2;stroke-miterlimit:10;" x1="290.359" y1="381.796" x2="322.397" y2="358.342"/>
							
								<line style="fill:#FFFFFF;stroke:#080E17;stroke-width:2;stroke-miterlimit:10;" x1="292.326" y1="384.725" x2="324.364" y2="361.272"/>
							
								<line style="fill:#FFFFFF;stroke:#080E17;stroke-width:2;stroke-miterlimit:10;" x1="294.292" y1="387.655" x2="326.331" y2="364.202"/>
						</g>
						
							<use xlink:href="#XMLID_9_"  style="overflow:visible;fill:none;stroke:#080E17;stroke-width:2;stroke-linecap:round;stroke-linejoin:round;stroke-miterlimit:10;"/>
					</g>
				</g>
				
					<ellipse transform="matrix(0.7337 -0.6795 0.6795 0.7337 -142.6859 340.2395)" style="fill:#FFFFFF;stroke:#080E17;stroke-width:2;stroke-linecap:round;stroke-linejoin:round;stroke-miterlimit:10;" cx="362.68" cy="352.135" rx="14.999" ry="12.867"/>
				
					<path style="fill:#EBAD2A;stroke:#080E17;stroke-width:2;stroke-linecap:round;stroke-linejoin:round;stroke-miterlimit:10;" d="
					M370.692,345.19c3.247,3.836,2.293,10.056-2.132,13.892c-4.425,3.836-10.645,3.836-13.892,0
					c-3.247-3.836-2.293-10.056,2.132-13.892C361.225,341.353,367.445,341.353,370.692,345.19z"/>
			</g>
			<g>
				<defs>
					<path id="XMLID_2_" d="M374.547,412.512c-2.69-3.349-2.88-7.313-2.88-7.313s13.56,0.805,19.894,0
						c6.334-0.805,11.574-7.203,14.34-7.834c2.766-0.631,5.053,1.233,5.053,1.233s3.116-6.29,5.69-8.274
						c2.574-1.984,4.698,0.838,4.698,0.838s1.267-3.281,3.287-5.054c1.668-1.464,4.049-1.347,5.008-0.46
						c0.959,0.887-0.476,11.19-2.085,15.107c-1.609,3.917,3.22-6.312,5.159-8.671c1.939-2.359,4.271-2.543,5.139-1.287
						c0.869,1.257-2.083,10.191-4.004,13.249c-1.922,3.057-8.164,9.117-8.164,9.117l-4.073,3.46c0,0-7.244,3.311-11.215,2.995
						c-3.971-0.316-20.704,0.824-26.864-0.157C380.399,418.962,377.067,415.649,374.547,412.512z"/>
				</defs>
				<use xlink:href="#XMLID_2_"  style="overflow:visible;fill:#C77B6A;"/>
				<clipPath id="XMLID_00000112632552133378054860000001173298738669161635_">
					<use xlink:href="#XMLID_2_"  style="overflow:visible;"/>
				</clipPath>
				
					<path style="clip-path:url(#XMLID_00000112632552133378054860000001173298738669161635_);fill:none;stroke:#080E17;stroke-width:2;stroke-linecap:round;stroke-linejoin:round;stroke-miterlimit:10;" d="
					M411.293,397.734c-0.545,1.267-1.119,2.521-1.722,3.761c-0.531,1.092-1.101,2.196-1.986,3.028
					c-0.714,0.671-6.706,5.105-10.055,5.905"/>
				
					<path style="clip-path:url(#XMLID_00000112632552133378054860000001173298738669161635_);fill:none;stroke:#080E17;stroke-width:2;stroke-linecap:round;stroke-linejoin:round;stroke-miterlimit:10;" d="
					M421.343,391.162c-0.836,4.088-2.077,8.092-3.7,11.935c-1.772,4.196-5.833,7.471-9.912,9.497"/>
				
					<path style="clip-path:url(#XMLID_00000112632552133378054860000001173298738669161635_);fill:none;stroke:#080E17;stroke-width:2;stroke-linecap:round;stroke-linejoin:round;stroke-miterlimit:10;" d="
					M427.552,400.755c-0.979,3.041-1.398,4.008-3.498,6.416c-2.1,2.408-3.762,4.364-6.167,6.467"/>
				
					<use xlink:href="#XMLID_2_"  style="overflow:visible;fill:none;stroke:#080E17;stroke-width:2;stroke-linecap:round;stroke-linejoin:round;stroke-miterlimit:10;"/>
			</g>
			<g>
				<g>
					<path style="fill:#C77B6A;stroke:#080E17;stroke-width:2;stroke-linecap:round;stroke-miterlimit:10;" d="M284.717,424.183
						l14.288-4.966c0,0,21.57,6.213,34.427,3.484c12.858-2.729,31.677-12.065,31.63-14.594c-0.047-2.529-6.031-1.501-6.031-1.501
						s1.513-2.309,0.47-3.386c-1.535-1.586-18.863,3.337-25.816,4.218c-6.404,0.811-17.79,1.014-17.79,1.014
						s3.339-3.354,6.558-2.984c3.22,0.371,10.029-1.801,10.41-4.545c0.443-3.19-4.368-2.956-9.503-2.68
						c-5.135,0.276-15.313-0.451-18.866,1.033c-3.553,1.485-13.628,5.639-13.628,5.639l-4.734,1.916L284.717,424.183z"/>
					<path style="fill:none;stroke:#080E17;stroke-width:2;stroke-linecap:round;stroke-miterlimit:10;" d="M326.444,416.29
						c0,0,11.567-1.35,19.137-3.182c7.57-1.831,13.449-6.502,13.449-6.502"/>
				</g>
				<g>
					<g>
						<defs>
							<path id="XMLID_8_" d="M262.73,406.283h27.863c-1.556,7.532,0.319,14.738,5.076,20.781l-45.135,4.472"/>
						</defs>
						<use xlink:href="#XMLID_8_"  style="overflow:visible;fill:#786CDE;"/>
						<clipPath id="XMLID_00000128457871869027914740000006414533213253964438_">
							<use xlink:href="#XMLID_8_"  style="overflow:visible;"/>
						</clipPath>
						
							<path style="clip-path:url(#XMLID_00000128457871869027914740000006414533213253964438_);fill:none;stroke:#080E17;stroke-width:2;stroke-linecap:round;stroke-linejoin:round;stroke-miterlimit:10;" d="
							M251.491,415.534c15.548-1.462,31.119-2.687,46.705-3.675"/>
						
							<path style="clip-path:url(#XMLID_00000128457871869027914740000006414533213253964438_);fill:none;stroke:#080E17;stroke-width:2;stroke-linecap:round;stroke-linejoin:round;stroke-miterlimit:10;" d="
							M252.778,424.951c14.381-2.088,28.827-3.723,43.311-4.902"/>
						
							<use xlink:href="#XMLID_8_"  style="overflow:visible;fill:none;stroke:#080E17;stroke-width:2;stroke-linecap:round;stroke-linejoin:round;stroke-miterlimit:10;"/>
					</g>
					<g>
						
							<path style="fill:#8F8BFD;stroke:#080E17;stroke-width:2;stroke-linecap:round;stroke-linejoin:round;stroke-miterlimit:10;" d="
							M129.046,245.277c-13.603,13.322-23.502,43.413-20.334,94.093c3.168,50.68,6.799,93.044,24.978,106.902
							c18.179,13.858,91.031,17.421,108.056,5.543c17.025-11.878,20.985-45.532,20.985-45.532h-79.187
							c0,0-4.751-107.298-9.502-123.531c-4.751-16.233-22.568-28.507-22.568-28.507"/>
						<g>
							
								<path style="fill:#8F8BFD;stroke:#080E17;stroke-width:2;stroke-linecap:round;stroke-linejoin:round;stroke-miterlimit:10;" d="
								M156.224,407.471c0,0,18.099-1.782,27.319-1.188"/>
							
								<path style="fill:none;stroke:#080E17;stroke-width:2;stroke-linecap:round;stroke-linejoin:round;stroke-miterlimit:10;" d="
								M162.071,395.184c3.501,0.61,7.002,1.388,10.254,2.822c3.252,1.435,7.129,5.236,9.156,8.155"/>
						</g>
					</g>
				</g>
			</g>
		</g>
		<g>
			<path style="fill:#FFFFFF;stroke:#080E17;stroke-width:2;stroke-linecap:round;stroke-linejoin:round;stroke-miterlimit:10;" d="
				M405.16,75.482c-30.294,0-54.851,24.558-54.851,54.851c0,9.21,2.281,17.884,6.292,25.505
				c-9.301,8.412-21.642,13.422-33.724,17.395c14.131,0.125,27.606-1.991,40.184-7.747c10.062,12.037,25.184,19.699,42.099,19.699
				c30.293,0,54.851-24.558,54.851-54.851S435.454,75.482,405.16,75.482z"/>
			<g>
				<path style="fill:none;stroke:#8F8BFD;stroke-width:2;stroke-linecap:round;stroke-linejoin:round;stroke-miterlimit:10;" d="
					M357.681,118.003c3.872-13.074,13.308-24.4,25.469-30.569"/>
				<path style="fill:none;stroke:#8F8BFD;stroke-width:2;stroke-linecap:round;stroke-linejoin:round;stroke-miterlimit:10;" d="
					M387.631,86.015c3.526-1.536,7.358-2.365,11.203-2.423"/>
				<path style="fill:none;stroke:#8F8BFD;stroke-width:2;stroke-linecap:round;stroke-linejoin:round;stroke-miterlimit:10;" d="
					M424.706,175.148c8.792-3.458,16.359-9.945,21.121-18.105"/>
			</g>
			<path style="fill:#D671DE;stroke:#080E17;stroke-width:2;stroke-miterlimit:10;" d="M390.709,161.561
				c-2.097,0-4.107-0.833-5.589-2.315l-16.434-16.434c-3.087-3.087-3.087-8.091,0-11.178c3.087-3.087,8.091-3.086,11.178,0
				l10.845,10.845l37.914-37.914c3.086-3.087,8.092-3.087,11.178,0c3.087,3.087,3.087,8.091,0,11.178l-43.503,43.503
				C394.815,160.729,392.805,161.561,390.709,161.561z"/>
		</g>
	</g>
	<g>
		<path style="fill:#EBAD2A;stroke:#080036;stroke-width:2;stroke-linecap:round;stroke-linejoin:round;stroke-miterlimit:10;" d="
			M141.739,189.408h0.006c0-9.714,7.875-17.589,17.589-17.589v-0.006c-9.714,0-17.589-7.875-17.589-17.589h-0.006
			c0,9.714-7.875,17.589-17.589,17.589v0.006C133.864,171.819,141.739,179.694,141.739,189.408z"/>
		<path style="fill:#D671DE;stroke:#080036;stroke-width:2;stroke-linecap:round;stroke-linejoin:round;stroke-miterlimit:10;" d="
			M132.044,136.202h0.004c0-6.736,5.461-12.197,12.197-12.197v-0.004c-6.736,0-12.197-5.461-12.197-12.197h-0.004
			c0,6.736-5.461,12.197-12.197,12.197v0.004C126.583,124.005,132.044,129.466,132.044,136.202z"/>
		<path style="fill:#FFFFFF;stroke:#080036;stroke-width:2;stroke-linecap:round;stroke-linejoin:round;stroke-miterlimit:10;" d="
			M91.836,206.889h0.004c0-6.736,5.461-12.197,12.197-12.197v-0.004c-6.736,0-12.197-5.461-12.197-12.197h-0.004
			c0,6.736-5.461,12.197-12.197,12.197v0.004C86.375,194.691,91.836,200.152,91.836,206.889z"/>
		<path style="fill:#EBAD2A;stroke:#080036;stroke-width:2;stroke-linecap:round;stroke-linejoin:round;stroke-miterlimit:10;" d="
			M416.859,241.286h-0.005c0,8.405-6.813,15.218-15.218,15.218v0.005c8.405,0,15.218,6.813,15.218,15.218h0.005
			c0-8.405,6.813-15.218,15.218-15.218v-0.005C423.672,256.504,416.859,249.691,416.859,241.286z"/>
		<path style="fill:#D671DE;stroke:#080036;stroke-width:2;stroke-linecap:round;stroke-linejoin:round;stroke-miterlimit:10;" d="
			M369.87,219.141h-0.004c0,5.828-4.725,10.553-10.553,10.553v0.004c5.828,0,10.553,4.725,10.553,10.553h0.004
			c0-5.828,4.725-10.553,10.553-10.553v-0.004C374.595,229.694,369.87,224.969,369.87,219.141z"/>
		<path style="fill:#FFFFFF;stroke:#080036;stroke-width:2;stroke-linecap:round;stroke-linejoin:round;stroke-miterlimit:10;" d="
			M424.708,199.134h-0.004c0,5.828-4.725,10.553-10.553,10.553v0.004c5.828,0,10.553,4.725,10.553,10.553h0.004
			c0-5.828,4.725-10.553,10.553-10.553v-0.004C429.433,209.687,424.708,204.962,424.708,199.134z"/>
	</g>
</g>
</svg>
