<?xml version="1.0" encoding="utf-8"?>
<!-- Generator: Adobe Illustrator 27.5.0, SVG Export Plug-In . SVG Version: 6.00 Build 0)  -->
<svg version="1.1" xmlns="http://www.w3.org/2000/svg" xmlns:xlink="http://www.w3.org/1999/xlink" x="0px" y="0px"
	 viewBox="0 0 500 500" style="enable-background:new 0 0 500 500;" xml:space="preserve">
<g id="BACKGROUND">
	<rect style="fill-rule:evenodd;clip-rule:evenodd;fill:#EFD5DA;" width="500" height="500"/>
</g>
<g id="OBJECTS">
	<g>
		<g>
			<path style="fill-rule:evenodd;clip-rule:evenodd;fill:#E8BFCB;" d="M51.535,421.575h396.929c5.731,0,10.422,4.69,10.422,10.424
				l0,0c0,5.73-4.69,10.421-10.422,10.421h-78.045c-1.929,0-3.508,1.579-3.508,3.509l0,0c0,1.93,1.579,3.508,3.508,3.508h24.663
				c3.684,0,6.696,3.013,6.696,6.695l0,0c0,3.683-3.013,6.695-6.696,6.695H104.916c-3.683,0-6.696-3.013-6.696-6.695l0,0
				c0-3.683,3.013-6.695,6.696-6.695h24.664c1.93,0,3.509-1.578,3.509-3.508l0,0c0-1.93-1.579-3.509-3.509-3.509H51.535
				c-5.732,0-10.422-4.69-10.422-10.421l0,0C41.113,426.266,45.803,421.575,51.535,421.575z"/>
			<linearGradient id="SVGID_1_" gradientUnits="userSpaceOnUse" x1="250" y1="394.6863" x2="250" y2="148.0082">
				<stop  offset="0" style="stop-color:#F7F1F3"/>
				<stop  offset="1" style="stop-color:#EFD5DA"/>
			</linearGradient>
			<path style="fill-rule:evenodd;clip-rule:evenodd;fill:url(#SVGID_1_);" d="M170.489,418.933
				C63.284,101.988,63.284,101.988,63.284,101.988h186.715h186.716c0,0,0,0-107.206,316.945l-79.51-9.413L170.489,418.933z"/>
			<path style="fill-rule:evenodd;clip-rule:evenodd;fill:#FFFFFF;" d="M249.999,83.294l-0.501,0.002l-0.502,0.004l-0.5,0.008
				l-0.499,0.012l-0.499,0.014L247,83.352l-0.496,0.021l-0.497,0.024l-0.496,0.026l-0.494,0.029l-0.494,0.033l-0.494,0.036
				l-0.491,0.039l-0.436,0.038c-1.406,0.122-2.057,1.795-1.102,2.835c0.358,0.383,0.856,0.579,1.379,0.537l0.436-0.038l0.471-0.037
				l0.471-0.034l0.472-0.031l0.474-0.029l0.474-0.025l0.475-0.023l0.476-0.019l0.477-0.018l0.477-0.013l0.478-0.011l0.479-0.007
				l0.48-0.005l0.48-0.002l0.48,0.002l0.481,0.005l0.477,0.007l0.477,0.011l0.478,0.013l0.477,0.018l0.416,0.017
				c1.203,0.052,2.072-1.134,1.664-2.269c-0.241-0.648-0.824-1.076-1.516-1.111l-0.436-0.017l-0.498-0.018l-0.499-0.014
				l-0.499-0.012l-0.5-0.008l-0.502-0.004L249.999,83.294L249.999,83.294z M263.748,84.509c-1.225-0.224-2.255,0.893-1.944,2.097
				c0.176,0.636,0.679,1.106,1.328,1.229l0.464,0.084l0.455,0.085l0.454,0.089l0.453,0.092l0.453,0.094l0.451,0.097l0.45,0.099
				l0.449,0.102l0.447,0.105l0.449,0.107l0.445,0.11l0.445,0.113l0.444,0.115l0.443,0.12l0.149,0.041
				c0.582,0.161,1.19,0.004,1.626-0.412c0.941-0.915,0.539-2.492-0.722-2.847l-0.171-0.048l-0.464-0.124l-0.464-0.121l-0.465-0.118
				l-0.467-0.116l-0.468-0.112l-0.47-0.11l-0.47-0.107l-0.471-0.104l-0.472-0.102l-0.474-0.098l-0.474-0.096l-0.476-0.093
				l-0.477-0.09L263.748,84.509L263.748,84.509z M280.288,89.429c-1.291-0.546-2.645,0.604-2.308,1.967
				c0.136,0.516,0.48,0.928,0.972,1.14l0.351,0.15l0.414,0.179l0.412,0.183l0.413,0.185l0.41,0.187l0.408,0.19l0.408,0.191
				l0.406,0.194l0.404,0.197l0.403,0.198l0.402,0.202l0.4,0.204l0.399,0.206l0.397,0.208l0.342,0.182
				c0.675,0.358,1.492,0.227,2.021-0.323c0.773-0.816,0.562-2.125-0.425-2.66l-0.359-0.192l-0.417-0.217l-0.416-0.216l-0.42-0.213
				l-0.421-0.21l-0.42-0.208l-0.425-0.205l-0.425-0.203l-0.426-0.2l-0.428-0.198l-0.429-0.196l-0.43-0.193l-0.433-0.19l-0.433-0.187
				L280.288,89.429L280.288,89.429z M295.325,97.901c-0.624-0.452-1.464-0.431-2.064,0.053c-0.861,0.709-0.828,2.017,0.07,2.68
				l0.354,0.257l0.359,0.265l0.357,0.265l0.357,0.268l0.354,0.271l0.353,0.273l0.353,0.274l0.349,0.277l0.348,0.278l0.348,0.281
				l0.344,0.283l0.343,0.285l0.341,0.287l0.34,0.289l0.297,0.255c0.644,0.55,1.566,0.553,2.211,0.004
				c0.782-0.677,0.786-1.882,0.005-2.561l-0.313-0.27l-0.355-0.301l-0.355-0.3l-0.358-0.297L299,100.72l-0.361-0.294l-0.363-0.29
				l-0.366-0.29l-0.367-0.287l-0.369-0.285l-0.37-0.283l-0.373-0.28l-0.374-0.279l-0.376-0.276L295.325,97.901L295.325,97.901z
				 M308.12,109.476c-0.9-1.019-2.565-0.623-2.91,0.694c-0.14,0.547-0.004,1.111,0.366,1.537l0.25,0.283l0.293,0.336l0.289,0.336
				l0.289,0.34l0.287,0.341l0.284,0.343l0.284,0.345l0.279,0.346l0.277,0.348l0.277,0.35l0.275,0.351l0.272,0.354l0.271,0.354
				l0.268,0.356l0.266,0.358l-0.001-0.002c0.861,1.167,2.675,0.798,3.015-0.616c0.109-0.486,0.011-0.975-0.281-1.378l-0.289-0.388
				l-0.28-0.373l-0.282-0.37l-0.284-0.37l-0.288-0.367l-0.288-0.366l-0.292-0.364l-0.293-0.362l-0.295-0.36l-0.299-0.357l-0.3-0.357
				l-0.301-0.354l-0.305-0.353l-0.305-0.351L308.12,109.476L308.12,109.476z M318.057,123.584c-0.53-0.966-1.804-1.18-2.624-0.444
				c-0.575,0.526-0.722,1.373-0.349,2.06l0.175,0.32l0.213,0.395l0.211,0.396l0.208,0.398l0.206,0.398l0.204,0.402l0.202,0.401
				l0.199,0.404l0.196,0.405l0.193,0.406l0.192,0.408l0.189,0.409l0.188,0.41l0.186,0.412l0.165,0.374
				c0.316,0.719,1.077,1.124,1.85,0.987c1.078-0.198,1.683-1.339,1.25-2.343l-0.175-0.393l-0.192-0.431l-0.195-0.429l-0.199-0.428
				l-0.199-0.427l-0.204-0.424l-0.204-0.423l-0.209-0.422l-0.211-0.42l-0.212-0.42l-0.217-0.417l-0.218-0.417l-0.22-0.414
				l-0.223-0.414L318.057,123.584L318.057,123.584z M324.624,139.539c-0.35-1.196-1.798-1.624-2.742-0.811
				c-0.492,0.44-0.693,1.098-0.514,1.735l0.156,0.552l0.121,0.441l0.118,0.443l0.115,0.444l0.113,0.445l0.111,0.447l0.107,0.446
				l0.104,0.449l0.102,0.449l0.101,0.451l0.097,0.451l0.094,0.452l0.091,0.454l0.099,0.502c0.257,1.368,1.95,1.858,2.904,0.841
				c0.364-0.397,0.518-0.928,0.421-1.458l-0.104-0.544l-0.096-0.474l-0.099-0.473l-0.102-0.473l-0.104-0.47l-0.106-0.471
				l-0.11-0.468l-0.112-0.468l-0.116-0.466l-0.117-0.465l-0.121-0.465l-0.124-0.463l-0.127-0.462L324.624,139.539L324.624,139.539z
				 M327.479,156.564c-0.074-1.335-1.578-2.065-2.672-1.291c-0.471,0.339-0.736,0.881-0.707,1.462l0.018,0.338l0.023,0.475
				l0.019,0.476l0.018,0.476l0.014,0.477l0.012,0.478l0.007,0.479l0.004,0.48l0.002,0.479l-0.002,0.48l-0.004,0.48l-0.007,0.479
				l-0.012,0.479l-0.017,0.538c-0.049,1.353,1.43,2.213,2.583,1.503c0.482-0.301,0.773-0.806,0.799-1.373l0.018-0.583l0.011-0.499
				l0.008-0.5l0.005-0.501l0.001-0.502l-0.001-0.501l-0.005-0.501l-0.008-0.5l-0.011-0.5l-0.015-0.498l-0.018-0.498l-0.022-0.497
				l-0.023-0.497L327.479,156.564L327.479,156.564z M326.53,173.794c0.136-0.791-0.296-1.56-1.039-1.859
				c-1.004-0.395-2.107,0.222-2.294,1.285l-0.062,0.357l-0.079,0.457l-0.083,0.457l-0.086,0.456l-0.089,0.454l-0.091,0.454
				l-0.094,0.452l-0.097,0.452l-0.101,0.45l-0.102,0.449l-0.104,0.448l-0.107,0.447l-0.111,0.446l-0.113,0.445l-0.064,0.247
				c-0.154,0.586,0.012,1.188,0.432,1.622c0.929,0.928,2.499,0.508,2.84-0.758l0.069-0.267l0.117-0.466l0.116-0.466l0.112-0.468
				l0.11-0.469l0.106-0.47l0.104-0.471l0.102-0.472l0.099-0.473l0.096-0.474l0.092-0.475l0.09-0.477l0.088-0.477l0.083-0.479
				L326.53,173.794L326.53,173.794z M321.796,190.388c0.271-0.647,0.111-1.386-0.392-1.872c-0.867-0.82-2.269-0.525-2.731,0.573
				l-0.114,0.275l-0.174,0.416l-0.178,0.416l-0.18,0.414l-0.182,0.414l-0.186,0.411l-0.188,0.411l-0.189,0.409l-0.192,0.407
				l-0.193,0.406l-0.196,0.405l-0.199,0.403l-0.202,0.402l-0.204,0.401l-0.208,0.404c-0.399,0.761-0.17,1.699,0.54,2.186
				c0.839,0.57,1.976,0.289,2.452-0.606l0.229-0.441l0.212-0.419l0.211-0.42l0.209-0.422l0.204-0.423l0.204-0.424l0.199-0.426
				l0.199-0.427l0.195-0.429l0.192-0.43l0.192-0.433l0.188-0.434l0.186-0.434l0.182-0.436L321.796,190.388L321.796,190.388z
				 M313.491,205.519c0.698-0.99,0.177-2.352-1.002-2.63c-0.673-0.149-1.353,0.108-1.754,0.669l-0.212,0.298l-0.259,0.363
				l-0.263,0.361l-0.264,0.36l-0.266,0.357l-0.268,0.356l-0.271,0.355l-0.272,0.354l-0.275,0.351l-0.277,0.35l-0.277,0.349
				l-0.279,0.346l-0.284,0.344l-0.284,0.342l-0.292,0.349c-0.4,0.468-0.514,1.107-0.302,1.686c0.456,1.211,2.028,1.492,2.872,0.513
				l0.317-0.377l0.299-0.358l0.295-0.36l0.293-0.362l0.292-0.363l0.288-0.365l0.288-0.368l0.284-0.369l0.282-0.371l0.28-0.372
				l0.278-0.375l0.276-0.376l0.273-0.377l0.271-0.38L313.491,205.519L313.491,205.519z M302.058,218.44
				c1.009-0.909,0.591-2.577-0.728-2.902c-0.549-0.131-1.11,0.008-1.532,0.385l-0.226,0.206l-0.334,0.296l-0.333,0.295l-0.337,0.292
				l-0.337,0.291l-0.34,0.288l-0.341,0.287l-0.343,0.285l-0.344,0.283l-0.348,0.279l-0.348,0.279l-0.349,0.276l-0.353,0.274
				l-0.353,0.273l-0.41,0.312c-0.794,0.597-0.909,1.733-0.254,2.478c0.59,0.661,1.569,0.757,2.28,0.232l0.442-0.336l0.369-0.285
				l0.367-0.287l0.366-0.29l0.363-0.291l0.361-0.293l0.361-0.295l0.358-0.297l0.355-0.301l0.355-0.301l0.353-0.304l0.35-0.306
				l0.35-0.308l0.348-0.311L302.058,218.44L302.058,218.44z M288.06,228.533c0.803-0.451,1.103-1.46,0.667-2.273
				c-0.448-0.838-1.487-1.139-2.316-0.68l-0.251,0.141l-0.392,0.218l-0.395,0.215l-0.396,0.213l-0.396,0.211l-0.397,0.208
				l-0.399,0.206l-0.4,0.204l-0.402,0.202l-0.403,0.199l-0.404,0.196l-0.406,0.194l-0.408,0.192l-0.408,0.19l-0.438,0.198
				c-1.165,0.52-1.357,2.095-0.352,2.881c0.501,0.383,1.148,0.464,1.727,0.21l0.476-0.216l0.428-0.199l0.426-0.2l0.425-0.203
				l0.425-0.205l0.42-0.208l0.421-0.211l0.42-0.213l0.416-0.216l0.417-0.217l0.414-0.221l0.414-0.223l0.411-0.226l0.41-0.227
				L288.06,228.533L288.06,228.533z M272.181,235.276c1.24-0.376,1.622-1.934,0.691-2.84c-0.447-0.422-1.066-0.578-1.657-0.403
				l-0.457,0.135l-0.44,0.126l-0.44,0.124l-0.441,0.122l-0.443,0.118l-0.444,0.116l-0.445,0.113l-0.445,0.11l-0.449,0.108
				l-0.447,0.104l-0.449,0.102l-0.45,0.1l-0.451,0.097l-0.453,0.093l-0.152,0.031c-1.383,0.279-1.841,2.017-0.773,2.942
				c0.399,0.34,0.916,0.477,1.432,0.377l0.173-0.035l0.474-0.099l0.472-0.101l0.471-0.104l0.47-0.107l0.47-0.109l0.468-0.113
				l0.467-0.115l0.465-0.119l0.464-0.122l0.464-0.124l0.463-0.126l0.46-0.13l0.461-0.131L272.181,235.276L272.181,235.276z
				 M255.189,238.322c0.71-0.048,1.302-0.518,1.512-1.198c0.34-1.131-0.549-2.251-1.726-2.178l-0.208,0.014l-0.475,0.028
				l-0.474,0.026l-0.474,0.022l-0.477,0.02l-0.477,0.016l-0.478,0.014l-0.477,0.011l-0.477,0.007l-0.481,0.005l-0.48,0.001
				l-0.48-0.001l-0.48-0.005l-0.479-0.007l-0.199-0.005c-1.289-0.032-2.138,1.335-1.541,2.478c0.286,0.546,0.841,0.886,1.456,0.904
				l0.22,0.005l0.5,0.007l0.502,0.005l0.501,0.001l0.501-0.001l0.502-0.005l0.5-0.007l0.499-0.011l0.499-0.015l0.498-0.017
				l0.496-0.02l0.497-0.024l0.496-0.027l0.493-0.03L255.189,238.322L255.189,238.322z M237.951,237.562
				c0.785,0.124,1.541-0.307,1.837-1.043c0.397-1.012-0.232-2.123-1.305-2.297l-0.248-0.039l-0.46-0.075l-0.457-0.078l-0.458-0.08
				l-0.457-0.083l-0.455-0.086l-0.454-0.089l-0.454-0.091l-0.452-0.093l-0.452-0.097l-0.45-0.1l-0.449-0.102l-0.448-0.104
				l-0.447-0.108l-0.345-0.085c-1.274-0.316-2.406,0.871-2.03,2.13c0.18,0.576,0.623,1.002,1.209,1.152l0.363,0.089l0.469,0.113
				l0.468,0.109l0.47,0.107l0.471,0.104l0.472,0.101l0.473,0.099l0.474,0.095l0.475,0.093l0.476,0.089l0.477,0.087l0.478,0.083
				l0.479,0.081l0.48,0.078L237.951,237.562L237.951,237.562z M221.303,233.013c0.558,0.223,1.175,0.137,1.654-0.223
				c1.045-0.801,0.824-2.422-0.393-2.916l-0.197-0.078l-0.419-0.17l-0.419-0.172l-0.416-0.175l-0.416-0.178l-0.414-0.18
				l-0.413-0.182l-0.412-0.185l-0.41-0.187l-0.409-0.19l-0.408-0.192l-0.406-0.194l-0.405-0.196l-0.403-0.199l-0.478-0.24
				c-1.071-0.544-2.338,0.155-2.457,1.351c-0.059,0.692,0.294,1.342,0.914,1.66l0.515,0.259l0.422,0.208l0.423,0.205l0.425,0.203
				l0.426,0.2l0.427,0.199l0.429,0.195l0.43,0.193l0.432,0.191l0.434,0.188l0.435,0.185l0.436,0.183l0.437,0.18l0.438,0.178
				L221.303,233.013L221.303,233.013z M206.081,224.877c0.51,0.353,1.162,0.398,1.717,0.125c1.151-0.581,1.266-2.167,0.21-2.905
				l-0.24-0.165l-0.366-0.255l-0.364-0.257l-0.363-0.26l-0.361-0.262l-0.36-0.264l-0.357-0.265l-0.356-0.268l-0.355-0.27
				l-0.353-0.273l-0.352-0.274l-0.349-0.276l-0.348-0.279l-0.347-0.279l-0.405-0.334c-0.575-0.477-1.385-0.525-2.011-0.117
				c-0.95,0.625-1.031,1.982-0.159,2.714l0.436,0.359l0.362,0.293l0.364,0.291l0.365,0.29l0.367,0.287l0.369,0.285l0.372,0.283
				l0.371,0.28l0.375,0.277l0.376,0.276l0.378,0.274l0.38,0.272l0.381,0.269l0.383,0.267L206.081,224.877L206.081,224.877z
				 M193.033,213.586c0.843,0.912,2.329,0.642,2.81-0.5c0.248-0.613,0.129-1.3-0.319-1.79l-0.16-0.173l-0.3-0.329l-0.298-0.331
				l-0.297-0.332l-0.294-0.334l-0.292-0.336l-0.291-0.337l-0.289-0.34l-0.287-0.342l-0.284-0.342l-0.283-0.344l-0.281-0.346
				l-0.278-0.349l-0.277-0.35l-0.361-0.464c-0.481-0.622-1.312-0.834-2.032-0.515c-0.999,0.454-1.316,1.7-0.652,2.574l0.099,0.128
				l0.288,0.368l0.289,0.365l0.292,0.363l0.293,0.362l0.295,0.36l0.298,0.358l0.3,0.355l0.301,0.355l0.304,0.353l0.305,0.351
				l0.309,0.349l0.31,0.347l0.312,0.346l0.315,0.343L193.033,213.586L193.033,213.586z M182.788,199.702
				c0.691,1.196,2.444,1.107,3.011-0.154c0.22-0.501,0.194-1.057-0.079-1.532l-0.105-0.183l-0.223-0.389l-0.219-0.391l-0.219-0.392
				l-0.215-0.394l-0.212-0.395l-0.211-0.396l-0.208-0.397l-0.206-0.399l-0.204-0.401l-0.202-0.402l-0.198-0.403l-0.198-0.405
				l-0.194-0.406l-0.239-0.51c-0.325-0.703-1.075-1.094-1.837-0.958c-1.091,0.201-1.697,1.363-1.237,2.372l0.257,0.547l0.203,0.424
				l0.206,0.423l0.208,0.422l0.21,0.42l0.214,0.419l0.215,0.417l0.218,0.416l0.22,0.415l0.223,0.413l0.226,0.412l0.228,0.409
				l0.23,0.409l0.232,0.407L182.788,199.702L182.788,199.702z M175.864,183.888c0.358,1.156,1.755,1.578,2.694,0.814
				c0.527-0.442,0.742-1.138,0.542-1.798l-0.115-0.376l-0.132-0.438l-0.128-0.438l-0.126-0.439l-0.123-0.44l-0.122-0.442
				l-0.118-0.443l-0.116-0.444l-0.113-0.445l-0.11-0.446l-0.108-0.447l-0.105-0.448l-0.102-0.449l-0.1-0.45l-0.054-0.254
				c-0.271-1.259-1.778-1.769-2.76-0.932c-0.467,0.41-0.678,1.019-0.551,1.631l0.06,0.275l0.104,0.471l0.107,0.47l0.109,0.469
				l0.112,0.468l0.116,0.466l0.119,0.466l0.121,0.464l0.124,0.463l0.126,0.462l0.13,0.461l0.131,0.46l0.135,0.458l0.138,0.458
				L175.864,183.888L175.864,183.888z M172.633,166.942c0.103,1.272,1.514,1.983,2.595,1.299c0.528-0.34,0.825-0.926,0.778-1.555
				l-0.041-0.553l-0.032-0.473l-0.028-0.473l-0.026-0.474l-0.023-0.475l-0.019-0.475l-0.017-0.477l-0.013-0.477l-0.011-0.479
				l-0.008-0.479l-0.004-0.48l-0.001-0.48l0.001-0.479l0.003-0.339c0.01-0.766-0.493-1.436-1.228-1.648
				c-1.081-0.297-2.134,0.485-2.155,1.606l-0.003,0.359l-0.002,0.501l0.002,0.502l0.004,0.501l0.008,0.5l0.011,0.499l0.014,0.499
				l0.018,0.498l0.021,0.497l0.023,0.496l0.027,0.496l0.029,0.495l0.033,0.494L172.633,166.942L172.633,166.942z M173.203,149.696
				c-0.194,1.352,1.199,2.36,2.425,1.761c0.503-0.255,0.839-0.712,0.922-1.271l0.02-0.136l0.069-0.461l0.072-0.46l0.074-0.459
				l0.078-0.459l0.08-0.457l0.083-0.456l0.086-0.456l0.089-0.454l0.091-0.454l0.094-0.452l0.096-0.451l0.1-0.451l0.102-0.449
				l0.105-0.444c0.302-1.282-0.909-2.402-2.166-2.001c-0.567,0.187-0.986,0.638-1.126,1.22l-0.108,0.464l-0.107,0.471l-0.104,0.47
				l-0.102,0.473l-0.098,0.473l-0.096,0.474l-0.092,0.475l-0.089,0.477l-0.086,0.477l-0.085,0.478l-0.08,0.48l-0.079,0.48
				l-0.075,0.481l-0.072,0.482L173.203,149.696L173.203,149.696z M177.566,132.999c-0.221,0.575-0.118,1.215,0.275,1.69
				c0.829,0.992,2.41,0.734,2.88-0.469l0.21-0.54l0.167-0.421l0.169-0.419l0.173-0.419l0.175-0.416l0.176-0.416l0.18-0.413
				l0.183-0.413l0.185-0.412l0.187-0.41l0.189-0.409l0.192-0.408l0.194-0.406l0.198-0.405l0.073-0.149
				c0.616-1.259-0.458-2.674-1.838-2.412c-0.519,0.102-0.957,0.434-1.192,0.907l-0.082,0.167l-0.206,0.423l-0.203,0.424
				l-0.201,0.427l-0.199,0.428l-0.195,0.429l-0.192,0.431l-0.191,0.432l-0.189,0.434l-0.184,0.434l-0.183,0.436l-0.181,0.437
				l-0.177,0.438l-0.175,0.44L177.566,132.999L177.566,132.999z M185.533,117.687c-0.471,0.702-0.359,1.635,0.268,2.202
				c0.767,0.689,1.956,0.544,2.536-0.308l0.121-0.181l0.252-0.37l0.253-0.368l0.255-0.366l0.258-0.364l0.26-0.363l0.261-0.361
				l0.264-0.36l0.266-0.358l0.268-0.356l0.27-0.354l0.273-0.354l0.274-0.351l0.277-0.35l0.278-0.348l0.095-0.117
				c0.829-1.024,0.233-2.542-1.067-2.743c-0.595-0.084-1.173,0.141-1.555,0.605l-0.107,0.132l-0.292,0.364l-0.289,0.366
				l-0.288,0.367l-0.285,0.37l-0.283,0.37l-0.28,0.373l-0.278,0.375l-0.275,0.375l-0.274,0.377l-0.271,0.379l-0.269,0.382
				l-0.268,0.383l-0.264,0.384l-0.263,0.387L185.533,117.687L185.533,117.687z M196.679,104.515c-0.426,0.405-0.61,0.979-0.5,1.555
				c0.265,1.311,1.843,1.818,2.82,0.908l0.12-0.113l0.325-0.305l0.326-0.302l0.329-0.301l0.331-0.299l0.332-0.296l0.334-0.294
				l0.336-0.293l0.337-0.291l0.34-0.289l0.341-0.287l0.342-0.285l0.345-0.283l0.347-0.281l0.348-0.278l0.167-0.133
				c1.003-0.79,0.804-2.363-0.364-2.879c-0.579-0.25-1.229-0.169-1.726,0.219l-0.183,0.146l-0.364,0.29l-0.362,0.294l-0.359,0.295
				l-0.359,0.297l-0.356,0.3l-0.355,0.301l-0.353,0.304l-0.352,0.306l-0.349,0.308l-0.348,0.31l-0.345,0.312l-0.344,0.314
				l-0.341,0.317l-0.34,0.317L196.679,104.515L196.679,104.515z M210.449,94.117c-1.188,0.709-1.078,2.453,0.19,3.009
				c0.501,0.213,1.061,0.18,1.532-0.097l0.5-0.295l0.388-0.225l0.39-0.222l0.39-0.22l0.392-0.218l0.393-0.215l0.396-0.213
				l0.397-0.211l0.397-0.208l0.399-0.206l0.401-0.204l0.402-0.202l0.403-0.198l0.405-0.197l0.175-0.084
				c1.289-0.618,1.286-2.447-0.006-3.06c-0.463-0.214-0.982-0.215-1.444,0.003l-0.192,0.092l-0.423,0.205l-0.422,0.208l-0.421,0.21
				l-0.419,0.213l-0.417,0.216l-0.416,0.217l-0.415,0.221l-0.414,0.223l-0.411,0.225l-0.41,0.228l-0.408,0.23l-0.407,0.232
				l-0.406,0.235L210.449,94.117L210.449,94.117z M226.184,87.018c-0.767,0.245-1.253,0.99-1.17,1.79
				c0.118,1.069,1.168,1.754,2.195,1.434l0.285-0.091l0.435-0.137l0.436-0.133l0.438-0.132l0.439-0.128l0.44-0.126l0.441-0.125
				l0.442-0.121l0.442-0.12l0.444-0.115l0.445-0.113l0.446-0.11l0.447-0.107l0.448-0.105l0.354-0.08
				c1.267-0.288,1.753-1.83,0.878-2.793c-0.416-0.448-1.02-0.641-1.618-0.508l-0.375,0.085l-0.468,0.11l-0.469,0.112l-0.466,0.116
				l-0.466,0.118l-0.464,0.121l-0.463,0.124l-0.461,0.126l-0.462,0.13l-0.459,0.132l-0.459,0.135l-0.457,0.137l-0.456,0.142
				l-0.455,0.142L226.184,87.018z"/>
			<g>
				<path style="fill-rule:evenodd;clip-rule:evenodd;fill:#6E6E6D;" d="M206.288,241.236
					c-17.655,12.505-15.414,50.912-27.409,76.184c-7.681,16.184-20.358,28.613-30.826,42.712
					c-3.069,4.134,15.768,18.821,17.595,17.12c11.82-10.993,23.638-22.217,32.379-35.769c14.724-22.829,19.617-50.427,24.199-77.2
					c0.917-5.356,1.786-11.102-0.497-16.034C219.445,243.319,209.892,238.445,206.288,241.236z"/>
				<path style="fill-rule:evenodd;clip-rule:evenodd;fill:#6E6E6D;" d="M290.005,238.78c11.387,8.241,17.313,12.24,25.169,54.053
					c1.348,7.168,1.573,17.493,4.913,24.066c8.82,17.366,21.448,30.517,33.218,45.821c-10.155,5.59-12.838,8.82-17.102,16.919
					c-13.5-11.718-27.146-23.597-37.134-38.063c-16.16-23.411-21.528-51.709-26.557-79.165c-1.005-5.492-1.96-11.385,0.547-16.44
					C275.565,240.915,286.05,235.917,290.005,238.78z"/>
				<path style="fill-rule:evenodd;clip-rule:evenodd;fill:#575756;" d="M212.177,364.569
					c-11.281,16.285-53.774,19.772-73.413,17.181c16.306,11.642,64.062,14.537,84.948,20.267
					c20.887,5.729,42.919,9.987,64.106,5.499c20.852-4.42,39.591-17.064,60.792-19.247c-18.987-4.793-39.956-8.027-53.972-21.707
					c-9.56-9.328-15.302-24.544-27.774-29.323c-10.425-3.993-22.508-0.848-31.756,5.407
					C225.86,348.898,217.561,356.797,212.177,364.569z"/>
				<path style="fill-rule:evenodd;clip-rule:evenodd;fill:#525251;" d="M351.789,386.815c11.145-0.261,21.811,8.561,23.813,19.695
					c0.678,3.762,0.319,8.018-2.236,10.832c-2.871,3.158-17.351,6.041-21.574,6.272c-18.33,1.008-99.591,3.555-128.256,0.153
					c-1.103-6.015-0.864-12.387,2.046-18.539c14.736,0.694,26.5-2.61,40.61-6.997c14.111-4.389,28.015-9.639,42.502-12.487
					C323.183,382.899,338.547,382.574,351.789,386.815z"/>
				<path style="fill-rule:evenodd;clip-rule:evenodd;fill:#626261;" d="M351.789,386.815c9.659-0.226,18.959,6.373,22.568,15.385
					c-0.285,0.472-0.614,0.919-0.992,1.335c-2.871,3.158-17.351,6.041-21.574,6.274c-18.265,1.002-99.012,3.535-127.943,0.186
					c0.417-1.595,0.988-3.188,1.734-4.766c14.736,0.694,26.5-2.61,40.61-6.997c14.111-4.389,28.015-9.639,42.502-12.487
					C323.183,382.899,338.547,382.574,351.789,386.815z"/>
				<path style="fill-rule:evenodd;clip-rule:evenodd;fill:#6E6E6D;" d="M226.115,408.07c-6.395-4.029-15.522-9.548-24.632-4.136
					c-6.481,3.852-19.831,13.497-25.835,18.22c-6.015,4.729-8.105,4.951-12.882,11.202c-1.412,1.846-2.797,4.125-2.377,6.505
					c0.588,3.342,4.237,4.664,7.283,4.788c8.266,0.336,16.184-3.379,23.787-7.023c7.24-3.471,14.502-6.954,21.313-11.382
					c3.122-2.028,6.265-4.396,7.995-7.939C222.496,414.763,228.711,409.705,226.115,408.07z"/>
				<path style="fill-rule:evenodd;clip-rule:evenodd;fill:#DE9B70;" d="M234.274,408.548c-20.865-4.984-33.772,3.805-45.431,16.355
					c-10.453,11.255-4.113,16.197,21.013,1.041c9.37-5.651,15.972-3.097,26.261-6.158c0.874-0.26,1.801-0.555,2.405-1.31
					c0.906-1.131,0.773-2.851,0.581-4.354c-0.238-1.897-0.488-3.828-1.228-5.556C237.137,406.837,235.31,408.795,234.274,408.548z"
					/>
				<path style="fill-rule:evenodd;clip-rule:evenodd;fill:#6E6E6D;" d="M270.572,409.675c6.221-3.859,15.091-9.137,23.645-3.486
					c6.087,4.018,18.575,14.012,24.181,18.891c5.615,4.887,7.606,5.162,11.998,11.535c1.298,1.882,2.559,4.197,2.094,6.565
					c-0.654,3.325-4.176,4.551-7.089,4.597c-7.907,0.116-15.37-3.804-22.533-7.647c-6.821-3.66-13.661-7.331-20.047-11.936
					c-2.926-2.11-5.864-4.56-7.42-8.147C273.845,416.459,268.047,411.24,270.572,409.675z"/>
				<path style="fill-rule:evenodd;clip-rule:evenodd;fill:#EECDAE;" d="M262.764,409.939c20.07-4.436,32.158,4.69,42.952,17.543
					c9.678,11.524,3.484,16.297-20.103,0.486c-8.797-5.894-15.175-3.513-24.92-6.845c-0.828-0.283-1.706-0.601-2.262-1.371
					c-0.835-1.155-0.658-2.872-0.435-4.368c0.281-1.891,0.571-3.814,1.326-5.523C260.076,408.152,261.768,410.158,262.764,409.939z"
					/>
				<path style="fill-rule:evenodd;clip-rule:evenodd;fill:#575756;" d="M145.342,385.078c-11.134-0.567-22.04,7.959-24.346,19.033
					c-0.78,3.742-0.54,8.008,1.938,10.89c2.782,3.237,17.177,6.516,21.395,6.863c18.293,1.511,99.455,6.291,128.202,3.68
					c1.268-5.983,1.205-12.359-1.537-18.589c-14.748,0.287-26.417-3.339-40.401-8.111c-13.985-4.775-27.74-10.405-42.144-13.65
					C174.045,381.949,158.695,381.203,145.342,385.078z"/>
				<path style="fill-rule:evenodd;clip-rule:evenodd;fill:#6E6E6D;" d="M145.342,385.078c-10.868-0.555-21.517,7.557-24.164,18.243
					c0.374,1.174,0.946,2.265,1.756,3.207c2.782,3.236,17.177,6.516,21.395,6.863c18.293,1.511,99.455,6.291,128.202,3.68
					c0.206-0.975,0.376-1.957,0.507-2.948c-0.342-2.39-0.998-4.789-2.044-7.168c-14.748,0.287-26.417-3.339-40.401-8.111
					c-13.985-4.775-27.74-10.405-42.144-13.65C174.045,381.949,158.695,381.203,145.342,385.078z"/>
				<path style="fill-rule:evenodd;clip-rule:evenodd;fill:#FFFFFF;" d="M221.058,255.869c9.867-11.706,25.97-17.815,41.118-15.605
					c8.049,1.176,16.492,5.32,19.26,12.969c1.652,4.564,1.019,9.602,0.255,14.394c-4.622,28.995-13.247,57.35-25.558,84.004
					c-1.221,2.645-2.842,5.574-5.685,6.201c-2.703,0.595-5.456-1.298-6.776-3.732c-1.32-2.432-1.545-5.287-1.771-8.045
					C239.401,315.417,233.42,285.066,221.058,255.869z"/>
				<path style="fill-rule:evenodd;clip-rule:evenodd;fill:#999A9A;" d="M221.058,255.869c9.867-11.706,25.97-17.815,41.118-15.605
					c8.049,1.176,16.492,5.32,19.26,12.969c1.652,4.564,1.019,9.602,0.255,14.394c-4.622,28.995-13.247,57.35-25.558,84.004
					c-1.221,2.645-2.842,5.574-5.685,6.201c-2.703,0.595-5.456-1.298-6.776-3.732c-1.32-2.432-1.545-5.287-1.771-8.045
					C239.401,315.417,233.42,285.066,221.058,255.869z"/>
				<path style="fill-rule:evenodd;clip-rule:evenodd;fill:#E8BA94;" d="M360.76,357.782c-1.175,1.403-2.414,2.752-3.74,4.013
					c-1.328,1.261-3.177,2.23-4.949,1.773c-1.069-0.278-1.968-1.046-3.043-1.302c-2.259-0.54-4.349,1.25-5.971,2.912
					c-1.999,2.045-3.974,4.111-5.929,6.197c-0.921,0.986-1.889,2.084-1.997,3.429c-0.115,1.406,0.739,2.69,1.59,3.815
					c6.352,8.399,34.225,31.174,41.419,32.769c1.281,0.284,2.673-0.098,3.46-1.146c1.482-1.973-0.119-4.353-1.927-5.542
					c-5.139-3.379-9.428-7.465-12.287-10.739c-0.278-0.322,0.129-0.777,0.476-0.529c3.328,2.381,8.273,5.749,12.244,8.085
					c3.111,1.83,4.924,3.09,8.457,2.349c0.633-0.134,1.613-1.443,1.783-2.07c0.151-0.567,0.128-2.279-0.355-2.622
					c-3.139-2.23-12.018-8.72-15.428-11.714c-0.395-0.348,0.116-0.977,0.584-0.736c3.667,1.897,9.071,5.267,11.643,6.614
					c10.933,5.732,10.396-2.045,9.427-3.412c-1.644-2.314-11.708-6.288-19.684-11.915c4.366-0.299,8.321-3.849,9.011-8.173
					c0.69-4.323-4.346-8.189-8.473-9.653c-4.791,5.416,3.281,7.672-0.021,11.039c-0.757,0.771-1.778,1.259-2.85,1.401
					c-2.147,0.284-4.165-0.601-5.884-1.794c-1.613-1.124-3.084-2.628-3.314-4.68c-0.111-0.98,0.146-2.004,0.795-2.746
					c1.416-1.617,3.637-1.157,5.601-0.996c1.74,0.143,3.907-0.301,4.398-1.976c0.345-1.178-0.39-2.457-1.416-3.135
					C373.355,356.623,365.145,352.536,360.76,357.782z"/>
				<path style="fill-rule:evenodd;clip-rule:evenodd;fill:#FFFFFF;" d="M225.073,367.607c7.432,7.274,18.92,7.895,29.317,8.084
					c4.189,0.073,8.524,0.121,12.367-1.546c5.429-2.352,8.97-7.811,10.639-13.487c2.977-10.133,0.727-21.476-5.176-30.235
					c-2.1-3.11-5.327-6.203-9.035-5.635c-2.676,0.411-4.65,2.604-6.673,4.406c-7.227,6.437-17.795,8.895-27.121,6.304
					C226.387,346.347,225.089,357.665,225.073,367.607z"/>
				<path style="fill-rule:evenodd;clip-rule:evenodd;fill:#999A9A;" d="M225.073,367.607c7.432,7.274,18.92,7.895,29.317,8.084
					c4.189,0.073,8.524,0.121,12.367-1.546c5.429-2.352,8.97-7.811,10.639-13.487c2.977-10.133,0.727-21.476-5.176-30.235
					c-2.1-3.11-5.327-6.203-9.035-5.635c-2.676,0.411-4.65,2.604-6.673,4.406c-7.227,6.437-17.795,8.895-27.121,6.304
					C226.387,346.347,225.089,357.665,225.073,367.607z"/>
				<path style="fill-rule:evenodd;clip-rule:evenodd;fill:#FFFFFF;" d="M139.239,357.782c1.175,1.403,2.414,2.752,3.74,4.013
					c1.328,1.261,3.177,2.23,4.949,1.773c1.07-0.278,1.968-1.046,3.044-1.302c2.259-0.54,4.349,1.25,5.971,2.912
					c1.997,2.045,3.973,4.111,5.928,6.197c0.922,0.986,1.89,2.084,1.998,3.429c0.115,1.406-0.74,2.69-1.59,3.815
					c-6.352,8.399-34.225,31.174-41.419,32.769c-1.281,0.284-2.673-0.098-3.46-1.146c-1.482-1.973,0.12-4.353,1.927-5.542
					c5.14-3.379,9.428-7.465,12.287-10.739c0.28-0.322-0.129-0.777-0.475-0.529c-3.329,2.381-8.273,5.749-12.244,8.085
					c-3.11,1.83-4.923,3.09-8.457,2.349c-0.633-0.134-1.613-1.443-1.783-2.07c-0.152-0.567-0.127-2.279,0.354-2.622
					c3.139-2.23,12.018-8.72,15.428-11.714c0.395-0.348-0.117-0.977-0.584-0.736c-3.666,1.897-9.07,5.267-11.643,6.614
					c-10.932,5.732-10.396-2.045-9.427-3.412c1.646-2.314,11.708-6.288,19.685-11.915c-4.366-0.299-8.322-3.849-9.012-8.173
					c-0.689-4.323,4.347-8.189,8.473-9.653c4.791,5.416-3.281,7.672,0.021,11.039c0.758,0.771,1.779,1.259,2.85,1.401
					c2.146,0.284,4.166-0.601,5.883-1.794c1.613-1.124,3.084-2.628,3.314-4.68c0.111-0.98-0.146-2.004-0.795-2.746
					c-1.416-1.617-3.637-1.157-5.601-0.996c-1.739,0.143-3.907-0.301-4.398-1.976c-0.345-1.178,0.389-2.457,1.416-3.135
					C126.643,356.623,134.853,352.536,139.239,357.782z"/>
				<path style="fill-rule:evenodd;clip-rule:evenodd;fill:#E8BA94;" d="M139.239,357.782c1.175,1.403,2.414,2.752,3.74,4.013
					c1.328,1.261,3.177,2.23,4.949,1.773c1.07-0.278,1.968-1.046,3.044-1.302c2.259-0.54,4.349,1.25,5.971,2.912
					c1.997,2.045,3.973,4.111,5.928,6.197c0.922,0.986,1.89,2.084,1.998,3.429c0.115,1.406-0.74,2.69-1.59,3.815
					c-6.352,8.399-34.225,31.174-41.419,32.769c-1.281,0.284-2.673-0.098-3.46-1.146c-1.482-1.973,0.12-4.353,1.927-5.542
					c5.14-3.379,9.428-7.465,12.287-10.739c0.28-0.322-0.129-0.777-0.475-0.529c-3.329,2.381-8.273,5.749-12.244,8.085
					c-3.11,1.83-4.923,3.09-8.457,2.349c-0.633-0.134-1.613-1.443-1.783-2.07c-0.152-0.567-0.127-2.279,0.354-2.622
					c3.139-2.23,12.018-8.72,15.428-11.714c0.395-0.348-0.117-0.977-0.584-0.736c-3.666,1.897-9.07,5.267-11.643,6.614
					c-10.932,5.732-10.396-2.045-9.427-3.412c1.646-2.314,11.708-6.288,19.685-11.915c-4.366-0.299-8.322-3.849-9.012-8.173
					c-0.689-4.323,4.347-8.189,8.473-9.653c4.791,5.416-3.281,7.672,0.021,11.039c0.758,0.771,1.779,1.259,2.85,1.401
					c2.146,0.284,4.166-0.601,5.883-1.794c1.613-1.124,3.084-2.628,3.314-4.68c0.111-0.98-0.146-2.004-0.795-2.746
					c-1.416-1.617-3.637-1.157-5.601-0.996c-1.739,0.143-3.907-0.301-4.398-1.976c-0.345-1.178,0.389-2.457,1.416-3.135
					C126.643,356.623,134.853,352.536,139.239,357.782z"/>
				<path style="fill-rule:evenodd;clip-rule:evenodd;fill:#6E6E6D;" d="M295.561,268.424c-7.265,34.7-5.275,69.31,5.249,103.219
					c-8.056,8.011-18.324,13.919-29.683,17.039c-12.844-17.817-19.217-39.903-17.768-61.573s10.713-42.78,25.822-58.852
					c2.828-3.007,1.423-1.381,5.624-1.296C289.009,267.046,297.395,269.499,295.561,268.424z"/>
				<path style="fill-rule:evenodd;clip-rule:evenodd;fill:#6E6E6D;" d="M209.456,266.611c7.264,34.699,5.535,71.122-4.988,105.031
					c8.053,8.011,18.324,13.919,29.681,17.039c12.844-17.817,19.219-34.723,17.769-56.395c-1.449-21.67-10.712-47.959-25.823-64.03
					c-2.828-3.007-6.342-6.043-10.545-5.957C211.347,262.385,207.623,267.685,209.456,266.611z"/>
				<path style="fill-rule:evenodd;clip-rule:evenodd;fill:#575756;" d="M279.218,232.377
					c-16.08,38.413-26.906,72.326-27.103,111.512c9.773-31.358,23.588-51.308,45.231-76.013c-4.828-3.778-9.659-7.559-14.489-11.336
					c5.841-3.031,11.684-6.058,17.525-9.089c-5.453-7.989-10.905-15.982-16.357-23.971
					C282.22,227.383,279.844,230.882,279.218,232.377z"/>
				<path style="fill-rule:evenodd;clip-rule:evenodd;fill:#575756;" d="M225.511,222.511
					c-11.029,6.564-20.264,16.112-26.456,27.356c5.819-0.898,11.79-0.814,17.581,0.249c-5.578,4.558-11.156,9.115-16.734,13.672
					c23.682,24.523,41.275,48.205,53.355,80.086C248.53,300.493,240.246,263.311,225.511,222.511z"/>
				<path style="fill-rule:evenodd;clip-rule:evenodd;fill:#DE9B70;" d="M125.196,379.759c-0.246-0.78,0.187-1.613,0.968-1.86
					c0.78-0.244,1.612,0.189,1.858,0.969c3.545,11.223,10.988,13.797,11.01,13.806c0.767,0.272,1.167,1.12,0.892,1.887
					c-0.275,0.767-1.12,1.167-1.889,0.892C138.01,395.442,129.184,392.385,125.196,379.759z"/>
				<path style="fill-rule:evenodd;clip-rule:evenodd;fill:#DE9B70;" d="M372.162,378.867c0.246-0.78,1.079-1.213,1.859-0.969
					c0.78,0.247,1.213,1.08,0.967,1.86c-3.987,12.626-12.814,15.684-12.839,15.692c-0.768,0.275-1.614-0.124-1.888-0.892
					c-0.276-0.767,0.123-1.614,0.892-1.887C361.175,392.664,368.619,390.09,372.162,378.867z"/>
				<path style="fill-rule:evenodd;clip-rule:evenodd;fill:#575756;" d="M212.431,329.582c1.859-10.18,0.072-38.324-3.875-47.82
					l-0.827-1.77l1.281,1.536c5.261,8.123,7.47,39.013,5.943,48.667c-0.17,0.695-0.871,1.122-1.567,0.954
					C212.688,330.979,212.262,330.278,212.431,329.582z"/>
				<path style="fill-rule:evenodd;clip-rule:evenodd;fill:#575756;" d="M290.219,335.852c0.109-14.445-0.757-34.247,3.732-47.824
					c1.433-4.331,0.653-1.622,1.33-4.27c0.513,1.612-0.19,2.739-0.597,4.475c-3.497,14.967-2.139,32.267-1.872,47.619
					c0,0.715-0.581,1.297-1.298,1.297C290.798,337.148,290.219,336.566,290.219,335.852z"/>
				<path style="fill-rule:evenodd;clip-rule:evenodd;fill:#626261;" d="M192.667,333.653
					c-9.661,15.181-24.715,29.014-32.067,35.318c0.76,0.798,1.517,1.6,2.27,2.403c0.922,0.986,1.89,2.084,1.998,3.429
					c0.068,0.837-0.206,1.631-0.62,2.373c0.68,0.245,1.172,0.288,1.399,0.075c11.82-10.993,23.638-22.217,32.379-35.769
					c6.658-10.322,11.305-21.622,14.824-33.378c-0.425-7.063-1.262-14.319-2.437-19.87
					C208.522,303.271,203.011,317.398,192.667,333.653z"/>
				<path style="fill-rule:evenodd;clip-rule:evenodd;fill:#626261;" d="M317.875,350.913
					c-13.274-14.823-21.401-26.839-25.481-42.428c-0.198,7.586,0.11,15.281,0.311,22.643c1.916,3.573,4.029,7.061,6.365,10.448
					c9.988,14.466,23.634,26.345,37.134,38.063c0.178-0.34,0.358-0.669,0.539-0.993c-0.008-0.009-0.015-0.019-0.021-0.027
					c-0.851-1.125-1.705-2.409-1.59-3.815c0.108-1.345,1.076-2.442,1.997-3.429c0.122-0.128,0.243-0.259,0.365-0.389
					c0.573-0.61,1.149-1.218,1.726-1.826c-0.562-0.342-1.137-0.704-1.726-1.085C331.895,364.441,325.117,359,317.875,350.913z"/>
				<path style="fill-rule:evenodd;clip-rule:evenodd;fill:#CF667E;" d="M278.135,217.264c3.539-3.356,6.477-7.273,8.521-11.612
					c7.738-16.421,12.977-34.248,12.6-52.357c-0.404-19.434-7.553-31.74-20.556-46.188c-9.996-11.107-23.578-11.618-37.946-10.251
					c-15.385,1.462-36.439,25.263-40.669,42.014c-4.435,17.558-5.202,36.488,0.957,53.518c3.82,10.563,10.587,20.261,19.362,27.168
					c-5.152,5.325-16.66,14.969-13.396,19.085c1.289,1.626,10.523,8.039,11.896,9.593c16.469,18.626,19.583,27.308,35.576,27.7
					c15.994,0.391,23.344-24.711,33.972-37.606c2.736-3.319,7.132-5.23,4.303-8.467
					C288.764,225.294,282.842,219.217,278.135,217.264z"/>
				<path style="fill-rule:evenodd;clip-rule:evenodd;fill:#CA4969;" d="M219.909,219.162c0.165,0.132,0.329,0.264,0.495,0.395
					c-1.729,1.786-4.172,4.059-6.534,6.445c19.708,9.698,29.525,7.602,29.525,7.602s-3.452-1.412-15.22-9.101
					C224.539,222.127,221.965,220.515,219.909,219.162z"/>
				<path style="fill-rule:evenodd;clip-rule:evenodd;fill:#CA4969;" d="M278.135,217.264c0.574-0.545,1.133-1.105,1.675-1.679
					c-2.638,2.158-6.213,4.096-12.878,7.663c-11.14,5.963-11.611,5.963-11.611,5.963s15.293-2.606,27.924-8.738
					C281.483,219.074,279.737,217.929,278.135,217.264z"/>
				<path style="fill-rule:evenodd;clip-rule:evenodd;fill:#FFFFFF;" d="M209.872,151.061
					c-5.711,62.075,26.102,67.801,35.181,69.231c8.119,1.278,26.07-1.19,33.989-18.912c5.986-13.401,9.047-28.539,8.569-42.133
					c-0.478-13.593-6.1-36.937-22.478-41.117C252.465,114.898,213.061,116.401,209.872,151.061z"/>
				<path style="fill-rule:evenodd;clip-rule:evenodd;fill:#EECDAE;" d="M209.872,151.061
					c-5.711,62.075,26.102,67.801,35.181,69.231c8.119,1.278,26.07-1.19,33.989-18.912c5.986-13.401,9.047-28.539,8.569-42.133
					c-0.478-13.593-6.1-36.937-22.478-41.117C252.465,114.898,213.061,116.401,209.872,151.061z"/>
				<path style="fill-rule:evenodd;clip-rule:evenodd;fill:#DE9B70;" d="M209.381,157.989l-0.016,0.315
					c0.436,0.002,0.043,1.172,1.214-0.176c24.929-28.679,63.549-19.437,77.068,2.647c-0.008-0.511-0.02-1.02-0.037-1.528
					c-0.04-1.104-0.112-2.273-0.223-3.49c-3.936-11.203-12.678-31.42-19.564-36.729c-0.864-0.356-1.759-0.659-2.691-0.897
					c-10.685-2.726-40.393-2.083-51.344,18.985C211.61,142.449,210.149,149.188,209.381,157.989z"/>
				<path style="fill-rule:evenodd;clip-rule:evenodd;fill:#E6B8A7;" d="M210.007,178.792c2.222,17.438,8.692,27.432,15.643,33.238
					c3.597-3.531,5.83-8.447,5.83-13.885c0-10.746-8.711-19.456-19.456-19.456C211.342,178.688,210.67,178.722,210.007,178.792z"/>
				<path style="fill-rule:evenodd;clip-rule:evenodd;fill:#E6B8A7;" d="M271.34,212.165c3-2.727,5.677-6.257,7.701-10.784
					c3.224-7.217,5.6-14.939,7.03-22.652c-0.412-0.026-0.827-0.04-1.245-0.04c-10.745,0-19.456,8.71-19.456,19.456
					C265.37,203.652,267.659,208.626,271.34,212.165z"/>
				<path style="fill-rule:evenodd;clip-rule:evenodd;fill:#6E4330;" d="M222.966,164.989c-0.159-0.376,0.018-0.809,0.394-0.967
					c0.376-0.159,2.691-0.649,2.85-0.273c3.028,7.199,9.889,5.473,11.863-0.733c0.123-0.389,0.539-0.604,0.926-0.481
					c0.389,0.124,0.605,0.538,0.482,0.927c-0.922,2.898-2.886,4.815-5.169,5.775c-1.014,0.427-2.09,0.664-3.164,0.713
					c-1.072,0.05-2.147-0.088-3.161-0.411C225.823,168.851,223.949,167.327,222.966,164.989z"/>
				<path style="fill-rule:evenodd;clip-rule:evenodd;fill:#6E4330;" d="M272.997,164.416c0.158-0.376,0.591-0.553,0.968-0.394
					c0.375,0.158,2.826,0.827,2.667,1.203c-1.28,3.046-7.161,5.097-10.382,4.947c-1.074-0.049-2.15-0.287-3.164-0.713
					c-2.283-0.96-4.32-3.099-5.244-5.998c-0.122-0.389,0.094-0.804,0.482-0.927c0.389-0.123,0.803,0.092,0.926,0.481
					c0.778,2.444,2.425,4.056,4.335,4.86c0.85,0.357,1.752,0.556,2.655,0.597c0.905,0.042,1.807-0.072,2.652-0.341
					C270.661,167.569,272.194,166.324,272.997,164.416z"/>
				<path style="fill-rule:evenodd;clip-rule:evenodd;fill:#FFFFFF;" d="M212.895,151.852c23.866-29.198,61.082-19.09,73.144,3.859
					c5.268,10.024-10.525-38.666-20.602-43.83c-10.08-5.165-23.256-4.811-33.139,0.717c-11.94,6.678-18.643,15.443-20.558,39.43
					C212.169,152.009,211.783,153.214,212.895,151.852z"/>
				<path style="fill-rule:evenodd;clip-rule:evenodd;fill:#D684A2;" d="M209.151,170.99c1.817-9.318,4.485-26.87,12.154-39.038
					c11.914-18.902,39.504-19.281,53.011-1.672c8.95,11.669,12.54,29.022,13.23,41.947c0.119-13.588,3.326-33.051,0-46.228
					c-11.183-44.316-52.443-33.614-64.208-21.721C205.748,122.064,202.107,145.02,209.151,170.99z"/>
				<path style="fill-rule:evenodd;clip-rule:evenodd;fill:#6E4330;" d="M255.309,190.775c0.159-0.376,0.592-0.552,0.968-0.394
					c0.375,0.159,0.552,0.592,0.393,0.968c-0.983,2.337-2.856,3.861-5.02,4.55c-1.014,0.323-2.089,0.46-3.161,0.411
					c-1.074-0.05-2.15-0.288-3.164-0.714c-2.284-0.96-4.247-2.877-5.169-5.774c-0.123-0.389,0.092-0.804,0.48-0.927
					c0.389-0.123,0.804,0.092,0.927,0.48c0.778,2.444,2.424,4.056,4.335,4.86c0.849,0.357,1.752,0.556,2.654,0.597
					c0.905,0.042,1.807-0.072,2.652-0.341C252.973,193.929,254.507,192.684,255.309,190.775z"/>
				<path style="fill-rule:evenodd;clip-rule:evenodd;fill:#DE9B70;" d="M244.181,177.119c10.041,0,10.041,0,10.041,0
					S249.671,186.533,244.181,177.119z"/>
				<path style="fill-rule:evenodd;clip-rule:evenodd;fill:#6E4330;" d="M258.565,147.835c5.577-1.836,11.133-2.714,15.112,2.532
					c-6.152-2.331-7.538-2.655-13.914,0.18c-0.748,0.331-1.624-0.007-1.956-0.756C257.478,149.04,257.815,148.165,258.565,147.835z"
					/>
				<path style="fill-rule:evenodd;clip-rule:evenodd;fill:#6E4330;" d="M238.011,150.253c-6.874-1.77-7.025-1.751-13.522-0.043
					l1.734-1.657c3.571-2.506,8.412-1.776,12.358-1.209c0.804,0.158,1.327,0.936,1.17,1.74
					C239.594,149.887,238.815,150.411,238.011,150.253z"/>
				<path style="fill-rule:evenodd;clip-rule:evenodd;fill:#DE9B70;" d="M244.181,202.538c10.041,0,10.041,0,10.041,0
					S249.671,211.952,244.181,202.538z"/>
				<path style="fill-rule:evenodd;clip-rule:evenodd;fill:#FFFFFF;" d="M227.695,150.97c-4.523,0-8.617,1.833-11.58,4.797
					c-2.964,2.963-4.798,7.059-4.798,11.581c0,4.522,1.834,8.616,4.798,11.58c2.963,2.963,7.057,4.797,11.58,4.797
					c4.522,0,8.616-1.833,11.58-4.797c2.963-2.964,4.796-7.058,4.796-11.58c0-4.522-1.833-8.618-4.796-11.581
					C236.311,152.804,232.217,150.97,227.695,150.97L227.695,150.97z M214.542,154.195c3.366-3.366,8.016-5.448,13.153-5.448
					c5.136,0,9.786,2.083,13.153,5.448c3.366,3.365,5.448,8.016,5.448,13.153c0,5.136-2.082,9.786-5.448,13.153
					c-3.367,3.365-8.017,5.448-13.153,5.448c-5.137,0-9.787-2.083-13.153-5.448c-3.367-3.367-5.448-8.017-5.448-13.153
					C209.094,162.211,211.176,157.561,214.542,154.195z"/>
				<path style="fill-rule:evenodd;clip-rule:evenodd;fill:#FFFFFF;" d="M269.6,150.97c-4.523,0-8.617,1.833-11.581,4.797
					c-2.963,2.963-4.796,7.059-4.796,11.581c0,4.522,1.833,8.616,4.796,11.58c2.964,2.963,7.058,4.797,11.581,4.797
					c4.522,0,8.617-1.833,11.581-4.797c2.963-2.964,4.796-7.058,4.796-11.58c0-4.522-1.833-8.618-4.796-11.581
					C278.217,152.804,274.121,150.97,269.6,150.97L269.6,150.97z M256.446,154.195c3.367-3.366,8.018-5.448,13.153-5.448
					c5.136,0,9.786,2.083,13.152,5.448c3.367,3.365,5.448,8.016,5.448,13.153c0,5.136-2.081,9.786-5.447,13.153
					c-3.367,3.365-8.018,5.448-13.153,5.448c-5.136,0-9.786-2.083-13.153-5.448c-3.366-3.367-5.448-8.017-5.448-13.153
					C250.998,162.211,253.08,157.561,256.446,154.195z"/>
				<path style="fill-rule:evenodd;clip-rule:evenodd;fill:#FFFFFF;" d="M215.354,159.937c1.271-2.137,2.565-3.639,4.624-5.059
					c1.612-1.07,2.972-1.639,4.88-1.969c0.885-0.105,4.962-0.283,5.271,0.947c-0.166,0.56-3.542,1.642-4.353,2.031
					c-1.266,0.634-2.139,1.248-3.165,2.225c-1.294,1.353-2.145,2.624-3.083,4.232c-1.705,3.037-1.686,4.663-4.118,3.552
					C212.388,164.982,213.848,162.807,215.354,159.937z"/>
				<path style="fill-rule:evenodd;clip-rule:evenodd;fill:#FFFFFF;" d="M256.618,159.624c1.273-2.138,2.565-3.64,4.624-5.059
					c1.612-1.071,2.973-1.64,4.88-1.97c0.886-0.104,4.963-0.282,5.273,0.947c-0.168,0.561-3.544,1.642-4.355,2.031
					c-1.265,0.634-2.14,1.247-3.164,2.225c-1.296,1.351-2.147,2.623-3.083,4.233c-1.704,3.035-1.685,4.662-4.117,3.552
					C253.653,164.669,255.113,162.493,256.618,159.624z"/>
				<path style="fill-rule:evenodd;clip-rule:evenodd;fill:#CF667E;" d="M207.654,158.605c0.493-6.667,1.398-12.367,3.121-18.847
					c2.075-7.214,4.4-12.729,8.482-19.053c2.884-4.116,11.167-13.75,16.08-15.293c-5.722,6.26-8.131,5.257-15.197,15.865
					c-3.876,6.286-6.079,11.743-8.034,18.842c-1.638,6.391-2.491,12.029-2.973,18.588c-0.073,1.439,0.159,15.712-0.773,15.318
					C206.665,174.96,207.625,159.2,207.654,158.605z"/>
				<path style="fill-rule:evenodd;clip-rule:evenodd;fill:#CF667E;" d="M287.75,162.81c-0.513-8.24-1.611-15.576-3.513-23.621
					c-1.794-7.117-3.795-13.208-7.174-19.744c-5.685-10.08-6.369-7.56-11.134-13.018c3.921,0.578,10.135,9.514,11.953,12.567
					c3.607,6.545,5.727,12.669,7.639,19.872c2.015,8.124,3.186,15.516,3.708,23.86c0.016,0.419,0.627,16.589-1.119,15.389
					C287.256,178.387,287.814,164.51,287.75,162.81z"/>
				<path style="fill-rule:evenodd;clip-rule:evenodd;fill:#CA4969;" d="M274.75,240.81c-2.499,4.507-4.969,8.536-8.107,12.642
					c-3.284,4.145-6.483,7.572-11.376,9.794c-2.221,0.892-3.977,1.224-6.372,1.035c-2.565-0.308-4.355-1.08-6.508-2.482
					c-2.219-1.611-28.219-23.701-25.039-25.781c0.204-0.139,24.746,22.754,26.307,23.844c1.816,1.117,3.319,1.745,5.455,1.943
					c1.938,0.105,3.342-0.205,5.12-0.962c4.322-2.087,7.252-5.395,10.146-9.131c2.977-4.006,5.364-7.976,7.778-12.331
					c1.206-2.27,9.813-21.698,11.384-19.935C286.668,219.547,275.551,239.29,274.75,240.81z"/>
				<path style="fill-rule:evenodd;clip-rule:evenodd;fill:#CA4969;" d="M228.047,232.537c1.504,1.828,3.033,3.718,4.612,5.476
					c2.256,2.564,4.436,4.891,7.008,7.148c2.18,1.836,4.205,3.327,6.902,4.32c0.867,0.292,2.166,0.081,3.047-0.075
					c1.629-0.295,3.151-0.726,4.727-1.219c0.651-0.218,7.648-2.894,8-2.614c0.077,0.882-6.8,3.808-7.46,4.085
					c-1.616,0.66-3.16,1.219-4.852,1.661c-1.361,0.316-2.71,0.574-4.094,0.25c-3.108-0.921-5.39-2.423-7.919-4.402
					c-2.795-2.258-5.103-4.579-7.52-7.223c-1.632-1.81-3.191-3.643-4.741-5.522c-0.839-1.032-8.294-8.294-6.257-9.62
					C221.253,222.498,227.213,231.524,228.047,232.537z"/>
				<path style="fill-rule:evenodd;clip-rule:evenodd;fill:#575756;" d="M284.745,356.713c2.022-1.217,8.455-6.905,10.03-6.329
					c-0.405,1.675-7.405,8.08-8.822,8.966c-1.045,0.556-5.285,3.326-5.625,1.041C279.53,358.565,282.713,357.839,284.745,356.713z"
					/>
				<path style="fill-rule:evenodd;clip-rule:evenodd;fill:#575756;" d="M220.344,360.047c-1.733-1.042-3.343-2.21-4.955-3.486
					c-1.386-1.132-2.69-2.283-3.9-3.666c-0.282-0.309-2.417-2.662-1.8-3.27c0.338-0.128,2.397,1.661,2.7,1.893
					c1.387,0.955,2.771,1.893,4.177,2.81c1.631,1.068,3.259,2.085,4.926,3.073c1.843,1.089,2.774,1.03,2.222,2.676
					C223.226,362.072,222.119,361.042,220.344,360.047z"/>
				<path style="fill-rule:evenodd;clip-rule:evenodd;fill:#575756;" d="M264.608,420.744c0.056-0.41,0.111-0.822,0.174-1.231
					c0.321-2.081,0.569-4.178,0.884-6.256c-0.014-0.977-0.935-6.011-0.653-5.999c0.923-0.365,1.766,5.537,1.801,5.999
					c0.073,1.772-0.344,4.643-0.573,6.452c-0.053,0.412-0.107,0.826-0.164,1.237c-0.105,0.767-0.225,1.512-0.355,2.274
					c-0.061,0.333-0.136,0.79-0.258,1.107c-0.026,0.096-0.064,0.223-0.132,0.298c-0.019,0.031-0.035,0.058-0.07,0.07
					c-0.013,0.014-0.027,0.009-0.034,0.011c0.025,0.04-0.09-0.008-0.136-0.015c-0.005,0.006-0.057-0.023-0.064-0.024
					c-0.055-0.019-0.104-0.046-0.164-0.054c-0.024-0.004-0.162,0.002-0.178,0.011c-0.017,0.008-0.058,0.011-0.072,0.016
					l-0.152-0.017c-0.015-0.01-0.022-0.018-0.033-0.033c-0.033-0.026-0.045-0.056-0.059-0.096c-0.055-0.093-0.059-0.226-0.063-0.331
					c-0.045-0.333,0.005-0.807,0.034-1.14C264.397,422.267,264.505,421.498,264.608,420.744z"/>
				<path style="fill-rule:evenodd;clip-rule:evenodd;fill:#626261;" d="M167.629,367.489c-1.28-1.79-2.615-3.313-4.151-4.888
					c-1.593-1.597-3.16-3.006-4.962-4.363c-0.698-0.505-1.376-0.961-2.131-1.377c-0.499-0.253-1.017-0.495-1.574-0.582
					c-0.031-0.003-0.063-0.008-0.09-0.021c-0.003,0-0.01-0.005-0.013-0.005c-0.004-0.003-0.011-0.009-0.016-0.01
					c-0.011-0.008-0.032-0.019-0.042-0.025c-0.04-0.033-0.107-0.061-0.145-0.09c-0.154-0.097-0.309-0.185-0.47-0.271
					c-0.101-0.054-1.097-0.491-1.105-0.51c0.065-0.258,1.142,0.061,1.278,0.104c0.058,0.005,0.45,0.169,0.536,0.203
					c0.053,0.021,0.11,0.045,0.163,0.069c0.014,0.005,0.028,0.012,0.043,0.019c0.001,0,0.005,0.002,0.005,0.002
					s-0.008-0.005-0.009-0.005c-0.042-0.018-0.072-0.021-0.12-0.026c0.671-0.014,1.27,0.193,1.884,0.445
					c0.85,0.351,1.584,0.768,2.361,1.256c1.976,1.258,3.637,2.625,5.347,4.223c1.663,1.592,3.077,3.126,4.421,4.997
					c0.081,0.115,0.16,0.229,0.238,0.345c0.191,0.309,3.269,5.314,1.473,5.125c-0.856,0.198-1.659-2.654-2.698-4.291
					C167.846,367.789,167.659,367.53,167.629,367.489z"/>
				<path style="fill-rule:evenodd;clip-rule:evenodd;fill:#626261;" d="M332.736,366.789c1.301-1.88,2.546-3.205,4.352-4.612
					c3.299-2.354,6.903-3.79,11.007-3.572c0,0-0.008,0.002-0.008,0.004c0,0.001,0.496-0.105,0.523-0.028
					c0.025,0.072-0.378,0.284-0.426,0.306c-0.026,0.009-0.048,0.013-0.075,0.016c-4.24,0.762-6.713,1.604-10.188,4.324
					c-1.626,1.375-2.753,2.647-3.958,4.394c-0.828,1.3-2.216,4.855-3.019,4.335C329.438,371.713,332.404,367.319,332.736,366.789z"
					/>
			</g>
			<g>
				<g>
					<path style="fill-rule:evenodd;clip-rule:evenodd;fill:#858584;" d="M103.82,186.841l30.979-7.965
						c2.034-0.523,4.096-0.167,5.775,0.826c1.681,0.993,2.986,2.628,3.509,4.662l7.964,30.978c0.523,2.035,0.167,4.096-0.826,5.777
						c-0.993,1.679-2.627,2.984-4.662,3.507l-30.978,7.964c-2.035,0.523-4.096,0.169-5.776-0.825
						c-1.68-0.993-2.985-2.627-3.509-4.662l-7.963-30.978c-0.523-2.035-0.168-4.096,0.825-5.776
						C100.15,188.668,101.786,187.363,103.82,186.841L103.82,186.841z M136.644,186.055l-30.978,7.965
						c-0.053,0.014-0.098,0.051-0.127,0.1c-0.029,0.049-0.04,0.106-0.026,0.159l7.964,30.979c0.013,0.053,0.051,0.098,0.1,0.127
						c0.05,0.029,0.107,0.04,0.16,0.027l30.978-7.965c0.053-0.013,0.098-0.051,0.127-0.1s0.04-0.106,0.027-0.159l-7.964-30.979
						c-0.014-0.053-0.051-0.098-0.1-0.127C136.755,186.053,136.697,186.042,136.644,186.055z"/>
					<polygon style="fill-rule:evenodd;clip-rule:evenodd;fill:#CA4969;" points="96.887,198.275 127.646,220.523 150.555,157.778 
						123.734,204.641 					"/>
				</g>
				<g>
					<path style="fill-rule:evenodd;clip-rule:evenodd;fill:#C38864;" d="M151.928,104.421L168.1,78.984l-20.363-12.059
						l-12.61,16.519c0,0-3.531,12.824-1.14,18.41C136.378,107.44,151.928,104.421,151.928,104.421z"/>
					<path style="fill-rule:evenodd;clip-rule:evenodd;fill:#DE9B70;" d="M146.227,68.904l-11.101,14.54
						c0,0-3.515,12.767-1.155,18.373c3.907-0.124,7.367-0.795,7.367-0.795l16.171-25.437L146.227,68.904z"/>
					<path style="fill-rule:evenodd;clip-rule:evenodd;fill:#E8BA94;" d="M129.245,82.383c-16.564,0.921-16.564,0.921-16.564,0.921
						L94.499,99.357l0.217,23.271c0,0,46.596,0.933,49.319-1.548c2.723-2.483,2.436-6.781,2.436-6.781s5.733-0.665,6.021-3.656
						c0.287-2.992,0.388-3.479,0.388-3.479s3.887-1.56,4.533-4.646c0.646-3.086-0.083-5.272-0.083-5.272l-34.698,0.538
						L129.245,82.383z"/>
					<path style="fill-rule:evenodd;clip-rule:evenodd;fill:#E1A67C;" d="M98.263,96.034l-3.764,3.323l0.217,23.271
						c0,0,46.596,0.933,49.319-1.548c1.133-1.033,1.744-2.378,2.072-3.599h-34.903C99.372,117.481,98.324,116.628,98.263,96.034z"/>
					<path style="fill-rule:evenodd;clip-rule:evenodd;fill:#DE9B70;" d="M121.71,115.26L121.71,115.26
						c1.595,1.699,1.51,4.392-0.188,5.987l-6.75,6.34c-1.698,1.595-4.393,1.51-5.988-0.188l0,0c-1.594-1.699-1.51-4.393,0.188-5.987
						l6.75-6.34C117.421,113.477,120.115,113.561,121.71,115.26z"/>
					<path style="fill-rule:evenodd;clip-rule:evenodd;fill:#DE9B70;" d="M129.269,117.282L129.269,117.282
						c1.352,1.439,1.281,3.723-0.159,5.076l-5.723,5.374c-1.44,1.352-3.724,1.28-5.076-0.16h-0.001
						c-1.351-1.44-1.28-3.723,0.16-5.076l5.723-5.374C125.633,115.771,127.916,115.842,129.269,117.282z"/>
					<path style="fill-rule:evenodd;clip-rule:evenodd;fill:#DE9B70;" d="M136.294,118.7L136.294,118.7
						c1.353,1.44,1.281,3.724-0.159,5.075l-5.723,5.375c-1.44,1.352-3.723,1.281-5.075-0.159l0-0.001
						c-1.352-1.439-1.28-3.724,0.16-5.075l5.723-5.375C132.658,117.188,134.942,117.26,136.294,118.7z"/>
					<path style="fill-rule:evenodd;clip-rule:evenodd;fill:#DE9B70;" d="M141.851,78.956c-17.107,2.354-12.784-1.04-21.261,8.436
						c-8.478,9.477-14.48,18.163-14.48,18.163s2.183,3.338,6.122,3.146c3.94-0.192,7.622-8.068,7.622-8.068
						s8.688,3.852,16.665-0.244c7.977-4.094,11.164-18.517,11.164-18.517L141.851,78.956z"/>
					<path style="fill-rule:evenodd;clip-rule:evenodd;fill:#6E6E6D;" d="M87.902,95.762l4.452-0.057
						c2.336-0.03,4.273,1.857,4.302,4.194l0.288,22.433c0.029,2.337-1.857,4.272-4.193,4.303l-4.452,0.057
						c-2.336,0.03-4.272-1.857-4.303-4.193l-0.287-22.434C83.679,97.729,85.566,95.792,87.902,95.762z"/>
					<path style="fill-rule:evenodd;clip-rule:evenodd;fill:#6E6E6D;" d="M142.695,68.389l2.176-3.884
						c1.143-2.039,3.745-2.771,5.782-1.629l19.572,10.968c2.039,1.142,2.771,3.744,1.63,5.782l-2.177,3.884
						c-1.142,2.039-3.744,2.771-5.782,1.63l-19.572-10.968C142.285,73.029,141.553,70.427,142.695,68.389z"/>
					<path style="fill-rule:evenodd;clip-rule:evenodd;fill:#E4AF89;" d="M123.959,84.184c0.643-0.791,1.807-0.912,2.599-0.268
						c0.792,0.644,0.912,1.807,0.268,2.599l-13.471,16.538c-0.644,0.791-1.808,0.911-2.599,0.267
						c-0.791-0.643-0.912-1.808-0.268-2.599L123.959,84.184z"/>
					<path style="fill-rule:evenodd;clip-rule:evenodd;fill:#575756;" d="M92.751,118.266l-4.452,0.057
						c-2.336,0.03-4.272-1.857-4.303-4.193l-0.192-15.015c-0.066,0.306-0.099,0.624-0.095,0.95l0.287,22.434
						c0.031,2.336,1.966,4.223,4.303,4.193l4.452-0.057c2.224-0.029,4.04-1.785,4.184-3.968c0.007-0.11,0.011-0.222,0.01-0.334
						l-0.096-7.419c-0.268,1.239-1.082,2.284-2.177,2.863C94.096,118.081,93.443,118.258,92.751,118.266z"/>
					<path style="fill-rule:evenodd;clip-rule:evenodd;fill:#575756;" d="M166.624,76.488l-0.683,1.218l-1.494,2.665
						c-1.142,2.039-3.744,2.772-5.782,1.629l-15.321-8.585c0.281,0.292,0.609,0.548,0.98,0.756l19.572,10.968
						c0.072,0.04,0.146,0.079,0.219,0.114c2.003,0.975,4.462,0.223,5.563-1.744l2.177-3.884c1.142-2.038,0.409-4.64-1.63-5.782
						l-4.251-2.383C167.238,72.775,167.558,74.82,166.624,76.488z"/>
					<path style="fill-rule:evenodd;clip-rule:evenodd;fill:#DE9B70;" d="M142.499,120.482L142.499,120.482
						c1.032,1.101,0.978,2.844-0.122,3.877l-4.371,4.105c-1.099,1.032-2.843,0.978-3.876-0.122h-0.001
						c-1.033-1.101-0.978-2.844,0.122-3.877l4.37-4.104C139.723,119.329,141.466,119.382,142.499,120.482z"/>
					<path style="fill-rule:evenodd;clip-rule:evenodd;fill:#D88A59;" d="M114.772,127.587l2.571-2.414
						c-0.008-0.484,0.081-0.97,0.267-1.423l-0.145,0.136c-1.699,1.595-4.393,1.511-5.988-0.188c-0.26-0.277-0.475-0.581-0.646-0.901
						c-0.449-0.842-0.592-1.804-0.435-2.722l-1.423,1.336c-0.425,0.399-0.75,0.869-0.972,1.374
						c-0.664,1.509-0.411,3.341,0.784,4.613C110.379,129.097,113.074,129.182,114.772,127.587z"/>
					<path style="fill-rule:evenodd;clip-rule:evenodd;fill:#D88A59;" d="M117.343,125.173c0.013,0.863,0.334,1.725,0.969,2.399
						c1.352,1.44,3.636,1.512,5.076,0.16l0.991-0.931c-0.051-0.688,0.094-1.385,0.432-2.001c-1.3,0.452-2.808,0.135-3.807-0.929
						c-0.309-0.331-0.545-0.704-0.706-1.102c-0.037-0.092-0.07-0.185-0.1-0.278c-0.104-0.332-0.157-0.675-0.163-1.019l-1.396,1.311
						l-1.03,0.967C117.424,124.203,117.334,124.688,117.343,125.173z"/>
					<path style="fill-rule:evenodd;clip-rule:evenodd;fill:#D88A59;" d="M124.378,126.802c0.058,0.792,0.377,1.569,0.959,2.188
						c1.353,1.441,3.636,1.512,5.076,0.16l2.979-2.798c0.028-0.693,0.316-1.377,0.86-1.887l1.83-1.719
						c0-0.032,0.001-0.063,0.003-0.095l-2.98,2.798c-1.44,1.352-3.724,1.28-5.076-0.16c-0.338-0.361-0.588-0.775-0.748-1.214
						c-0.116-0.315-0.186-0.644-0.211-0.975l-0.991,0.93c-0.376,0.354-0.81,0.61-1.27,0.77
						C124.472,125.417,124.327,126.114,124.378,126.802z"/>
					<path style="fill-rule:evenodd;clip-rule:evenodd;fill:#D88A59;" d="M133.392,126.352c-0.029,0.711,0.215,1.433,0.738,1.99
						c1.033,1.099,2.778,1.154,3.877,0.122l4.371-4.105c0.567-0.533,0.857-1.256,0.861-1.981l-2.54,2.385
						c-1.1,1.033-2.844,0.978-3.877-0.122c-0.268-0.286-0.463-0.615-0.586-0.964c-0.104-0.301-0.156-0.616-0.154-0.931l-1.83,1.719
						C133.708,124.975,133.42,125.659,133.392,126.352z"/>
				</g>
				<g>
					<path style="fill-rule:evenodd;clip-rule:evenodd;fill:#595958;" d="M416.425,287.721l17.404,20.303
						c1.225,1.428,1.059,3.597-0.37,4.82l-41.503,35.581c-1.427,1.224-3.597,1.058-4.82-0.37l-17.406-20.303
						c-1.225-1.427-1.058-3.597,0.37-4.822l41.503-35.581C413.031,286.125,415.199,286.293,416.425,287.721z"/>
					<path style="fill-rule:evenodd;clip-rule:evenodd;fill:#6E6E6D;" d="M415.247,286.021l17.406,20.305
						c1.224,1.426,1.057,3.596-0.372,4.819l-41.503,35.582c-1.428,1.224-3.597,1.056-4.82-0.372l-17.405-20.303
						c-1.226-1.428-1.058-3.597,0.37-4.82l41.503-35.581C411.853,284.427,414.022,284.593,415.247,286.021z"/>
					<path style="fill-rule:evenodd;clip-rule:evenodd;fill:#97C3E2;" d="M412.53,289.369l16.398,19.128
						c0.299,0.35,0.258,0.878-0.09,1.178l-36.035,30.892c-0.349,0.299-0.879,0.259-1.177-0.09l-16.399-19.128
						c-0.299-0.349-0.258-0.879,0.09-1.178l36.035-30.893C411.702,288.978,412.232,289.022,412.53,289.369z"/>
					<path style="fill-rule:evenodd;clip-rule:evenodd;fill:#575756;" d="M381.402,330.315l2.307,2.691
						c0.299,0.348,0.259,0.879-0.091,1.176l-2.691,2.307c-0.349,0.3-0.877,0.259-1.177-0.09l-2.307-2.691
						c-0.299-0.348-0.258-0.879,0.092-1.176l2.689-2.307C380.572,329.924,381.103,329.967,381.402,330.315z"/>
					<path style="fill-rule:evenodd;clip-rule:evenodd;fill:#C6E2F8;" d="M384.173,312.581l33.576,6.6l-5.533,4.743l-33.575-6.6
						L384.173,312.581L384.173,312.581z M427.337,310.962l-33.576-6.602l-5.531,4.743l33.574,6.602L427.337,310.962z"/>
					<polygon style="fill-rule:evenodd;clip-rule:evenodd;fill:#FFFFFF;" points="390.767,309.043 400.522,308.652 400.544,317.499 
						407.957,316.603 407.598,312.807 412.473,316.836 408.441,321.709 408.096,318.052 399.097,319.14 399.076,310.164 
						390.823,310.493 					"/>
				</g>
				<g>
					<g>
						<path style="fill-rule:evenodd;clip-rule:evenodd;fill:#FFFFFF;" d="M353.884,47.444l47.645,20.573
							c1.98,0.854,2.901,3.173,2.045,5.152l-20.588,47.682l-20.725,6.926l-36.298-15.673c-1.978-0.855-2.898-3.173-2.045-5.152
							l24.813-57.465C349.586,47.509,351.903,46.589,353.884,47.444z"/>
						<path style="fill-rule:evenodd;clip-rule:evenodd;fill:#C4C4C4;" d="M383.011,120.793l-20.94,6.903l4.25-9.841
							c0.855-1.978,3.173-2.899,5.152-2.045L383.011,120.793z"/>
						<g>
							<polygon style="fill-rule:evenodd;clip-rule:evenodd;fill:#999A9A;" points="343.744,111.924 361.61,119.285 
								362.035,118.271 344.167,110.911 							"/>
							<polygon style="fill-rule:evenodd;clip-rule:evenodd;fill:#999A9A;" points="347.074,106.107 364.155,113.206 
								364.58,112.194 347.498,105.095 							"/>
							
								<rect x="356.741" y="79.761" transform="matrix(0.3864 -0.9223 0.9223 0.3864 124.6245 392.5004)" style="fill-rule:evenodd;clip-rule:evenodd;fill:#999A9A;" width="1.098" height="45.659"/>
							
								<rect x="359.288" y="73.683" transform="matrix(0.3864 -0.9223 0.9223 0.3864 131.7928 391.119)" style="fill-rule:evenodd;clip-rule:evenodd;fill:#999A9A;" width="1.098" height="45.659"/>
							
								<rect x="361.833" y="67.604" transform="matrix(0.3864 -0.9223 0.9223 0.3864 138.9557 389.7325)" style="fill-rule:evenodd;clip-rule:evenodd;fill:#999A9A;" width="1.099" height="45.659"/>
							
								<rect x="364.379" y="61.526" transform="matrix(0.3864 -0.9223 0.9223 0.3864 146.1247 388.3516)" style="fill-rule:evenodd;clip-rule:evenodd;fill:#999A9A;" width="1.098" height="45.659"/>
							
								<rect x="366.926" y="55.448" transform="matrix(0.3864 -0.9223 0.9223 0.3864 153.2955 386.9725)" style="fill-rule:evenodd;clip-rule:evenodd;fill:#999A9A;" width="1.099" height="45.659"/>
							
								<rect x="369.473" y="49.37" transform="matrix(0.3864 -0.9223 0.9223 0.3864 160.4685 385.5938)" style="fill-rule:evenodd;clip-rule:evenodd;fill:#999A9A;" width="1.099" height="45.659"/>
							
								<rect x="372.018" y="43.292" transform="matrix(0.3864 -0.9223 0.9223 0.3864 167.6295 384.2071)" style="fill-rule:evenodd;clip-rule:evenodd;fill:#999A9A;" width="1.098" height="45.659"/>
						</g>
					</g>
					<path style="fill-rule:evenodd;clip-rule:evenodd;fill:#D27084;" d="M337.001,96.693c2.118,0,4.035,0.858,5.424,2.247
						c1.389,1.388,2.247,3.306,2.247,5.424c0,2.118-0.858,4.035-2.247,5.424c-1.389,1.388-3.306,2.247-5.424,2.247
						c-2.118,0-4.036-0.858-5.425-2.247c-1.388-1.389-2.246-3.306-2.246-5.424c0-2.118,0.858-4.036,2.246-5.424
						C332.965,97.551,334.883,96.693,337.001,96.693L337.001,96.693z M340.543,100.822c-0.906-0.906-2.159-1.467-3.542-1.467
						c-1.383,0-2.636,0.561-3.543,1.467c-0.904,0.906-1.466,2.159-1.466,3.542c0,1.383,0.561,2.635,1.466,3.541
						c0.907,0.906,2.16,1.467,3.543,1.467c1.383,0,2.636-0.561,3.542-1.467c0.906-0.906,1.467-2.159,1.467-3.541
						C342.01,102.981,341.449,101.729,340.543,100.822z"/>
				</g>
				<g>
					<g>
						<polygon style="fill-rule:evenodd;clip-rule:evenodd;fill:#6E6E6D;" points="58.154,283.81 92.671,298.959 96.81,261.49 
							100.697,261.915 96.266,302.03 94.322,301.817 93.534,303.606 56.578,287.389 						"/>
						<path style="fill-rule:evenodd;clip-rule:evenodd;fill:#989898;" d="M52.396,281.682c-3.443,6.398-1.046,14.378,5.354,17.82
							l12.466-23.175C63.815,272.885,55.837,275.281,52.396,281.682z"/>
						<path style="fill-rule:evenodd;clip-rule:evenodd;fill:#AFB0B0;" d="M52.396,281.682c-2.027,3.767-2.029,8.081-0.382,11.695
							c3.954-0.684,7.546-3.16,9.501-7.013c1.885-3.715,1.838-7.9,0.236-11.416C57.902,275.611,54.388,277.976,52.396,281.682z"/>
						<path style="fill-rule:evenodd;clip-rule:evenodd;fill:#989898;" d="M98.564,255.024c7.264,0.22,12.975,6.284,12.756,13.548
							l-26.303-0.791C85.236,260.518,91.301,254.807,98.564,255.024z"/>
						<path style="fill-rule:evenodd;clip-rule:evenodd;fill:#AFB0B0;" d="M98.564,255.024c3.788,0.114,7.153,1.818,9.476,4.454
							c-2.39,2.828-5.951,4.638-9.944,4.672c-3.972,0.033-7.547-1.696-9.983-4.459C90.614,256.731,94.391,254.9,98.564,255.024z"/>
						<g>
							<path style="fill-rule:evenodd;clip-rule:evenodd;fill:#6E6E6D;" d="M88.668,338.14c2.997-1.73,6.83-0.704,8.561,2.293
								c1.73,2.998,0.703,6.831-2.294,8.562c-2.997,1.729-6.829,0.703-8.56-2.295C84.644,343.703,85.67,339.87,88.668,338.14z"/>
							<path style="fill-rule:evenodd;clip-rule:evenodd;fill:#6E6E6D;" d="M129.323,314.667c2.997-1.73,6.829-0.703,8.56,2.295
								c1.731,2.997,0.704,6.829-2.293,8.561c-2.997,1.729-6.831,0.703-8.561-2.295C125.299,320.23,126.325,316.397,129.323,314.667
								z"/>
						</g>
						<path style="fill-rule:evenodd;clip-rule:evenodd;fill:#AFB0B0;" d="M80.806,277.577
							c-15.791,9.116-21.201,29.308-12.084,45.099c9.116,15.789,29.306,21.199,45.097,12.082c15.79-9.116,21.2-29.307,12.084-45.097
							C116.787,273.87,96.595,268.461,80.806,277.577z"/>
						<path style="fill-rule:evenodd;clip-rule:evenodd;fill:#999A9A;" d="M83.548,282.327
							c-13.166,7.602-17.678,24.439-10.076,37.604c7.602,13.167,24.438,17.678,37.604,10.077
							c13.167-7.602,17.678-24.437,10.076-37.605C113.551,279.237,96.714,274.727,83.548,282.327z"/>
						<path style="fill-rule:evenodd;clip-rule:evenodd;fill:#A6D2F4;" d="M85.112,285.034c-11.672,6.739-15.67,21.662-8.932,33.333
							c6.738,11.671,21.662,15.671,33.332,8.932c11.671-6.737,15.67-21.661,8.932-33.331
							C111.706,282.295,96.782,278.298,85.112,285.034z"/>
						<path style="fill-rule:evenodd;clip-rule:evenodd;fill:#C6E2F8;" d="M90.352,329.554l17.082-45.59
							c2.287,1.04,4.424,2.438,6.321,4.168l-15.9,42.435C95.308,330.62,92.775,330.274,90.352,329.554L90.352,329.554z
							 M79.289,322.621c1.78,1.955,3.836,3.571,6.074,4.824l16.923-45.165c-2.529-0.526-5.146-0.656-7.748-0.359L79.289,322.621z"/>
						<path style="fill-rule:evenodd;clip-rule:evenodd;fill:#FFFFFF;" d="M86.491,294.075c-0.758-1.311-0.308-2.99,1.005-3.748
							c1.312-0.757,2.99-0.308,3.748,1.005l8.379,14.515c0.421,0.727,0.469,1.569,0.205,2.303l-4.128,14.805
							c-0.404,1.457-1.911,2.31-3.367,1.907c-1.456-0.402-2.31-1.91-1.906-3.367l3.873-13.893L86.491,294.075z"/>
					</g>
					<path style="fill-rule:evenodd;clip-rule:evenodd;fill:#858584;" d="M131.506,315.7c1.597-0.65,3.639-0.266,4.56,0.862
						c0.922,1.128,0.374,2.569-1.222,3.22c-1.596,0.653-3.638,0.266-4.56-0.862C129.363,317.793,129.909,316.35,131.506,315.7z"/>
					<path style="fill-rule:evenodd;clip-rule:evenodd;fill:#858584;" d="M86.664,344.499c-0.343-1.69,0.416-3.626,1.696-4.321
						c1.28-0.695,2.595,0.11,2.937,1.8c0.343,1.69-0.416,3.623-1.696,4.321C88.322,346.994,87.007,346.188,86.664,344.499z"/>
				</g>
				<g>
					<path style="fill-rule:evenodd;clip-rule:evenodd;fill:#595958;" d="M392.795,262.59l28.268-6.439
						c1.326-0.303,3.232-3.019,0.891-4.258l-69.499-36.85c-2.34-1.242-5.221-2.039-6.563-1.822l-27.44,4.414
						c-0.465,1.135-2.75,2.855,0.976,4.981l66.805,38.149C388.531,262.081,391.469,262.893,392.795,262.59z"/>
					<path style="fill-rule:evenodd;clip-rule:evenodd;fill:#595958;" d="M454.243,200.425l-27.48,49.219
						c-1.288,2.308-4.255,3.11-6.553,1.807l-66.74-37.899c-2.299-1.305-3.097-4.246-1.807-6.552l26.464-47.286
						c1.291-2.307,4.218-3.045,6.552-1.807l67.758,35.965C454.771,195.112,455.532,198.118,454.243,200.425z"/>
					<path style="fill-rule:evenodd;clip-rule:evenodd;fill:#6E6E6D;" d="M394.171,260.096l28.269-6.44
						c1.325-0.303,0.497-1.644-1.804-2.956l-66.806-38.15c-2.3-1.313-5.236-2.124-6.563-1.823l-28.269,6.441
						c-1.326,0.302-0.498,1.642,1.804,2.956l66.804,38.15C389.908,259.588,392.845,260.397,394.171,260.096z"/>
					<path style="fill-rule:evenodd;clip-rule:evenodd;fill:#858584;" d="M393.455,256.275l3.208-0.73l-5.408-3.146l-3.956,1.225
						l2.234,1.277C390.419,255.407,392.431,256.265,393.455,256.275L393.455,256.275z M389.565,251.416l-3.977,1.232l-4.273-2.44
						l4.028-1.248L389.565,251.416L389.565,251.416z M383.654,247.977c-13.446-7.821-24.624-14.323-37.847-22.014l-4.502,1.395
						l38.301,21.872L383.654,247.977L383.654,247.977z M344.119,224.982l-4.522,1.401l-4.273-2.441l4.574-1.416L344.119,224.982
						L344.119,224.982z M338.208,221.543l-5.893-3.427l-5.143,1.172l6.442,3.679L338.208,221.543L338.208,221.543z M398.118,255.213
						l-5.543-3.224l3.987-1.234l5.945,3.458L398.118,255.213L398.118,255.213z M394.873,249.773l-4.222-2.457l-3.987,1.235
						l4.222,2.457L394.873,249.773L394.873,249.773z M388.962,246.334l-3.987,1.235l-5.516-3.208l3.987-1.235L388.962,246.334
						L388.962,246.334z M381.757,242.144l-3.987,1.234l-4.422-2.573l3.985-1.235L381.757,242.144L381.757,242.144z M375.644,238.588
						l-3.986,1.235l-5.456-3.174l3.986-1.234L375.644,238.588L375.644,238.588z M368.498,234.432l-3.986,1.234l-4.768-2.773
						l3.987-1.235L368.498,234.432L368.498,234.432z M362.042,230.676l-3.987,1.234l-4.251-2.473l3.985-1.235L362.042,230.676
						L362.042,230.676z M356.102,227.22l-3.987,1.235l-4.986-2.9l3.987-1.235L356.102,227.22L356.102,227.22z M349.427,223.338
						l-4.223-2.456l-3.987,1.235l4.224,2.456L349.427,223.338L349.427,223.338z M343.515,219.9l-3.985,1.234l-5.761-3.35l4.391-1
						L343.515,219.9L343.515,219.9z M403.961,253.882l4.402-1.003l-6.483-3.771l-3.998,1.238L403.961,253.882L403.961,253.882z
						 M400.192,248.125l-3.999,1.239l-4.223-2.456l3.998-1.239L400.192,248.125L400.192,248.125z M394.279,244.687l-5.514-3.208
						l-3.999,1.239l5.516,3.208L394.279,244.687L394.279,244.687z M387.076,240.496l-3.999,1.238l-4.424-2.572l3.999-1.239
						L387.076,240.496L387.076,240.496z M380.963,236.94l-3.999,1.238l-5.456-3.173l3.998-1.238L380.963,236.94L380.963,236.94z
						 M373.817,232.784l-3.999,1.239l-4.769-2.774l3.999-1.238L373.817,232.784L373.817,232.784z M367.36,229.028l-3.998,1.239
						l-4.253-2.474l3.999-1.238L367.36,229.028L367.36,229.028z M361.419,225.573l-3.997,1.238l-4.986-2.899l3.999-1.239
						L361.419,225.573L361.419,225.573z M354.745,221.69l-3.999,1.239l-4.222-2.456l3.999-1.238L354.745,221.69L354.745,221.69z
						 M348.834,218.252l-4.818-2.802l-4.401,1.002l5.221,3.038L348.834,218.252L348.834,218.252z M409.818,252.548l-6.617-3.849
						l3.954-1.226l7.111,4.061L409.818,252.548L409.818,252.548z M405.446,246.498l-4.273-2.441l-3.883,1.202l4.223,2.457
						L405.446,246.498L405.446,246.498z M399.465,243.081l-3.863,1.197l-5.516-3.208l3.797-1.177L399.465,243.081L399.465,243.081z
						 M392.173,238.917l-4.476-2.557l-3.725,1.153l4.424,2.573L392.173,238.917L392.173,238.917z M385.987,235.385l-3.704,1.146
						l-5.456-3.174l3.637-1.126L385.987,235.385L385.987,235.385z M378.755,231.255l-3.618,1.121l-4.768-2.774l3.562-1.102
						L378.755,231.255L378.755,231.255z M372.221,227.523l-3.539,1.096l-4.253-2.473l3.489-1.081L372.221,227.523L372.221,227.523z
						 M366.209,224.089l-5.045-2.881l-3.409,1.056l4.984,2.899L366.209,224.089L366.209,224.089z M359.453,220.232l-4.272-2.439
						l-3.338,1.033l4.222,2.456L359.453,220.232L359.453,220.232z M353.472,216.816l-3.317,1.027l-4.685-2.725l2.514-0.573
						c1.024,0.012,3.036,0.869,3.923,1.375L353.472,216.816z"/>
					<polygon style="fill-rule:evenodd;clip-rule:evenodd;fill:#ADCDE5;" points="449.359,198.249 382.505,162.796 356.549,209.176 
						422.385,246.561 					"/>
					<path style="fill-rule:evenodd;clip-rule:evenodd;fill:#97C3E2;" d="M440.64,193.626c-9.874,2.983-22.265,5.365-36.878,5.785
						c-11.842,0.34-25.143-0.609-39.749-3.571l-7.464,13.336l36.835,20.918l29.001,16.468l26.975-48.313L440.64,193.626z"/>
					<path style="fill-rule:evenodd;clip-rule:evenodd;fill:#C6E2F8;" d="M374.302,219.257l59.572-29.22l8.055,4.271l-59.857,29.36
						L374.302,219.257L374.302,219.257z M427.971,186.906l-8.055-4.271l-59.077,28.977l7.768,4.412L427.971,186.906z"/>
					<g>
						<polygon style="fill-rule:evenodd;clip-rule:evenodd;fill:#FFFFFF;" points="388.515,200.308 403.565,196.815 406.216,210.56 
							417.475,206.972 415.791,201.176 424.56,205.998 419.737,214.766 418.116,209.183 404.452,213.536 401.762,199.591 
							389.032,202.546 						"/>
						<g>
							
								<rect x="366.851" y="196.056" transform="matrix(0.4819 -0.8762 0.8762 0.4819 26.2377 439.3702)" style="fill-rule:evenodd;clip-rule:evenodd;fill:#FFFFFF;" width="35.634" height="2.883"/>
							
								<rect x="395.138" y="187.107" transform="matrix(0.4819 -0.8762 0.8762 0.4819 17.8864 458.404)" style="fill-rule:evenodd;clip-rule:evenodd;fill:#FFFFFF;" width="2.883" height="53.939"/>
						</g>
					</g>
				</g>
			</g>
			<circle style="fill-rule:evenodd;clip-rule:evenodd;fill:#FFFFFF;" cx="84.87" cy="149.388" r="4.445"/>
			<path style="fill-rule:evenodd;clip-rule:evenodd;fill:#FFFFFF;" d="M206.47,76.427c4.033,0,7.321-3.289,7.321-7.322
				c0-4.032-3.289-7.321-7.321-7.321c-4.033,0-7.322,3.289-7.322,7.321C199.147,73.138,202.436,76.427,206.47,76.427z"/>
			<circle style="fill-rule:evenodd;clip-rule:evenodd;fill:#FFFFFF;" cx="185.158" cy="87.28" r="3.53"/>
			<path style="fill-rule:evenodd;clip-rule:evenodd;fill:#FFFFFF;" d="M388.086,137.88c1.944,0,3.53-1.585,3.53-3.53
				c0-1.944-1.586-3.53-3.53-3.53c-1.944,0-3.53,1.586-3.53,3.53C384.556,136.295,386.142,137.88,388.086,137.88z"/>
			<path style="fill-rule:evenodd;clip-rule:evenodd;fill:#FFFFFF;" d="M441.434,260.266c1.944,0,3.53-1.586,3.53-3.53
				c0-1.944-1.586-3.53-3.53-3.53s-3.53,1.586-3.53,3.53C437.903,258.68,439.489,260.266,441.434,260.266z"/>
			<path style="fill-rule:evenodd;clip-rule:evenodd;fill:#FFFFFF;" d="M402.729,358.069c1.944,0,3.531-1.586,3.531-3.531
				c0-1.943-1.587-3.53-3.531-3.53s-3.53,1.587-3.53,3.53C399.199,356.483,400.785,358.069,402.729,358.069z"/>
			<path style="fill-rule:evenodd;clip-rule:evenodd;fill:#FFFFFF;" d="M340.753,271.771c1.945,0,3.53-1.584,3.53-3.53
				c0-1.942-1.585-3.53-3.53-3.53c-1.943,0-3.53,1.588-3.53,3.53C337.223,270.186,338.81,271.771,340.753,271.771z"/>
			<path style="fill-rule:evenodd;clip-rule:evenodd;fill:#FFFFFF;" d="M141.224,261.313c1.945,0,3.53-1.587,3.53-3.53
				c0-1.945-1.585-3.53-3.53-3.53c-1.944,0-3.53,1.585-3.53,3.53C137.694,259.726,139.28,261.313,141.224,261.313z"/>
			<path style="fill-rule:evenodd;clip-rule:evenodd;fill:#FFFFFF;" d="M163.06,233.396c-1.715,0-3.269,0.696-4.392,1.819
				c-1.124,1.124-1.819,2.676-1.819,4.392c0,1.715,0.695,3.268,1.819,4.392c1.123,1.124,2.676,1.818,4.392,1.818
				c1.714,0,3.268-0.695,4.391-1.818c1.124-1.124,1.82-2.677,1.82-4.392c0-1.714-0.696-3.268-1.82-4.392
				C166.328,234.092,164.774,233.396,163.06,233.396L163.06,233.396z M157.096,233.644c1.526-1.526,3.635-2.471,5.964-2.471
				c2.328,0,4.437,0.944,5.963,2.471c1.526,1.525,2.47,3.634,2.47,5.963c0,2.33-0.943,4.438-2.47,5.964
				c-1.526,1.526-3.635,2.47-5.963,2.47c-2.329,0-4.438-0.944-5.964-2.47c-1.526-1.526-2.471-3.634-2.471-5.964
				C154.625,237.278,155.57,235.169,157.096,233.644z"/>
			<path style="fill-rule:evenodd;clip-rule:evenodd;fill:#FFFFFF;" d="M76.894,366.438c1.944,0,3.53-1.586,3.53-3.53
				c0-1.946-1.586-3.53-3.53-3.53c-1.944,0-3.53,1.584-3.53,3.53C73.363,364.852,74.949,366.438,76.894,366.438z"/>
			<path style="fill-rule:evenodd;clip-rule:evenodd;fill:#FFFFFF;" d="M85.785,220.517c1.945,0,3.53-1.585,3.53-3.53
				c0-1.944-1.585-3.53-3.53-3.53c-1.944,0-3.53,1.587-3.53,3.53C82.254,218.932,83.841,220.517,85.785,220.517z"/>
			<path style="fill-rule:evenodd;clip-rule:evenodd;fill:#FFFFFF;" d="M101.344,141.346c-1.715,0-3.268,0.695-4.391,1.819
				c-1.123,1.125-1.819,2.677-1.819,4.392c0,1.715,0.695,3.268,1.819,4.391c1.124,1.124,2.676,1.819,4.391,1.819
				c1.716,0,3.269-0.695,4.392-1.819c1.124-1.123,1.819-2.676,1.819-4.391c0-1.715-0.695-3.268-1.819-4.392
				C104.612,142.042,103.06,141.346,101.344,141.346L101.344,141.346z M95.381,141.593c1.526-1.526,3.635-2.47,5.963-2.47
				c2.329,0,4.438,0.944,5.964,2.47c1.526,1.526,2.47,3.634,2.47,5.963c0,2.329-0.944,4.438-2.47,5.964
				c-1.526,1.527-3.635,2.47-5.964,2.47c-2.328,0-4.437-0.943-5.963-2.47c-1.526-1.526-2.471-3.635-2.471-5.964
				C92.91,145.227,93.854,143.119,95.381,141.593z"/>
			<path style="fill-rule:evenodd;clip-rule:evenodd;fill:#FFFFFF;" d="M404.691,109.965c-1.715,0-3.268,0.696-4.392,1.819
				c-1.123,1.124-1.818,2.676-1.818,4.393c0,1.714,0.695,3.267,1.818,4.391c1.124,1.125,2.677,1.819,4.392,1.819
				c1.715,0,3.269-0.694,4.392-1.819c1.124-1.124,1.818-2.676,1.818-4.391c0-1.716-0.694-3.268-1.818-4.393
				C407.96,110.661,406.406,109.965,404.691,109.965L404.691,109.965z M398.728,110.212c1.526-1.526,3.634-2.471,5.963-2.471
				c2.329,0,4.438,0.944,5.964,2.471c1.526,1.526,2.47,3.635,2.47,5.964c0,2.329-0.943,4.436-2.47,5.963
				c-1.526,1.526-3.635,2.47-5.964,2.47c-2.329,0-4.436-0.944-5.963-2.47c-1.526-1.526-2.472-3.634-2.472-5.963
				C396.257,113.848,397.202,111.739,398.728,110.212z"/>
			<path style="fill-rule:evenodd;clip-rule:evenodd;fill:#FFFFFF;" d="M336.699,246.995c-1.715,0-3.268,0.696-4.392,1.819
				c-1.123,1.124-1.818,2.677-1.818,4.393c0,1.715,0.695,3.268,1.818,4.391c1.124,1.123,2.677,1.818,4.392,1.818
				c1.715,0,3.268-0.695,4.392-1.818c1.124-1.123,1.819-2.676,1.819-4.391c0-1.716-0.695-3.269-1.819-4.393
				C339.967,247.691,338.414,246.995,336.699,246.995L336.699,246.995z M330.735,247.242c1.527-1.526,3.637-2.471,5.964-2.471
				c2.329,0,4.439,0.944,5.965,2.471c1.525,1.526,2.47,3.634,2.47,5.964c0,2.328-0.944,4.436-2.47,5.962
				c-1.526,1.526-3.636,2.472-5.965,2.472c-2.327,0-4.436-0.945-5.964-2.472c-1.526-1.526-2.47-3.634-2.47-5.962
				C328.266,250.876,329.209,248.768,330.735,247.242z"/>
			<path style="fill-rule:evenodd;clip-rule:evenodd;fill:#FFFFFF;" d="M450.192,228.167c-1.714,0-3.268,0.695-4.39,1.819
				c-1.124,1.124-1.819,2.676-1.819,4.392c0,1.715,0.695,3.268,1.819,4.391c1.122,1.124,2.676,1.82,4.39,1.82
				c1.715,0,3.27-0.696,4.393-1.82c1.122-1.123,1.818-2.675,1.818-4.391c0-1.715-0.696-3.268-1.818-4.392
				C453.462,228.862,451.907,228.167,450.192,228.167L450.192,228.167z M444.229,228.413c1.526-1.526,3.636-2.47,5.963-2.47
				c2.329,0,4.439,0.943,5.965,2.47c1.526,1.526,2.471,3.635,2.471,5.964c0,2.328-0.944,4.437-2.471,5.963
				c-1.526,1.527-3.636,2.471-5.965,2.471c-2.327,0-4.436-0.944-5.963-2.471c-1.525-1.526-2.47-3.635-2.47-5.963
				C441.76,232.048,442.704,229.939,444.229,228.413z"/>
			<path style="fill-rule:evenodd;clip-rule:evenodd;fill:#FFFFFF;" d="M422.997,337.476c-1.715,0-3.268,0.695-4.392,1.819
				c-1.124,1.125-1.818,2.678-1.818,4.392c0,1.715,0.694,3.268,1.818,4.391c1.124,1.125,2.677,1.819,4.392,1.819
				c1.714,0,3.267-0.694,4.391-1.819c1.125-1.123,1.818-2.676,1.818-4.391c0-1.714-0.693-3.267-1.818-4.392
				C426.264,338.171,424.711,337.476,422.997,337.476L422.997,337.476z M417.034,337.723c1.525-1.526,3.633-2.471,5.963-2.471
				c2.327,0,4.438,0.944,5.964,2.471c1.526,1.526,2.47,3.635,2.47,5.964c0,2.328-0.943,4.438-2.47,5.965
				c-1.526,1.524-3.637,2.469-5.964,2.469c-2.33,0-4.438-0.944-5.963-2.469c-1.526-1.527-2.472-3.637-2.472-5.965
				C414.563,341.357,415.508,339.249,417.034,337.723z"/>
			<path style="fill-rule:evenodd;clip-rule:evenodd;fill:#FFFFFF;" d="M64.733,336.953c-1.715,0-3.268,0.695-4.391,1.818
				c-1.124,1.125-1.819,2.678-1.819,4.393c0,1.715,0.695,3.268,1.819,4.391c1.124,1.124,2.676,1.819,4.391,1.819
				c1.715,0,3.268-0.695,4.392-1.819c1.123-1.123,1.819-2.676,1.819-4.391c0-1.715-0.696-3.268-1.819-4.393
				C68.002,337.648,66.449,336.953,64.733,336.953L64.733,336.953z M58.77,337.2c1.526-1.526,3.635-2.472,5.964-2.472
				s4.437,0.945,5.963,2.472c1.526,1.525,2.471,3.635,2.471,5.964c0,2.328-0.944,4.436-2.471,5.963
				c-1.526,1.526-3.635,2.47-5.963,2.47s-4.438-0.943-5.964-2.47c-1.526-1.526-2.47-3.635-2.47-5.963
				C56.3,340.835,57.244,338.726,58.77,337.2z"/>
			<path style="fill-rule:evenodd;clip-rule:evenodd;fill:#FFFFFF;" d="M140.767,233.331c0-0.615,0.498-1.111,1.112-1.111
				c0.615,0,1.112,0.497,1.112,1.111v3.203h3.203c0.614,0,1.112,0.497,1.112,1.112c0,0.614-0.498,1.112-1.112,1.112h-3.203v3.203
				c0,0.614-0.497,1.112-1.112,1.112c-0.614,0-1.112-0.498-1.112-1.112v-3.203h-3.203c-0.614,0-1.112-0.498-1.112-1.112
				c0-0.615,0.498-1.112,1.112-1.112h3.203V233.331z"/>
			<path style="fill-rule:evenodd;clip-rule:evenodd;fill:#FFFFFF;" d="M329.575,58.122c0-0.614,0.496-1.112,1.111-1.112
				c0.614,0,1.111,0.499,1.111,1.112v3.203h3.203c0.614,0,1.112,0.498,1.112,1.111c0,0.615-0.498,1.112-1.112,1.112h-3.203v3.203
				c0,0.614-0.497,1.111-1.111,1.111c-0.615,0-1.111-0.498-1.111-1.111v-3.203h-3.204c-0.614,0-1.111-0.498-1.111-1.112
				c0-0.614,0.497-1.111,1.111-1.111h3.204V58.122z"/>
			<path style="fill-rule:evenodd;clip-rule:evenodd;fill:#FFFFFF;" d="M185.746,60.214c0-0.614,0.498-1.112,1.112-1.112
				c0.614,0,1.112,0.499,1.112,1.112v3.203h3.203c0.615,0,1.112,0.498,1.112,1.111s-0.498,1.112-1.112,1.112h-3.203v3.203
				c0,0.614-0.497,1.112-1.112,1.112c-0.615,0-1.112-0.498-1.112-1.112v-3.203h-3.203c-0.614,0-1.112-0.498-1.112-1.112
				s0.497-1.111,1.112-1.111h3.203V60.214z"/>
			<path style="fill-rule:evenodd;clip-rule:evenodd;fill:#FFFFFF;" d="M459.281,247.976c0-0.615,0.499-1.111,1.112-1.111
				c0.613,0,1.112,0.496,1.112,1.111v3.203h3.203c0.613,0,1.111,0.498,1.111,1.112c0,0.613-0.498,1.112-1.111,1.112h-3.203v3.201
				c0,0.615-0.499,1.111-1.112,1.111c-0.613,0-1.112-0.496-1.112-1.111v-3.201h-3.202c-0.615,0-1.112-0.499-1.112-1.112
				c0-0.614,0.497-1.112,1.112-1.112h3.202V247.976z"/>
			<path style="fill-rule:evenodd;clip-rule:evenodd;fill:#FFFFFF;" d="M95.788,358.853c0-0.613,0.497-1.112,1.112-1.112
				c0.614,0,1.111,0.499,1.111,1.112v3.204h3.203c0.614,0,1.112,0.497,1.112,1.112c0,0.613-0.498,1.112-1.112,1.112h-3.203v3.2
				c0,0.616-0.498,1.112-1.111,1.112c-0.615,0-1.112-0.496-1.112-1.112v-3.2h-3.203c-0.614,0-1.111-0.499-1.111-1.112
				c0-0.615,0.498-1.112,1.111-1.112h3.203V358.853z"/>
			<path style="fill-rule:evenodd;clip-rule:evenodd;fill:#FFFFFF;" d="M414.825,361.992c0-0.614,0.498-1.112,1.112-1.112
				c0.614,0,1.112,0.498,1.112,1.112v3.203h3.202c0.614,0,1.112,0.499,1.112,1.111c0,0.613-0.498,1.112-1.112,1.112h-3.202v3.204
				c0,0.613-0.498,1.11-1.112,1.11c-0.614,0-1.112-0.497-1.112-1.11v-3.204h-3.202c-0.614,0-1.112-0.499-1.112-1.112
				c0-0.612,0.498-1.111,1.112-1.111h3.202V361.992z"/>
			<path style="fill-rule:evenodd;clip-rule:evenodd;fill:#FFFFFF;" d="M358.536,260.07c0.615,0,1.112,0.497,1.112,1.112
				c0,0.613-0.497,1.111-1.112,1.111h-3.202v3.202c0,0.614-0.498,1.112-1.112,1.112c-0.614,0-1.112-0.498-1.112-1.112v-3.202h-3.202
				c-0.614,0-1.112-0.498-1.112-1.111c0-0.615,0.498-1.112,1.112-1.112h3.202v-3.203c0-0.615,0.498-1.112,1.112-1.112
				c0.614,0,1.112,0.497,1.112,1.112v3.203H358.536z"/>
		</g>
	</g>
</g>
</svg>
